<svg version="1.2" baseProfile="tiny" viewBox="0 0 24 24" xmlns:xlink="http://www.w3.org/1999/xlink" xmlns="http://www.w3.org/2000/svg">
<path style="fill:#ffffff;" d="M6.4,9.1C6.4,9,6.3,9,6.2,9C6,9,5.8,9.1,5.8,9.3v1.3
		c-4.9,0-5.5,2.4-5.5,4.8c0,0.8,0.9,0.7,0.9,0c0-2.3,2.1-2.6,4.5-2.7v1.4c0,0.1,0,0.2,0.1,0.2c0.1,0.2,0.4,0.2,0.5,0L9.2,12
		c0,0,0,0,0,0c0.1-0.2,0.1-0.4,0-0.5L6.4,9.1L6.4,9.1z M14.4,13.4h-2.2l0.1-0.1l1-1.4c0.5-0.6,0.9-1.3,1.4-1.9
		c0.2-0.2,0.2-0.6,0-0.8C14.7,9,14.5,9,14.4,9h-2l0,0h-0.7c-0.2,0-0.4,0.1-0.5,0.2C11,9.4,11,9.6,11.1,9.7c0.1,0.2,0.3,0.4,0.6,0.3
		h1.7l-0.1,0.1l-0.8,1.1c-0.5,0.7-1.1,1.5-1.6,2.2c-0.1,0.2-0.2,0.4-0.1,0.6c0.1,0.2,0.3,0.3,0.5,0.3h3.1c0.1,0,0.2,0,0.2,0
		c0.3-0.1,0.4-0.4,0.3-0.7C14.9,13.5,14.7,13.3,14.4,13.4L14.4,13.4z M17.6,11.3l0.4-0.6c0.4-0.6,0.8-1.1,1.1-1.7
		c0.1-0.2,0.1-0.4,0-0.6c-0.1-0.2-0.3-0.3-0.4-0.3c-0.3,0-0.6,0-0.9,0c-0.4,0-0.8,0-1.1,0c-0.1,0-0.3,0.1-0.4,0.2
		c-0.1,0.1-0.1,0.2-0.1,0.4c0,0.3,0.3,0.5,0.5,0.5h0.3l0,0h0.6l-0.1,0.1l-1.5,2.3c-0.1,0.2-0.1,0.4,0,0.6c0.1,0.2,0.3,0.3,0.4,0.3
		c0.3,0,0.7,0,1,0c0.3,0,0.7,0,1.2,0c0.1,0,0.3-0.1,0.4-0.2c0.1-0.1,0.1-0.3,0.1-0.4c0-0.3-0.3-0.4-0.6-0.4h-1.1L17.6,11.3
		L17.6,11.3z M22.8,10.3h-0.7l1.1-1.9c0.1-0.2,0.1-0.4,0-0.5c-0.1-0.2-0.3-0.3-0.5-0.3c-0.2,0-0.5,0-0.8,0c-0.2,0-0.4,0-0.7,0
		c-0.3,0-0.5,0.2-0.5,0.5c0,0.3,0.2,0.5,0.5,0.5h0.5l0,0l-0.1,0.2l-0.6,1l-0.4,0.7c-0.2,0.2-0.1,0.6,0.1,0.7
		c0.1,0.1,0.2,0.1,0.3,0.1h1.5c0.2,0,0.3-0.1,0.4-0.2c0.1-0.1,0.1-0.2,0.1-0.4C23.3,10.5,23.1,10.3,22.8,10.3L22.8,10.3z"/>
</svg>