<svg version="1.2" baseProfile="tiny" viewBox="0 0 24 24" xmlns:xlink="http://www.w3.org/1999/xlink" xmlns="http://www.w3.org/2000/svg">
<path style="fill:#ffffff;" d="M21.9,3.2c-3-2.8-7.6-1.8-9.9,1.4C6-3.2-4.3,5.4,1.9,12.7c0,0,9.1,9.4,9.1,9.4
		c0.6,0.6,1.5,0.6,2.1,0c0,0,9.1-9.4,9.1-9.4C24.7,10,24.6,5.7,21.9,3.2z M21,11.6l-9,9.3l-8.1-8.4h2.9C7,12.9,7.9,16.1,8.5,16
		l0.2,0c0.3,0,0.6-0.2,0.7-0.5l1.2-5l1.3,6.9c0.1,0.3,0.3,0.5,0.6,0.6c0.3,0,0.6-0.2,0.7-0.4l2-4.9h1c0.3,0.8,1.2,1.2,2,0.8
		c1.4-0.6,0.9-2.8-0.6-2.7c-0.5,0-0.9,0.2-1.2,0.5c-0.5,0.1-2.1-0.3-2.3,0.4c0,0-1.2,3.1-1.2,3.1l-1.4-7.6c-0.1-0.7-1.2-0.8-1.4,0
		c0,0-1.5,6-1.5,6c-0.3-0.4-0.5-2-1.2-1.9c0,0-4.7,0-4.7,0C1,9.1,1.2,6.1,3.1,4.3c3-2.5,6-0.9,8.2,1.8c0.4,0.4,1,0.4,1.4,0L14,4.7
		C18.7-0.2,25.5,6.8,21,11.6L21,11.6z"/>
</svg>