<svg width="136" height="138" xmlns="http://www.w3.org/2000/svg" xmlns:xlink="http://www.w3.org/1999/xlink" xml:space="preserve" overflow="hidden"><g transform="translate(-3318 -2049)"><path d="M3385.57 2052.5C3410.91 2052.5 3431.45 2076.61 3431.45 2106.36L3431.45 2128.46 3431.61 2128.49C3443.28 2131.86 3450.5 2136.5 3450.5 2141.63L3450.5 2160.22 3410.89 2160.22 3409.6 2167.16C3405.85 2176.76 3397.08 2183.5 3386.86 2183.5 3376.64 2183.5 3367.87 2176.76 3364.13 2167.16L3362.84 2160.22 3321.5 2160.22 3321.5 2141.63C3321.5 2139.07 3323.3 2136.62 3326.57 2134.4L3339.68 2128.8 3339.68 2106.36C3339.68 2076.61 3360.23 2052.5 3385.57 2052.5Z" stroke="#000000" stroke-width="6.875" stroke-miterlimit="8" fill="none" fill-rule="evenodd"/><path d="M3363.5 2159.5 3411.2 2159.5" stroke="#000000" stroke-width="6.875" stroke-miterlimit="8" fill="none" fill-rule="evenodd"/></g></svg>