<svg xmlns="http://www.w3.org/2000/svg"
     width="800"
     height="800"
     viewBox="0 0 512 512"
     version="1.2"
     baseProfile="tiny">
  <path fill="#000"
        fill-rule="evenodd"
        d="M298.667 384c0 23.564-19.103 42.667-42.667 42.667S213.333 407.564 213.333 384zM256 42.667c-82.56 0-149.333 76.373-149.333 170.666v48.854L64 384h106.667c0 47.128 38.205 85.333 85.333 85.333s85.333-38.205 85.333-85.333H448l-42.667-121.813V219.52c0-80.853-47.146-154.88-116.266-170.667A138.7 138.7 0 0 0 256 42.667M124.16 341.333l22.827-64 2.346-7.893v-56.107c0-70.613 47.787-128 106.667-128 7.694-.012 15.36.92 22.827 2.774 47.786 11.733 83.84 67.84 83.84 130.346v50.987l2.346 6.827 22.827 65.066z"/>
</svg>
