<svg width="74" height="74" xmlns="http://www.w3.org/2000/svg" xmlns:xlink="http://www.w3.org/1999/xlink" xml:space="preserve" overflow="hidden"><defs><clipPath id="clip0"><path d="M621.342 214.277 587.19 248.007 548.776 209.111 582.928 175.382Z" fill-rule="evenodd" clip-rule="evenodd"/></clipPath><clipPath id="clip1"><path d="M621.342 214.277 587.19 248.007 548.776 209.111 582.928 175.382Z" fill-rule="evenodd" clip-rule="evenodd"/></clipPath><clipPath id="clip2"><path d="M621.342 214.277 587.19 248.007 548.776 209.111 582.928 175.382Z" fill-rule="evenodd" clip-rule="evenodd"/></clipPath></defs><g transform="translate(-548 -175)"><g clip-path="url(#clip0)"><g clip-path="url(#clip1)"><g clip-path="url(#clip2)"><path d="M0.974983 49.8509C1.51345 49.8509 1.94997 49.4144 1.94997 48.8759L1.94997 42.051C1.95055 41.0682 2.33955 40.1255 3.0322 39.4283L17.9202 24.5891C18.2982 24.2088 18.2982 23.5946 17.9202 23.2143 17.541 22.8321 16.9237 22.8295 16.5414 23.2087 16.5395 23.2105 16.5376 23.2125 16.5357 23.2143L1.65747 38.1023C0.595346 39.1654-0.000884219 40.6068 4.64908e-08 42.1095L0 48.9344C0 49.4729 0.436514 49.9094 0.974983 49.9094Z" fill="#231F20" transform="matrix(-0.711495 0.702691 -0.712983 -0.721916 621.331 214.288)"/><path d="M26.0613 0 32.8862 6.82488 19.3144 20.4746C18.9364 20.8549 18.9364 21.4691 19.3144 21.8494 19.6936 22.2317 20.3109 22.2342 20.6932 21.855 20.6951 21.8532 20.697 21.8512 20.6989 21.8494L35.6551 6.82488 30.7802 1.94997 46.0192 1.94997 46.0192 17.2084 40.9493 12.1678 1.22848 52.2006C0.835396 52.5829 0.826666 53.2114 1.20898 53.6046 1.59129 53.9977 2.21987 54.0063 2.61295 53.6241L40.9493 14.9367 47.9302 21.9079 47.9302 0Z" fill="#231F20" transform="matrix(-0.711495 0.702691 -0.712983 -0.721916 621.331 214.288)"/></g></g></g></g></svg>