<svg version="1.2" baseProfile="tiny" viewBox="0 0 18.000 17.854" xmlns:xlink="http://www.w3.org/1999/xlink" xmlns="http://www.w3.org/2000/svg">
<path style="fill:#ffffff;" d="M14.085,8.445c0.003-0.064,0.007-0.13,0.007-0.192   c0-2.4-1.944-4.343-4.344-4.343c-0.044,0-0.089,0.002-0.133,0.003c0.236-1.544,1.719-2.734,3.514-2.734   c1.959,0,3.549,1.417,3.549,3.164H18C18,1.945,15.819,0,13.129,0c-2.623,0-4.763,1.85-4.865,4.168   C6.597,4.776,5.405,6.375,5.405,8.253c0,1.111,0.419,2.127,1.106,2.894c-1.168,0.617-2.74,0.434-3.913-0.57   c-1.49-1.275-1.776-3.385-0.641-4.711L0.955,5.006c-1.56,1.823-1.167,4.717,0.878,6.466c1.745,1.493,4.128,1.664,5.759,0.549   c0.635,0.365,1.371,0.575,2.156,0.575c1.866,0,3.457-1.178,4.071-2.83c1.208,0.617,1.952,2.066,1.748,3.64   c-0.256,1.94-1.868,3.332-3.6,3.105l-0.172,1.311c2.377,0.313,4.59-1.598,4.939-4.265C17.031,11.295,15.892,9.212,14.085,8.445z    M9.748,11.417c-1.748,0-3.164-1.418-3.164-3.164c0-1.749,1.417-3.164,3.164-3.164c1.748,0,3.165,1.415,3.165,3.164   C12.913,9.999,11.496,11.417,9.748,11.417z"/>
</svg>