<svg width="63" height="63" xmlns="http://www.w3.org/2000/svg" xmlns:xlink="http://www.w3.org/1999/xlink" xml:space="preserve" overflow="hidden"><g transform="translate(-483 -484)"><path d="M487.594 524.031 536.655 524.031 530.828 518.204C530.086 517.408 530.13 516.162 530.926 515.421 531.682 514.717 532.854 514.717 533.61 515.421L542.797 524.609C543.565 525.377 543.565 526.623 542.797 527.391L533.61 536.579C532.841 537.346 531.596 537.346 530.828 536.579 530.06 535.81 530.06 534.565 530.828 533.796L536.655 527.969 487.594 527.969C486.506 527.969 485.625 527.087 485.625 526 485.625 524.913 486.506 524.031 487.594 524.031Z" stroke="#000000" stroke-width="0.65625"/><path d="M541.406 503.031 492.345 503.031 498.172 497.204C498.968 496.463 499.012 495.217 498.271 494.421 497.53 493.626 496.284 493.582 495.488 494.323 495.454 494.355 495.422 494.387 495.39 494.421L486.203 503.609C485.435 504.377 485.435 505.623 486.203 506.391L495.39 515.579C496.159 516.346 497.404 516.346 498.172 515.579 498.94 514.81 498.94 513.565 498.172 512.796L492.345 506.969 541.406 506.969C542.494 506.969 543.375 506.087 543.375 505 543.375 503.913 542.494 503.031 541.406 503.031Z" stroke="#000000" stroke-width="0.65625"/></g></svg>