<svg width="182" height="200" xmlns="http://www.w3.org/2000/svg" xmlns:xlink="http://www.w3.org/1999/xlink" xml:space="preserve" overflow="hidden"><defs><clipPath id="clip0"><rect x="166" y="92" width="182" height="200"/></clipPath></defs><g clip-path="url(#clip0)" transform="translate(-166 -92)"><path d="M86.7231 151.92C86.7231 150.263 88.0661 148.92 89.7233 148.919 89.7344 148.919 89.7452 148.92 89.7562 148.92L89.7562 148.92C91.4134 148.92 92.7568 150.263 92.7568 151.92L92.7568 151.92C92.7392 153.57 91.4059 154.903 89.7562 154.921L89.7562 154.921C88.0939 154.921 86.741 153.583 86.7231 151.92ZM86.7231 140.929C86.7231 139.272 88.0661 137.928 89.7233 137.928 89.7344 137.928 89.7452 137.928 89.7562 137.928L89.7562 137.928C91.4134 137.928 92.7568 139.272 92.7568 140.929L92.7568 140.929C92.7568 142.586 91.4134 143.93 89.7562 143.93L89.7562 143.93C88.0991 143.948 86.7413 142.619 86.7234 140.962 86.7231 140.951 86.7231 140.94 86.7231 140.929ZM86.7231 129.97C86.7231 128.313 88.0661 126.97 89.7233 126.97 89.7344 126.97 89.7452 126.97 89.7562 126.97L89.7562 126.97C91.4134 126.97 92.7568 128.313 92.7568 129.97L92.7568 129.97C92.7392 131.62 91.4059 132.953 89.7562 132.971L89.7562 132.971C88.0939 132.971 86.741 131.633 86.7231 129.97ZM86.7231 119.012C86.7048 117.373 88.0185 116.029 89.6574 116.011 89.6904 116.01 89.7233 116.011 89.7562 116.011L89.7562 116.011C91.4134 116.011 92.7568 117.355 92.7568 119.012L92.7568 119.012C92.7389 120.656 91.4007 121.98 89.7562 121.98L89.7562 121.98C88.0991 121.998 86.7413 120.669 86.7231 119.012 86.7231 119.012 86.7231 119.012 86.7231 119.012ZM86.7231 107.988C86.741 106.331 88.0988 105.002 89.7559 105.02 89.7559 105.02 89.7562 105.02 89.7562 105.02L89.7562 105.02C91.4007 105.02 92.7389 106.344 92.7568 107.988L92.7568 107.988C92.7568 109.65 91.4186 111.003 89.7562 111.021L89.7562 111.021C88.0991 111.039 86.7413 109.711 86.7231 108.054 86.7227 108.032 86.7227 108.01 86.7231 107.988Z" stroke="#000000" stroke-width="3.26149" fill="#FFFFFF" transform="matrix(1.00927 0 0 1 166 92.606)"/><path d="M138.646 132.449C137.476 131.278 137.476 129.381 138.646 128.209L138.646 128.209C139.818 127.04 141.714 127.04 142.886 128.209L142.886 128.209C144.021 129.395 144.021 131.264 142.886 132.449L142.886 132.449C142.324 133.012 141.561 133.329 140.766 133.33L140.766 133.33C139.97 133.332 139.206 133.015 138.646 132.449ZM130.884 124.687C130.311 124.131 129.993 123.365 130.003 122.567L130.003 122.567C130 121.771 130.318 121.007 130.884 120.447L130.884 120.447C132.055 119.277 133.952 119.277 135.124 120.447L135.124 120.447C135.689 121.007 136.007 121.771 136.004 122.567L136.004 122.567C136.014 123.365 135.696 124.131 135.124 124.687L135.124 124.687C134.564 125.253 133.8 125.57 133.004 125.567L133.004 125.567C132.207 125.57 131.444 125.253 130.884 124.687ZM123.121 116.924C122.555 116.364 122.238 115.601 122.241 114.805L122.241 114.805C122.239 114.018 122.557 113.265 123.121 112.717L123.121 112.717C124.293 111.548 126.19 111.548 127.361 112.717L127.361 112.717C127.925 113.265 128.243 114.018 128.242 114.805L128.242 114.805C128.244 115.601 127.927 116.364 127.361 116.924L127.361 116.924C126.81 117.503 126.04 117.823 125.241 117.805L125.241 117.805C124.442 117.823 123.672 117.503 123.121 116.924ZM115.359 109.162C114.793 108.602 114.476 107.838 114.478 107.042L114.478 107.042C114.477 106.256 114.795 105.503 115.359 104.955L115.359 104.955C116.53 103.785 118.427 103.785 119.599 104.955L119.599 104.955C120.163 105.503 120.481 106.256 120.479 107.042L120.479 107.042C120.482 107.838 120.165 108.602 119.599 109.162L119.599 109.162C119.039 109.728 118.275 110.045 117.479 110.043L117.479 110.043C116.683 110.042 115.921 109.725 115.359 109.162ZM107.629 101.4C107.065 100.852 106.747 100.099 106.749 99.3124L106.749 99.3124C106.739 98.5147 107.057 97.7482 107.629 97.1924L107.629 97.1924C108.801 96.0229 110.698 96.0229 111.869 97.1924L111.869 97.1924C112.442 97.7482 112.76 98.5147 112.75 99.3124L112.75 99.3124C112.751 100.099 112.433 100.852 111.869 101.4L111.869 101.4C111.317 101.981 110.551 102.311 109.749 102.313L109.749 102.313C108.95 102.296 108.19 101.969 107.629 101.4Z" stroke="#000000" stroke-width="3.26149" fill="#FFFFFF" transform="matrix(1.00927 0 0 1 166 92.606)"/><path d="M36.6918 132.449C35.5222 131.278 35.5222 129.381 36.6918 128.209L36.6918 128.209C37.8633 127.04 39.7602 127.04 40.9317 128.209L40.9317 128.209C42.1013 129.381 42.1013 131.278 40.9317 132.449L40.9317 132.449C40.3717 133.015 39.6079 133.332 38.8117 133.33L38.8117 133.33C38.0156 133.332 37.2518 133.015 36.6918 132.449ZM44.4541 124.687C43.8817 124.131 43.5634 123.365 43.5735 122.567L43.5735 122.567C43.5709 121.771 43.8883 121.007 44.4541 120.447L44.4541 120.447C45.6257 119.277 47.5225 119.277 48.6941 120.447L48.6941 120.447C49.2599 121.007 49.5773 121.771 49.5747 122.567L49.5747 122.567C49.5848 123.365 49.2665 124.131 48.6941 124.687L48.6941 124.687C48.1321 125.25 47.3696 125.566 46.5741 125.567L46.5741 125.567C45.778 125.57 45.0141 125.253 44.4541 124.687ZM52.1839 116.924C51.6431 116.348 51.3303 115.594 51.3033 114.805L51.3033 114.805C51.3163 114.021 51.6317 113.273 52.1839 112.717L52.1839 112.717C53.3554 111.548 55.2523 111.548 56.4238 112.717L56.4238 112.717C56.988 113.265 57.3057 114.018 57.3044 114.805L57.3044 114.805C57.307 115.601 56.9897 116.364 56.4238 116.924L56.4238 116.924C55.8703 117.5 55.1022 117.819 54.3038 117.805L54.3038 117.805C53.5048 117.823 52.7351 117.503 52.1839 116.924ZM59.9462 109.162C59.4055 108.585 59.0927 107.832 59.0656 107.042L59.0656 107.042C59.0787 106.259 59.394 105.511 59.9462 104.955L59.9462 104.955C61.1177 103.785 63.0146 103.785 64.1862 104.955L64.1862 104.955C64.7504 105.503 65.0681 106.256 65.0668 107.042L65.0668 107.042C65.0694 107.838 64.752 108.602 64.1862 109.162L64.1862 109.162C63.6242 109.725 62.8617 110.042 62.0662 110.043L62.0662 110.043C61.2815 110.037 60.5307 109.72 59.9788 109.162ZM67.7086 101.4C67.1443 100.852 66.8267 100.099 66.828 99.3124L66.828 99.3124C66.8179 98.5147 67.1362 97.7482 67.7086 97.1924L67.7086 97.1924C68.8801 96.0229 70.777 96.0229 71.9485 97.1924L71.9485 97.1924C72.5209 97.7482 72.8392 98.5147 72.8291 99.3124L72.8291 99.3124C72.8304 100.099 72.5127 100.852 71.9485 101.4L71.9485 101.4C71.3879 101.969 70.6273 102.296 69.8285 102.313L69.8285 102.313C69.0396 102.295 68.2898 101.967 67.7412 101.4Z" stroke="#000000" stroke-width="3.26149" fill="#FFFFFF" transform="matrix(1.00927 0 0 1 166 92.606)"/><path d="M89.7236 198.951C78.916 198.996 70.1182 190.271 70.0728 179.464 70.0278 168.657 78.7523 159.859 89.5599 159.813 94.8142 159.792 99.8568 161.883 103.552 165.619L103.552 165.619C111.154 173.301 111.088 185.691 103.405 193.293 99.7618 196.898 94.8494 198.929 89.7236 198.951ZM89.7236 165.912C82.2483 165.928 76.2015 172.001 76.2178 179.477 76.2253 183.049 77.6453 186.473 80.1675 189.003 85.4452 194.297 94.0151 194.311 99.3092 189.033 104.603 183.755 104.616 175.185 99.3382 169.891 96.7916 167.337 93.3308 165.904 89.7236 165.912Z" stroke="#000000" stroke-width="3.26149" fill="#FFFFFF" transform="matrix(1.00927 0 0 1 166 92.606)"/><path d="M19.5689 169.826C8.76131 169.835-0.00770537 161.082-0.0172198 150.274-0.0267342 139.467 8.72687 130.697 19.5345 130.688 30.3421 130.679 39.1112 139.432 39.1206 150.24 39.1252 155.432 37.0665 160.412 33.3977 164.086 29.7313 167.756 24.7572 169.821 19.5689 169.826ZM19.5689 136.754C12.0937 136.756 6.03526 142.817 6.03709 150.293 6.03891 157.768 12.1003 163.827 19.5756 163.825 27.0509 163.823 33.1094 157.762 33.1074 150.286 33.1067 146.705 31.6863 143.27 29.1577 140.733 26.6194 138.182 23.1677 136.75 19.5689 136.754Z" stroke="#000000" stroke-width="3.26149" fill="#FFFFFF" transform="matrix(1.00927 0 0 1 166 92.606)"/><path d="M159.813 169.826C149.005 169.835 140.236 161.082 140.227 150.274 140.217 139.467 148.971 130.697 159.779 130.688 170.586 130.679 179.355 139.432 179.365 150.24 179.369 155.432 177.311 160.412 173.642 164.086 169.976 167.756 165.001 169.821 159.813 169.826ZM159.813 136.754C152.339 136.864 146.368 143.011 146.477 150.486 146.586 157.96 152.734 163.931 160.208 163.822 167.683 163.713 173.654 157.565 173.544 150.091 173.493 146.577 172.078 143.222 169.598 140.733 167.012 138.133 163.48 136.697 159.813 136.754Z" stroke="#000000" stroke-width="3.26149" fill="#FFFFFF" transform="matrix(1.00927 0 0 1 166 92.606)"/><path d="M89.7236 100.03C78.916 100.039 70.1469 91.2859 70.1374 80.4783 70.1279 69.6707 78.8815 60.9015 89.6891 60.892 100.497 60.8826 109.266 69.6361 109.275 80.4437 109.28 85.6357 107.221 90.6163 103.552 94.2897 99.8861 97.9605 94.912 100.025 89.7236 100.03ZM89.7236 66.9584C82.2304 66.9529 76.1513 73.0228 76.1457 80.5161 76.1398 88.0094 82.2098 94.0885 89.7031 94.094 97.1964 94.0996 103.275 88.0296 103.281 80.5363 103.284 76.937 101.856 73.484 99.3124 70.9374 96.774 68.3863 93.3224 66.9539 89.7236 66.9584Z" stroke="#000000" stroke-width="3.26149" fill="#FFFFFF" transform="matrix(1.00927 0 0 1 166 92.606)"/><path d="M61.2182 84.2443 36.0721 84.2443C18.6178 84.1543 4.54127 69.9316 4.63132 52.4774 4.72137 35.0232 18.9439 20.9466 36.3982 21.0366L36.8222 21.0366C40.6095 21.091 44.3556 21.8313 47.8787 23.2218 55.066 8.94882 69.6987-0.0403574 85.6794-3.73248e-07L86.2338 0C102.341 0.189911 116.949 9.49071 123.937 24.0046 127.403 22.8288 131.04 22.2338 134.7 22.2434 148.979 22.4437 161.354 32.186 164.901 46.0196 168.265 46.4821 171.447 47.8206 174.131 49.9008 174.85 50.4351 175.525 51.0238 176.153 51.662 177.762 53.2631 179.086 55.127 180.067 57.174 180.789 58.6658 180.164 60.4602 178.672 61.1817 178.67 61.183 178.667 61.1843 178.665 61.1856 177.19 61.9012 175.414 61.2857 174.699 59.8109 174.694 59.8017 174.69 59.7923 174.685 59.7831 173.994 58.3383 173.056 57.0249 171.913 55.902 171.478 55.4538 171.009 55.0396 170.511 54.6626 168.16 52.8773 165.308 51.8734 162.357 51.7925L159.813 51.7925 159.389 49.379C157.219 37.2929 146.782 28.4431 134.504 28.2771 130.704 28.1954 126.938 29.0111 123.513 30.658L120.643 31.9626 119.468 29.0273C111.996 10.3653 90.8107 1.29416 72.1488 8.76617 63.1591 12.3656 55.974 19.3988 52.1839 28.3097L50.9445 31.3103 48.0744 29.8426C44.5797 28.049 40.7174 27.089 36.7896 27.0378L36.4635 27.0378C22.3145 26.9387 10.7642 38.3284 10.6651 52.4774 10.566 66.6264 21.9557 78.1767 36.1047 78.2758L61.2182 78.2758C62.8754 78.2758 64.2188 79.6192 64.2188 81.2764 64.2188 82.9335 62.8754 84.2769 61.2182 84.2769Z" stroke="#000000" stroke-width="3.26149" fill="#FFFFFF" transform="matrix(1.00927 0 0 1 166 92.606)"/><path d="M119.599 83.8203C117.967 83.8207 116.634 82.5167 116.598 80.885 116.58 79.2223 117.904 77.8547 119.566 77.8192L158.932 77.2647C160.91 77.2295 162.794 76.4216 164.183 75.0143L173.577 65.2298C174.76 64.0704 176.66 64.0903 177.82 65.2742 178.925 66.4023 178.966 68.1939 177.914 69.3719L168.554 79.1564C166.056 81.7607 162.637 83.2828 159.03 83.3963L119.664 83.9508Z" stroke="#000000" stroke-width="3.26149" fill="#FFFFFF" transform="matrix(1.00927 0 0 1 166 92.606)"/></g></svg>