<svg width="79" height="37" xmlns="http://www.w3.org/2000/svg" xmlns:xlink="http://www.w3.org/1999/xlink" xml:space="preserve" overflow="hidden"><defs><clipPath id="clip0"><rect x="1162" y="477" width="79" height="37"/></clipPath></defs><g clip-path="url(#clip0)" transform="translate(-1162 -477)"><path d="M77.4676 25.2996C76.2087 22.6438 73.6837 20.8124 70.7682 20.4402 69.264 14.3129 63.808 9.97716 57.4992 9.89576 55.8286 9.86702 54.1677 10.1552 52.6044 10.745 48.2524 1.42536 37.1694-2.60172 27.8498 1.75024 24.011 3.54288 20.898 6.59088 19.0249 10.3911 11.963 7.52469 3.91456 10.9257 1.04811 17.9875-1.81834 25.0494 1.5827 33.0978 8.64453 35.9643 10.2381 36.6111 11.9386 36.9545 13.6583 36.9764L39.9841 36.9764C40.5867 36.9137 41.0242 36.3744 40.9615 35.7718 40.9078 35.2559 40.5 34.8481 39.9841 34.7944L13.6701 34.7944C7.24765 34.7211 2.10058 29.4554 2.17378 23.0331 2.20898 19.9433 3.47236 16.9945 5.68505 14.8377 7.89172 12.6878 10.8607 11.5002 13.9413 11.5352 15.7234 11.557 17.4759 11.9931 19.0602 12.8091L20.0982 13.3398 20.5582 12.2547C24.0752 3.88291 33.7131-0.0526029 42.0849 3.46448 46.1582 5.17574 49.3715 8.45436 51.0003 12.5614L51.4249 13.6229 52.4629 13.1511C58.2802 10.4598 65.178 12.994 67.8693 18.8114 68.2883 19.7169 68.5887 20.6727 68.7631 21.6551L68.9165 22.5279 69.8011 22.5279C72.2455 22.5831 74.4478 24.0178 75.4861 26.2314 75.7435 26.7754 76.3929 27.0078 76.9369 26.7504 77.4809 26.493 77.7132 25.8436 77.4558 25.2996Z" fill="#231F20" transform="matrix(1.00287 0 0 1 1162.6 477)"/><path d="M74.979 29.2745 70.7682 33.6385C70.1264 34.3574 69.2191 34.7833 68.256 34.818L44.0886 34.818C43.4743 34.8673 43.0015 35.3812 43.0035 35.9974 43.0227 36.5857 43.5121 37.0486 44.1004 37.0354L68.2914 37.0354C69.829 36.9823 71.285 36.3305 72.3487 35.219L76.5123 30.8668C76.9668 30.4663 77.0107 29.7731 76.6103 29.3186 76.2099 28.864 75.5167 28.8201 75.0621 29.2206 75.0148 29.2622 74.9712 29.3078 74.9318 29.357Z" fill="#231F20" transform="matrix(1.00287 0 0 1 1162.6 477)"/></g></svg>