<svg width="92" height="93" xmlns="http://www.w3.org/2000/svg" xmlns:xlink="http://www.w3.org/1999/xlink" xml:space="preserve" overflow="hidden"><g transform="translate(-131 -508)"><path d="M22.0953 65.3507 31.1573 65.3507 31.1573 74.566 22.0953 74.566Z" fill="#231F20" transform="matrix(1 0 0 1.01087 131 508)"/><path d="M19.9793 11.3007 33.8713 11.3007 33.8713 18.8447 19.9793 18.8447Z" fill="#231F20" transform="matrix(1 0 0 1.01087 131 508)"/><path d="M64.446 22.3407 67.436 22.3407 67.436 25.3307 64.446 25.3307Z" fill="#231F20" transform="matrix(1 0 0 1.01087 131 508)"/><path d="M64.446 27.0327 67.436 27.0327 67.436 30.0227 64.446 30.0227Z" fill="#231F20" transform="matrix(1 0 0 1.01087 131 508)"/><path d="M64.446 31.7247 67.436 31.7247 67.436 34.7147 64.446 34.7147Z" fill="#231F20" transform="matrix(1 0 0 1.01087 131 508)"/><path d="M64.446 36.432 67.436 36.432 67.436 39.422 64.446 39.422Z" fill="#231F20" transform="matrix(1 0 0 1.01087 131 508)"/><path d="M64.446 53.0073 67.436 53.0073 67.436 55.9973 64.446 55.9973Z" fill="#231F20" transform="matrix(1 0 0 1.01087 131 508)"/><path d="M64.446 57.7147 67.436 57.7147 67.436 60.7047 64.446 60.7047Z" fill="#231F20" transform="matrix(1 0 0 1.01087 131 508)"/><path d="M64.446 62.4067 67.436 62.4067 67.436 65.3967 64.446 65.3967Z" fill="#231F20" transform="matrix(1 0 0 1.01087 131 508)"/><path d="M64.446 67.0987 67.436 67.0987 67.436 70.0887 64.446 70.0887Z" fill="#231F20" transform="matrix(1 0 0 1.01087 131 508)"/><path d="M72.0513 22.2947 77.8627 22.2947 77.8627 77.832 72.0513 77.832Z" fill="#231F20" transform="matrix(1 0 0 1.01087 131 508)"/><path d="M19.8873 21.206 22.9693 21.206 22.9693 24.1347 19.8873 24.1347Z" fill="#231F20" transform="matrix(1 0 0 1.01087 131 508)"/><path d="M19.8873 25.99 22.9693 25.99 22.9693 28.9187 19.8873 28.9187Z" fill="#231F20" transform="matrix(1 0 0 1.01087 131 508)"/><path d="M29.302 21.206 32.384 21.206 32.384 24.1347 29.302 24.1347Z" fill="#231F20" transform="matrix(1 0 0 1.01087 131 508)"/><path d="M29.302 25.99 32.384 25.99 32.384 28.9187 29.302 28.9187Z" fill="#231F20" transform="matrix(1 0 0 1.01087 131 508)"/><path d="M38.7013 21.206 41.7833 21.206 41.7833 24.1347 38.7013 24.1347Z" fill="#231F20" transform="matrix(1 0 0 1.01087 131 508)"/><path d="M38.7013 25.99 41.7833 25.99 41.7833 28.9187 38.7013 28.9187Z" fill="#231F20" transform="matrix(1 0 0 1.01087 131 508)"/><path d="M48.1007 21.206 51.1827 21.206 51.1827 24.1347 48.1007 24.1347Z" fill="#231F20" transform="matrix(1 0 0 1.01087 131 508)"/><path d="M48.1007 25.99 51.1827 25.99 51.1827 28.9187 48.1007 28.9187Z" fill="#231F20" transform="matrix(1 0 0 1.01087 131 508)"/><path d="M78.9053 80.9447 70.9627 88.8873 15.594 88.8873C14.858 88.8873 14.2753 89.4853 14.2753 90.206 14.2753 90.9267 14.8733 91.5247 15.594 91.5247L71.5147 91.5247C71.8673 91.5247 72.2047 91.3867 72.45 91.1413L80.7913 82.8C81.3127 82.2787 81.3127 81.4507 80.7913 80.9293 80.27 80.408 79.442 80.408 78.9207 80.9293Z" fill="#231F20" transform="matrix(1 0 0 1.01087 131 508)"/><path d="M14.72 54.9547C14.7047 55.0467 14.6893 55.154 14.6893 55.2613L14.6893 80.6533C14.6893 81.2053 15.0267 81.696 15.548 81.8953 15.916 82.0333 19.5347 83.1987 35.6347 83.1987 51.7347 83.1987 55.292 82.018 55.6293 81.8953 56.1353 81.696 56.488 81.2053 56.488 80.6533L56.488 55.2613C56.488 55.1233 56.4727 54.9853 56.4267 54.8627L55.246 49.818 55.246 37.9653 56.4267 32.9207C56.4727 32.798 56.488 32.66 56.488 32.5067L56.488 7.09933C56.488 6.36333 55.89 5.78067 55.1693 5.78067L16.008 5.78067C15.6553 5.78067 15.318 5.91867 15.0727 6.164 14.8273 6.40933 14.6893 6.74667 14.6893 7.09933L14.6893 32.4913C14.6893 32.5987 14.6893 32.6907 14.72 32.798L15.9007 37.8427 15.9007 49.91 14.72 54.9547ZM18.5073 37.3827 17.3267 32.338 17.3267 8.418 53.8353 8.418 53.8353 32.3073 52.7007 37.1833C52.6393 37.3367 52.5933 37.5207 52.5933 37.7047L52.5933 50.0327C52.5933 50.2167 52.624 50.3853 52.7007 50.5387L53.8353 55.43 53.8353 79.6107C52.072 79.9327 47.2267 80.546 35.6193 80.546 24.012 80.546 19.09 79.9327 17.3113 79.5953L17.3113 55.3993C17.3113 55.3993 18.492 50.3547 18.492 50.3547 18.5227 50.2627 18.5227 50.1553 18.5227 50.048L18.5227 37.674C18.5227 37.5667 18.5227 37.4747 18.492 37.3673Z" fill="#231F20" transform="matrix(1 0 0 1.01087 131 508)"/><path d="M83.2447 1.76333C83.2447 1.02733 82.6467 0.444667 81.926 0.444667L10.0893 0.444667C9.35333 0.444667 8.77067 1.04267 8.77067 1.76333L8.77067 90.3287C8.77067 91.0647 9.36867 91.6473 10.0893 91.6473 10.81 91.6473 11.408 91.0493 11.408 90.3287L11.408 3.082 58.8033 3.082 58.8033 84.686C58.8033 85.422 59.4013 86.0047 60.122 86.0047 60.8427 86.0047 61.4407 85.4067 61.4407 84.686L61.4407 18.906 80.592 18.906 80.592 75.8693C80.592 76.6053 81.19 77.188 81.9107 77.188 82.6313 77.188 83.2293 76.59 83.2293 75.8693L83.2293 1.76333ZM61.4407 16.2533 61.4407 3.082 80.592 3.082 80.592 16.2533 61.4407 16.2533Z" fill="#231F20" transform="matrix(1 0 0 1.01087 131 508)"/></g></svg>