<svg xmlns="http://www.w3.org/2000/svg" width="800" height="800" viewBox="0 0 8.467 8.467"><path d="M2 3a1 1 0 0 0-1 1v20a1 1 0 0 0 1 1h13v2.002h-2.996a1 1 0 0 0-.104 0 1.002 1.002 0 0 0 .104 2.002h7.994a1 1 0 1 0 0-2.002H17V25h13a1 1 0 0 0 1-1V4a1 1 0 0 0-1-1zm1 2h26v18H3z" style="color:#000;font-style:normal;font-variant:normal;font-weight:400;font-stretch:normal;font-size:medium;line-height:normal;font-family:sans-serif;font-variant-ligatures:normal;font-variant-position:normal;font-variant-caps:normal;font-variant-numeric:normal;font-variant-alternates:normal;font-feature-settings:normal;text-indent:0;text-align:start;text-decoration:none;text-decoration-line:none;text-decoration-style:solid;text-decoration-color:#000;letter-spacing:normal;word-spacing:normal;text-transform:none;writing-mode:lr-tb;direction:ltr;text-orientation:mixed;dominant-baseline:auto;baseline-shift:baseline;text-anchor:start;white-space:normal;shape-padding:0;clip-rule:nonzero;display:inline;overflow:visible;visibility:visible;opacity:1;isolation:auto;mix-blend-mode:normal;color-interpolation:sRGB;color-interpolation-filters:linearRGB;solid-color:#000;solid-opacity:1;vector-effect:none;fill:#000;fill-opacity:1;fill-rule:nonzero;stroke:none;stroke-width:1.99999988;stroke-linecap:round;stroke-linejoin:round;stroke-miterlimit:4;stroke-dasharray:none;stroke-dashoffset:0;stroke-opacity:1;paint-order:stroke fill markers;color-rendering:auto;image-rendering:auto;shape-rendering:auto;text-rendering:auto" transform="scale(.26458)"/><path d="M4.498 294.09a.265.265 0 0 1-.265.264.265.265 0 0 1-.264-.264.265.265 0 0 1 .264-.265.265.265 0 0 1 .265.265" style="opacity:1;fill:#000;fill-opacity:1;stroke:none;stroke-width:.52916664;stroke-linecap:round;stroke-linejoin:round;stroke-miterlimit:4;stroke-dasharray:none;stroke-dashoffset:0;stroke-opacity:1;paint-order:stroke fill markers" transform="translate(0 -288.533)"/></svg>