<svg width="51" height="56" xmlns="http://www.w3.org/2000/svg" xmlns:xlink="http://www.w3.org/1999/xlink" xml:space="preserve" overflow="hidden"><defs><clipPath id="clip0"><rect x="216" y="630" width="51" height="56"/></clipPath></defs><g clip-path="url(#clip0)" transform="translate(-216 -630)"><path d="M24.2825 42.5377C24.2825 42.0737 24.6585 41.6975 25.1225 41.6974 25.1256 41.6974 25.1286 41.6975 25.1318 41.6975L25.1318 41.6975C25.5958 41.6975 25.9719 42.0737 25.9719 42.5377L25.9719 42.5377C25.967 42.9996 25.5937 43.3729 25.1318 43.3778L25.1318 43.3778C24.6663 43.3778 24.2875 43.0031 24.2825 42.5377ZM24.2825 39.4601C24.2825 38.9961 24.6585 38.62 25.1225 38.6199 25.1256 38.6199 25.1286 38.62 25.1318 38.62L25.1318 38.62C25.5958 38.62 25.9719 38.9961 25.9719 39.4601L25.9719 39.4601C25.9719 39.9241 25.5958 40.3003 25.1318 40.3003L25.1318 40.3003C24.6677 40.3053 24.2876 39.9333 24.2825 39.4694 24.2825 39.4663 24.2825 39.4632 24.2825 39.4601ZM24.2825 36.3917C24.2825 35.9277 24.6585 35.5516 25.1225 35.5515 25.1256 35.5515 25.1286 35.5516 25.1318 35.5516L25.1318 35.5516C25.5958 35.5516 25.9719 35.9277 25.9719 36.3917L25.9719 36.3917C25.967 36.8536 25.5937 37.227 25.1318 37.2319L25.1318 37.2319C24.6663 37.2319 24.2875 36.8572 24.2825 36.3917ZM24.2825 33.3233C24.2773 32.8644 24.6452 32.4882 25.1041 32.483 25.1133 32.4829 25.1225 32.483 25.1318 32.4832L25.1318 32.4832C25.5958 32.4832 25.9719 32.8593 25.9719 33.3233L25.9719 33.3233C25.9669 33.7838 25.5922 34.1543 25.1318 34.1543L25.1318 34.1543C24.6677 34.1595 24.2876 33.7874 24.2825 33.3234 24.2825 33.3234 24.2825 33.3233 24.2825 33.3233ZM24.2825 30.2366C24.2875 29.7726 24.6677 29.4006 25.1317 29.4056 25.1317 29.4056 25.1318 29.4056 25.1318 29.4056L25.1318 29.4056C25.5922 29.4056 25.9669 29.7762 25.9719 30.2366L25.9719 30.2366C25.9719 30.7021 25.5972 31.0809 25.1318 31.0859L25.1318 31.0859C24.6677 31.091 24.2876 30.719 24.2825 30.255 24.2824 30.2489 24.2824 30.2428 24.2825 30.2366Z" transform="matrix(1.01006 0 0 1 216 630.17)"/><path d="M38.8209 37.0858C38.4934 36.7577 38.4934 36.2266 38.8209 35.8986L38.8209 35.8986C39.1489 35.5711 39.68 35.5711 40.0081 35.8986L40.0081 35.8986C40.3258 36.2305 40.3258 36.7538 40.0081 37.0858L40.0081 37.0858C39.8507 37.2434 39.6372 37.3321 39.4145 37.3323L39.4145 37.3323C39.1916 37.3331 38.9777 37.2442 38.8209 37.0858ZM36.6474 34.9123C36.4872 34.7567 36.398 34.5421 36.4009 34.3187L36.4009 34.3187C36.4001 34.0958 36.489 33.8819 36.6474 33.7251L36.6474 33.7251C36.9755 33.3976 37.5066 33.3976 37.8346 33.7251L37.8346 33.7251C37.993 33.8819 38.0819 34.0958 38.0812 34.3187L38.0812 34.3187C38.084 34.5421 37.9949 34.7567 37.8346 34.9123L37.8346 34.9123C37.6778 35.0708 37.4639 35.1596 37.241 35.1589L37.241 35.1589C37.0181 35.1596 36.8042 35.0708 36.6474 34.9123ZM34.474 32.7389C34.3155 32.5821 34.2267 32.3682 34.2274 32.1453L34.2274 32.1453C34.227 31.9251 34.316 31.7142 34.474 31.5608L34.474 31.5608C34.802 31.2333 35.3331 31.2333 35.6611 31.5608L35.6611 31.5608C35.8191 31.7142 35.9081 31.9251 35.9077 32.1453L35.9077 32.1453C35.9085 32.3682 35.8196 32.5821 35.6611 32.7389L35.6611 32.7389C35.5068 32.901 35.2913 32.9905 35.0676 32.9854L35.0676 32.9854C34.8438 32.9905 34.6283 32.901 34.474 32.7389ZM32.3005 30.5654C32.1421 30.4086 32.0532 30.1947 32.0539 29.9718L32.0539 29.9718C32.0536 29.7516 32.1425 29.5408 32.3005 29.3873L32.3005 29.3873C32.6285 29.0599 33.1597 29.0599 33.4877 29.3873L33.4877 29.3873C33.6457 29.5408 33.7346 29.7516 33.7343 29.9718L33.7343 29.9718C33.735 30.1947 33.6461 30.4086 33.4877 30.5654L33.4877 30.5654C33.3309 30.7238 33.117 30.8127 32.8941 30.812L32.8941 30.812C32.6714 30.8117 32.4579 30.723 32.3005 30.5654ZM30.1362 28.3919C29.9782 28.2385 29.8892 28.0277 29.8896 27.8075L29.8896 27.8075C29.8868 27.5841 29.9759 27.3695 30.1362 27.2139L30.1362 27.2139C30.4642 26.8864 30.9953 26.8864 31.3234 27.2139L31.3234 27.2139C31.4836 27.3695 31.5728 27.5841 31.5699 27.8075L31.5699 27.8075C31.5703 28.0277 31.4814 28.2385 31.3234 28.3919L31.3234 28.3919C31.1688 28.5547 30.9542 28.647 30.7298 28.6476L30.7298 28.6476C30.5061 28.643 30.2932 28.5513 30.1362 28.3919Z" transform="matrix(1.01006 0 0 1 216 630.17)"/><path d="M10.2737 37.0858C9.94622 36.7577 9.94622 36.2266 10.2737 35.8986L10.2737 35.8986C10.6017 35.5711 11.1329 35.5711 11.4609 35.8986L11.4609 35.8986C11.7884 36.2266 11.7884 36.7577 11.4609 37.0858L11.4609 37.0858C11.3041 37.2442 11.0902 37.3331 10.8673 37.3323L10.8673 37.3323C10.6444 37.3331 10.4305 37.2442 10.2737 37.0858ZM12.4472 34.9123C12.2869 34.7567 12.1978 34.5421 12.2006 34.3187L12.2006 34.3187C12.1999 34.0958 12.2887 33.8819 12.4472 33.7251L12.4472 33.7251C12.7752 33.3976 13.3063 33.3976 13.6343 33.7251L13.6343 33.7251C13.7928 33.8819 13.8816 34.0958 13.8809 34.3187L13.8809 34.3187C13.8837 34.5421 13.7946 34.7567 13.6343 34.9123L13.6343 34.9123C13.477 35.0699 13.2635 35.1586 13.0407 35.1589L13.0407 35.1589C12.8178 35.1596 12.604 35.0708 12.4472 34.9123ZM14.6115 32.7389C14.4601 32.5774 14.3725 32.3664 14.3649 32.1453L14.3649 32.1453C14.3686 31.9259 14.4569 31.7165 14.6115 31.5608L14.6115 31.5608C14.9395 31.2333 15.4706 31.2333 15.7987 31.5608L15.7987 31.5608C15.9567 31.7142 16.0456 31.9251 16.0452 32.1453L16.0452 32.1453C16.046 32.3682 15.9571 32.5821 15.7987 32.7389L15.7987 32.7389C15.6437 32.9 15.4286 32.9893 15.2051 32.9854L15.2051 32.9854C14.9813 32.9905 14.7658 32.901 14.6115 32.7389ZM16.7849 30.5654C16.6335 30.4039 16.546 30.193 16.5384 29.9718L16.5384 29.9718C16.542 29.7524 16.6303 29.543 16.7849 29.3873L16.7849 29.3873C17.113 29.0599 17.6441 29.0599 17.9721 29.3873L17.9721 29.3873C18.1301 29.5408 18.2191 29.7516 18.2187 29.9718L18.2187 29.9718C18.2194 30.1947 18.1306 30.4086 17.9721 30.5654L17.9721 30.5654C17.8148 30.723 17.6013 30.8117 17.3785 30.812L17.3785 30.812C17.1588 30.8103 16.9486 30.7216 16.7941 30.5654ZM18.9584 28.3919C18.8004 28.2385 18.7115 28.0277 18.7118 27.8075L18.7118 27.8075C18.709 27.5841 18.7981 27.3695 18.9584 27.2139L18.9584 27.2139C19.2864 26.8864 19.8176 26.8864 20.1456 27.2139L20.1456 27.2139C20.3059 27.3695 20.395 27.5841 20.3922 27.8075L20.3922 27.8075C20.3925 28.0277 20.3036 28.2385 20.1456 28.3919L20.1456 28.3919C19.9886 28.5513 19.7756 28.643 19.552 28.6476L19.552 28.6476C19.3311 28.6425 19.1211 28.5507 18.9675 28.3919Z" transform="matrix(1.01006 0 0 1 216 630.17)"/><path d="M25.1226 55.7063C22.0965 55.719 19.6331 53.276 19.6204 50.25 19.6078 47.2239 22.0506 44.7605 25.0768 44.7478 26.548 44.7416 27.9599 45.3274 28.9947 46.3732L28.9947 46.3732C31.1231 48.5244 31.1047 51.9936 28.9535 54.122 27.9333 55.1314 26.5578 55.7003 25.1226 55.7063ZM25.1226 46.4554C23.0295 46.4599 21.3364 48.1604 21.341 50.2535 21.3431 51.2537 21.7407 52.2126 22.4469 52.921 23.9247 54.4032 26.3242 54.407 27.8066 52.9292 29.2888 51.4514 29.2925 49.0518 27.8147 47.5695 27.1017 46.8543 26.1326 46.4532 25.1226 46.4554Z" fill="#231F20" transform="matrix(1.01006 0 0 1 216 630.17)"/><path d="M5.47931 47.5512C2.45317 47.5539-0.0021575 45.1029-0.00482154 42.0768-0.00748558 39.0506 2.44352 36.5953 5.46966 36.5926 8.49579 36.59 10.9511 39.041 10.9538 42.0671 10.9551 43.5209 10.3786 44.9154 9.35135 45.944 8.32476 46.9718 6.93202 47.55 5.47931 47.5512ZM5.47931 38.2912C3.38623 38.2918 1.68987 39.9889 1.69038 42.082 1.6909 44.1751 3.38809 45.8715 5.48117 45.8709 7.57425 45.8704 9.27062 44.1732 9.27007 42.0802 9.26989 41.0774 8.87216 40.1156 8.16417 39.4053 7.45345 38.691 6.48697 38.2899 5.47931 38.2912Z" fill="#231F20" transform="matrix(1.01006 0 0 1 216 630.17)"/><path d="M44.7477 47.5512C41.7215 47.5539 39.2662 45.1029 39.2635 42.0768 39.2609 39.0506 41.7119 36.5953 44.738 36.5926 47.7641 36.59 50.2195 39.041 50.2221 42.0671 50.2234 43.5209 49.647 44.9154 48.6197 45.944 47.5932 46.9718 46.2004 47.55 44.7477 47.5512ZM44.7477 38.2912C42.6548 38.3218 40.983 40.0431 41.0135 42.136 41.0441 44.2289 42.7654 45.9007 44.8583 45.8701 46.9512 45.8396 48.623 44.1182 48.5924 42.0254 48.5781 41.0416 48.1818 40.1021 47.4873 39.4053 46.7632 38.6773 45.7743 38.2751 44.7477 38.2912Z" fill="#231F20" transform="matrix(1.01006 0 0 1 216 630.17)"/><path d="M25.1226 28.0084C22.0965 28.011 19.6411 25.56 19.6385 22.5339 19.6358 19.5078 22.0868 17.0524 25.1129 17.0498 28.1391 17.0471 30.5944 19.4981 30.5971 22.5242 30.5984 23.978 30.0219 25.3726 28.9947 26.4011 27.9681 27.4289 26.5754 28.0071 25.1226 28.0084ZM25.1226 18.7484C23.0245 18.7468 21.3224 20.4464 21.3208 22.5445 21.3192 24.6426 23.0187 26.3448 25.1169 26.3463 27.215 26.3479 28.9171 24.6483 28.9188 22.5502 28.9195 21.5423 28.5198 20.5755 27.8075 19.8625 27.0967 19.1482 26.1303 18.7471 25.1226 18.7484Z" fill="#231F20" transform="matrix(1.01006 0 0 1 216 630.17)"/><path d="M17.1411 23.5884 10.1002 23.5884C5.21298 23.5632 1.27156 19.5808 1.29677 14.6937 1.32198 9.8065 5.3043 5.86504 10.1915 5.89025L10.3102 5.89025C11.3707 5.90548 12.4196 6.11278 13.406 6.50211 15.4185 2.50567 19.5156-0.0113001 23.9902-1.0451e-07L24.1455 0C28.6555 0.053175 32.7458 2.6574 34.7023 6.72128 35.6728 6.39208 36.6911 6.22546 37.7159 6.22814 41.7142 6.28424 45.1792 9.01209 46.1723 12.8855 47.1141 13.015 48.0053 13.3898 48.7567 13.9722 48.9579 14.1218 49.1471 14.2867 49.3229 14.4654 49.7734 14.9137 50.1441 15.4356 50.4187 16.0087 50.6208 16.4264 50.446 16.9289 50.0283 17.1309 50.0275 17.1312 50.0268 17.1316 50.0261 17.132 49.6131 17.3323 49.116 17.16 48.9157 16.747 48.9144 16.7445 48.9131 16.7418 48.9119 16.7393 48.7182 16.3347 48.4556 15.967 48.1357 15.6525 48.0138 15.5271 47.8826 15.4111 47.743 15.3055 47.0847 14.8056 46.2863 14.5245 45.46 14.5019L44.7477 14.5019 44.6289 13.8261C44.0212 10.442 41.0991 7.96407 37.6611 7.9176 36.5971 7.89472 35.5427 8.12312 34.5836 8.58425L33.7799 8.94953 33.4512 8.12764C31.359 2.9023 25.427 0.362364 20.2017 2.45453 17.6846 3.46236 15.6727 5.43167 14.6115 7.92673L14.2645 8.76689 13.4608 8.35594C12.4823 7.85373 11.4009 7.58491 10.3011 7.57057L10.2098 7.57057C6.24805 7.54283 3.01397 10.732 2.98622 14.6937 2.95848 18.6554 6.1476 21.8895 10.1093 21.9172L17.1411 21.9172C17.6051 21.9172 17.9813 22.2934 17.9813 22.7574 17.9813 23.2214 17.6051 23.5975 17.1411 23.5975Z" fill="#231F20" transform="matrix(1.01006 0 0 1 216 630.17)"/><path d="M33.4877 23.4697C33.0307 23.4698 32.6575 23.1047 32.6475 22.6478 32.6424 22.1822 33.0131 21.7993 33.4786 21.7894L44.5011 21.6341C45.0547 21.6243 45.5824 21.3981 45.9714 21.004L48.6014 18.2644C48.9329 17.9397 49.4649 17.9453 49.7895 18.2768 50.0989 18.5927 50.1105 19.0943 49.816 19.4241L47.1951 22.1638C46.4957 22.893 45.5384 23.3192 44.5285 23.351L33.506 23.5062Z" fill="#231F20" transform="matrix(1.01006 0 0 1 216 630.17)"/></g></svg>