<svg width="36" height="30" xmlns="http://www.w3.org/2000/svg" xmlns:xlink="http://www.w3.org/1999/xlink" xml:space="preserve" overflow="hidden"><defs><clipPath id="clip0"><rect x="1018" y="459" width="36" height="30"/></clipPath></defs><g clip-path="url(#clip0)" transform="translate(-1018 -459)"><path d="M29.703 7.09234C29.3682 7.09234 29.0968 7.36373 29.0968 7.69852L29.0968 28.7876 1.21237 28.7876 1.21237 1.21237 7.58335 1.21237C7.91814 1.21237 8.18953 0.940966 8.18953 0.606183 8.18953 0.271397 7.91814 0 7.58335 0L0 0 0 30 30.3092 30 30.3092 7.69852C30.3092 7.36373 30.0378 7.09234 29.703 7.09234Z" fill="#231F20" transform="matrix(1.176 0 0 1 1018.17 459)"/><path d="M10.4627 1.21237 23.92 1.21237C24.3559 1.21249 24.7741 1.38458 25.0839 1.69125L28.824 5.45565C28.9384 5.56912 29.0933 5.63237 29.2544 5.63144 29.4218 5.63733 29.5842 5.5737 29.703 5.45565 29.9407 5.21989 29.9422 4.83608 29.7065 4.59838 29.7053 4.59721 29.7041 4.59603 29.703 4.59487L25.9386 0.836533C25.4048 0.29878 24.6777-0.00253782 23.92-2.89051e-09L10.4627 0C10.1279 0 9.85654 0.271397 9.85654 0.606183 9.85654 0.940966 10.1279 1.21237 10.4627 1.21237Z" fill="#231F20" transform="matrix(1.176 0 0 1 1018.17 459)"/><path d="M21.0709 2.99454 3.14003 2.99454 3.14003 16.2518 21.0709 16.2518ZM19.8586 15.0394 4.35239 15.0394 4.35239 4.20691 19.8586 4.20691Z" fill="#231F20" transform="matrix(1.176 0 0 1 1018.17 459)"/><path d="M24.9626 7.63791C23.7541 7.63791 22.7743 8.61768 22.7743 9.82623 22.7743 11.0348 23.7541 12.0145 24.9626 12.0145 26.1712 12.0145 27.1509 11.0348 27.1509 9.82623 27.1509 9.82423 27.1509 9.82217 27.1509 9.82017 27.1476 8.61398 26.1688 7.63791 24.9626 7.63791ZM24.9626 10.7961C24.4236 10.7961 23.9867 10.3592 23.9867 9.82017 23.9867 9.28115 24.4236 8.84421 24.9626 8.84421 25.5016 8.84421 25.9386 9.28115 25.9386 9.82017 25.9386 10.3592 25.5016 10.7961 24.9626 10.7961Z" fill="#231F20" transform="matrix(1.176 0 0 1 1018.17 459)"/><path d="M24.9626 19.2887C23.7541 19.2887 22.7743 20.2685 22.7743 21.4771 22.7743 22.6856 23.7541 23.6654 24.9626 23.6654 26.1712 23.6654 27.1509 22.6856 27.1509 21.4771 27.1509 20.2685 26.1712 19.2887 24.9626 19.2887ZM24.9626 22.447C24.4236 22.447 23.9867 22.01 23.9867 21.471 23.9867 20.932 24.4237 20.4951 24.9627 20.4951 25.5016 20.4951 25.9386 20.932 25.9386 21.471 25.9386 21.4731 25.9386 21.4751 25.9386 21.4771 25.9254 22.0066 25.4923 22.429 24.9626 22.4288Z" fill="#231F20" transform="matrix(1.176 0 0 1 1018.17 459)"/><path d="M24.9626 13.4633C23.7541 13.4633 22.7743 14.4431 22.7743 15.6516 22.7743 16.8603 23.7541 17.84 24.9626 17.84 26.1712 17.84 27.1509 16.8602 27.1509 15.6516 27.1509 15.6496 27.1509 15.6476 27.1509 15.6456 27.1476 14.4394 26.1688 13.4633 24.9626 13.4633ZM24.9626 16.6215C24.4236 16.6215 23.9867 16.1846 23.9867 15.6456 23.9867 15.1066 24.4236 14.6696 24.9626 14.6696 25.5016 14.6696 25.9386 15.1066 25.9386 15.6456 25.9386 16.1846 25.5016 16.6215 24.9626 16.6215Z" fill="#231F20" transform="matrix(1.176 0 0 1 1018.17 459)"/><path d="M5.11618 18.4158C4.73788 18.4158 4.43121 18.7226 4.43122 19.1008 4.43124 19.4791 4.73793 19.7858 5.11624 19.7858 5.49455 19.7858 5.80121 19.4791 5.8012 19.1008 5.8012 19.0988 5.80119 19.0968 5.80117 19.0948 5.80118 18.7198 5.49723 18.4158 5.12227 18.4158 5.12025 18.4158 5.11822 18.4158 5.11618 18.4158Z" fill="#231F20" transform="matrix(1.176 0 0 1 1018.17 459)"/><path d="M12.8268 19.0948C12.8268 19.4731 12.5202 19.7798 12.1418 19.7798 11.7635 19.7798 11.4569 19.4731 11.4569 19.0948 11.4569 18.7165 11.7635 18.4098 12.1418 18.4098 12.5202 18.4098 12.8268 18.7165 12.8268 19.0948Z" fill="#231F20" transform="matrix(1.176 0 0 1 1018.17 459)"/><path d="M9.31097 19.0948C9.31097 19.4731 9.00429 19.7798 8.62598 19.7798 8.24768 19.7798 7.941 19.4731 7.941 19.0948 7.941 18.7165 8.24768 18.4098 8.62598 18.4098 9.00429 18.4098 9.31097 18.7165 9.31097 19.0948Z" fill="#231F20" transform="matrix(1.176 0 0 1 1018.17 459)"/><path d="M16.3427 19.0948C16.3427 19.4731 16.036 19.7798 15.6577 19.7798 15.2794 19.7798 14.9727 19.4731 14.9727 19.0948 14.9727 18.7165 15.2794 18.4098 15.6577 18.4098 16.036 18.4098 16.3427 18.7165 16.3427 19.0948Z" fill="#231F20" transform="matrix(1.176 0 0 1 1018.17 459)"/><path d="M19.1736 18.4158C18.7952 18.4158 18.4886 18.7226 18.4886 19.1008 18.4886 19.4791 18.7953 19.7858 19.1736 19.7858 19.5519 19.7858 19.8586 19.4791 19.8586 19.1008 19.8586 19.0988 19.8586 19.0968 19.8586 19.0948 19.8552 18.7188 19.5495 18.4158 19.1736 18.4158Z" fill="#231F20" transform="matrix(1.176 0 0 1 1018.17 459)"/><path d="M5.11618 21.3983C4.73788 21.3983 4.4312 21.7049 4.4312 22.0832 4.4312 22.4616 4.73788 22.7682 5.11618 22.7682 5.49449 22.7682 5.80117 22.4616 5.80117 22.0832 5.80454 21.7083 5.50331 21.4016 5.12836 21.3983 5.1243 21.3982 5.12025 21.3982 5.11618 21.3983Z" fill="#231F20" transform="matrix(1.176 0 0 1 1018.17 459)"/><path d="M12.8268 22.0832C12.8268 22.4616 12.5202 22.7682 12.1418 22.7682 11.7635 22.7682 11.4569 22.4616 11.4569 22.0832 11.4569 21.7049 11.7635 21.3983 12.1418 21.3983 12.5202 21.3983 12.8268 21.7049 12.8268 22.0832Z" fill="#231F20" transform="matrix(1.176 0 0 1 1018.17 459)"/><path d="M9.31097 22.0832C9.31097 22.4616 9.00429 22.7682 8.62598 22.7682 8.24768 22.7682 7.941 22.4616 7.941 22.0832 7.941 21.7049 8.24768 21.3983 8.62598 21.3983 9.00429 21.3983 9.31097 21.7049 9.31097 22.0832Z" fill="#231F20" transform="matrix(1.176 0 0 1 1018.17 459)"/><path d="M16.3427 22.0832C16.3427 22.4616 16.036 22.7682 15.6577 22.7682 15.2794 22.7682 14.9727 22.4616 14.9727 22.0832 14.9727 21.7049 15.2794 21.3983 15.6577 21.3983 16.036 21.3983 16.3427 21.7049 16.3427 22.0832Z" fill="#231F20" transform="matrix(1.176 0 0 1 1018.17 459)"/><path d="M19.1736 21.3983C18.7952 21.3983 18.4886 21.7049 18.4886 22.0832 18.4886 22.4616 18.7952 22.7682 19.1736 22.7682 19.5519 22.7682 19.8586 22.4616 19.8586 22.0832 19.8586 21.7049 19.5519 21.3983 19.1736 21.3983Z" fill="#231F20" transform="matrix(1.176 0 0 1 1018.17 459)"/><path d="M5.11618 24.3807C4.73788 24.3807 4.4312 24.6873 4.4312 25.0657 4.4312 25.444 4.73788 25.7507 5.11618 25.7507 5.49449 25.7507 5.80117 25.444 5.80117 25.0657 5.80117 24.6873 5.49449 24.3807 5.11618 24.3807Z" fill="#231F20" transform="matrix(1.176 0 0 1 1018.17 459)"/><path d="M12.8268 25.0657C12.8268 25.444 12.5202 25.7507 12.1418 25.7507 11.7635 25.7507 11.4569 25.444 11.4569 25.0657 11.4569 24.6874 11.7635 24.3807 12.1418 24.3807 12.5202 24.3807 12.8268 24.6874 12.8268 25.0657Z" fill="#231F20" transform="matrix(1.176 0 0 1 1018.17 459)"/><path d="M9.31097 25.0657C9.31097 25.444 9.00429 25.7507 8.62598 25.7507 8.24768 25.7507 7.941 25.444 7.941 25.0657 7.941 24.6874 8.24768 24.3807 8.62598 24.3807 9.00429 24.3807 9.31097 24.6874 9.31097 25.0657Z" fill="#231F20" transform="matrix(1.176 0 0 1 1018.17 459)"/><path d="M16.3427 25.0657C16.3427 25.444 16.036 25.7507 15.6577 25.7507 15.2794 25.7507 14.9727 25.444 14.9727 25.0657 14.9727 24.6874 15.2794 24.3807 15.6577 24.3807 16.036 24.3807 16.3427 24.6874 16.3427 25.0657Z" fill="#231F20" transform="matrix(1.176 0 0 1 1018.17 459)"/><path d="M19.1736 24.3807C18.7952 24.3807 18.4886 24.6873 18.4886 25.0657 18.4886 25.444 18.7952 25.7507 19.1736 25.7507 19.5519 25.7507 19.8586 25.444 19.8586 25.0657 19.8586 24.6873 19.5519 24.3807 19.1736 24.3807Z" fill="#231F20" transform="matrix(1.176 0 0 1 1018.17 459)"/></g></svg>