<svg width="36" height="55" xmlns="http://www.w3.org/2000/svg" xmlns:xlink="http://www.w3.org/1999/xlink" xml:space="preserve" overflow="hidden"><defs><clipPath id="clip0"><rect x="572" y="323" width="36" height="55"/></clipPath></defs><g clip-path="url(#clip0)" transform="translate(-572 -323)"><path d="M27.4843 4.003C27.4843 2.94862 26.6296 2.09388 25.5752 2.09388L13.5574 2.09388C13.4429 2.09278 13.3331 2.04883 13.2495 1.97071L11.9386 0.659835C11.5196 0.237953 10.9496 0.000487641 10.355 7.81401e-16L2.12907 0C0.953215 0 6.71218e-08 0.953215 6.71218e-08 2.12907L0 20.1821 27.4843 20.1821ZM25.7248 18.4226 1.75956 18.4226 1.75956 2.12907C1.75956 1.92499 1.92499 1.75956 2.12907 1.75956L10.355 1.75956C10.4832 1.76091 10.6059 1.81128 10.6981 1.90032L12.009 3.2112C12.4191 3.62292 12.9763 3.85408 13.5574 3.85343L25.5752 3.85343C25.6578 3.85343 25.7248 3.92039 25.7248 4.003Z" fill="#231F20" transform="matrix(1 0 0 1.02687 572.004 323)"/><path d="M15.3258 44.5784C14.8756 44.1244 14.6226 43.5111 14.6219 42.8717L14.6219 23.1558C14.6219 22.6699 14.2281 22.276 13.7422 22.276 13.2563 22.276 12.8624 22.6699 12.8624 23.1558L12.8624 42.8717C12.8539 43.9775 13.2916 45.0399 14.0765 45.8189L18.2466 49.9891C18.4105 50.1516 18.6317 50.2432 18.8625 50.2442 19.0963 50.2455 19.3211 50.1538 19.4871 49.9891 19.8282 49.646 19.8282 49.0917 19.4871 48.7486Z" fill="#231F20" transform="matrix(1 0 0 1.02687 572.004 323)"/><path d="M34.7513 23.279 30.7043 23.279 30.37 22.9447C30.1175 22.6866 29.772 22.5408 29.411 22.54L25.2057 22.54 25.2057 25.7687 17.1733 25.7687C16.6874 25.7687 16.2935 26.1626 16.2935 26.6485 16.2935 27.1344 16.6874 27.5283 17.1733 27.5283L25.2057 27.5283 25.2057 30.7923 35.9918 30.7923 35.9918 24.5195C35.9918 23.8344 35.4364 23.279 34.7513 23.279ZM34.2322 29.0327 26.9652 29.0327 26.9652 24.2995 29.2439 24.2995 29.587 24.6426C29.8376 24.8969 30.1801 25.0396 30.5371 25.0385L34.2322 25.0385Z" fill="#231F20" transform="matrix(1 0 0 1.02687 572.004 323)"/><path d="M34.7513 34.6809 30.7043 34.6809 30.37 34.3114C30.1124 34.0622 29.7694 33.9206 29.411 33.9155L25.2057 33.9155 25.2057 37.1443 17.1733 37.1443C16.6874 37.1443 16.2935 37.5382 16.2935 38.0241 16.2935 38.51 16.6874 38.9039 17.1733 38.9039L25.2057 38.9039 25.2057 42.1326 35.9918 42.1326 35.9918 35.9214C35.9918 35.2363 35.4364 34.6809 34.7513 34.6809ZM34.2322 40.3995 26.9652 40.3995 26.9652 35.7015 29.2439 35.7015 29.587 36.0446C29.8376 36.2988 30.1801 36.4415 30.5371 36.4405L34.2322 36.4405Z" fill="#231F20" transform="matrix(1 0 0 1.02687 572.004 323)"/><path d="M34.7513 46.0829 30.7043 46.0829 30.37 45.7485C30.1175 45.4905 29.772 45.3447 29.411 45.3438L25.2057 45.3438 25.2057 48.5726 22.6983 48.5726C22.2124 48.5726 21.8185 48.9665 21.8185 49.4524 21.8185 49.9383 22.2124 50.3322 22.6983 50.3322L25.2057 50.3322 25.2057 53.561 35.9918 53.561 35.9918 47.3233C35.9918 46.6383 35.4364 46.0829 34.7513 46.0829ZM34.2322 51.8014 26.9652 51.8014 26.9652 47.1034 29.2439 47.1034 29.587 47.4465C29.8376 47.7008 30.1801 47.8435 30.5371 47.8424L34.2322 47.8424Z" fill="#231F20" transform="matrix(1 0 0 1.02687 572.004 323)"/></g></svg>