<svg width="49" height="35" xmlns="http://www.w3.org/2000/svg" xmlns:xlink="http://www.w3.org/1999/xlink" xml:space="preserve" overflow="hidden"><g transform="translate(-1177 -418)"><path d="M27.6097 13.7418C26.8528 11.4326 24.3672 10.1743 22.058 10.9312 20.7272 11.3674 19.6836 12.411 19.2474 13.7418L18.2754 13.7418 18.2754 23.4694 19.2474 23.4694C19.5786 24.457 20.2455 25.2971 21.1321 25.8438L19.7594 25.8438 19.7594 25.5395C19.7594 25.1297 19.4272 24.7975 19.0174 24.7975 18.6076 24.7975 18.2754 25.1297 18.2754 25.5395L18.2754 27.6913C18.2754 28.1011 18.6076 28.4333 19.0174 28.4333 19.4272 28.4333 19.7594 28.1011 19.7594 27.6913L19.7594 27.3278 27.0977 27.3278 27.0977 27.6913C27.0977 28.1011 27.4299 28.4333 27.8397 28.4333 28.2495 28.4333 28.5817 28.1011 28.5817 27.6913L28.5817 27.3278 30.0657 27.3278C30.4755 27.3278 30.8077 26.9956 30.8077 26.5858L30.8077 17.756C30.8091 17.3465 30.646 16.9535 30.3551 16.6653L28.6114 14.9216 28.6114 13.7418ZM19.7594 19.6778 19.7594 15.2258 27.0977 15.2258 27.0977 21.9854 19.7594 21.9854ZM23.4248 12.2578C24.4795 12.2545 25.4533 12.8223 25.9699 13.7418L20.8501 13.7418C21.3585 12.7923 22.3478 12.1993 23.4248 12.1984ZM20.865 23.4694 25.9699 23.4694C25.2246 24.8832 23.4743 25.4251 22.0605 24.6798 21.5443 24.4076 21.1223 23.9857 20.8501 23.4694ZM29.294 17.756 29.294 25.8438 28.552 25.8438 28.552 25.5395C28.552 25.1297 28.2199 24.7975 27.81 24.7975 27.4002 24.7975 27.0681 25.1297 27.0681 25.5395L27.0681 25.8438 25.7176 25.8438C26.607 25.2985 27.2767 24.4581 27.6097 23.4694L28.5817 23.4694 28.5817 17.0659Z" fill="#FFFFFF" transform="matrix(1.04444 0 0 1 1177 418)"/><path d="M15.3964 7.33093 36.1724 7.33093C36.4953 7.32997 36.8052 7.45818 37.0331 7.68709L41.1066 11.7532C41.396 12.0409 41.8635 12.0409 42.1529 11.7532 42.4405 11.4639 42.4405 10.9964 42.1529 10.707L38.0644 6.67797C37.5559 6.17136 36.8679 5.88602 36.1501 5.88404L15.3742 5.88404C14.9644 5.88404 14.6322 6.21624 14.6322 6.62603 14.6322 7.03583 14.9644 7.36803 15.3742 7.36803Z" fill="#FFFFFF" transform="matrix(1.04444 0 0 1 1177 418)"/><path d="M46.3303 23.9146 42.6797 20.2639 42.6797 14.2834C42.6797 13.8736 42.3475 13.5414 41.9377 13.5414 41.5279 13.5414 41.1957 13.8736 41.1957 14.2834L41.1957 18.7799 33.6199 11.2042 28.1959 8.54781 30.8522 13.9941 41.2402 24.382 41.2402 33.516 6.81153 33.516C3.76192 33.516 1.48399 32.3733 1.48399 31.3494 1.48399 30.3254 3.76192 29.1753 6.81153 29.1753 9.4753 29.1753 11.5529 30.0509 12.0055 30.9561 12.1576 31.218 12.4454 31.3705 12.7475 31.3494 13.227 31.3494 13.6156 30.9607 13.6156 30.4812L13.6156 3.65063C13.6231 1.57303 10.6922 0 6.81153 0 2.93089 0 0 1.57303 0 3.65063L0 31.8465 0.0667797 31.8465C0.489718 33.6718 3.24253 35 6.81153 35L42.6797 35 42.6797 25.8512 43.533 26.7119C43.9024 27.0828 44.4044 27.2911 44.9279 27.2906 45.4533 27.2898 45.9572 27.0819 46.3303 26.7119L46.3303 26.7119C47.1028 25.9428 47.1055 24.6931 46.3364 23.9206 46.3344 23.9186 46.3323 23.9166 46.3303 23.9146ZM6.81153 1.48399C9.86114 1.48399 12.1391 2.62667 12.1391 3.65063L12.1391 29.0195C10.5257 28.079 8.67758 27.6183 6.81153 27.6913 4.94576 27.6208 3.09829 28.0813 1.48399 29.0195L1.48399 3.65063C1.48399 2.62667 3.76192 1.48399 6.81153 1.48399ZM45.2618 25.6583C45.0719 25.8509 44.7619 25.853 44.5692 25.6632 44.5676 25.6615 44.566 25.6599 44.5643 25.6583L42.6797 23.7439 41.1957 22.2599 32.0468 13.1259 31.3865 11.7681 32.7443 12.4284 41.1957 20.8798 42.6797 22.3638 45.2767 24.9608C45.4652 25.1547 45.4609 25.4647 45.267 25.6533 45.2653 25.6549 45.2635 25.6566 45.2618 25.6583Z" fill="#FFFFFF" transform="matrix(1.04444 0 0 1 1177 418)"/></g></svg>