<svg width="408" height="483" xmlns="http://www.w3.org/2000/svg" xmlns:xlink="http://www.w3.org/1999/xlink" xml:space="preserve" overflow="hidden"><g transform="translate(-349 -79)"><path d="M339.611 255.604 246.279 348.936C237.852 357.409 233.121 368.875 233.124 380.824L233.124 431.779C233.124 436.377 236.851 440.105 241.45 440.105 246.048 440.105 249.776 436.377 249.776 431.779L249.776 380.824C249.823 373.281 252.808 366.052 258.102 360.676L351.351 267.344C354.844 264.352 355.25 259.096 352.259 255.604 349.269 252.111 344.012 251.705 340.52 254.695 340.195 254.974 339.89 255.278 339.611 255.604Z" stroke="#000000" stroke-width="4.00522" fill="#FFFFFF" transform="matrix(1.0207 0 0 1 349 79.8)"/><path d="M383.656 163.186C377.824 157.177 370.666 152.616 362.757 149.865 362.742 149.644 362.742 149.421 362.757 149.199L303.644 90.0857C305.378 83.8213 306.275 77.3535 306.308 70.8529 306.125 31.5385 274.106-0.183511 234.791-1.33236e-05 234.789-1.08995e-05 234.789-8.46989e-06 234.789-6.03451e-06 230.19-6.03451e-06 226.464 3.72761 226.464 8.32585 226.464 12.9241 230.19 16.6517 234.789 16.6517 264.907 16.6517 289.323 41.0675 289.323 71.1861 289.323 101.305 264.907 125.72 234.789 125.72 204.67 125.72 180.254 101.305 180.254 71.1861 180.254 66.5877 176.527 62.8602 171.928 62.8602 167.331 62.8602 163.603 66.5877 163.603 71.1861 163.695 110.449 195.524 142.243 234.789 142.289 238.022 142.29 241.252 142.041 244.446 141.54L291.404 188.913C291.365 189.579 291.365 190.246 291.404 190.912L163.186 319.047C162.889 319.42 162.611 319.809 162.354 320.212 136.317 329.244 118.847 353.764 118.81 381.324L118.81 462.418C118.848 463.217 119.016 464.005 119.309 464.749L8.32585 464.749C3.72761 464.749 0 468.477 1.84871e-15 473.074 1.84871e-15 477.673 3.72761 481.4 8.32585 481.4L358.012 481.4C362.609 481.4 366.337 477.673 366.337 473.074 366.337 468.477 362.609 464.749 358.012 464.749L135.045 464.749C135.272 463.991 135.412 463.208 135.462 462.418L135.462 381.324C135.403 354.792 156.863 333.237 183.395 333.178 193.677 333.155 203.695 336.431 211.977 342.525 215.702 345.238 220.92 344.418 223.632 340.693 226.344 336.969 225.526 331.75 221.801 329.038 212.052 321.969 200.51 317.787 188.497 316.966L291.404 214.141C293.694 224.178 298.74 233.377 305.974 240.7 309.239 243.965 314.533 243.965 317.797 240.7 321.062 237.435 321.062 232.142 317.797 228.877 302.913 213.98 302.924 189.836 317.822 174.95 332.721 160.065 356.865 160.077 371.75 174.974 386.625 189.864 386.625 213.989 371.75 228.877 368.485 232.119 368.466 237.395 371.708 240.659 374.95 243.924 380.224 243.942 383.488 240.7 404.94 219.362 405.032 184.675 383.692 163.224 383.68 163.212 383.668 163.2 383.656 163.186ZM306.142 163.186C303.356 165.978 300.897 169.079 298.815 172.428L262.847 136.461C276.83 130.434 288.505 120.071 296.15 106.904L337.03 147.784C325.347 149.467 314.516 154.868 306.142 163.186Z" stroke="#000000" stroke-width="4.00522" fill="#FFFFFF" transform="matrix(1.0207 0 0 1 349 79.8)"/></g></svg>