<svg width="27" height="32" xmlns="http://www.w3.org/2000/svg" xmlns:xlink="http://www.w3.org/1999/xlink" xml:space="preserve" overflow="hidden"><g transform="translate(-161 -466)"><path d="M22.5001 16.9344 16.3166 23.1179C15.7583 23.6793 15.4449 24.4389 15.4451 25.2306L15.4451 28.6065C15.4451 28.9111 15.692 29.1581 15.9967 29.1581 16.3013 29.1581 16.5483 28.9111 16.5483 28.6065L16.5483 25.2306C16.5514 24.7308 16.7492 24.2519 17.0999 23.8957L23.2779 17.7122C23.5093 17.514 23.5362 17.1658 23.3381 16.9344 23.14 16.703 22.7917 16.6761 22.5603 16.8742 22.5388 16.8927 22.5186 16.9128 22.5001 16.9344Z" transform="matrix(1.01953 0 0 1 161 466.053)"/><path d="M25.4182 10.8115C25.0318 10.4134 24.5576 10.1112 24.0336 9.92897 24.0326 9.91429 24.0326 9.89951 24.0336 9.88484L20.1172 5.96841C20.2321 5.55338 20.2915 5.12487 20.2937 4.69419 20.2816 2.08951 18.1602-0.0121581 15.5555-8.82724e-07 15.5554-7.22123e-07 15.5554-5.61152e-07 15.5554-3.99802e-07 15.2507-3.99802e-07 15.0038 0.246964 15.0038 0.551609 15.0038 0.856252 15.2507 1.10322 15.5554 1.10322 17.5508 1.10322 19.1684 2.72083 19.1684 4.71626 19.1684 6.7117 17.5508 8.3293 15.5554 8.3293 13.5599 8.3293 11.9423 6.7117 11.9423 4.71626 11.9423 4.41161 11.6954 4.16465 11.3907 4.16465 11.0861 4.16465 10.8391 4.41161 10.8391 4.71626 10.8452 7.31754 12.954 9.42397 15.5554 9.427 15.7696 9.42711 15.9836 9.41056 16.1952 9.37736L19.3063 12.516C19.3037 12.5601 19.3037 12.6043 19.3063 12.6484L10.8115 21.1377C10.7918 21.1624 10.7734 21.1882 10.7564 21.2149 9.03133 21.8133 7.87389 23.4378 7.87146 25.2637L7.87146 30.6364C7.874 30.6893 7.88514 30.7415 7.90456 30.7908L0.551609 30.7908C0.246964 30.7908 0 31.0378 1.22482e-16 31.3424 1.22482e-16 31.6471 0.246964 31.894 0.551609 31.894L23.7192 31.894C24.0238 31.894 24.2708 31.6471 24.2708 31.3424 24.2708 31.0378 24.0238 30.7908 23.7192 30.7908L8.9471 30.7908C8.96211 30.7406 8.97137 30.6887 8.97468 30.6364L8.97468 25.2637C8.97077 23.5059 10.3926 22.0778 12.1504 22.0739 12.8316 22.0724 13.4953 22.2894 14.044 22.6932 14.2908 22.8729 14.6365 22.8186 14.8162 22.5718 14.9959 22.3251 14.9417 21.9793 14.6949 21.7996 14.049 21.3313 13.2843 21.0542 12.4884 20.9998L19.3063 14.1874C19.458 14.8524 19.7923 15.4618 20.2716 15.947 20.4879 16.1633 20.8386 16.1633 21.0549 15.947 21.2712 15.7307 21.2712 15.38 21.0549 15.1637 20.0688 14.1767 20.0695 12.5771 21.0565 11.5909 22.0436 10.6047 23.6432 10.6055 24.6294 11.5925 25.6149 12.579 25.6149 14.1773 24.6294 15.1637 24.4131 15.3785 24.4118 15.728 24.6266 15.9443 24.8414 16.1606 25.1908 16.1618 25.4071 15.947 26.8283 14.5333 26.8344 12.2352 25.4206 10.814 25.4198 10.8132 25.419 10.8124 25.4182 10.8115ZM20.2827 10.8115C20.0981 10.9965 19.9352 11.2019 19.7973 11.4238L17.4143 9.04087C18.3407 8.64157 19.1142 7.95503 19.6207 7.08266L22.3291 9.79106C21.5551 9.9026 20.8375 10.2604 20.2827 10.8115Z" transform="matrix(1.01953 0 0 1 161 466.053)"/></g></svg>