<svg width="127" height="49" xmlns="http://www.w3.org/2000/svg" xmlns:xlink="http://www.w3.org/1999/xlink" xml:space="preserve" overflow="hidden"><defs><clipPath id="clip0"><rect x="181" y="64" width="127" height="49"/></clipPath></defs><g clip-path="url(#clip0)" transform="translate(-181 -64)"><path d="M46.7139 8.97176C45.8411 8.6464 44.8699 9.0901 44.5446 9.9628 44.2191 10.8355 44.6628 11.8067 45.5356 12.1321 46.4083 12.4575 47.3795 12.0138 47.705 11.1411 47.7063 11.1375 47.7075 11.1339 47.7089 11.1304 48.0267 10.2597 47.5824 9.29557 46.7139 8.97176Z" stroke="#000000" stroke-width="1.68642" fill="#FFFFFF" transform="matrix(1.02963 0 0 1 181 64.2999)"/><path d="M40.1705 6.84687C39.2767 6.59814 38.3499 7.11808 38.0962 8.0105 37.7784 8.88592 38.2301 9.85337 39.1056 10.1713 39.981 10.4893 40.9485 10.0374 41.2664 9.16195 41.2949 9.08348 41.3176 9.00299 41.3342 8.92117 41.5829 8.02736 41.063 7.10051 40.1705 6.84687Z" stroke="#000000" stroke-width="1.68642" fill="#FFFFFF" transform="matrix(1.02963 0 0 1 181 64.2999)"/><path d="M53.0717 11.5183C52.2391 11.1007 51.2257 11.4372 50.8082 12.2698 50.3908 13.1023 50.7272 14.1157 51.5598 14.5332 51.6127 14.5598 51.667 14.5836 51.7225 14.6044 52.572 14.9863 53.5702 14.6073 53.9521 13.7578 53.9567 13.7478 53.9611 13.7376 53.9655 13.7275 54.3279 12.8706 53.928 11.882 53.0717 11.5183Z" stroke="#000000" stroke-width="1.68642" fill="#FFFFFF" transform="matrix(1.02963 0 0 1 181 64.2999)"/><path d="M65.2645 17.4545C64.4285 17.0438 63.4179 17.3887 63.0074 18.2248 63.0065 18.2265 63.0055 18.2284 63.0047 18.2302 62.5907 19.0638 62.9303 20.0752 63.7636 20.49 64.6019 20.9045 65.6173 20.561 66.0318 19.7227 66.4463 18.8844 66.1028 17.869 65.2645 17.4545Z" stroke="#000000" stroke-width="1.68642" fill="#FFFFFF" transform="matrix(1.02963 0 0 1 181 64.2999)"/><path d="M13.3396 10.4221C14.2709 10.4109 15.0169 9.64692 15.0057 8.71559 14.9946 7.78428 14.2305 7.03833 13.2992 7.04948 12.3679 7.06062 11.622 7.82464 11.6331 8.75597 11.6361 9.00631 11.6948 9.25285 11.8049 9.47768 12.0913 10.0623 12.6886 10.4299 13.3396 10.4221Z" stroke="#000000" stroke-width="1.68642" fill="#FFFFFF" transform="matrix(1.02963 0 0 1 181 64.2999)"/><path d="M19.7311 8.4321C20.6625 8.35294 21.3533 7.53371 21.2742 6.60234 21.1951 5.67096 20.3758 4.9801 19.4444 5.05926 18.513 5.13842 17.8223 5.95765 17.9014 6.88903 17.9804 7.82041 18.7997 8.51126 19.7311 8.4321Z" stroke="#000000" stroke-width="1.68642" fill="#FFFFFF" transform="matrix(1.02963 0 0 1 181 64.2999)"/><path d="M71.3019 20.4563C70.4683 20.0423 69.4569 20.3819 69.0421 21.2152 68.627 22.0489 68.9665 23.0613 69.8003 23.4765 70.634 23.8915 71.6464 23.552 72.0614 22.7183 72.4765 21.8845 72.1372 20.872 71.3032 20.457 71.3029 20.4568 71.3024 20.4565 71.3019 20.4563Z" stroke="#000000" stroke-width="1.68642" fill="#FFFFFF" transform="matrix(1.02963 0 0 1 181 64.2999)"/><path d="M1.90566 22.7161C0.98121 22.6026 0.139803 23.26 0.0263183 24.1845-0.0871662 25.109 0.570246 25.9503 1.49469 26.0638 2.41544 26.1768 3.25461 25.525 3.37284 24.6049 3.49155 23.6811 2.8389 22.836 1.91512 22.7173 1.91196 22.7169 1.90881 22.7164 1.90566 22.7161Z" stroke="#000000" stroke-width="1.68642" fill="#FFFFFF" transform="matrix(1.02963 0 0 1 181 64.2999)"/><path d="M9.02235 13.7949C9.67824 13.1336 9.67385 12.0659 9.01257 11.41 8.35129 10.7541 7.28352 10.7585 6.62763 11.4198 5.97555 12.0772 5.97555 13.1375 6.62763 13.7949 7.28352 14.4562 8.35129 14.4606 9.01257 13.8047 9.01584 13.8014 9.0191 13.7982 9.02235 13.7949Z" stroke="#000000" stroke-width="1.68642" fill="#FFFFFF" transform="matrix(1.02963 0 0 1 181 64.2999)"/><path d="M4.63766 16.5101C3.80873 16.0816 2.78942 16.4063 2.36099 17.2352 1.93255 18.0641 2.25722 19.0834 3.08615 19.5119 3.91277 19.9411 4.93077 19.6188 5.35995 18.7923 5.36091 18.7904 5.36187 18.7886 5.36282 18.7867 5.792 17.96 5.4698 16.9421 4.64321 16.5129 4.64135 16.512 4.63951 16.511 4.63766 16.5101Z" stroke="#000000" stroke-width="1.68642" fill="#FFFFFF" transform="matrix(1.02963 0 0 1 181 64.2999)"/><path d="M59.2608 14.3852C58.4271 13.9701 57.4147 14.3096 56.9995 15.1434 56.5845 15.9771 56.924 16.9895 57.7577 17.4045 58.5915 17.8196 59.604 17.4803 60.019 16.6464 60.0192 16.6459 60.0196 16.6454 60.0197 16.645 60.4337 15.8114 60.0941 14.7999 59.2608 14.3852Z" stroke="#000000" stroke-width="1.68642" fill="#FFFFFF" transform="matrix(1.02963 0 0 1 181 64.2999)"/><path d="M77.3561 23.4581C76.5627 22.9702 75.524 23.218 75.0363 24.0113 74.5484 24.8047 74.796 25.8434 75.5894 26.3313 75.6842 26.3895 75.7846 26.4384 75.8889 26.4768 76.7097 26.917 77.732 26.6083 78.1722 25.7876 78.6123 24.9668 78.3037 23.9446 77.4829 23.5043 77.4524 23.488 77.4214 23.4726 77.3899 23.4581Z" stroke="#000000" stroke-width="1.68642" fill="#FFFFFF" transform="matrix(1.02963 0 0 1 181 64.2999)"/><path d="M117.881 38.6528C117.518 38.6528 117.223 38.9472 117.223 39.3105 117.232 39.67 117.521 39.9592 117.881 39.9682 118.244 39.9682 118.539 39.6737 118.539 39.3105 118.548 38.9567 118.269 38.6622 117.915 38.6528 117.904 38.6524 117.892 38.6524 117.881 38.6528Z" stroke="#000000" stroke-width="1.68642" fill="#FFFFFF" transform="matrix(1.02963 0 0 1 181 64.2999)"/><path d="M112.501 42.1605C111.886 42.1605 111.388 42.6589 111.388 43.2736 111.388 43.8883 111.886 44.3866 112.501 44.3866 113.116 44.3866 113.614 43.8883 113.614 43.2736 113.605 42.6626 113.112 42.1696 112.501 42.1605Z" stroke="#000000" stroke-width="1.68642" fill="#FFFFFF" transform="matrix(1.02963 0 0 1 181 64.2999)"/><path d="M106.245 44.5384C105.462 44.5384 104.828 45.1726 104.828 45.955 104.828 46.7373 105.462 47.3716 106.245 47.3716 107.027 47.3716 107.661 46.7373 107.661 45.955 107.661 45.1726 107.027 44.5384 106.245 44.5384Z" stroke="#000000" stroke-width="1.68642" fill="#FFFFFF" transform="matrix(1.02963 0 0 1 181 64.2999)"/><path d="M99.6338 45.1961C98.7489 45.1961 98.0316 45.9133 98.0316 46.7982 98.0316 47.683 98.7489 48.4003 99.6338 48.4003 100.519 48.4003 101.236 47.683 101.236 46.7982 101.236 45.9133 100.519 45.1961 99.6338 45.1961Z" stroke="#000000" stroke-width="1.68642" fill="#FFFFFF" transform="matrix(1.02963 0 0 1 181 64.2999)"/><path d="M92.9724 44.218C92.041 44.218 91.286 44.973 91.286 45.9044 91.286 46.8358 92.041 47.5908 92.9724 47.5908 93.9038 47.5908 94.6588 46.8358 94.6588 45.9044 94.6588 44.973 93.9038 44.218 92.9724 44.218Z" stroke="#000000" stroke-width="1.68642" fill="#FFFFFF" transform="matrix(1.02963 0 0 1 181 64.2999)"/><path d="M88.2841 43.5603C88.2841 44.4637 87.5518 45.1961 86.6483 45.1961 85.7449 45.1961 85.0125 44.4637 85.0125 43.5603 85.0125 42.6568 85.7449 41.9244 86.6483 41.9244 87.5518 41.9244 88.2841 42.6568 88.2841 43.5603Z" stroke="#000000" stroke-width="1.68642" fill="#FFFFFF" transform="matrix(1.02963 0 0 1 181 64.2999)"/><path d="M82.3142 40.2211C82.3142 41.0594 81.6347 41.7389 80.7964 41.7389 79.9582 41.7389 79.2786 41.0594 79.2786 40.2211 79.2786 39.3829 79.9582 38.7034 80.7964 38.7034 81.6347 38.7034 82.3142 39.3829 82.3142 40.2211Z" stroke="#000000" stroke-width="1.68642" fill="#FFFFFF" transform="matrix(1.02963 0 0 1 181 64.2999)"/><path d="M76.6647 36.2075C76.6647 36.9153 76.0909 37.4891 75.383 37.4891 74.6752 37.4891 74.1013 36.9153 74.1013 36.2075 74.1013 35.4996 74.6752 34.9258 75.383 34.9258 76.0909 34.9258 76.6647 35.4996 76.6647 36.2075Z" stroke="#000000" stroke-width="1.68642" fill="#FFFFFF" transform="matrix(1.02963 0 0 1 181 64.2999)"/><path d="M70.3575 30.7772C69.8546 30.7772 69.4468 31.185 69.4468 31.6879 69.3778 32.1955 69.7335 32.6628 70.2411 32.7317 70.7487 32.8007 71.216 32.4451 71.285 31.9374 71.2963 31.8546 71.2963 31.7707 71.285 31.6879 71.2852 31.185 70.8774 30.7772 70.3745 30.777 70.3688 30.777 70.3632 30.777 70.3575 30.7772Z" stroke="#000000" stroke-width="1.68642" fill="#FFFFFF" transform="matrix(1.02963 0 0 1 181 64.2999)"/><path d="M65.7704 26.4599C65.5608 26.4156 65.3549 26.5493 65.3105 26.7589 65.2662 26.9686 65.3999 27.1745 65.6095 27.2188 65.6627 27.2301 65.7175 27.2301 65.7704 27.2188 65.98 27.2632 66.186 27.1295 66.2303 26.9198 66.2747 26.7102 66.1409 26.5043 65.9313 26.4599 65.8782 26.4486 65.8234 26.4486 65.7704 26.4599Z" stroke="#000000" stroke-width="1.68642" fill="#FFFFFF" transform="matrix(1.02963 0 0 1 181 64.2999)"/><path d="M123.26 24.3688C122.957 23.4891 121.999 23.0212 121.119 23.3232L97.8124 31.3674C96.2031 31.9243 94.4386 31.8212 92.9049 31.0807L82.5166 26.0215C81.7132 25.5505 80.6799 25.8198 80.2089 26.6234 79.7377 27.4268 80.0072 28.46 80.8106 28.9311 80.8818 28.9729 80.956 29.0093 81.0325 29.0402L91.4209 34.0994C93.9055 35.3469 96.8085 35.4577 99.3808 34.403L122.198 26.5105C123.081 26.2154 123.558 25.2601 123.263 24.3765 123.262 24.374 123.261 24.3713 123.26 24.3688Z" stroke="#000000" stroke-width="1.68642" fill="#FFFFFF" transform="matrix(1.02963 0 0 1 181 64.2999)"/><path d="M68.6036 10.3884C68.4127 10.3459 68.2235 10.4663 68.181 10.6573 68.1387 10.8482 68.2591 11.0374 68.45 11.0798 68.5006 11.091 68.553 11.091 68.6036 11.0798 68.79 11.0798 68.9409 10.9288 68.9409 10.7425 68.9502 10.5565 68.807 10.3981 68.6208 10.3888 68.6151 10.3885 68.6093 10.3884 68.6036 10.3884Z" stroke="#000000" stroke-width="1.68642" fill="#FFFFFF" transform="matrix(1.02963 0 0 1 181 64.2999)"/><path d="M63.46 5.91934C63.4511 5.54122 63.1467 5.23681 62.7686 5.2279 62.3868 5.2279 62.0772 5.53746 62.0772 5.91934 62.0772 6.30121 62.3868 6.61077 62.7686 6.61077 63.1504 6.61077 63.46 6.30121 63.46 5.91934Z" stroke="#000000" stroke-width="1.68642" fill="#FFFFFF" transform="matrix(1.02963 0 0 1 181 64.2999)"/><path d="M55.9386 1.68642C55.3657 1.75961 54.9608 2.2833 55.034 2.85609 55.0944 3.32846 55.4662 3.70036 55.9386 3.76072 56.5115 3.83391 57.0351 3.4289 57.1083 2.85609 57.1815 2.2833 56.7764 1.75961 56.2037 1.68642 56.1157 1.67518 56.0266 1.67518 55.9386 1.68642Z" stroke="#000000" stroke-width="1.68642" fill="#FFFFFF" transform="matrix(1.02963 0 0 1 181 64.2999)"/><path d="M49.8675 1.38287C49.8675 2.1466 49.2483 2.76573 48.4846 2.76573 47.7209 2.76573 47.1017 2.1466 47.1017 1.38287 47.1017 0.61913 47.7209-1.20622e-08 48.4846-1.20622e-08 49.2483-1.20622e-08 49.8675 0.61913 49.8675 1.38287Z" stroke="#000000" stroke-width="1.68642" fill="#FFFFFF" transform="matrix(1.02963 0 0 1 181 64.2999)"/><path d="M42.6833 2.05743C42.6833 3.00745 41.9132 3.77758 40.9632 3.77758 40.0132 3.77758 39.243 3.00745 39.243 2.05743 39.243 1.10742 40.0131 0.337284 40.9632 0.337284 41.9132 0.337284 42.6833 1.10742 42.6833 2.05743Z" stroke="#000000" stroke-width="1.68642" fill="#FFFFFF" transform="matrix(1.02963 0 0 1 181 64.2999)"/><path d="M35.2293 1.68642C32.6611 2.7116 30.1844 3.95275 27.8259 5.39655 27.2952 4.63115 26.2446 4.44089 25.4791 4.97157 25.054 5.26641 24.7875 5.74012 24.7567 6.25662 24.7543 6.58549 24.8481 6.9079 25.0265 7.18415 22.8237 8.69542 20.7067 10.3282 18.6855 12.0748 13.8668 16.2933 9.41552 20.9138 5.37968 25.8866 9.84072 21.3499 14.6815 17.2032 19.8492 13.4914 23.4836 10.9063 27.3846 8.71829 31.4855 6.96492 31.4926 7.56727 31.8204 8.1201 32.3456 8.41524 33.1702 8.84801 34.1897 8.53027 34.6224 7.70553 34.6705 7.61424 34.7097 7.51874 34.7403 7.42025 34.8996 6.87404 34.7728 6.2843 34.403 5.85188 35.0776 5.63265 35.7521 5.41341 36.4267 5.2279L36.6122 5.2279C37.617 4.91491 38.1779 3.84657 37.8649 2.84174 37.5519 1.83688 36.4835 1.27604 35.4788 1.58905 35.3934 1.61562 35.3101 1.64816 35.2293 1.68642Z" stroke="#000000" stroke-width="1.68642" fill="#FFFFFF" transform="matrix(1.02963 0 0 1 181 64.2999)"/></g></svg>