<svg width="210" height="168" xmlns="http://www.w3.org/2000/svg" xmlns:xlink="http://www.w3.org/1999/xlink" xml:space="preserve" overflow="hidden"><g transform="translate(-951 -791)"><path d="M1156.04 950.603 1119.51 950.603C1117.83 950.603 1116.27 949.95 1115.06 948.788L1029.4 863.482C1027.94 862.066 1025.71 862.284 1024.51 863.482 1023.16 864.825 1023.16 867.003 1024.51 868.346L1110.18 953.652C1112.66 956.121 1115.97 957.5 1119.51 957.5L1156.04 957.5C1157.93 957.5 1159.5 955.976 1159.5 954.052 1159.5 952.128 1157.93 950.603 1156.04 950.603Z" stroke="#000000" stroke-width="2.86476" stroke-miterlimit="8" fill-rule="evenodd"/><path d="M1091.79 947.476C1091.2 946.892 1090.4 946.527 1089.56 946.491 1072.67 945.469 1047.79 942.004 1024.91 931.135 1026.99 931.244 1055.19 929.858 1064.83 928.326 1067.63 927.888 1068.73 924.46 1066.72 922.453L1066.72 922.453C1065.96 921.651 1064.86 921.323 1063.77 921.469 1043.81 924.569 1016.45 926.758 1005.65 919.572 1002.11 916.909 998.681 913.991 995.507 910.818 989.78 905.092 984.964 898.745 980.914 892.07 984.562 892.471 988.393 892.69 992.37 892.69 1004.01 892.69 1016.41 891.194 1026.15 889.699 1028.96 889.261 1030.06 885.833 1028.05 883.827L1028.05 883.827C1027.28 883.024 1026.19 882.659 1025.09 882.842 1010.79 885.103 990.546 887.255 976.682 884.483 971.538 874.38 967.926 863.765 965.372 853.552 982.045 852.385 997.879 849.248 1003.17 848.117L1013.82 858.768C1015.17 860.117 1017.36 860.117 1018.71 858.768 1020.06 857.419 1020.06 855.23 1018.71 853.88L1008.06 843.23C1009.19 837.941 1012.33 822.111 1013.49 805.442 1023.71 807.995 1034.33 811.606 1044.43 816.749 1047.09 830.281 1045.12 849.905 1042.94 864.166 1042.75 865.261 1043.12 866.355 1043.92 867.121L1043.92 867.121C1045.93 869.164 1049.36 868.033 1049.79 865.224 1051.76 852.276 1053.59 834.95 1052.06 821.016 1058.73 825.065 1065.08 829.88 1070.81 835.606 1074.02 838.816 1076.9 842.209 1079.56 845.746 1086.64 856.361 1084.64 883.024 1081.64 902.903 1081.46 903.997 1081.83 905.055 1082.63 905.857L1082.63 905.857C1084.64 907.863 1088.06 906.769 1088.5 903.961 1090.22 892.653 1091.82 877.954 1091.17 865.078 1101.78 887.365 1105.36 911.62 1106.45 928.472 1106.49 929.311 1106.85 930.077 1107.44 930.661L1107.58 930.806C1109.85 933.068 1113.68 931.317 1113.49 928.107 1112.11 905.419 1106.34 869.784 1085.33 841.844 1085.33 841.844 1085.33 841.844 1085.33 841.844 1082.45 838.014 1079.24 834.22 1075.73 830.719 1032.57 787.532 959.061 792.566 955.96 792.785L953.004 793.004 952.786 795.958C952.567 799.058 947.532 872.556 990.655 915.669 994.157 919.171 1001.96 925.371 1002.11 925.444 1030.57 946.673 1066.8 952.253 1089.31 953.494 1092.48 953.676 1094.23 949.846 1091.97 947.585L1091.82 947.439ZM1006.63 803.8C1005.8 816.895 1003.57 829.88 1002.15 837.284L964.351 799.496C973.326 799.496 989.05 800.116 1006.63 803.8ZM997.258 842.172C989.853 843.594 976.865 845.819 963.767 846.658 960.082 829.077 959.462 813.356 959.462 804.384L997.258 842.172Z" stroke="#000000" stroke-width="2.86476" stroke-miterlimit="8" fill-rule="evenodd"/></g></svg>