<svg width="213" height="305" xmlns="http://www.w3.org/2000/svg" xmlns:xlink="http://www.w3.org/1999/xlink" xml:space="preserve" overflow="hidden"><defs><clipPath id="clip0"><rect x="277" y="80" width="213" height="305"/></clipPath></defs><g clip-path="url(#clip0)" transform="translate(-277 -80)"><path d="M9.88352 284.559C8.16355 282.877 7.17663 280.585 7.13733 278.179L7.13733 188.187C7.13733 186.215 5.53957 184.618 3.56867 184.618 1.59774 184.618 0 186.215 0 188.187L0 278.216C0.0497386 282.502 1.78796 286.594 4.83721 289.606L18.7959 303.923C20.1614 305.344 22.4205 305.389 23.8418 304.023 25.2631 302.658 25.3084 300.399 23.9429 298.978 23.9311 298.965 23.9192 298.953 23.9073 298.941Z" stroke="#000000" stroke-width="1.33996" fill="#FFFFFF" transform="matrix(1.09012 0 0 1 277.989 80)"/><path d="M68.8942 3.56867C68.8942 1.59774 67.2964 0 65.3256 0 63.3548 -5.28267e-16 61.7569 1.59774 61.7569 3.56867L61.7569 30.0549 0.241623 30.0549 0.241623 54.7333 0 54.7333 0 106.809 0.241623 106.809 0.241623 164.461C0.241623 166.432 1.83936 168.029 3.81029 168.029 5.78119 168.029 7.37896 166.432 7.37896 164.461L7.37896 106.809 83.4503 106.809 83.4503 297.863 46.0558 297.863C44.0849 297.863 42.4871 299.46 42.4871 301.432 42.4871 303.403 44.0849 305 46.0558 305L90.5873 305 90.5873 30.0549 68.8942 30.0549ZM7.37896 99.6717 7.37896 61.8707 83.4503 61.8707 83.4503 99.6717ZM83.4503 54.7333 7.37896 54.7333 7.37896 37.1922 83.4503 37.1922Z" stroke="#000000" stroke-width="1.33996" fill="#FFFFFF" transform="matrix(1.09012 0 0 1 277.989 80)"/><path d="M193.607 54.7333 193.487 54.7333 193.487 30.0549 103.138 30.0549 103.138 54.7333 103.018 54.7333 103.018 106.809 103.138 106.809 103.138 305 193.487 305 193.487 106.809 193.607 106.809ZM110.276 61.8707 186.349 61.8707 186.349 99.6717 110.276 99.6717ZM110.276 37.1922 186.349 37.1922 186.349 54.7333 110.276 54.7333ZM186.349 297.863 110.276 297.863 110.276 106.809 186.349 106.809Z" stroke="#000000" stroke-width="1.33996" fill="#FFFFFF" transform="matrix(1.09012 0 0 1 277.989 80)"/><path d="M163.34 42.6337 133.286 42.6337C131.315 42.6337 129.717 44.2314 129.717 46.2023 129.717 48.1731 131.315 49.771 133.286 49.771L163.34 49.771C165.312 49.771 166.909 48.1731 166.909 46.2023 166.909 44.2314 165.312 42.6337 163.34 42.6337Z" stroke="#000000" stroke-width="1.33996" fill="#FFFFFF" transform="matrix(1.09012 0 0 1 277.989 80)"/><path d="M60.3233 42.6337 30.2663 42.6337C28.2954 42.6337 26.6976 44.2314 26.6976 46.2023 26.6976 48.1731 28.2954 49.771 30.2663 49.771L60.3233 49.771C62.2941 49.771 63.8919 48.1731 63.8919 46.2023 63.8919 44.2314 62.2941 42.6337 60.3233 42.6337Z" stroke="#000000" stroke-width="1.33996" fill="#FFFFFF" transform="matrix(1.09012 0 0 1 277.989 80)"/><path d="M47.5172 113.932 16.6633 113.932 16.6633 130.243 47.5172 130.243ZM40.3798 123.105 23.8006 123.105 23.8006 121.07 40.3798 121.07Z" stroke="#000000" stroke-width="1.33996" fill="#FFFFFF" transform="matrix(1.09012 0 0 1 277.989 80)"/><path d="M34.4971 247.316 26.0355 247.316C23.2399 247.319 20.9749 249.585 20.9727 252.381L20.9727 275.856C20.9769 278.65 23.2415 280.913 26.0355 280.916L34.4971 280.916C37.2911 280.913 39.5557 278.65 39.5599 275.856L39.5599 252.381C39.5577 249.585 37.2926 247.319 34.4971 247.316ZM32.4225 273.779 28.1102 273.779 28.1102 254.453 32.4225 254.453Z" stroke="#000000" stroke-width="1.33996" fill="#FFFFFF" transform="matrix(1.09012 0 0 1 277.989 80)"/><path d="M16.6633 164.13 47.5172 164.13 47.5172 132.738 16.6633 132.738ZM23.8006 139.875 40.3798 139.875 40.3798 156.993 23.8006 156.993Z" stroke="#000000" stroke-width="1.33996" fill="#FFFFFF" transform="matrix(1.09012 0 0 1 277.989 80)"/><path d="M16.6633 198.019 47.5172 198.019 47.5172 166.626 16.6633 166.626ZM23.8006 173.764 40.3798 173.764 40.3798 190.882 23.8006 190.882Z" stroke="#000000" stroke-width="1.33996" fill="#FFFFFF" transform="matrix(1.09012 0 0 1 277.989 80)"/><path d="M153.469 132.738 122.617 132.738 122.617 164.13 153.469 164.13ZM146.331 156.993 129.755 156.993 129.755 139.875 146.331 139.875Z" stroke="#000000" stroke-width="1.33996" fill="#FFFFFF" transform="matrix(1.09012 0 0 1 277.989 80)"/><path d="M153.469 130.243 177.778 130.243 177.778 113.932 122.617 113.932 122.617 130.243 153.469 130.243ZM154.066 121.07 170.641 121.07 170.641 123.105 154.066 123.105ZM146.331 123.105 129.755 123.105 129.755 121.07 146.331 121.07Z" stroke="#000000" stroke-width="1.33996" fill="#FFFFFF" transform="matrix(1.09012 0 0 1 277.989 80)"/><path d="M153.469 198.019 177.778 198.019 177.778 166.626 122.617 166.626 122.617 198.019 153.469 198.019ZM154.066 173.764 170.641 173.764 170.641 190.882 154.066 190.882ZM146.331 190.882 129.755 190.882 129.755 173.764 146.331 173.764Z" stroke="#000000" stroke-width="1.33996" fill="#FFFFFF" transform="matrix(1.09012 0 0 1 277.989 80)"/><path d="M146.928 231.908 177.778 231.908 177.778 200.509 122.617 200.509 122.617 231.908ZM154.066 207.647 170.641 207.647 170.641 224.771 154.066 224.771ZM129.755 207.647 146.331 207.647 146.331 224.771 129.755 224.771Z" stroke="#000000" stroke-width="1.33996" fill="#FFFFFF" transform="matrix(1.09012 0 0 1 277.989 80)"/><path d="M137.515 247.316 129.053 247.316C126.258 247.321 123.995 249.586 123.992 252.381L123.992 275.856C123.996 278.649 126.26 280.912 129.053 280.916L137.515 280.916C140.309 280.913 142.574 278.65 142.579 275.856L142.579 252.381C142.576 249.585 140.311 247.319 137.515 247.316ZM135.442 273.779 131.13 273.779 131.13 254.453 135.442 254.453Z" stroke="#000000" stroke-width="1.33996" fill="#FFFFFF" transform="matrix(1.09012 0 0 1 277.989 80)"/><path d="M20.2829 66.9448C18.2844 66.9444 16.6638 68.5641 16.6631 70.5625 16.6624 72.5609 18.282 74.1816 20.2805 74.1821 22.279 74.183 23.8996 72.5633 23.9003 70.5649 23.9003 70.5649 23.9003 70.5649 23.9003 70.5649 23.9003 68.5664 22.2812 66.9463 20.2829 66.9448Z" stroke="#000000" stroke-width="1.33996" fill="#FFFFFF" transform="matrix(1.09012 0 0 1 277.989 80)"/><path d="M20.2829 88.4965C18.2844 88.4958 16.6638 90.1153 16.6631 92.1138 16.6624 94.1123 18.282 95.7326 20.2805 95.7334 22.279 95.7342 23.8996 94.1146 23.9003 92.1161 23.9012 90.1176 22.282 88.4973 20.2837 88.4965 20.2834 88.4965 20.2832 88.4965 20.2829 88.4965Z" stroke="#000000" stroke-width="1.33996" fill="#FFFFFF" transform="matrix(1.09012 0 0 1 277.989 80)"/><path d="M20.2829 77.7209C18.2844 77.7201 16.6638 79.3397 16.6631 81.3382 16.6624 83.3367 18.282 84.9577 20.2805 84.9577 22.279 84.9585 23.8996 83.339 23.9003 81.3404 23.9012 79.3427 22.2819 77.7216 20.2836 77.7209 20.2834 77.7209 20.2831 77.7209 20.2829 77.7209Z" stroke="#000000" stroke-width="1.33996" fill="#FFFFFF" transform="matrix(1.09012 0 0 1 277.989 80)"/><path d="M34.3252 66.9448C32.3266 66.9457 30.7071 68.5664 30.7077 70.5649 30.7083 72.5633 32.3289 74.183 34.3274 74.1821 36.325 74.1816 37.9444 72.5624 37.945 70.5649 37.9443 68.566 36.3241 66.9457 34.3252 66.9448Z" stroke="#000000" stroke-width="1.33996" fill="#FFFFFF" transform="matrix(1.09012 0 0 1 277.989 80)"/><path d="M26.6465 241.189C26.6453 243.189 28.2648 244.811 30.2639 244.811 32.2631 244.813 33.8847 243.193 33.886 241.194 33.8873 239.195 32.2677 237.573 30.2686 237.571 30.2678 237.571 30.2671 237.571 30.2663 237.571 28.268 237.571 26.6478 239.191 26.6465 241.189Z" stroke="#000000" stroke-width="1.33996" fill="#FFFFFF" transform="matrix(1.09012 0 0 1 277.989 80)"/><path d="M136.904 241.189C136.903 239.191 135.283 237.571 133.283 237.571 131.285 237.573 129.665 239.193 129.666 241.192 129.667 243.19 131.287 244.81 133.286 244.809 135.284 244.81 136.904 243.19 136.904 241.192 136.904 241.191 136.904 241.19 136.904 241.189Z" stroke="#000000" stroke-width="1.33996" fill="#FFFFFF" transform="matrix(1.09012 0 0 1 277.989 80)"/><path d="M30.2663 283.423C28.2678 283.424 26.6482 285.045 26.6488 287.043 26.6494 289.042 28.2701 290.661 30.2686 290.66 32.2662 290.66 33.8854 289.04 33.886 287.043 33.8861 285.044 32.2656 283.424 30.2666 283.423 30.2664 283.423 30.2664 283.423 30.2663 283.423Z" stroke="#000000" stroke-width="1.33996" fill="#FFFFFF" transform="matrix(1.09012 0 0 1 277.989 80)"/><path d="M133.286 283.423C131.287 283.423 129.667 285.042 129.666 287.041 129.665 289.039 131.285 290.66 133.283 290.66 135.282 290.661 136.902 289.042 136.904 287.043 136.904 287.043 136.904 287.043 136.904 287.043 136.905 285.045 135.285 283.424 133.287 283.423 133.287 283.423 133.287 283.423 133.286 283.423Z" stroke="#000000" stroke-width="1.33996" fill="#FFFFFF" transform="matrix(1.09012 0 0 1 277.989 80)"/><path d="M34.3252 88.4965C32.3266 88.4973 30.7071 90.1176 30.7077 92.1161 30.7083 94.1146 32.3289 95.7342 34.3274 95.7334 36.325 95.7326 37.9443 94.1139 37.945 92.1161 37.945 90.1168 36.3244 88.4965 34.3253 88.4965 34.3253 88.4965 34.3252 88.4965 34.3252 88.4965Z" stroke="#000000" stroke-width="1.33996" fill="#FFFFFF" transform="matrix(1.09012 0 0 1 277.989 80)"/><path d="M69.3215 66.9448C67.3231 66.9457 65.7039 68.5664 65.7044 70.5649 65.7049 72.5633 67.3255 74.183 69.3239 74.1821 71.3219 74.1816 72.9411 72.5624 72.9416 70.5649 72.9421 68.566 71.3219 66.9453 69.323 66.9448 69.3225 66.9448 69.322 66.9448 69.3215 66.9448Z" stroke="#000000" stroke-width="1.33996" fill="#FFFFFF" transform="matrix(1.09012 0 0 1 277.989 80)"/><path d="M69.3215 88.4965C67.3231 88.4973 65.7039 90.1176 65.7044 92.1161 65.7049 94.1146 67.3255 95.7342 69.3239 95.7334 71.3219 95.7326 72.9411 94.1139 72.9416 92.1161 72.9426 90.1183 71.3238 88.498 69.3258 88.4965 69.3244 88.4965 69.323 88.4965 69.3215 88.4965Z" stroke="#000000" stroke-width="1.33996" fill="#FFFFFF" transform="matrix(1.09012 0 0 1 277.989 80)"/><path d="M69.3215 77.7209C67.3231 77.7216 65.7039 79.3419 65.7044 81.3404 65.7049 83.339 67.3255 84.9585 69.3239 84.9577 71.3219 84.9577 72.9411 83.3382 72.9416 81.3404 72.9426 79.3427 71.3238 77.7216 69.3258 77.7209 69.3244 77.7209 69.323 77.7209 69.3215 77.7209Z" stroke="#000000" stroke-width="1.33996" fill="#FFFFFF" transform="matrix(1.09012 0 0 1 277.989 80)"/><path d="M123.793 66.9448C121.794 66.9457 120.175 68.5664 120.175 70.5649 120.176 72.5633 121.796 74.183 123.795 74.1821 125.793 74.1816 127.411 72.5624 127.412 70.5649 127.411 68.566 125.792 66.9457 123.793 66.9448Z" stroke="#000000" stroke-width="1.33996" fill="#FFFFFF" transform="matrix(1.09012 0 0 1 277.989 80)"/><path d="M123.793 88.4965C121.794 88.4973 120.175 90.1176 120.175 92.1161 120.176 94.1146 121.796 95.7342 123.795 95.7334 125.793 95.7326 127.411 94.1139 127.412 92.1161 127.413 90.1168 125.792 88.4965 123.793 88.4965 123.793 88.4965 123.793 88.4965 123.793 88.4965Z" stroke="#000000" stroke-width="1.33996" fill="#FFFFFF" transform="matrix(1.09012 0 0 1 277.989 80)"/><path d="M123.793 77.7209C121.794 77.7216 120.175 79.3419 120.175 81.3404 120.176 83.339 121.796 84.9585 123.795 84.9577 125.793 84.9577 127.411 83.3382 127.412 81.3404 127.413 79.3412 125.792 77.7209 123.793 77.7209 123.793 77.7209 123.793 77.7209 123.793 77.7209Z" stroke="#000000" stroke-width="1.33996" fill="#FFFFFF" transform="matrix(1.09012 0 0 1 277.989 80)"/><path d="M137.835 77.7209C135.837 77.7216 134.217 79.3419 134.218 81.3404 134.218 83.339 135.839 84.9585 137.838 84.9577 139.835 84.9577 141.454 83.3382 141.454 81.3404 141.456 79.3427 139.837 77.7216 137.839 77.7209 137.838 77.7209 137.836 77.7209 137.835 77.7209Z" stroke="#000000" stroke-width="1.33996" fill="#FFFFFF" transform="matrix(1.09012 0 0 1 277.989 80)"/><path d="M137.835 66.9448C135.837 66.9457 134.217 68.5664 134.218 70.5649 134.218 72.5633 135.839 74.183 137.838 74.1821 139.835 74.1816 141.454 72.5624 141.454 70.5649 141.455 68.566 139.835 66.9453 137.836 66.9448 137.836 66.9448 137.836 66.9448 137.835 66.9448Z" stroke="#000000" stroke-width="1.33996" fill="#FFFFFF" transform="matrix(1.09012 0 0 1 277.989 80)"/><path d="M137.835 88.4965C135.837 88.4973 134.217 90.1176 134.218 92.1161 134.218 94.1146 135.839 95.7342 137.838 95.7334 139.835 95.7326 141.454 94.1139 141.454 92.1161 141.456 90.1183 139.837 88.498 137.839 88.4965 137.838 88.4965 137.836 88.4965 137.835 88.4965Z" stroke="#000000" stroke-width="1.33996" fill="#FFFFFF" transform="matrix(1.09012 0 0 1 277.989 80)"/><path d="M172.834 74.1821C174.833 74.1816 176.452 72.5609 176.452 70.5625 176.451 68.5641 174.831 66.9444 172.832 66.9448 170.833 66.9457 169.214 68.5664 169.214 70.5649 169.214 70.5649 169.214 70.5649 169.214 70.5649 169.214 72.5624 170.834 74.1821 172.831 74.1821 172.832 74.1821 172.833 74.1821 172.834 74.1821Z" stroke="#000000" stroke-width="1.33996" fill="#FFFFFF" transform="matrix(1.09012 0 0 1 277.989 80)"/><path d="M172.834 88.4965C170.835 88.4958 169.215 90.1153 169.214 92.1138 169.214 94.1123 170.833 95.7326 172.832 95.7334 174.831 95.7342 176.451 94.1146 176.452 92.1161 176.452 90.1176 174.833 88.4973 172.834 88.4965 172.834 88.4965 172.834 88.4965 172.834 88.4965Z" stroke="#000000" stroke-width="1.33996" fill="#FFFFFF" transform="matrix(1.09012 0 0 1 277.989 80)"/><path d="M172.834 77.7209C170.835 77.7201 169.215 79.3397 169.214 81.3382 169.214 83.3367 170.833 84.9577 172.832 84.9577 174.831 84.9585 176.451 83.339 176.452 81.3404 176.452 79.3427 174.833 77.7216 172.834 77.7209 172.834 77.7209 172.834 77.7209 172.834 77.7209Z" stroke="#000000" stroke-width="1.33996" fill="#FFFFFF" transform="matrix(1.09012 0 0 1 277.989 80)"/></g></svg>