<svg width="28" height="40" xmlns="http://www.w3.org/2000/svg" xmlns:xlink="http://www.w3.org/1999/xlink" xml:space="preserve" overflow="hidden"><defs><clipPath id="clip0"><rect x="1132" y="310" width="28" height="40"/></clipPath></defs><g clip-path="url(#clip0)" transform="translate(-1132 -310)"><path d="M1.2962 37.3192C1.07063 37.0986 0.941198 36.798 0.936043 36.4825L0.936043 24.6802C0.936043 24.4217 0.726501 24.2122 0.468022 24.2122 0.20954 24.2122 0 24.4217 0 24.6802L0 36.4874C0.0065231 37.0494 0.234486 37.5861 0.634388 37.9811L2.46504 39.8587C2.64412 40.0451 2.94039 40.051 3.12679 39.8719 3.31319 39.6928 3.31913 39.3966 3.14005 39.2102 3.1385 39.2085 3.13694 39.2069 3.13538 39.2054Z" transform="matrix(1.09268 0 0 1 1132.13 310)"/><path d="M9.03531 0.468022C9.03531 0.20954 8.82576 0 8.56729 0 8.30882 -6.92809e-17 8.09927 0.20954 8.09927 0.468022L8.09927 3.94162 0.0316882 3.94162 0.0316882 7.17814 0 7.17814 0 14.0078 0.0316882 14.0078 0.0316882 21.5686C0.0316882 21.8271 0.241228 22.0366 0.49971 22.0366 0.758189 22.0366 0.967732 21.8271 0.967732 21.5686L0.967732 14.0078 10.9443 14.0078 10.9443 39.064 6.0401 39.064C5.78162 39.064 5.57208 39.2735 5.57208 39.532 5.57208 39.7905 5.78162 40 6.0401 40L11.8803 40 11.8803 3.94162 9.03531 3.94162ZM0.967732 13.0717 0.967732 8.11419 10.9443 8.11419 10.9443 13.0717ZM10.9443 7.17814 0.967732 7.17814 0.967732 4.87767 10.9443 4.87767Z" transform="matrix(1.09268 0 0 1 1132.13 310)"/><path d="M25.3911 7.17814 25.3753 7.17814 25.3753 3.94162 13.5263 3.94162 13.5263 7.17814 13.5105 7.17814 13.5105 14.0078 13.5263 14.0078 13.5263 40 25.3753 40 25.3753 14.0078 25.3911 14.0078ZM14.4624 8.11419 24.4392 8.11419 24.4392 13.0717 14.4624 13.0717ZM14.4624 4.87767 24.4392 4.87767 24.4392 7.17814 14.4624 7.17814ZM24.4392 39.064 14.4624 39.064 14.4624 14.0078 24.4392 14.0078Z" transform="matrix(1.09268 0 0 1 1132.13 310)"/><path d="M21.4217 5.5913 17.4801 5.5913C17.2216 5.5913 17.0121 5.80084 17.0121 6.05932 17.0121 6.31779 17.2216 6.52734 17.4801 6.52734L21.4217 6.52734C21.6802 6.52734 21.8897 6.31779 21.8897 6.05932 21.8897 5.80084 21.6802 5.5913 21.4217 5.5913Z" transform="matrix(1.09268 0 0 1 1132.13 310)"/><path d="M7.91125 5.5913 3.96935 5.5913C3.71087 5.5913 3.50133 5.80084 3.50133 6.05932 3.50133 6.31779 3.71087 6.52734 3.96935 6.52734L7.91125 6.52734C8.16972 6.52734 8.37927 6.31779 8.37927 6.05932 8.37927 5.80084 8.16972 5.5913 7.91125 5.5913Z" transform="matrix(1.09268 0 0 1 1132.13 310)"/><path d="M6.23176 14.9419 2.18535 14.9419 2.18535 17.081 6.23176 17.081ZM5.29571 16.1449 3.12139 16.1449 3.12139 15.878 5.29571 15.878Z" transform="matrix(1.09268 0 0 1 1132.13 310)"/><path d="M4.52421 32.4349 3.41449 32.4349C3.04786 32.4353 2.75081 32.7325 2.75052 33.0991L2.75052 36.1778C2.75107 36.5443 3.04807 36.8411 3.41449 36.8415L4.52421 36.8415C4.89063 36.8411 5.18763 36.5443 5.18818 36.1778L5.18818 33.0991C5.18789 32.7325 4.89083 32.4353 4.52421 32.4349ZM4.25213 35.9054 3.68658 35.9054 3.68658 33.3709 4.25213 33.3709Z" transform="matrix(1.09268 0 0 1 1132.13 310)"/><path d="M2.18535 21.5253 6.23176 21.5253 6.23176 17.4082 2.18535 17.4082ZM3.12139 18.3443 5.29571 18.3443 5.29571 20.5893 3.12139 20.5893Z" transform="matrix(1.09268 0 0 1 1132.13 310)"/><path d="M2.18535 25.9697 6.23176 25.9697 6.23176 21.8526 2.18535 21.8526ZM3.12139 22.7887 5.29571 22.7887 5.29571 25.0337 3.12139 25.0337Z" transform="matrix(1.09268 0 0 1 1132.13 310)"/><path d="M20.1271 17.4082 16.0809 17.4082 16.0809 21.5253 20.1271 21.5253ZM19.191 20.5893 17.017 20.5893 17.017 18.3443 19.191 18.3443Z" transform="matrix(1.09268 0 0 1 1132.13 310)"/><path d="M20.1271 17.081 23.3152 17.081 23.3152 14.9419 16.0809 14.9419 16.0809 17.081 20.1271 17.081ZM20.2054 15.878 22.3791 15.878 22.3791 16.1449 20.2054 16.1449ZM19.191 16.1449 17.017 16.1449 17.017 15.878 19.191 15.878Z" transform="matrix(1.09268 0 0 1 1132.13 310)"/><path d="M20.1271 25.9697 23.3152 25.9697 23.3152 21.8526 16.0809 21.8526 16.0809 25.9697 20.1271 25.9697ZM20.2054 22.7887 22.3791 22.7887 22.3791 25.0337 20.2054 25.0337ZM19.191 25.0337 17.017 25.0337 17.017 22.7887 19.191 22.7887Z" transform="matrix(1.09268 0 0 1 1132.13 310)"/><path d="M19.2693 30.4141 23.3152 30.4141 23.3152 26.2963 16.0809 26.2963 16.0809 30.4141ZM20.2054 27.2324 22.3791 27.2324 22.3791 29.4781 20.2054 29.4781ZM17.017 27.2324 19.191 27.2324 19.191 29.4781 17.017 29.4781Z" transform="matrix(1.09268 0 0 1 1132.13 310)"/><path d="M18.0347 32.4349 16.925 32.4349C16.5584 32.4355 16.2616 32.7326 16.2613 33.0991L16.2613 36.1778C16.2618 36.5441 16.5587 36.8409 16.925 36.8415L18.0347 36.8415C18.4012 36.8411 18.6982 36.5443 18.6989 36.1778L18.6989 33.0991C18.6985 32.7324 18.4014 32.4353 18.0347 32.4349ZM17.7629 35.9054 17.1974 35.9054 17.1974 33.3709 17.7629 33.3709Z" transform="matrix(1.09268 0 0 1 1132.13 310)"/><path d="M2.66005 8.77965C2.39795 8.77959 2.18541 8.99201 2.18532 9.2541 2.18523 9.51619 2.39764 9.72873 2.65974 9.7288 2.92183 9.72892 3.13438 9.5165 3.13447 9.25441 3.13447 9.25441 3.13447 9.25441 3.13447 9.25441 3.13447 8.99232 2.92212 8.77984 2.66005 8.77965Z" transform="matrix(1.09268 0 0 1 1132.13 310)"/><path d="M2.66005 11.6061C2.39795 11.606 2.18541 11.8184 2.18532 12.0805 2.18523 12.3426 2.39764 12.5551 2.65974 12.5552 2.92183 12.5553 3.13438 12.3429 3.13447 12.0808 3.13458 11.8187 2.92223 11.6062 2.66016 11.6061 2.66012 11.6061 2.66009 11.6061 2.66005 11.6061Z" transform="matrix(1.09268 0 0 1 1132.13 310)"/><path d="M2.66005 10.1929C2.39795 10.1928 2.18541 10.4052 2.18532 10.6673 2.18523 10.9294 2.39764 11.142 2.65974 11.142 2.92183 11.1421 3.13438 10.9297 3.13447 10.6676 3.13458 10.4056 2.92222 10.193 2.66015 10.1929 2.66012 10.1929 2.66008 10.1929 2.66005 10.1929Z" transform="matrix(1.09268 0 0 1 1132.13 310)"/><path d="M4.50166 8.77965C4.23956 8.77977 4.02716 8.99232 4.02724 9.25441 4.02732 9.5165 4.23986 9.72892 4.50196 9.7288 4.76394 9.72873 4.97631 9.51638 4.97639 9.25441 4.9763 8.99226 4.76381 8.77977 4.50166 8.77965Z" transform="matrix(1.09268 0 0 1 1132.13 310)"/><path d="M3.49462 31.6314C3.49446 31.8936 3.70686 32.1063 3.96904 32.1064 4.23122 32.1066 4.4439 31.8942 4.44407 31.632 4.44424 31.3698 4.23183 31.1571 3.96965 31.1569 3.96955 31.1569 3.96945 31.1569 3.96935 31.1569 3.70728 31.1569 3.49479 31.3693 3.49462 31.6314Z" transform="matrix(1.09268 0 0 1 1132.13 310)"/><path d="M17.9546 31.6314C17.9545 31.3693 17.742 31.1569 17.4798 31.1569 17.2177 31.1571 17.0053 31.3696 17.0054 31.6317 17.0055 31.8938 17.218 32.1062 17.4801 32.1061 17.7421 32.1062 17.9546 31.8938 17.9546 31.6318 17.9546 31.6316 17.9546 31.6315 17.9546 31.6314Z" transform="matrix(1.09268 0 0 1 1132.13 310)"/><path d="M3.96935 37.1702C3.70725 37.1703 3.49484 37.3829 3.49492 37.645 3.495 37.9071 3.70755 38.1195 3.96965 38.1194 4.23163 38.1193 4.44399 37.9069 4.44407 37.645 4.44408 37.3828 4.23156 37.1703 3.96939 37.1702 3.96937 37.1702 3.96936 37.1702 3.96935 37.1702Z" transform="matrix(1.09268 0 0 1 1132.13 310)"/><path d="M17.4801 37.1702C17.218 37.1702 17.0055 37.3826 17.0054 37.6447 17.0053 37.9068 17.2177 38.1193 17.4798 38.1194 17.7419 38.1195 17.9544 37.9071 17.9546 37.645 17.9546 37.645 17.9546 37.645 17.9546 37.645 17.9547 37.3829 17.7423 37.1703 17.4802 37.1702 17.4802 37.1702 17.4802 37.1702 17.4801 37.1702Z" transform="matrix(1.09268 0 0 1 1132.13 310)"/><path d="M4.50166 11.6061C4.23956 11.6062 4.02716 11.8187 4.02724 12.0808 4.02732 12.3429 4.23986 12.5553 4.50196 12.5552 4.76394 12.5551 4.9763 12.3428 4.97639 12.0808 4.97639 11.8186 4.76386 11.6061 4.50168 11.6061 4.50168 11.6061 4.50167 11.6061 4.50166 11.6061Z" transform="matrix(1.09268 0 0 1 1132.13 310)"/><path d="M9.09135 8.77965C8.82926 8.77977 8.6169 8.99232 8.61697 9.25441 8.61703 9.5165 8.82957 9.72892 9.09166 9.7288 9.35369 9.72873 9.56605 9.51638 9.56611 9.25441 9.56618 8.99226 9.35369 8.77971 9.09154 8.77965 9.09148 8.77965 9.09141 8.77965 9.09135 8.77965Z" transform="matrix(1.09268 0 0 1 1132.13 310)"/><path d="M9.09135 11.6061C8.82926 11.6062 8.6169 11.8187 8.61697 12.0808 8.61703 12.3429 8.82957 12.5553 9.09166 12.5552 9.35369 12.5551 9.56605 12.3428 9.56611 12.0808 9.56624 11.8188 9.35394 11.6063 9.09191 11.6061 9.09173 11.6061 9.09154 11.6061 9.09135 11.6061Z" transform="matrix(1.09268 0 0 1 1132.13 310)"/><path d="M9.09135 10.1929C8.82926 10.193 8.6169 10.4055 8.61697 10.6676 8.61703 10.9297 8.82957 11.1421 9.09166 11.142 9.35369 11.142 9.56605 10.9296 9.56611 10.6676 9.56624 10.4056 9.35394 10.193 9.09191 10.1929 9.09173 10.1929 9.09154 10.1929 9.09135 10.1929Z" transform="matrix(1.09268 0 0 1 1132.13 310)"/><path d="M16.2351 8.77965C15.973 8.77977 15.7606 8.99232 15.7607 9.25441 15.7608 9.5165 15.9733 9.72892 16.2354 9.7288 16.4974 9.72873 16.7097 9.51638 16.7098 9.25441 16.7097 8.99226 16.4973 8.77977 16.2351 8.77965Z" transform="matrix(1.09268 0 0 1 1132.13 310)"/><path d="M16.2351 11.6061C15.973 11.6062 15.7606 11.8187 15.7607 12.0808 15.7608 12.3429 15.9733 12.5553 16.2354 12.5552 16.4974 12.5551 16.7097 12.3428 16.7098 12.0808 16.7099 11.8186 16.4973 11.6061 16.2351 11.6061 16.2351 11.6061 16.2351 11.6061 16.2351 11.6061Z" transform="matrix(1.09268 0 0 1 1132.13 310)"/><path d="M16.2351 10.1929C15.973 10.193 15.7606 10.4055 15.7607 10.6676 15.7608 10.9297 15.9733 11.1421 16.2354 11.142 16.4974 11.142 16.7097 10.9296 16.7098 10.6676 16.7099 10.4054 16.4973 10.1929 16.2351 10.1929 16.2351 10.1929 16.2351 10.1929 16.2351 10.1929Z" transform="matrix(1.09268 0 0 1 1132.13 310)"/><path d="M18.0767 10.1929C17.8147 10.193 17.6022 10.4055 17.6023 10.6676 17.6024 10.9297 17.815 11.1421 18.0771 11.142 18.339 11.142 18.5514 10.9296 18.5514 10.6676 18.5516 10.4056 18.3393 10.193 18.0772 10.1929 18.0771 10.1929 18.0769 10.1929 18.0767 10.1929Z" transform="matrix(1.09268 0 0 1 1132.13 310)"/><path d="M18.0767 8.77965C17.8147 8.77977 17.6022 8.99232 17.6023 9.25441 17.6024 9.5165 17.815 9.72892 18.0771 9.7288 18.339 9.72873 18.5514 9.51638 18.5514 9.25441 18.5515 8.99226 18.339 8.77971 18.0769 8.77965 18.0768 8.77965 18.0768 8.77965 18.0767 8.77965Z" transform="matrix(1.09268 0 0 1 1132.13 310)"/><path d="M18.0767 11.6061C17.8147 11.6062 17.6022 11.8187 17.6023 12.0808 17.6024 12.3429 17.815 12.5553 18.0771 12.5552 18.339 12.5551 18.5514 12.3428 18.5514 12.0808 18.5516 11.8188 18.3393 11.6063 18.0773 11.6061 18.0771 11.6061 18.0769 11.6061 18.0767 11.6061Z" transform="matrix(1.09268 0 0 1 1132.13 310)"/><path d="M22.6667 9.7288C22.9289 9.72873 23.1412 9.51619 23.1412 9.2541 23.1411 8.99201 22.9286 8.77959 22.6665 8.77965 22.4043 8.77977 22.192 8.99232 22.192 9.25441 22.192 9.25441 22.192 9.25441 22.192 9.25441 22.192 9.51638 22.4044 9.7288 22.6664 9.7288 22.6665 9.7288 22.6666 9.7288 22.6667 9.7288Z" transform="matrix(1.09268 0 0 1 1132.13 310)"/><path d="M22.6667 11.6061C22.4046 11.606 22.1921 11.8184 22.192 12.0805 22.192 12.3426 22.4043 12.5551 22.6665 12.5552 22.9286 12.5553 23.1411 12.3429 23.1412 12.0808 23.1413 11.8187 22.9289 11.6062 22.6668 11.6061 22.6668 11.6061 22.6668 11.6061 22.6667 11.6061Z" transform="matrix(1.09268 0 0 1 1132.13 310)"/><path d="M22.6667 10.1929C22.4046 10.1928 22.1921 10.4052 22.192 10.6673 22.192 10.9294 22.4043 11.142 22.6665 11.142 22.9286 11.1421 23.1411 10.9297 23.1412 10.6676 23.1413 10.4056 22.9289 10.193 22.6668 10.1929 22.6668 10.1929 22.6668 10.1929 22.6667 10.1929Z" transform="matrix(1.09268 0 0 1 1132.13 310)"/></g></svg>