<svg version="1.2" baseProfile="tiny" id="EdgeSVG_PkSyG" x="0px" y="0px" width="101.44px" height="58.583px" viewBox="0 0 101.44 58.583" xmlns:xlink="http://www.w3.org/1999/xlink" xmlns="http://www.w3.org/2000/svg">
  <linearGradient id="SVGID_1_" gradientUnits="userSpaceOnUse" x1="-4.882813e-004" y1="29.2915" x2="101.4399" y2="29.2915">
    <stop offset="0" style="stop-color:#000000;stop-opacity:0.5"/>
    <stop offset="1" style="stop-color:#000000;stop-opacity:0.5"/>
  </linearGradient>
  <path style="fill:url(#SVGID_1_);" d="M2.72,58.583c-1.5,0-2.72-1.22-2.72-2.72V2.72C0,1.22,1.22,0,2.72,0h96&#xD;&#xA;&#x9;c1.5,0,2.72,1.22,2.72,2.72v53.143c0,1.5-1.22,2.72-2.72,2.72H2.72z"/>
  <g>
    <path style="fill:#B2D6F1;" d="M2.72,57.363c-0.827,0-1.5-0.673-1.5-1.5V2.72c0-0.827,0.673-1.5,1.5-1.5h96&#xD;&#xA;&#x9;&#x9;c0.827,0,1.5,0.673,1.5,1.5v53.143c0,0.827-0.673,1.5-1.5,1.5H2.72z"/>
    <path style="fill:#B2D6F1;" d="M98.719,1.72c0.552,0,1,0.449,1,1v53.143c0,0.551-0.448,1-1,1h-96c-0.551,0-1-0.449-1-1V2.72&#xD;&#xA;&#x9;&#x9;c0-0.551,0.449-1,1-1H98.719 M98.719,0.72h-96c-1.1,0-2,0.9-2,2v53.143c0,1.1,0.9,2,2,2h96c1.1,0,2-0.9,2-2V2.72&#xD;&#xA;&#x9;&#x9;C100.719,1.62,99.819,0.72,98.719,0.72L98.719,0.72z"/>
  </g>
  <path style="fill:#DE1819;" d="M98.719,0.72c0.827,0,2,0.662,2,2s0,17.047,0,17.047h-100c0,0,0-16.583,0-17.047c0-0.656,0.436-2,2-2&#xD;&#xA;&#x9;"/>
  <path style="fill:#00298B;" d="M0.72,55.863c0,0.813,0.681,2,2,2s94.764,0,96,0s2-1.012,2-2s0-17.048,0-17.048h-100&#xD;&#xA;&#x9;C0.72,38.815,0.72,55.049,0.72,55.863z"/>
  <rect x="0.72" y="19.768" style="fill:#FFFFFF;" width="100" height="19.047"/>
  <g>
    <path style="fill:#FFFFFF;stroke:#000000;stroke-width:0.125;" d="M50.72,17.266c4.055,0,7.915,0.838,11.417,2.348l2.39-5.764&#xD;&#xA;&#x9;&#x9;l-2.203-3.435l-3.343,1.303L56.594,9.04l-3.098,1.811L50.72,8.578l-2.777,2.273L44.844,9.04l-2.387,2.679l-3.343-1.303&#xD;&#xA;&#x9;&#x9;l-2.203,3.435l2.388,5.764C42.802,18.104,46.664,17.266,50.72,17.266z"/>
    <path style="fill:#FFFFFF;stroke:#000000;stroke-width:0.125;" d="M62.582,19.614c0,0,0,9.805,0,12.1&#xD;&#xA;&#x9;&#x9;c0,6.552-5.312,11.864-11.863,11.864c-6.553,0-11.863-5.312-11.863-11.864c0-2.294,0-12.1,0-12.1H62.582z"/>
    <path style="fill:#DE1819;stroke:#000000;stroke-width:0.125;" d="M62.01,20.187c0.001,0,0,9.395,0,11.527&#xD;&#xA;&#x9;&#x9;c0,6.236-5.056,11.292-11.292,11.292c-6.237,0-11.293-5.056-11.293-11.292c0-2.132-0.001-11.527,0-11.527H62.01z"/>
    <g>
      <rect x="48.57" y="33.743" style="fill:#FFFFFF;stroke:#000000;stroke-width:0.125;" width="4.41" height="4.519"/>
      <rect x="48.57" y="24.705" style="fill:#FFFFFF;stroke:#000000;stroke-width:0.125;" width="4.41" height="4.519"/>
      <rect x="52.98" y="29.224" style="fill:#FFFFFF;stroke:#000000;stroke-width:0.125;" width="4.52" height="4.52"/>
      <rect x="52.98" y="20.187" style="fill:#FFFFFF;stroke:#000000;stroke-width:0.125;" width="4.52" height="4.519"/>
      <rect x="57.5" y="24.705" style="fill:#FFFFFF;stroke:#000000;stroke-width:0.125;" width="4.519" height="4.519"/>
      <rect x="43.943" y="29.224" style="fill:#FFFFFF;stroke:#000000;stroke-width:0.125;" width="4.627" height="4.52"/>
      <rect x="43.943" y="20.187" style="fill:#FFFFFF;stroke:#000000;stroke-width:0.125;" width="4.627" height="4.519"/>
      <rect x="39.424" y="24.705" style="fill:#FFFFFF;stroke:#000000;stroke-width:0.125;" width="4.519" height="4.519"/>
      <path style="fill:#FFFFFF;stroke:#000000;stroke-width:0.125;" d="M48.57,42.78v-4.52h-4.627l-0.003,2.482&#xD;&#xA;&#x9;&#x9;&#x9;C45.255,41.732,46.895,42.442,48.57,42.78z"/>
      <path style="fill:#FFFFFF;stroke:#000000;stroke-width:0.125;" d="M39.607,33.742l4.335,0v4.519l-2.421-0.001&#xD;&#xA;&#x9;&#x9;&#x9;C40.58,36.938,39.908,35.403,39.607,33.742z"/>
      <path style="fill:#FFFFFF;stroke:#000000;stroke-width:0.125;" d="M52.98,42.78v-4.52h4.52l0.004,2.482&#xD;&#xA;&#x9;&#x9;&#x9;C56.187,41.732,54.655,42.442,52.98,42.78z"/>
      <path style="fill:#FFFFFF;stroke:#000000;stroke-width:0.125;" d="M61.835,33.742l-4.336,0v4.519l2.421-0.001&#xD;&#xA;&#x9;&#x9;&#x9;C60.863,36.938,61.534,35.403,61.835,33.742z"/>
    </g>
    <path style="fill:#00298B;stroke:#000000;stroke-width:0.125;" d="M46.145,17.245c0.763-0.121,1.522-0.211,2.279-0.271&#xD;&#xA;&#x9;&#x9;l-0.444-5.657L44.922,9.53l-2.356,2.645l1.325,5.517C44.63,17.515,45.381,17.366,46.145,17.245z"/>
    <path style="fill:#007CC1;stroke:#000000;stroke-width:0.125;" d="M41.682,18.316c0.734-0.238,1.472-0.446,2.21-0.625l-1.325-5.517&#xD;&#xA;&#x9;&#x9;l-3.298-1.287l-1.914,2.981l2.172,5.241C40.229,18.82,40.947,18.555,41.682,18.316z"/>
    <path style="fill:#007CC1;stroke:#000000;stroke-width:0.125;" d="M50.72,16.885c0.771,0,1.537,0.03,2.294,0.089l0.445-5.657&#xD;&#xA;&#x9;&#x9;L50.72,9.073l-2.74,2.243l0.444,5.657C49.182,16.915,49.947,16.885,50.72,16.885z"/>
    <path style="fill:#00298B;stroke:#000000;stroke-width:0.125;" d="M55.294,17.245c-0.762-0.121-1.523-0.211-2.28-0.271l0.445-5.657&#xD;&#xA;&#x9;&#x9;l3.057-1.787l2.355,2.645l-1.324,5.517C56.809,17.515,56.057,17.366,55.294,17.245z"/>
    <path style="fill:#007CC1;stroke:#000000;stroke-width:0.125;" d="M59.757,18.316c-0.734-0.238-1.472-0.446-2.21-0.625l1.324-5.517&#xD;&#xA;&#x9;&#x9;l3.299-1.287l1.913,2.981l-2.172,5.241C61.209,18.82,60.492,18.555,59.757,18.316z"/>
    <path style="fill:#FFFFFF;stroke:#000000;stroke-width:0.125;" d="M63.385,15.553l-1.161,2.802&#xD;&#xA;&#x9;&#x9;c-1.463-0.605-2.963-1.092-4.486-1.456l0.707-2.947C60.123,14.353,61.775,14.887,63.385,15.553z"/>
    <path style="fill:#DE1819;stroke:#000000;stroke-width:0.125;" d="M63.152,16.111c-1.577-0.653-3.202-1.174-4.849-1.568&#xD;&#xA;&#x9;&#x9;l-0.425,1.764c1.558,0.373,3.086,0.871,4.578,1.489L63.152,16.111z"/>
    <path style="fill:#DE1819;stroke:#000000;stroke-width:0.125;" d="M43.241,14.984c1.637-0.391,3.298-0.65,4.966-0.78l0.112,1.431&#xD;&#xA;&#x9;&#x9;c-1.594,0.125-3.18,0.375-4.742,0.749L43.241,14.984z"/>
    <path style="fill:#DE1819;stroke:#000000;stroke-width:0.125;" d="M48.095,12.77c-1.745,0.136-3.48,0.408-5.191,0.816L42.57,12.19&#xD;&#xA;&#x9;&#x9;c1.783-0.427,3.592-0.712,5.411-0.854L48.095,12.77z"/>
    <polygon style="fill:#FFF100;stroke:#000000;stroke-width:0.0625;" points="40.346,14.198 40.475,13.607 41.048,13.42 40.6,13.011 &#xD;&#xA;&#x9;&#x9;40.722,12.416 40.149,12.602 39.697,12.199 39.568,12.79 38.995,12.977 39.442,13.386 39.321,13.981 39.894,13.795 &#x9;"/>
    <polygon style="fill:#FFF100;stroke:#000000;stroke-width:0.0625;" points="61.093,14.198 60.964,13.607 60.391,13.42 &#xD;&#xA;&#x9;&#x9;60.838,13.011 60.717,12.416 61.29,12.602 61.742,12.199 61.872,12.79 62.444,12.977 61.997,13.386 62.119,13.981 61.544,13.795 &#x9;&#xD;&#xA;&#x9;&#x9;"/>
    <path style="fill:#FFFFFF;stroke:#000000;stroke-width:0.0625;stroke-linejoin:bevel;" d="M42.083,14.768&#xD;&#xA;&#x9;&#x9;c0.066,0.105,0.122,0.221,0.163,0.345c0.262,0.802-0.176,1.666-0.977,1.928c-0.803,0.262-1.667-0.176-1.929-0.978&#xD;&#xA;&#x9;&#x9;c-0.041-0.125-0.064-0.25-0.072-0.375c0.366,0.574,1.087,0.853,1.764,0.631C41.709,16.099,42.127,15.448,42.083,14.768z"/>
    <g>
      <path style="fill:#FFF100;stroke:#000000;stroke-width:0.0625;" d="M50.72,15.42c0.146,0,0.08-0.107,0.173-0.1&#xD;&#xA;&#x9;&#x9;&#x9;c-0.038-0.101,0.043-0.151,0.082-0.116c0.037,0.035,0.111,0.065,0.223,0.077c-0.065-0.05,0.027-0.151-0.042-0.251&#xD;&#xA;&#x9;&#x9;&#x9;c0.054,0.062,0.178,0.089,0.25,0.05c-0.05-0.069-0.08-0.192-0.058-0.239c0.097,0.07,0.186,0,0.232,0.058&#xD;&#xA;&#x9;&#x9;&#x9;c0.022-0.077-0.013-0.189-0.059-0.224c0.078,0.015,0.085-0.074,0.158-0.07c-0.042-0.104-0.174-0.084-0.215-0.146&#xD;&#xA;&#x9;&#x9;&#x9;c0.072-0.035,0.115-0.089,0.13-0.162c-0.062,0.023-0.158-0.004-0.196-0.011c-0.097-0.02-0.163-0.066-0.085-0.127&#xD;&#xA;&#x9;&#x9;&#x9;c0.061-0.049,0.077-0.17,0.069-0.271c-0.043,0.042-0.158,0.008-0.201,0.062c-0.084-0.108-0.27-0.185-0.462-0.185&#xD;&#xA;&#x9;&#x9;&#x9;c-0.194,0-0.379,0.077-0.464,0.185c-0.042-0.053-0.158-0.019-0.2-0.062c-0.009,0.1,0.008,0.221,0.068,0.271&#xD;&#xA;&#x9;&#x9;&#x9;c0.077,0.061,0.012,0.108-0.084,0.127c-0.039,0.007-0.135,0.034-0.197,0.011c0.017,0.073,0.058,0.127,0.132,0.162&#xD;&#xA;&#x9;&#x9;&#x9;c-0.043,0.062-0.174,0.042-0.216,0.146c0.072-0.004,0.081,0.084,0.158,0.07c-0.047,0.034-0.082,0.146-0.058,0.224&#xD;&#xA;&#x9;&#x9;&#x9;c0.046-0.058,0.135,0.012,0.23-0.058c0.023,0.046-0.007,0.17-0.058,0.239c0.073,0.039,0.197,0.012,0.251-0.05&#xD;&#xA;&#x9;&#x9;&#x9;c-0.069,0.1,0.023,0.201-0.042,0.251c0.111-0.012,0.185-0.042,0.224-0.077c0.038-0.035,0.12,0.015,0.08,0.116&#xD;&#xA;&#x9;&#x9;&#x9;C50.638,15.313,50.574,15.42,50.72,15.42z"/>
      <path style="fill:#FFF100;stroke:#000000;stroke-width:0.0625;" d="M50.72,13.848c0.143,0,0.338,0.083,0.361,0.033&#xD;&#xA;&#x9;&#x9;&#x9;c0.036-0.073,0.172-0.29,0.246-0.329c0.075-0.039,0.052-0.104,0.017-0.123c-0.03-0.016-0.076,0.01-0.076,0.059&#xD;&#xA;&#x9;&#x9;&#x9;c0,0.03-0.015,0.032-0.047,0.032c-0.056,0-0.159,0.04-0.142,0.147c0.004,0.024-0.03,0.05-0.102,0.03&#xD;&#xA;&#x9;&#x9;&#x9;c-0.073-0.021-0.065-0.056-0.035-0.083c0.03-0.025,0.019-0.121-0.075-0.123c-0.092-0.001-0.092-0.063-0.076-0.088&#xD;&#xA;&#x9;&#x9;&#x9;c0.024-0.038,0.019-0.123-0.071-0.123c-0.091,0-0.098,0.085-0.073,0.123c0.017,0.025,0.017,0.087-0.077,0.088&#xD;&#xA;&#x9;&#x9;&#x9;c-0.092,0.002-0.104,0.098-0.073,0.123c0.028,0.027,0.037,0.063-0.035,0.083c-0.072,0.02-0.107-0.006-0.104-0.03&#xD;&#xA;&#x9;&#x9;&#x9;c0.02-0.107-0.083-0.147-0.14-0.147c-0.033,0-0.046-0.002-0.046-0.032c0-0.049-0.048-0.075-0.077-0.059&#xD;&#xA;&#x9;&#x9;&#x9;c-0.037,0.019-0.058,0.084,0.016,0.123c0.074,0.039,0.209,0.256,0.246,0.329C50.38,13.931,50.577,13.848,50.72,13.848z"/>
      <path style="fill:#FFF100;stroke:#000000;stroke-width:0.0625;" d="M49.231,13.238c0.146,0,0.082-0.108,0.175-0.1&#xD;&#xA;&#x9;&#x9;&#x9;c-0.04-0.1,0.042-0.15,0.08-0.116c0.039,0.035,0.112,0.066,0.224,0.077c-0.065-0.05,0.027-0.15-0.043-0.251&#xD;&#xA;&#x9;&#x9;&#x9;c0.055,0.062,0.178,0.089,0.252,0.05c-0.051-0.07-0.081-0.193-0.059-0.239c0.097,0.069,0.186,0,0.231,0.058&#xD;&#xA;&#x9;&#x9;&#x9;c0.024-0.077-0.012-0.189-0.058-0.224c0.077,0.016,0.085-0.073,0.158-0.069c-0.042-0.105-0.174-0.085-0.216-0.146&#xD;&#xA;&#x9;&#x9;&#x9;c0.073-0.036,0.115-0.089,0.132-0.163c-0.063,0.023-0.158-0.003-0.197-0.012c-0.096-0.019-0.162-0.065-0.085-0.127&#xD;&#xA;&#x9;&#x9;&#x9;c0.061-0.048,0.076-0.169,0.069-0.27c-0.042,0.043-0.158,0.008-0.2,0.062c-0.086-0.108-0.27-0.185-0.464-0.185&#xD;&#xA;&#x9;&#x9;&#x9;c-0.192,0-0.378,0.077-0.463,0.185c-0.042-0.054-0.157-0.019-0.2-0.062c-0.008,0.101,0.009,0.222,0.069,0.27&#xD;&#xA;&#x9;&#x9;&#x9;c0.077,0.062,0.011,0.108-0.085,0.127c-0.039,0.008-0.136,0.035-0.196,0.012c0.015,0.074,0.058,0.127,0.13,0.163&#xD;&#xA;&#x9;&#x9;&#x9;c-0.041,0.062-0.173,0.042-0.215,0.146c0.073-0.004,0.08,0.084,0.157,0.069c-0.046,0.035-0.08,0.147-0.058,0.224&#xD;&#xA;&#x9;&#x9;&#x9;c0.046-0.058,0.135,0.011,0.232-0.058c0.022,0.046-0.009,0.169-0.058,0.239c0.072,0.039,0.196,0.012,0.25-0.05&#xD;&#xA;&#x9;&#x9;&#x9;c-0.069,0.101,0.022,0.201-0.043,0.251c0.112-0.011,0.186-0.042,0.224-0.077c0.039-0.035,0.12,0.016,0.082,0.116&#xD;&#xA;&#x9;&#x9;&#x9;C49.151,13.13,49.084,13.238,49.231,13.238z"/>
      <path style="fill:#FFF100;stroke:#000000;stroke-width:0.0625;" d="M49.231,11.666c0.144,0,0.34,0.083,0.363,0.033&#xD;&#xA;&#x9;&#x9;&#x9;c0.036-0.072,0.171-0.29,0.246-0.329c0.073-0.038,0.051-0.104,0.016-0.123c-0.03-0.016-0.077,0.009-0.077,0.058&#xD;&#xA;&#x9;&#x9;&#x9;c0,0.031-0.014,0.032-0.046,0.032c-0.057,0-0.159,0.04-0.141,0.147c0.004,0.024-0.03,0.05-0.104,0.03&#xD;&#xA;&#x9;&#x9;&#x9;c-0.072-0.021-0.063-0.056-0.034-0.083c0.03-0.026,0.019-0.121-0.074-0.123c-0.093-0.002-0.093-0.063-0.076-0.089&#xD;&#xA;&#x9;&#x9;&#x9;c0.024-0.038,0.018-0.123-0.073-0.123s-0.096,0.084-0.072,0.123c0.016,0.025,0.016,0.086-0.076,0.089&#xD;&#xA;&#x9;&#x9;&#x9;c-0.093,0.002-0.104,0.097-0.075,0.123c0.03,0.026,0.039,0.062-0.034,0.083c-0.072,0.02-0.106-0.006-0.103-0.03&#xD;&#xA;&#x9;&#x9;&#x9;c0.019-0.107-0.085-0.147-0.142-0.147c-0.032,0-0.046-0.001-0.046-0.032c0-0.049-0.046-0.074-0.076-0.058&#xD;&#xA;&#x9;&#x9;&#x9;c-0.036,0.019-0.059,0.084,0.017,0.123c0.073,0.039,0.208,0.256,0.245,0.329C48.893,11.749,49.087,11.666,49.231,11.666z"/>
      <path style="fill:#FFF100;stroke:#000000;stroke-width:0.0625;" d="M52.208,13.238c-0.146,0-0.081-0.108-0.173-0.1&#xD;&#xA;&#x9;&#x9;&#x9;c0.038-0.1-0.043-0.15-0.082-0.116c-0.038,0.035-0.111,0.066-0.224,0.077c0.065-0.05-0.026-0.15,0.042-0.251&#xD;&#xA;&#x9;&#x9;&#x9;c-0.054,0.062-0.177,0.089-0.25,0.05c0.05-0.07,0.081-0.193,0.058-0.239c-0.097,0.069-0.186,0-0.231,0.058&#xD;&#xA;&#x9;&#x9;&#x9;c-0.023-0.077,0.012-0.189,0.058-0.224c-0.077,0.016-0.084-0.073-0.158-0.069c0.043-0.105,0.174-0.085,0.216-0.146&#xD;&#xA;&#x9;&#x9;&#x9;c-0.072-0.036-0.115-0.089-0.13-0.163c0.061,0.023,0.158-0.003,0.196-0.012c0.096-0.019,0.162-0.065,0.084-0.127&#xD;&#xA;&#x9;&#x9;&#x9;c-0.061-0.048-0.076-0.169-0.068-0.27c0.042,0.043,0.158,0.008,0.2,0.062c0.084-0.108,0.271-0.185,0.463-0.185&#xD;&#xA;&#x9;&#x9;&#x9;s0.378,0.077,0.463,0.185c0.042-0.054,0.158-0.019,0.201-0.062c0.007,0.101-0.009,0.222-0.07,0.27&#xD;&#xA;&#x9;&#x9;&#x9;c-0.077,0.062-0.011,0.108,0.085,0.127c0.038,0.008,0.135,0.035,0.197,0.012c-0.016,0.074-0.059,0.127-0.131,0.163&#xD;&#xA;&#x9;&#x9;&#x9;c0.042,0.062,0.173,0.042,0.216,0.146c-0.073-0.004-0.081,0.084-0.158,0.069c0.046,0.035,0.081,0.147,0.058,0.224&#xD;&#xA;&#x9;&#x9;&#x9;c-0.047-0.058-0.135,0.011-0.232-0.058c-0.022,0.046,0.008,0.169,0.06,0.239c-0.074,0.039-0.197,0.012-0.252-0.05&#xD;&#xA;&#x9;&#x9;&#x9;c0.069,0.101-0.022,0.201,0.043,0.251c-0.112-0.011-0.186-0.042-0.224-0.077s-0.12,0.016-0.081,0.116&#xD;&#xA;&#x9;&#x9;&#x9;C52.289,13.13,52.354,13.238,52.208,13.238z"/>
      <path style="fill:#FFF100;stroke:#000000;stroke-width:0.0625;" d="M52.208,11.666c-0.144,0-0.338,0.083-0.362,0.033&#xD;&#xA;&#x9;&#x9;&#x9;c-0.037-0.072-0.172-0.29-0.245-0.329c-0.075-0.038-0.053-0.104-0.018-0.123c0.03-0.016,0.077,0.009,0.077,0.058&#xD;&#xA;&#x9;&#x9;&#x9;c0,0.031,0.014,0.032,0.046,0.032c0.057,0,0.159,0.04,0.142,0.147c-0.005,0.024,0.029,0.05,0.103,0.03&#xD;&#xA;&#x9;&#x9;&#x9;c0.073-0.021,0.064-0.056,0.034-0.083s-0.019-0.121,0.074-0.123c0.093-0.002,0.093-0.063,0.077-0.089&#xD;&#xA;&#x9;&#x9;&#x9;c-0.024-0.038-0.019-0.123,0.072-0.123s0.097,0.084,0.073,0.123c-0.017,0.025-0.017,0.086,0.075,0.089&#xD;&#xA;&#x9;&#x9;&#x9;c0.094,0.002,0.105,0.097,0.075,0.123c-0.031,0.026-0.038,0.062,0.034,0.083c0.072,0.02,0.107-0.006,0.103-0.03&#xD;&#xA;&#x9;&#x9;&#x9;c-0.018-0.107,0.085-0.147,0.141-0.147c0.033,0,0.047-0.001,0.047-0.032c0-0.049,0.047-0.074,0.077-0.058&#xD;&#xA;&#x9;&#x9;&#x9;c0.035,0.019,0.058,0.084-0.017,0.123c-0.074,0.039-0.209,0.256-0.245,0.329C52.545,11.749,52.351,11.666,52.208,11.666z"/>
    </g>
    <g>
      <g>
        <path d="M50.121,14.425c-0.013,0.046,0.003,0.106,0.045,0.127c0.043,0.021,0.079,0.068,0.046,0.1&#xD;&#xA;&#x9;&#x9;&#x9;&#x9;c-0.021,0.021-0.08,0.002-0.104-0.058C50.087,14.542,50.076,14.47,50.121,14.425z"/>
        <path d="M50.72,14.167c0.046,0,0.09,0.062,0.115,0.067c-0.041,0.067,0.008,0.182,0.108,0.182c0.123,0,0.157-0.129,0.104-0.193&#xD;&#xA;&#x9;&#x9;&#x9;&#x9;c0.033-0.013,0.056-0.022,0.077-0.05c0.048-0.062,0.057-0.124-0.026-0.048c-0.075,0.067-0.271,0.073-0.317,0.026&#xD;&#xA;&#x9;&#x9;&#x9;&#x9;c-0.046-0.046-0.045-0.151-0.01-0.169c0.056-0.029,0.049-0.052,0.018-0.039c-0.023,0.011-0.048,0.017-0.068,0.017&#xD;&#xA;&#x9;&#x9;&#x9;&#x9;c-0.021,0-0.045-0.006-0.071-0.017c-0.029-0.014-0.038,0.01,0.019,0.039c0.035,0.018,0.036,0.123-0.01,0.169&#xD;&#xA;&#x9;&#x9;&#x9;&#x9;c-0.047,0.047-0.242,0.041-0.316-0.026c-0.084-0.076-0.075-0.014-0.027,0.048c0.021,0.027,0.044,0.037,0.077,0.05&#xD;&#xA;&#x9;&#x9;&#x9;&#x9;c-0.055,0.064-0.019,0.193,0.104,0.193c0.101,0,0.148-0.114,0.107-0.182C50.629,14.228,50.673,14.167,50.72,14.167z"/>
        <path d="M50.72,14.884c0.05,0,0.163,0.042,0.234-0.029c0.055-0.054,0.037-0.1,0-0.056c-0.037,0.044-0.121,0.033-0.164,0.033&#xD;&#xA;&#x9;&#x9;&#x9;&#x9;s-0.048-0.039-0.048-0.064c0-0.024-0.004-0.05,0.01-0.05c0.105,0,0.156-0.052,0.127-0.118c-0.041-0.093-0.057-0.102-0.031,0.006&#xD;&#xA;&#x9;&#x9;&#x9;&#x9;c0.009,0.039-0.092,0.054-0.128,0.054c-0.037,0-0.14-0.015-0.13-0.054c0.024-0.108,0.01-0.099-0.031-0.006&#xD;&#xA;&#x9;&#x9;&#x9;&#x9;c-0.028,0.066,0.021,0.118,0.128,0.118c0.014,0,0.01,0.025,0.01,0.05c0,0.026-0.007,0.064-0.049,0.064&#xD;&#xA;&#x9;&#x9;&#x9;&#x9;c-0.043,0-0.127,0.011-0.163-0.033c-0.037-0.044-0.055,0.002,0,0.056C50.555,14.927,50.668,14.884,50.72,14.884z"/>
        <path d="M50.72,15.027c0.126,0,0.126-0.043,0-0.043C50.591,14.984,50.591,15.027,50.72,15.027z"/>
        <path d="M50.72,15.131c0.09,0,0.09-0.042,0-0.042C50.629,15.089,50.629,15.131,50.72,15.131z"/>
        <path d="M51.317,14.425c0.015,0.046-0.002,0.106-0.045,0.127c-0.041,0.021-0.078,0.068-0.045,0.1&#xD;&#xA;&#x9;&#x9;&#x9;&#x9;c0.021,0.021,0.08,0.002,0.104-0.058C51.351,14.542,51.363,14.47,51.317,14.425z"/>
      </g>
      <g>
        <path d="M48.633,12.242c-0.014,0.047,0.002,0.106,0.045,0.127c0.041,0.021,0.079,0.067,0.046,0.101&#xD;&#xA;&#x9;&#x9;&#x9;&#x9;c-0.021,0.021-0.08,0.002-0.104-0.058C48.6,12.36,48.586,12.287,48.633,12.242z"/>
        <path d="M49.231,11.984c0.047,0,0.091,0.062,0.116,0.067c-0.04,0.067,0.007,0.181,0.107,0.181c0.124,0,0.159-0.129,0.105-0.192&#xD;&#xA;&#x9;&#x9;&#x9;&#x9;c0.032-0.013,0.056-0.023,0.077-0.05c0.048-0.061,0.057-0.124-0.028-0.048c-0.075,0.067-0.27,0.073-0.315,0.027&#xD;&#xA;&#x9;&#x9;&#x9;&#x9;c-0.046-0.046-0.045-0.151-0.01-0.169c0.056-0.03,0.048-0.053,0.017-0.039c-0.024,0.011-0.048,0.017-0.069,0.017&#xD;&#xA;&#x9;&#x9;&#x9;&#x9;s-0.045-0.006-0.069-0.017c-0.03-0.014-0.038,0.009,0.019,0.039c0.034,0.018,0.036,0.123-0.011,0.169&#xD;&#xA;&#x9;&#x9;&#x9;&#x9;c-0.046,0.046-0.241,0.041-0.316-0.027c-0.084-0.075-0.074-0.013-0.027,0.048c0.022,0.027,0.045,0.037,0.078,0.05&#xD;&#xA;&#x9;&#x9;&#x9;&#x9;c-0.055,0.063-0.02,0.192,0.104,0.192c0.101,0,0.149-0.113,0.108-0.181C49.14,12.046,49.185,11.984,49.231,11.984z"/>
        <path d="M49.231,12.702c0.051,0,0.164,0.042,0.235-0.029c0.055-0.054,0.037-0.1,0-0.056c-0.037,0.044-0.12,0.033-0.163,0.033&#xD;&#xA;&#x9;&#x9;&#x9;&#x9;s-0.049-0.039-0.049-0.064s-0.004-0.05,0.01-0.05c0.106,0,0.156-0.051,0.128-0.118c-0.041-0.092-0.057-0.102-0.031,0.006&#xD;&#xA;&#x9;&#x9;&#x9;&#x9;c0.009,0.039-0.093,0.053-0.13,0.053c-0.036,0-0.138-0.015-0.129-0.053c0.025-0.108,0.01-0.099-0.031-0.006&#xD;&#xA;&#x9;&#x9;&#x9;&#x9;c-0.029,0.066,0.022,0.118,0.127,0.118c0.015,0,0.011,0.025,0.011,0.05s-0.006,0.064-0.049,0.064&#xD;&#xA;&#x9;&#x9;&#x9;&#x9;c-0.042,0-0.126,0.011-0.164-0.033c-0.036-0.044-0.055,0.002,0,0.056C49.068,12.744,49.181,12.702,49.231,12.702z"/>
        <path d="M49.231,12.845c0.128,0,0.128-0.042,0-0.042C49.104,12.802,49.104,12.845,49.231,12.845z"/>
        <path d="M49.231,12.949c0.091,0,0.091-0.042,0-0.042S49.14,12.949,49.231,12.949z"/>
        <path d="M49.83,12.242c0.013,0.047-0.002,0.106-0.045,0.127c-0.042,0.021-0.079,0.067-0.046,0.101&#xD;&#xA;&#x9;&#x9;&#x9;&#x9;c0.021,0.021,0.081,0.002,0.104-0.058C49.863,12.36,49.875,12.287,49.83,12.242z"/>
      </g>
      <g>
        <path d="M52.806,12.242c0.013,0.047-0.002,0.106-0.045,0.127c-0.042,0.021-0.079,0.067-0.046,0.101&#xD;&#xA;&#x9;&#x9;&#x9;&#x9;c0.021,0.021,0.081,0.002,0.104-0.058C52.839,12.36,52.852,12.287,52.806,12.242z"/>
        <path d="M52.208,11.984c-0.047,0-0.091,0.062-0.115,0.067c0.04,0.067-0.008,0.181-0.108,0.181c-0.123,0-0.158-0.129-0.104-0.192&#xD;&#xA;&#x9;&#x9;&#x9;&#x9;c-0.033-0.013-0.056-0.023-0.078-0.05c-0.049-0.061-0.057-0.124,0.026-0.048c0.076,0.067,0.271,0.073,0.317,0.027&#xD;&#xA;&#x9;&#x9;&#x9;&#x9;c0.047-0.046,0.045-0.151,0.011-0.169c-0.058-0.03-0.05-0.053-0.019-0.039c0.024,0.011,0.048,0.017,0.069,0.017&#xD;&#xA;&#x9;&#x9;&#x9;&#x9;s0.045-0.006,0.069-0.017c0.031-0.014,0.038,0.009-0.018,0.039c-0.034,0.018-0.037,0.123,0.011,0.169&#xD;&#xA;&#x9;&#x9;&#x9;&#x9;c0.045,0.046,0.24,0.041,0.315-0.027c0.085-0.075,0.076-0.013,0.027,0.048c-0.022,0.027-0.045,0.037-0.078,0.05&#xD;&#xA;&#x9;&#x9;&#x9;&#x9;c0.055,0.063,0.02,0.192-0.104,0.192c-0.101,0-0.148-0.113-0.108-0.181C52.298,12.046,52.254,11.984,52.208,11.984z"/>
        <path d="M52.208,12.702c-0.05,0-0.164,0.042-0.235-0.029c-0.055-0.054-0.036-0.1,0-0.056c0.036,0.044,0.122,0.033,0.164,0.033&#xD;&#xA;&#x9;&#x9;&#x9;&#x9;c0.043,0,0.048-0.039,0.048-0.064s0.004-0.05-0.01-0.05c-0.105,0-0.156-0.051-0.127-0.118c0.04-0.092,0.056-0.102,0.031,0.006&#xD;&#xA;&#x9;&#x9;&#x9;&#x9;c-0.009,0.039,0.093,0.053,0.129,0.053s0.139-0.015,0.13-0.053c-0.026-0.108-0.01-0.099,0.031-0.006&#xD;&#xA;&#x9;&#x9;&#x9;&#x9;c0.027,0.066-0.021,0.118-0.129,0.118c-0.013,0-0.009,0.025-0.009,0.05s0.006,0.064,0.047,0.064c0.043,0,0.128,0.011,0.165-0.033&#xD;&#xA;&#x9;&#x9;&#x9;&#x9;c0.037-0.044,0.055,0.002,0,0.056C52.372,12.744,52.258,12.702,52.208,12.702z"/>
        <path d="M52.208,12.845c-0.127,0-0.127-0.042,0-0.042C52.335,12.802,52.335,12.845,52.208,12.845z"/>
        <path d="M52.208,12.949c-0.091,0-0.091-0.042,0-0.042S52.298,12.949,52.208,12.949z"/>
        <path d="M51.609,12.242c-0.014,0.047,0.003,0.106,0.044,0.127c0.043,0.021,0.081,0.067,0.048,0.101&#xD;&#xA;&#x9;&#x9;&#x9;&#x9;c-0.021,0.021-0.082,0.002-0.105-0.058C51.577,12.36,51.563,12.287,51.609,12.242z"/>
      </g>
    </g>
    <g>
      <path style="fill:#00298B;" d="M54.569,12.471c0.702-0.765,1.649,0.192,2.121-0.124c-0.146,0.248-0.507,0.251-0.858,0.115&#xD;&#xA;&#x9;&#x9;&#x9;c-0.323-0.127-0.935-0.073-1.034,0.137C54.768,12.664,54.458,12.599,54.569,12.471z"/>
      <path style="fill:#00298B;" d="M55.019,12.892c0.21-0.167,0.424-0.264,0.847,0.031c0.404,0.282,0.929,0.24,1.103,0.081&#xD;&#xA;&#x9;&#x9;&#x9;c-0.353,0.089-0.646,0.042-1.029-0.283c-0.347-0.293-0.775-0.24-1.034-0.012C54.84,12.762,54.913,12.961,55.019,12.892z"/>
    </g>
    <g>
      <path style="fill:#DE1819;" d="M55.157,12.798c-0.049,0.026-0.093,0.059-0.138,0.094c-0.106,0.069-0.179-0.13-0.114-0.183&#xD;&#xA;&#x9;&#x9;&#x9;c0.043-0.038,0.09-0.07,0.141-0.098C55.104,12.583,55.213,12.762,55.157,12.798z"/>
      <path style="fill:#DE1819;" d="M56.233,13.091c0.081,0.021,0.162,0.033,0.24,0.037c0.057,0.001,0.052-0.098,0.015-0.107&#xD;&#xA;&#x9;&#x9;&#x9;c-0.065-0.015-0.13-0.037-0.196-0.067C56.336,12.974,56.307,13.113,56.233,13.091z"/>
      <path style="fill:#DE1819;" d="M55.6,12.775c0.063,0.024,0.132,0.06,0.207,0.108c0.039,0.026,0.156-0.148,0.066-0.212&#xD;&#xA;&#x9;&#x9;&#x9;c-0.067-0.049-0.139-0.084-0.21-0.108C55.744,12.595,55.683,12.814,55.6,12.775z"/>
      <path style="fill:#DE1819;" d="M55.465,12.739c-0.081-0.012-0.152-0.004-0.219,0.018c0.061-0.024-0.01-0.223-0.09-0.194&#xD;&#xA;&#x9;&#x9;&#x9;c0.103-0.037,0.217-0.052,0.331-0.039C55.571,12.536,55.544,12.759,55.465,12.739z"/>
      <path style="fill:#DE1819;" d="M55.931,12.965c0.063,0.039,0.13,0.069,0.196,0.093c0.053,0.025,0.136-0.113,0.071-0.152&#xD;&#xA;&#x9;&#x9;&#x9;c-0.066-0.038-0.135-0.084-0.205-0.141C56.066,12.822,55.99,12.997,55.931,12.965z"/>
      <path style="fill:#DE1819;" d="M56.579,13.128c0.171-0.008,0.314-0.056,0.39-0.125c-0.135,0.034-0.264,0.047-0.394,0.032&#xD;&#xA;&#x9;&#x9;&#x9;C56.624,13.041,56.624,13.127,56.579,13.128z"/>
      <path style="fill:#DE1819;" d="M56.239,12.552c-0.077-0.002-0.156-0.015-0.238-0.036c0.064,0.013,0.09-0.166,0.032-0.182&#xD;&#xA;&#x9;&#x9;&#x9;c0.076,0.022,0.147,0.042,0.216,0.056C56.3,12.398,56.3,12.556,56.239,12.552z"/>
      <path style="fill:#DE1819;" d="M55.661,12.415c0.062,0.011,0.119,0.027,0.171,0.047c0.021,0.008,0.043,0.016,0.064,0.023&#xD;&#xA;&#x9;&#x9;&#x9;c0.062,0.023,0.105-0.159,0.036-0.181c-0.083-0.025-0.169-0.052-0.257-0.075C55.755,12.252,55.731,12.432,55.661,12.415z"/>
      <path style="fill:#DE1819;" d="M55.255,12.401c0.084-0.008,0.172-0.01,0.256-0.004c0.074,0.008,0.078-0.188,0.017-0.201&#xD;&#xA;&#x9;&#x9;&#x9;c-0.097-0.019-0.191-0.03-0.287-0.03C55.309,12.169,55.355,12.398,55.255,12.401z"/>
      <path style="fill:#DE1819;" d="M54.967,12.466c0.046-0.019,0.098-0.034,0.154-0.045c0.082-0.016,0.058-0.251-0.037-0.241&#xD;&#xA;&#x9;&#x9;&#x9;c-0.081,0.013-0.16,0.038-0.238,0.077C54.929,12.215,55.042,12.439,54.967,12.466z"/>
      <path style="fill:#DE1819;" d="M56.35,12.547c0.147-0.017,0.27-0.08,0.34-0.2c-0.094,0.063-0.207,0.075-0.332,0.061&#xD;&#xA;&#x9;&#x9;&#x9;C56.41,12.411,56.402,12.544,56.35,12.547z"/>
      <path style="fill:#DE1819;" d="M54.856,12.529c-0.026,0.02-0.045,0.043-0.059,0.069c-0.029,0.065-0.339,0-0.229-0.128&#xD;&#xA;&#x9;&#x9;&#x9;c0.045-0.049,0.092-0.091,0.138-0.127C54.755,12.311,54.917,12.47,54.856,12.529z"/>
    </g>
    <path style="fill:#FFF100;stroke:#000000;stroke-width:0.0625;" d="M54.558,12.488c-0.122,0.229-0.264,0.13-0.324,0.335&#xD;&#xA;&#x9;&#x9;c-0.019,0.061-0.046,0.064-0.19-0.022c-0.191-0.114-0.26-0.084-0.13,0.099c0.054,0.077,0.263,0.045,0.133,0.218&#xD;&#xA;&#x9;&#x9;c-0.12,0.159-0.025,0.202-0.221,0.416c-0.124,0.137,0.069,0.263,0.255,0.16c0.275-0.153,0.336-0.053,0.229,0.053&#xD;&#xA;&#x9;&#x9;c-0.093,0.091-0.122,0.173-0.03,0.145c0.152-0.046-0.017,0.107,0.083,0.091c0.099-0.015,0.13,0.13-0.046,0.229&#xD;&#xA;&#x9;&#x9;c-0.174,0.099-0.345,0.2-0.205,0.267c0.205,0.099-0.051,0.119,0.031,0.176c0.074,0.053,0.074,0.091,0.015,0.122&#xD;&#xA;&#x9;&#x9;c-0.061,0.03,0.022,0.053,0.015,0.129c-0.007,0.076,0.031,0.283-0.053,0.435c-0.084,0.152-0.13,0.297-0.191,0.329&#xD;&#xA;&#x9;&#x9;c-0.061,0.03-0.092,0.083-0.038,0.137c0.054,0.054-0.091,0.106-0.107,0.176c-0.015,0.068-0.053,0.129,0.139,0.122&#xD;&#xA;&#x9;&#x9;c0.19-0.008,0.213-0.039,0.19-0.13c-0.022-0.092-0.015-0.16,0.068-0.198s0.098-0.099,0.091-0.176&#xD;&#xA;&#x9;&#x9;c-0.008-0.091,0.046-0.13,0.153-0.213c0.106-0.084,0.114-0.137,0.122-0.183c0.007-0.046,0.076-0.084,0.122-0.039&#xD;&#xA;&#x9;&#x9;c0.046,0.046,0.137,0.046,0.206,0.039c0.068-0.007,0.113,0.083,0.022,0.137c-0.092,0.053,0.027,0.114-0.068,0.161&#xD;&#xA;&#x9;&#x9;c-0.176,0.083,0.076,0.144-0.129,0.259c-0.144,0.08-0.063,0.214-0.054,0.297c0.015,0.153-0.093,0.199-0.1,0.298&#xD;&#xA;&#x9;&#x9;c-0.008,0.1,0.007,0.137-0.091,0.213c-0.1,0.077-0.054,0.167,0.129,0.16c0.184-0.008,0.145-0.115,0.13-0.19&#xD;&#xA;&#x9;&#x9;c-0.015-0.076,0.037-0.092,0.106-0.092s0.13-0.068,0.076-0.138c-0.054-0.068,0.016-0.144-0.015-0.221&#xD;&#xA;&#x9;&#x9;c-0.031-0.077,0.001-0.088,0.061-0.122c0.107-0.061,0.021-0.154,0.19-0.343c0.062-0.068,0.149-0.264,0.26-0.236&#xD;&#xA;&#x9;&#x9;c0.152,0.038,0.047-0.07,0.199-0.046c0.19,0.031,0.373,0.039,0.525-0.008c0.059-0.018,0.075,0.092,0.007,0.13&#xD;&#xA;&#x9;&#x9;c-0.068,0.039,0.009,0.114-0.098,0.221c-0.107,0.107-0.146,0.214-0.146,0.29s-0.061,0.152-0.168,0.213&#xD;&#xA;&#x9;&#x9;c-0.105,0.061-0.159,0.168,0.039,0.183c0.198,0.016,0.214-0.045,0.206-0.129c-0.008-0.083,0.043-0.156,0.092-0.183&#xD;&#xA;&#x9;&#x9;c0.121-0.068,0.183-0.145,0.197-0.244c0.017-0.1,0.107-0.222,0.199-0.275c0.091-0.053,0.062-0.191,0.182-0.198&#xD;&#xA;&#x9;&#x9;c0.123-0.008,0.275,0.107,0.253,0.251c-0.023,0.146-0.046,0.268-0.038,0.351c0.015,0.168-0.115,0.183-0.107,0.283&#xD;&#xA;&#x9;&#x9;c0.009,0.099-0.03,0.19-0.128,0.244c-0.1,0.054-0.085,0.222,0.113,0.19c0.199-0.03,0.218-0.122,0.202-0.198&#xD;&#xA;&#x9;&#x9;c-0.016-0.077-0.011-0.107,0.046-0.118c0.118-0.023,0.118-0.08,0.11-0.172c-0.008-0.095,0.125-0.396,0.31-0.511&#xD;&#xA;&#x9;&#x9;c0.183-0.114,0.049-0.152,0.011-0.191c-0.038-0.038-0.068-0.221,0-0.281c0.069-0.061,0.064-0.107-0.011-0.146&#xD;&#xA;&#x9;&#x9;c-0.077-0.038-0.042-0.152,0.011-0.213c0.053-0.061,0.053-0.106-0.007-0.133c-0.062-0.027-0.082-0.068,0.003-0.107&#xD;&#xA;&#x9;&#x9;c0.145-0.065,0.267-0.217,0.134-0.366c0.076-0.046,0.164-0.171,0.16-0.282c-0.05,0.019-0.11,0.023-0.149,0&#xD;&#xA;&#x9;&#x9;c0.054-0.069,0.077-0.19,0.05-0.263c-0.072,0.141-0.282,0.202-0.45,0.198c-0.168-0.004-0.124-0.193-0.354-0.076&#xD;&#xA;&#x9;&#x9;c-0.232,0.118-0.223-0.056-0.349,0.026c-0.213,0.141-0.435-0.011-0.571,0.05s-0.29-0.023-0.366,0.015&#xD;&#xA;&#x9;&#x9;c0.03-0.023,0.073-0.061,0.084-0.099c-0.118,0.049-0.334,0.134-0.396-0.03c-0.054-0.142-0.156-0.21-0.188-0.294&#xD;&#xA;&#x9;&#x9;c-0.029-0.084-0.075-0.122-0.049-0.21c0.026-0.087,0.238,0.008,0.324-0.133c0.042-0.069-0.171-0.065-0.305-0.023&#xD;&#xA;&#x9;&#x9;c-0.091,0.028-0.142-0.05-0.054-0.123c0.088-0.071,0.215-0.131,0.142-0.246c-0.042-0.063-0.1-0.078-0.165-0.017&#xD;&#xA;&#x9;&#x9;c-0.062,0.058-0.166,0.006-0.096-0.118C54.863,12.484,54.619,12.374,54.558,12.488z"/>
    <g>
      <path d="M54.78,13.77c0.067,0.067,0.029,0.129,0.007,0.195c-0.023,0.064,0.062,0.104,0.088-0.039&#xD;&#xA;&#x9;&#x9;&#x9;c0.016-0.084,0.004-0.171-0.049-0.206C54.772,13.686,54.729,13.72,54.78,13.77z"/>
      <path d="M55.137,14.177c0.007,0.111-0.118,0.146-0.062,0.317c0.058,0.172,0.104,0.042,0.081-0.057&#xD;&#xA;&#x9;&#x9;&#x9;c-0.023-0.099,0.075-0.198,0.061-0.263C55.203,14.109,55.133,14.116,55.137,14.177z"/>
      <path d="M54.657,14.41c-0.058,0.053-0.091,0.157-0.072,0.21c0.019,0.053,0.062-0.012,0.072-0.081&#xD;&#xA;&#x9;&#x9;&#x9;c0.012-0.068,0.038-0.103,0.08-0.126C54.78,14.392,54.734,14.342,54.657,14.41z"/>
      <path d="M54.375,14.938c-0.024,0.064-0.014,0.192-0.004,0.242s0.046,0.044,0.042-0.017c-0.005-0.061-0.009-0.174,0.017-0.208&#xD;&#xA;&#x9;&#x9;&#x9;C54.458,14.921,54.417,14.831,54.375,14.938z"/>
      <path d="M54.726,14.784c0.012,0.123-0.056,0.088-0.053,0.178c0.005,0.089,0.086,0.053,0.082-0.039&#xD;&#xA;&#x9;&#x9;&#x9;c-0.007-0.092,0.037-0.085,0.029-0.135C54.776,14.738,54.722,14.744,54.726,14.784z"/>
      <path d="M55.339,14.977c-0.085,0.042-0.047,0.219,0.012,0.265s0.057,0.008,0.021-0.065c-0.036-0.073-0.058-0.148-0.029-0.168&#xD;&#xA;&#x9;&#x9;&#x9;C55.373,14.99,55.363,14.965,55.339,14.977z"/>
      <path d="M55.627,14.86c-0.001,0.061,0.072,0.183,0.136,0.204c0.063,0.021,0.099-0.007,0.049-0.051&#xD;&#xA;&#x9;&#x9;&#x9;c-0.049-0.044-0.09-0.097-0.103-0.151S55.629,14.771,55.627,14.86z"/>
      <path d="M55.986,14.738c-0.034,0.133,0.054,0.12,0.054,0.185c0,0.065,0.051,0.076,0.048-0.015&#xD;&#xA;&#x9;&#x9;&#x9;c-0.004-0.092-0.035-0.114-0.01-0.153C56.102,14.717,56.002,14.672,55.986,14.738z"/>
      <path d="M56.35,14.866c-0.04,0.042-0.041,0.166,0.02,0.215c0.062,0.049,0.05-0.024,0.032-0.061&#xD;&#xA;&#x9;&#x9;&#x9;c-0.018-0.036-0.035-0.07-0.016-0.107C56.405,14.877,56.386,14.828,56.35,14.866z"/>
      <path d="M55.583,14.315c0.09,0.068,0.134,0.149,0.146,0.202c0.012,0.054,0.064,0,0.037-0.087&#xD;&#xA;&#x9;&#x9;&#x9;c-0.025-0.087-0.064-0.148-0.137-0.171C55.557,14.235,55.534,14.277,55.583,14.315z"/>
      <path d="M56.049,14.22c-0.07-0.03-0.072-0.111,0.049-0.053c0.123,0.057,0.172,0.114,0.194,0.179&#xD;&#xA;&#x9;&#x9;&#x9;c0.024,0.065-0.018,0.126-0.075,0.034C56.159,14.288,56.122,14.25,56.049,14.22z"/>
      <path d="M56.758,14.734c-0.037,0.113,0.034,0.36,0.225,0.306c0.027-0.008,0.005,0-0.058-0.046c-0.06-0.046-0.105-0.138-0.094-0.21&#xD;&#xA;&#x9;&#x9;&#x9;C56.842,14.711,56.778,14.677,56.758,14.734z"/>
      <path d="M56.888,14.376c-0.074-0.022-0.161,0.072-0.038,0.088c0.121,0.015,0.26,0.008,0.316-0.035&#xD;&#xA;&#x9;&#x9;&#x9;c0.058-0.042,0.065-0.061-0.031-0.045C57.041,14.399,56.954,14.395,56.888,14.376z"/>
      <path d="M56.66,14.067c0.104-0.052,0.243-0.08,0.316-0.053c0.072,0.027,0.03,0.122-0.034,0.084&#xD;&#xA;&#x9;&#x9;&#x9;c-0.065-0.038-0.149-0.004-0.203,0.019C56.686,14.14,56.59,14.102,56.66,14.067z"/>
      <path d="M56.217,15.295c0.062-0.022,0.137-0.046,0.214-0.046c0.076,0,0.122,0.061,0.159,0.064&#xD;&#xA;&#x9;&#x9;&#x9;c-0.054,0.034-0.122,0.065-0.175,0.046c-0.053-0.019-0.106-0.042-0.152-0.03S56.152,15.318,56.217,15.295z"/>
      <path d="M56.992,15.379c0.032,0.04,0.041,0.087,0.03,0.122c-0.012,0.034,0.057,0.053,0.08-0.02&#xD;&#xA;&#x9;&#x9;&#x9;c0.022-0.073-0.004-0.114-0.046-0.129C57.013,15.337,56.954,15.333,56.992,15.379z"/>
      <path d="M54.34,13.171c0.02-0.03,0.042-0.002,0.072-0.025c0.031-0.022,0.158-0.028,0.207-0.005&#xD;&#xA;&#x9;&#x9;&#x9;c0.051,0.023,0.045,0.057,0.003,0.057s-0.055,0.023-0.074,0.05c-0.02,0.027-0.142,0.038-0.13-0.019&#xD;&#xA;&#x9;&#x9;&#x9;c0.011-0.057-0.04-0.042-0.06-0.031C54.34,13.208,54.333,13.182,54.34,13.171z"/>
    </g>
    <g>
      <path style="fill:#EC1C2E;stroke:#000000;stroke-width:0.0625;" d="M54.112,15.974c0.022,0.091,0,0.122-0.19,0.13&#xD;&#xA;&#x9;&#x9;&#x9;c-0.191,0.007-0.153-0.054-0.139-0.122c0.007-0.027,0.032-0.053,0.06-0.076C53.768,15.989,54.126,16.058,54.112,15.974z"/>
      <path style="fill:#EC1C2E;stroke:#000000;stroke-width:0.0625;" d="M54.725,16.592c0.011,0.065,0.002,0.132-0.141,0.137&#xD;&#xA;&#x9;&#x9;&#x9;c-0.183,0.007-0.229-0.083-0.129-0.16C54.436,16.619,54.702,16.68,54.725,16.592z"/>
      <path style="fill:#EC1C2E;stroke:#000000;stroke-width:0.0625;" d="M55.958,16.241c0.008,0.084-0.008,0.145-0.206,0.129&#xD;&#xA;&#x9;&#x9;&#x9;c-0.198-0.015-0.145-0.122-0.039-0.183C55.671,16.249,55.931,16.317,55.958,16.241z"/>
      <path style="fill:#EC1C2E;stroke:#000000;stroke-width:0.0625;" d="M56.922,16.462c0.016,0.076-0.003,0.167-0.202,0.198&#xD;&#xA;&#x9;&#x9;&#x9;c-0.198,0.031-0.213-0.137-0.113-0.19C56.571,16.531,56.9,16.607,56.922,16.462z"/>
    </g>
    <path d="M61.663,16.232c-0.37-0.585-1.377-0.618-1.657-0.662c-0.279-0.044-0.659-0.093-0.584-0.377&#xD;&#xA;&#x9;&#x9;c-0.026-0.006-0.096-0.015-0.129,0.001c0.003-0.037-0.013-0.103-0.036-0.138c-0.114,0.109-0.351,0.096-0.409,0.135&#xD;&#xA;&#x9;&#x9;c-0.057,0.04-0.388-0.009-0.363,0.138c0.025,0.153,0.079,0.157,0.149,0.162c0.071,0.005,0.225-0.004,0.255,0.038&#xD;&#xA;&#x9;&#x9;s0.099,0.135-0.07,0.114s-0.561-0.011-0.548,0.14c0.013,0.152,0.164,0.183,0.603,0.123c-0.042,0.161-0.394,0.071-0.381,0.243&#xD;&#xA;&#x9;&#x9;c0.005,0.067,0.123,0.136,0.329,0.159c0.458,0.054,0.43-0.228,0.954-0.166c0.29,0.188,0.72,0.327,1.1,0.31&#xD;&#xA;&#x9;&#x9;c-0.068,0.039-0.188,0.081-0.302,0.078c-0.148-0.003-0.169,0.203,0.034,0.266c0.203,0.062,0.499,0.021,0.73-0.059&#xD;&#xA;&#x9;&#x9;c0.026,0.13,0.123,0.18,0.235,0.18c0.112,0,0.27,0.067,0.228,0.236c-0.042,0.168,0.119,0.303,0.261,0.142&#xD;&#xA;&#x9;&#x9;c0.141-0.161,0.125-0.498-0.099-0.629c0.217,0.041,0.511,0.036,0.654-0.104c0.121-0.119,0.073-0.308-0.333-0.224&#xD;&#xA;&#x9;&#x9;C62.042,16.391,61.974,16.199,61.663,16.232z"/>
    <path style="fill:#FFFFFF;" d="M59.873,16.094c0.268,0.173,0.623,0.299,0.974,0.284c0.034-0.097-0.085-0.196-0.307-0.199&#xD;&#xA;&#x9;&#x9;c-0.223-0.001-0.534-0.065-0.585-0.087C59.903,16.071,59.823,16.061,59.873,16.094z"/>
  </g>
</svg>