<svg width="21" height="23" xmlns="http://www.w3.org/2000/svg" xmlns:xlink="http://www.w3.org/1999/xlink" xml:space="preserve" overflow="hidden"><defs><clipPath id="clip0"><rect x="264" y="315" width="21" height="23"/></clipPath></defs><g clip-path="url(#clip0)" transform="translate(-264 -315)"><path d="M0.481818 21.8539 0.430195 21.8539C0.192605 21.8539 0 22.0465 9.55226e-17 22.2841 9.55226e-17 22.5217 0.192605 22.7143 0.430195 22.7143L0.481818 22.7143C0.719406 22.7143 0.912013 22.5217 0.912013 22.2841 0.912013 22.0465 0.719406 21.8539 0.481818 21.8539Z" fill="#4C4C4C" transform="matrix(1 0 0 1.01258 264.01 315)"/><path d="M2.15097 21.8539 2.06063 21.8539C1.82305 21.8539 1.63044 22.0465 1.63044 22.2841 1.63044 22.5217 1.82305 22.7143 2.06063 22.7143L2.15097 22.7143C2.38856 22.7143 2.58117 22.5217 2.58117 22.2841 2.58117 22.0465 2.38856 21.8539 2.15097 21.8539Z" fill="#4C4C4C" transform="matrix(1 0 0 1.01258 264.01 315)"/><path d="M3.83304 21.8539 3.73409 21.8539C3.4965 21.8539 3.3039 22.0465 3.3039 22.2841 3.3039 22.5217 3.4965 22.7143 3.73409 22.7143L3.83304 22.7143C4.07063 22.7143 4.26323 22.5217 4.26323 22.2841 4.26323 22.0465 4.07063 21.8539 3.83304 21.8539Z" fill="#4C4C4C" transform="matrix(1 0 0 1.01258 264.01 315)"/><path d="M12.2175 21.8539 12.1186 21.8539C11.881 21.8539 11.6884 22.0465 11.6884 22.2841 11.6884 22.5217 11.881 22.7143 12.1186 22.7143L12.2175 22.7143C12.4551 22.7143 12.6477 22.5217 12.6477 22.2841 12.6477 22.0465 12.4551 21.8539 12.2175 21.8539Z" fill="#4C4C4C" transform="matrix(1 0 0 1.01258 264.01 315)"/><path d="M10.5398 21.8539 10.4408 21.8539C10.2032 21.8539 10.0106 22.0465 10.0106 22.2841 10.0106 22.5217 10.2032 22.7143 10.4408 22.7143L10.5398 22.7143C10.7774 22.7143 10.97 22.5217 10.97 22.2841 10.97 22.0465 10.7774 21.8539 10.5398 21.8539Z" fill="#4C4C4C" transform="matrix(1 0 0 1.01258 264.01 315)"/><path d="M13.891 21.8539 13.7963 21.8539C13.5588 21.8539 13.3662 22.0465 13.3662 22.2841 13.3662 22.5217 13.5588 22.7143 13.7963 22.7143L13.891 22.7143C14.1286 22.7143 14.3212 22.5217 14.3212 22.2841 14.3212 22.0465 14.1286 21.8539 13.891 21.8539Z" fill="#4C4C4C" transform="matrix(1 0 0 1.01258 264.01 315)"/><path d="M8.86201 21.8539 8.76737 21.8539C8.52977 21.8539 8.33717 22.0465 8.33717 22.2841 8.33717 22.5217 8.52977 22.7143 8.76737 22.7143L8.86201 22.7143C9.09961 22.7143 9.29221 22.5217 9.29221 22.2841 9.29221 22.0465 9.09961 21.8539 8.86201 21.8539Z" fill="#4C4C4C" transform="matrix(1 0 0 1.01258 264.01 315)"/><path d="M7.18855 21.8539 7.08961 21.8539C6.85201 21.8539 6.65942 22.0465 6.65942 22.2841 6.65942 22.5217 6.85201 22.7143 7.08961 22.7143L7.18855 22.7143C7.42615 22.7143 7.61875 22.5217 7.61875 22.2841 7.61875 22.0465 7.42615 21.8539 7.18855 21.8539Z" fill="#4C4C4C" transform="matrix(1 0 0 1.01258 264.01 315)"/><path d="M5.5108 21.8539 5.41185 21.8539C5.17425 21.8539 4.98166 22.0465 4.98166 22.2841 4.98166 22.5217 5.17425 22.7143 5.41185 22.7143L5.5108 22.7143C5.74839 22.7143 5.94099 22.5217 5.94099 22.2841 5.94099 22.0465 5.74839 21.8539 5.5108 21.8539Z" fill="#4C4C4C" transform="matrix(1 0 0 1.01258 264.01 315)"/><path d="M15.5687 21.8539 15.487 21.8539C15.2494 21.8539 15.0568 22.0465 15.0568 22.2841 15.0568 22.5217 15.2494 22.7143 15.487 22.7143L15.586 22.7143C15.8236 22.7143 16.0162 22.5217 16.0162 22.2841 16.0162 22.0465 15.8236 21.8539 15.586 21.8539Z" fill="#4C4C4C" transform="matrix(1 0 0 1.01258 264.01 315)"/><path d="M18.9286 21.8539 18.8296 21.8539C18.592 21.8539 18.3994 22.0465 18.3994 22.2841 18.3994 22.5217 18.592 22.7143 18.8296 22.7143L18.9286 22.7143C19.1662 22.7143 19.3588 22.5217 19.3588 22.2841 19.3588 22.0465 19.1662 21.8539 18.9286 21.8539Z" fill="#4C4C4C" transform="matrix(1 0 0 1.01258 264.01 315)"/><path d="M17.2465 21.8539 17.1476 21.8539C16.91 21.8539 16.7174 22.0465 16.7174 22.2841 16.7174 22.5217 16.91 22.7143 17.1476 22.7143L17.2465 22.7143C17.4841 22.7143 17.6767 22.5217 17.6767 22.2841 17.6767 22.0465 17.4841 21.8539 17.2465 21.8539Z" fill="#4C4C4C" transform="matrix(1 0 0 1.01258 264.01 315)"/><path d="M20.5504 21.8539 20.4988 21.8539C20.2612 21.8539 20.0686 22.0465 20.0686 22.2841 20.0686 22.5217 20.2612 22.7143 20.4988 22.7143L20.5504 22.7143C20.788 22.7143 20.9806 22.5217 20.9806 22.2841 20.9806 22.0465 20.788 21.8539 20.5504 21.8539Z" fill="#4C4C4C" transform="matrix(1 0 0 1.01258 264.01 315)"/><path d="M0 12.1659 20.9806 12.1659 20.9806 6.48734 0 6.48734ZM0.86039 7.34773 20.1202 7.34773 20.1202 11.3055 0.86039 11.3055Z" fill="#4C4C4C" transform="matrix(1 0 0 1.01258 264.01 315)"/><path d="M5.53661 8.89643 2.52524 8.89643C2.28766 8.89643 2.09505 9.08903 2.09505 9.32662 2.09505 9.56422 2.28766 9.75682 2.52524 9.75682L5.53661 9.75682C5.7742 9.75682 5.9668 9.56422 5.9668 9.32662 5.9668 9.08903 5.7742 8.89643 5.53661 8.89643Z" fill="#4C4C4C" transform="matrix(1 0 0 1.01258 264.01 315)"/><path d="M9.19756 0C8.95997 0 8.76737 0.192605 8.76737 0.430195 8.76737 0.667783 8.95997 0.86039 9.19756 0.86039L20.1202 0.86039 20.1202 4.81818 0.86039 4.81818 0.86039 4.00942C0.86039 3.77182 0.667783 3.57922 0.430195 3.57922 0.192605 3.57922 0 3.77182 0 4.00942L0 5.67857 20.9806 5.67857 20.9806 0Z" fill="#4C4C4C" transform="matrix(1 0 0 1.01258 264.01 315)"/><path d="M2.72313 2.40909C2.48555 2.40909 2.29294 2.6017 2.29294 2.83929 2.29294 3.07687 2.48555 3.26948 2.72313 3.26948L5.7345 3.26948C5.97209 3.26948 6.16469 3.07687 6.16469 2.83929 6.16469 2.6017 5.97209 2.40909 5.7345 2.40909Z" fill="#4C4C4C" transform="matrix(1 0 0 1.01258 264.01 315)"/><path d="M0 18.6489 10.0881 18.6489C10.0733 18.689 10.0646 18.7311 10.0623 18.7737L10.0623 18.8769C10.0623 19.1145 10.2549 19.3071 10.4925 19.3071 10.73 19.3071 10.9226 19.1145 10.9226 18.8769L10.9226 18.7737C10.9203 18.7311 10.9116 18.689 10.8968 18.6489L20.9806 18.6489 20.9806 12.9704 0 12.9704ZM0.86039 13.8308 20.1202 13.8308 20.1202 17.7886 0.86039 17.7886Z" fill="#4C4C4C" transform="matrix(1 0 0 1.01258 264.01 315)"/><path d="M5.72589 15.3795 2.71453 15.3795C2.47694 15.3795 2.28433 15.5721 2.28433 15.8097 2.28433 16.0473 2.47694 16.2399 2.71453 16.2399L5.72589 16.2399C5.96349 16.2399 6.15609 16.0473 6.15609 15.8097 6.15609 15.5721 5.96349 15.3795 5.72589 15.3795Z" fill="#4C4C4C" transform="matrix(1 0 0 1.01258 264.01 315)"/><path d="M10.4925 21.0451C10.73 21.0451 10.9226 20.8525 10.9226 20.6149L10.9226 20.5117C10.9226 20.2741 10.73 20.0815 10.4925 20.0815 10.2549 20.0815 10.0623 20.2741 10.0623 20.5117L10.0623 20.6149C10.0623 20.8525 10.2549 21.0451 10.4925 21.0451Z" fill="#4C4C4C" transform="matrix(1 0 0 1.01258 264.01 315)"/><path d="M0.632386 2.72744C0.739006 2.72716 0.841719 2.6873 0.920617 2.61558L2.55536 1.12711C2.72602 0.957958 2.95606 0.862235 3.19635 0.86039L7.43807 0.86039C7.67566 0.86039 7.86826 0.667783 7.86826 0.430195 7.86826 0.192605 7.67566 0 7.43807 0L3.19635 0C2.734-9.87121e-06 2.29032 0.182409 1.96169 0.50763L0.344156 1.9789C0.168338 2.1387 0.155357 2.41077 0.315161 2.58659 0.396431 2.67601 0.511558 2.72712 0.632386 2.72744Z" fill="#4C4C4C" transform="matrix(1 0 0 1.01258 264.01 315)"/></g></svg>