<svg width="26" height="31" xmlns="http://www.w3.org/2000/svg" xmlns:xlink="http://www.w3.org/1999/xlink" xml:space="preserve" overflow="hidden"><defs><clipPath id="clip0"><rect x="1082" y="70" width="26" height="31"/></clipPath></defs><g clip-path="url(#clip0)" transform="translate(-1082 -70)"><path d="M24.5813 9.98865C24.5901 10.1404 24.4741 10.2705 24.3223 10.2792 24.3123 10.2798 24.3022 10.2798 24.2922 10.2793L21.6021 10.2793C21.5471 10.272 21.4965 10.3106 21.4893 10.3657 21.488 10.3745 21.488 10.3834 21.4893 10.3922L21.4893 18.9678C21.4924 19.0458 21.4633 19.1219 21.4089 19.178 21.3526 19.2321 21.2767 19.2612 21.1986 19.2584L19.1007 19.2584C18.9491 19.2672 18.8189 19.1513 18.8101 18.9996 18.8095 18.9889 18.8095 18.9784 18.8101 18.9678L18.8101 10.3922C18.8184 10.3382 18.7813 10.2876 18.7274 10.2793 18.7173 10.2778 18.7073 10.2778 18.6972 10.2793L11.9505 10.2638C11.8965 10.2555 11.846 10.2925 11.8377 10.3466 11.8361 10.3565 11.8361 10.3667 11.8377 10.3767L11.8377 12.2937C11.8293 12.3477 11.8664 12.3983 11.9204 12.4066 11.9304 12.4081 11.9405 12.4081 11.9505 12.4066L15.0657 12.4066C15.1441 12.4037 15.2201 12.4334 15.2759 12.4885 15.3309 12.5437 15.3601 12.6194 15.3563 12.6972L15.3563 14.3978C15.3594 14.476 15.3303 14.5519 15.2759 14.6081 15.2196 14.6622 15.1438 14.6912 15.0657 14.6885L11.9505 14.6885C11.8965 14.6801 11.846 14.7172 11.8377 14.7712 11.8361 14.7812 11.8361 14.7913 11.8377 14.8013L11.8377 18.9755C11.8465 19.1272 11.7306 19.2573 11.5789 19.2661 11.5683 19.2668 11.5576 19.2668 11.547 19.2661L9.4491 19.2661C9.37103 19.2689 9.2952 19.2399 9.23884 19.1858 9.18444 19.1296 9.15538 19.0536 9.15845 18.9755L9.15845 8.26487C9.15502 8.18669 9.18412 8.11056 9.23884 8.05461 9.2952 8.00051 9.37103 7.97152 9.4491 7.97422L24.2906 7.97422C24.4423 7.96543 24.5724 8.0813 24.5813 8.23302 24.5819 8.24363 24.5819 8.25426 24.5813 8.26487ZM28.2097 7.05127 22.4323 1.27853C21.82 0.667925 20.9905 0.324923 20.1257 0.324658L12.2041 0.324658C11.3382 0.324103 10.5075 0.66717 9.89434 1.27853L4.11234 7.0559C3.61906 7.54747 3.34104 8.2147 3.33934 8.91109L3.33934 17.0677C3.34123 17.938 3.68816 18.7719 4.30404 19.3867L9.89434 24.9863C10.5044 25.5964 11.3321 25.9383 12.1948 25.9371L16.3118 25.9371 16.3257 30.5751C16.3261 30.6834 16.4146 30.7709 16.5229 30.7705 16.5741 30.7702 16.6231 30.7501 16.6596 30.7142L28.2066 19.212C28.6999 18.7204 28.9779 18.0532 28.9796 17.3568L28.9796 8.91573C28.9779 8.21934 28.6999 7.55211 28.2066 7.06054" fill="#231F20" transform="matrix(1 0 0 1.01677 1078.66 69.6936)"/><path d="M32.54 19.2677C32.5037 19.2318 32.4836 19.1827 32.4844 19.1316L32.4844 8.26178C32.4844 8.15565 32.57 8.06938 32.6761 8.06853L34.5575 8.06853C34.6092 8.06827 34.6588 8.08889 34.6951 8.12573 34.7315 8.16158 34.7516 8.21073 34.7508 8.26178L34.7508 17.2981C34.7452 17.3371 34.7723 17.3729 34.8112 17.3785 34.8179 17.3794 34.8245 17.3794 34.8312 17.3785L40.0876 17.3785C40.1386 17.3777 40.1877 17.3978 40.2236 17.4341 40.2604 17.4705 40.2811 17.5201 40.2808 17.5717L40.2808 19.1316C40.2799 19.2377 40.1936 19.3233 40.0876 19.3233L32.6761 19.3233C32.6251 19.3241 32.5759 19.304 32.54 19.2677Z" fill="#231F20" transform="matrix(1 0 0 1.01677 1078.66 69.6936)"/><path d="M41.0615 9.76603C40.5313 9.26425 40.5082 8.42762 41.01 7.8974 41.5119 7.36717 42.3484 7.34412 42.8787 7.84591 43.409 8.3477 43.432 9.18432 42.9302 9.71453 42.6802 9.97862 42.3326 10.1281 41.969 10.1278 41.6297 10.1368 41.3016 10.006 41.0615 9.76603ZM40.8683 19.2677C40.8319 19.2318 40.8118 19.1827 40.8126 19.1316L40.8126 11.2363C40.8126 11.1301 40.8983 11.0439 41.0043 11.043L42.8858 11.043C42.9374 11.0428 42.9871 11.0634 43.0234 11.1002 43.0597 11.1361 43.0798 11.1852 43.079 11.2363L43.079 19.1316C43.0798 19.1827 43.0597 19.2318 43.0234 19.2677 42.9869 19.3042 42.9373 19.3243 42.8858 19.3233L41.0043 19.3233C40.9533 19.3241 40.9041 19.304 40.8683 19.2677Z" fill="#231F20" transform="matrix(1 0 0 1.01677 1078.66 69.6936)"/><path d="M50.4426 11.7186C50.9682 12.2443 51.2311 12.957 51.2311 13.8567L51.2311 19.1316C51.2312 19.1828 51.2107 19.232 51.1739 19.2677 51.1381 19.3043 51.089 19.3244 51.0378 19.3233L49.1625 19.3233C49.1114 19.3244 49.0622 19.3043 49.0265 19.2677 48.9891 19.2324 48.9683 19.183 48.9693 19.1316L48.9693 14.3236C48.986 13.9419 48.8566 13.5682 48.6075 13.2785 48.0899 12.7504 47.2422 12.7419 46.7143 13.2594 46.7078 13.2657 46.7015 13.2721 46.6951 13.2785 46.4461 13.5682 46.3167 13.9419 46.3334 14.3236L46.3334 19.1316C46.3343 19.183 46.3136 19.2324 46.2762 19.2677 46.2403 19.304 46.1911 19.3241 46.1401 19.3233L44.2525 19.3233C44.2013 19.3244 44.1521 19.3043 44.1164 19.2677 44.079 19.2324 44.0583 19.183 44.0592 19.1316L44.0592 11.2471C44.0592 11.1404 44.1458 11.0538 44.2525 11.0538L46.1339 11.0538C46.2406 11.0538 46.3272 11.1404 46.3272 11.2471L46.3272 11.8098C46.3245 11.8351 46.3365 11.8597 46.3581 11.8732 46.3726 11.8836 46.3929 11.8803 46.4034 11.8657 46.4051 11.8633 46.4065 11.8606 46.4076 11.8578 46.8466 11.2394 47.5001 10.9302 48.3679 10.9302 49.2356 10.9302 49.9273 11.193 50.4426 11.7186Z" fill="#231F20" transform="matrix(1 0 0 1.01677 1078.66 69.6936)"/><path d="M51.5928 19.2522C51.5655 19.1961 51.5746 19.129 51.616 19.0822L54.2055 15.2404C54.2255 15.211 54.2255 15.1724 54.2055 15.143L51.616 11.3012C51.5967 11.2666 51.5856 11.2279 51.5835 11.1883 51.5835 11.1033 51.6377 11.06 51.7381 11.06L53.7479 11.06C53.841 11.0581 53.9277 11.1074 53.9736 11.1883L55.4207 13.3914C55.464 13.4548 55.5011 13.4548 55.5336 13.3914L56.9806 11.1883C57.0257 11.1074 57.112 11.058 57.2048 11.06L59.3661 11.06C59.425 11.051 59.4832 11.0801 59.5114 11.1327 59.5299 11.1907 59.5177 11.2542 59.4789 11.3012L56.9064 15.1507C56.8959 15.1823 56.8959 15.2165 56.9064 15.2481L59.4789 19.0899C59.5007 19.1234 59.512 19.1627 59.5114 19.2028 59.5114 19.2893 59.4619 19.3311 59.3661 19.3311L57.3408 19.3311C57.2476 19.3337 57.1606 19.2842 57.1151 19.2028L55.6681 16.9997C55.6356 16.9363 55.6031 16.9363 55.5722 16.9997L54.1252 19.2028C54.0794 19.2839 53.9927 19.3334 53.8994 19.3311L51.7443 19.3311C51.6826 19.3376 51.623 19.3065 51.5928 19.2522Z" fill="#231F20" transform="matrix(1 0 0 1.01677 1078.66 69.6936)"/></g></svg>