<svg width="1112" height="1290" xmlns="http://www.w3.org/2000/svg" xmlns:xlink="http://www.w3.org/1999/xlink" xml:space="preserve" overflow="hidden"><defs><clipPath id="clip0"><rect x="740" y="477" width="1112" height="1290"/></clipPath></defs><g clip-path="url(#clip0)" transform="translate(-740 -477)"><path d="M998.932 756 1002.05 756 1086.59 756 1414.53 756 1486.73 756 1621.95 756C1641.86 756 1658 772.126 1658 792.019L1658 855.963C1658 875.856 1641.86 891.982 1621.95 891.982L1527.39 891.982 1527.39 1231.37C1527.39 1253.81 1509.18 1272 1486.73 1272L1414.53 1272C1392.07 1272 1373.87 1253.81 1373.87 1231.37L1373.87 891.982 1119.52 891.982 1119.52 940.009 1233.56 940.009C1253.47 940.009 1269.61 956.135 1269.61 976.028L1269.61 1039.97C1269.61 1059.87 1253.47 1075.99 1233.56 1075.99L1119.52 1075.99 1119.52 1239.1C1119.52 1257.27 1104.78 1272 1086.59 1272L998.932 1272C980.744 1272 966 1257.27 966 1239.1L966 1039.97 966 976.028 966 855.963 966 792.019 966 788.901C966 770.73 980.744 756 998.932 756ZM1418.84 802.701 1418.84 802.701 1075.99 802.701 1075.99 802.701 1012.4 802.701 1012.4 986.414 1012.4 1031.06 1012.4 1225.93 1075.99 1225.93 1075.99 1031.06 1223.78 1031.06 1223.78 986.414 1075.99 986.414 1075.99 847.341 1418.84 847.341 1418.84 1225.93 1481.56 1225.93 1481.56 847.341 1612.17 847.341 1612.17 802.701 1481.56 802.701 1481.56 802.701 1418.84 802.701Z" fill="#7C7C7C" fill-rule="evenodd"/><path d="M1066.44 525.127 790.442 800.999 790.442 1191.15 1066.44 1467.02 1345.47 1467.02 1345.47 1657 1752.33 1242.65 1803.85 1191.15 1803.85 1190.18 1803.85 800.999 1527.85 525.127ZM1042.83 477 1549.17 477 1852 779.686 1852 1205.07 1852 1207.76 1653.44 1406.23 1297.32 1767 1297.32 1510.45 1042.83 1510.45 740 1207.76 740 779.686Z" fill="#7C7C7C" fill-rule="evenodd"/></g></svg>