<svg width="493" height="200" xmlns="http://www.w3.org/2000/svg" xmlns:xlink="http://www.w3.org/1999/xlink" xml:space="preserve" overflow="hidden"><g transform="translate(-583 -325)"><path d="M778.115 389.61C778.172 390.591 777.422 391.433 776.44 391.49 776.375 391.493 776.31 391.493 776.245 391.49L758.805 391.49C758.449 391.443 758.122 391.693 758.075 392.049 758.067 392.105 758.067 392.163 758.075 392.22L758.075 447.69C758.095 448.195 757.907 448.687 757.555 449.05 757.191 449.4 756.7 449.588 756.195 449.57L742.625 449.57C742.12 449.588 741.629 449.4 741.265 449.05 740.913 448.687 740.725 448.195 740.745 447.69L740.745 392.22C740.799 391.871 740.559 391.544 740.21 391.49 740.145 391.48 740.08 391.48 740.015 391.49L696.375 391.39C696.026 391.336 695.699 391.576 695.645 391.925 695.635 391.99 695.635 392.055 695.645 392.12L695.645 404.52C695.591 404.869 695.831 405.196 696.18 405.25 696.245 405.26 696.31 405.26 696.375 405.25L716.525 405.25C717.518 405.205 718.36 405.973 718.405 406.966 718.407 407.021 718.407 407.076 718.405 407.13L718.405 418.13C718.456 419.112 717.702 419.949 716.72 420 716.655 420.004 716.59 420.004 716.525 420L696.375 420C696.026 419.946 695.699 420.186 695.645 420.535 695.635 420.6 695.635 420.665 695.645 420.73L695.645 447.73C695.702 448.711 694.952 449.553 693.971 449.61 693.902 449.614 693.834 449.614 693.765 449.61L680.185 449.61C679.68 449.628 679.19 449.44 678.825 449.09 678.473 448.727 678.285 448.235 678.305 447.73L678.305 378.46C678.283 377.954 678.471 377.462 678.825 377.1 679.19 376.75 679.68 376.562 680.185 376.58L776.235 376.58C777.217 376.529 778.054 377.283 778.106 378.265 778.109 378.33 778.109 378.395 778.105 378.46ZM801.585 370.61 764.185 333.27C760.219 329.315 754.846 327.096 749.245 327.1L698.015 327.1C692.421 327.1 687.055 329.319 683.095 333.27L645.675 370.64C642.484 373.82 640.686 378.135 640.675 382.64L640.675 435.4C640.687 441.029 642.931 446.423 646.915 450.4L683.095 486.55C687.045 490.489 692.396 492.701 697.975 492.7L724.615 492.7 724.695 522.7C724.693 523.401 725.26 523.972 725.961 523.974 726.3 523.975 726.626 523.84 726.865 523.6L801.555 449.2C804.746 446.02 806.544 441.704 806.555 437.2L806.555 382.67C806.544 378.165 804.746 373.85 801.555 370.67" stroke="#000000" fill="#FFFFFF"/><path d="M636.855 453.36C632.55 449.051 630.13 443.211 630.125 437.12L630.125 380.19C630.125 375.315 632.06 370.639 635.505 367.19L675.655 327.1 671.775 327.1C666.128 327.098 660.711 329.339 656.715 333.33L618.955 371.05C615.747 374.275 613.949 378.641 613.955 383.19L613.955 436.43C613.937 442.116 616.178 447.576 620.185 451.61L656.705 488.09C660.683 492.069 666.078 494.306 671.705 494.31L678.185 494.31C677.394 493.712 676.642 493.064 675.935 492.37Z" stroke="#000000" fill="#FFFFFF"/><text fill="#FFFFFF" font-family="Barlow,Barlow_MSFontService,sans-serif" font-weight="700" font-size="104" transform="translate(822.845 450)">Optix</text></g></svg>