<svg width="152" height="85" xmlns="http://www.w3.org/2000/svg" xmlns:xlink="http://www.w3.org/1999/xlink" xml:space="preserve" overflow="hidden"><g transform="translate(-959 -233)"><path d="M75.135 47.03 69.9 29.85 69.875 29.745C69.875 29.58 69.97 29.495 70.155 29.495L73.355 29.495C73.5185 29.48 73.669 29.5859 73.71 29.745L77.09 42.15C77.09 42.2 77.135 42.225 77.17 42.225 77.205 42.225 77.23 42.225 77.245 42.15L80.575 29.745C80.616 29.5859 80.7665 29.48 80.93 29.495L84.055 29.495C84.192 29.479 84.3165 29.5773 84.332 29.7144 84.3375 29.7608 84.33 29.8078 84.31 29.85L79 47.03C78.966 47.1828 78.8265 47.2887 78.67 47.28L75.465 47.28C75.308 47.2908 75.167 47.1841 75.135 47.03Z" transform="matrix(1.08185 0 0 1 959 233)"/><path d="M92.315 34.59C93.108 34.9238 93.798 35.4622 94.315 36.15 94.791 36.7879 95.046 37.564 95.04 38.36L95.04 47C95.0415 47.0826 95.009 47.1622 94.95 47.22 94.8935 47.2775 94.8155 47.3083 94.735 47.305L91.76 47.305C91.6795 47.3083 91.6015 47.2775 91.545 47.22 91.502 47.1553 91.486 47.0764 91.5 47L91.5 46.14C91.5045 46.0984 91.4855 46.0576 91.45 46.035 91.415 46.035 91.38 46.035 91.35 46.09 90.61 47 89.47 47.5 87.895 47.5 86.7435 47.5461 85.611 47.1927 84.69 46.5 83.8515 45.8015 83.398 44.7439 83.47 43.655 83.4115 42.4792 83.923 41.3473 84.845 40.615 85.76 39.895 87.06 39.535 88.755 39.535L91.35 39.535C91.41 39.5439 91.466 39.5025 91.475 39.4424 91.4765 39.4316 91.4765 39.4207 91.475 39.41L91.475 38.87C91.5035 38.382 91.3215 37.9051 90.975 37.56 90.5435 37.218 89.999 37.0503 89.45 37.09 88.997 37.0743 88.547 37.1705 88.14 37.37 87.8155 37.5285 87.571 37.8146 87.465 38.16 87.444 38.3215 87.2965 38.4356 87.135 38.415L84.055 38C83.85 37.965 83.76 37.89 83.775 37.77 83.8465 37.0527 84.144 36.3768 84.625 35.84 85.1705 35.2334 85.8575 34.7714 86.625 34.495 87.5035 34.1553 88.4385 33.9855 89.38 33.995 90.3895 33.9847 91.3895 34.1875 92.315 34.59ZM90.715 44.23C91.2005 43.8863 91.485 43.3248 91.475 42.73L91.475 41.82C91.475 41.735 91.435 41.69 91.35 41.69L89.5 41.69C88.8735 41.6546 88.2505 41.806 87.71 42.125 87.29 42.3853 87.0415 42.8511 87.06 43.345 87.0475 43.7636 87.2325 44.1638 87.56 44.425 87.9345 44.7025 88.3945 44.8405 88.86 44.815 89.527 44.8365 90.181 44.6302 90.715 44.23Z" transform="matrix(1.08185 0 0 1 959 233)"/><path d="M104.655 34.31C104.711 34.2508 104.789 34.218 104.87 34.22L107.845 34.22C107.926 34.2198 108.004 34.2523 108.06 34.31 108.118 34.3665 108.148 34.4445 108.145 34.525L108.145 47C108.148 47.0818 108.117 47.1614 108.06 47.22 108.003 47.2764 107.925 47.3071 107.845 47.305L104.87 47.305C104.789 47.3089 104.711 47.278 104.655 47.22 104.596 47.1622 104.563 47.0826 104.565 47L104.565 46.115C104.565 46.06 104.565 46.035 104.515 46.025 104.465 46.015 104.445 46.025 104.41 46.09 103.735 47 102.685 47.46 101.26 47.46 100.089 47.5028 98.9485 47.0824 98.085 46.29 97.217 45.4228 96.7635 44.2245 96.84 43L96.84 34.5C96.839 34.4199 96.8695 34.3428 96.925 34.285 96.983 34.226 97.0625 34.1935 97.145 34.195L100.09 34.195C100.171 34.193 100.249 34.2257 100.305 34.285 100.364 34.341 100.396 34.4189 100.395 34.5L100.395 42.1C100.37 42.6988 100.565 43.286 100.945 43.75 101.322 44.1797 101.874 44.4137 102.445 44.385 102.967 44.4109 103.479 44.2315 103.87 43.885 104.247 43.5235 104.49 43.0434 104.555 42.525L104.555 34.525C104.556 34.4423 104.592 34.3642 104.655 34.31Z" transform="matrix(1.08185 0 0 1 959 233)"/><path d="M110.245 47.195C110.186 47.1372 110.154 47.0576 110.155 46.975L110.155 29.795C110.155 29.7141 110.187 29.6366 110.245 29.58 110.301 29.5226 110.38 29.4917 110.46 29.495L113.46 29.495C113.54 29.4917 113.618 29.5226 113.675 29.58 113.732 29.6366 113.765 29.7141 113.765 29.795L113.765 47C113.767 47.0826 113.734 47.1622 113.675 47.22 113.618 47.2775 113.54 47.3083 113.46 47.305L110.46 47.305C110.376 47.302 110.297 47.2617 110.245 47.195Z" transform="matrix(1.08185 0 0 1 959 233)"/><path d="M123.13 37C123.074 37.0578 122.996 37.0902 122.915 37.09L120.5 37.09C120.437 37.0811 120.379 37.1249 120.37 37.1878 120.368 37.1984 120.368 37.2093 120.37 37.22L120.37 42.605C120.335 43.0476 120.457 43.4884 120.715 43.85 121.001 44.1487 121.409 44.2998 121.82 44.26L122.66 44.26C122.74 44.259 122.817 44.2896 122.875 44.345 122.934 44.4028 122.966 44.4824 122.965 44.565L122.965 47C122.974 47.1766 122.837 47.3265 122.66 47.3349 122.66 47.335 122.66 47.335 122.66 47.335 121.945 47.365 121.44 47.385 121.135 47.385 119.725 47.385 118.674 47.1516 117.98 46.685 117.285 46.22 116.93 45.34 116.915 44.055L116.915 37.22C116.924 37.1571 116.88 37.0989 116.817 37.09 116.807 37.0885 116.796 37.0885 116.785 37.09L115.34 37.09C115.172 37.09 115.035 36.9534 115.035 36.785L115.035 34.525C115.034 34.4439 115.066 34.366 115.125 34.31 115.18 34.2508 115.259 34.218 115.34 34.22L116.785 34.22C116.848 34.2289 116.906 34.1852 116.915 34.1223 116.916 34.1115 116.916 34.1007 116.915 34.09L116.915 31.09C116.913 31.0074 116.946 30.9278 117.005 30.87 117.062 30.8146 117.14 30.784 117.22 30.785L120.065 30.785C120.145 30.784 120.223 30.8146 120.28 30.87 120.339 30.9278 120.371 31.0074 120.37 31.09L120.37 34.09C120.361 34.1529 120.405 34.2111 120.467 34.22 120.479 34.2215 120.49 34.2215 120.5 34.22L122.94 34.22C123.021 34.2198 123.099 34.2523 123.155 34.31 123.214 34.366 123.246 34.4439 123.245 34.525L123.245 36.785C123.241 36.8703 123.199 36.9492 123.13 37Z" transform="matrix(1.08185 0 0 1 959 233)"/><path d="M123.635 30.16C123.611 30.1362 123.599 30.1036 123.6 30.07L123.6 29.735C123.599 29.7014 123.611 29.6688 123.635 29.645 123.659 29.6199 123.691 29.6054 123.725 29.605L126.275 29.605C126.309 29.6054 126.341 29.6199 126.365 29.645 126.389 29.6688 126.401 29.7014 126.4 29.735L126.4 30.07C126.403 30.1362 126.352 30.1922 126.285 30.195 126.282 30.1952 126.279 30.1952 126.275 30.195L125.375 30.195C125.348 30.1921 125.323 30.212 125.32 30.2395 125.32 30.243 125.32 30.2465 125.32 30.25L125.32 33.165C125.323 33.2312 125.271 33.2872 125.205 33.29 125.202 33.2901 125.199 33.2901 125.195 33.29L124.765 33.29C124.699 33.2928 124.643 33.2415 124.64 33.1752 124.64 33.1718 124.64 33.1684 124.64 33.165L124.64 30.25C124.643 30.2225 124.623 30.1979 124.595 30.195 124.592 30.1947 124.589 30.1947 124.585 30.195L123.725 30.195C123.691 30.1964 123.659 30.1838 123.635 30.16ZM129.445 29.605 129.9 29.605C129.934 29.6054 129.967 29.6199 129.99 29.645 130.014 29.6688 130.027 29.7014 130.025 29.735L130.025 33.165C130.028 33.2312 129.977 33.2872 129.91 33.29 129.907 33.2901 129.904 33.2901 129.9 33.29L129.46 33.29C129.426 33.2915 129.394 33.2788 129.37 33.255 129.345 33.2318 129.331 33.1992 129.33 33.165L129.33 30.785C129.33 30.785 129.33 30.75 129.33 30.74 129.33 30.73 129.305 30.74 129.29 30.74L128.745 31.54C128.714 31.5935 128.656 31.626 128.595 31.625L128.47 31.625C128.41 31.6264 128.354 31.5935 128.325 31.54L127.765 30.74C127.765 30.74 127.74 30.715 127.725 30.74 127.71 30.765 127.725 30.74 127.725 30.785L127.725 33.165C127.725 33.1992 127.71 33.2318 127.685 33.255 127.663 33.278 127.632 33.2906 127.6 33.29L127.165 33.29C127.133 33.292 127.102 33.2791 127.08 33.255 127.055 33.2318 127.04 33.1992 127.04 33.165L127.04 29.735C127.04 29.7008 127.055 29.6682 127.08 29.645 127.101 29.619 127.132 29.6042 127.165 29.605L127.62 29.605C127.68 29.6058 127.735 29.6381 127.765 29.69L128.51 30.77C128.523 30.7849 128.54 30.7939 128.56 30.795 128.576 30.7942 128.589 30.7845 128.595 30.77L129.34 29.69C129.362 29.6484 129.4 29.6176 129.445 29.605Z" transform="matrix(1.08185 0 0 1 959 233)"/><path d="M57.82 32.9C57.8285 33.1456 57.636 33.3516 57.3905 33.36 57.3805 33.3604 57.37 33.3604 57.36 33.36L53.065 33.36C52.9775 33.3481 52.897 33.4095 52.885 33.4971 52.883 33.5113 52.883 33.5257 52.885 33.54L52.885 47.205C52.8875 47.3295 52.841 47.45 52.755 47.54 52.6655 47.6261 52.544 47.6714 52.42 47.665L49.08 47.665C48.9558 47.6714 48.8346 47.6261 48.745 47.54 48.659 47.45 48.6123 47.3295 48.615 47.205L48.615 33.54C48.6269 33.4524 48.5654 33.3718 48.4779 33.36 48.4636 33.3581 48.4492 33.3581 48.435 33.36L37.685 33.36C37.5978 33.3456 37.5155 33.4047 37.5011 33.4919 37.5007 33.4945 37.5003 33.4973 37.5 33.5L37.5 36.555C37.4882 36.6426 37.5495 36.7231 37.6371 36.735 37.6513 36.7369 37.6657 36.7369 37.68 36.735L42.65 36.735C42.7747 36.7311 42.8956 36.778 42.985 36.865 43.0712 36.9546 43.1164 37.0759 43.11 37.2L43.11 39.895C43.1272 40.1319 42.9491 40.3378 42.7122 40.355 42.6916 40.3565 42.6707 40.3565 42.65 40.355L37.685 40.355C37.5975 40.3432 37.5168 40.4045 37.505 40.4921 37.5031 40.5064 37.5031 40.5207 37.505 40.535L37.505 47.205C37.5164 47.4478 37.3289 47.6538 37.0863 47.6652 37.0708 47.666 37.0554 47.6659 37.04 47.665L33.7 47.665C33.576 47.6708 33.4549 47.6256 33.365 47.54 33.279 47.45 33.2323 47.3295 33.235 47.205L33.235 30.15C33.2323 30.0255 33.279 29.9051 33.365 29.815 33.4549 29.7293 33.576 29.6842 33.7 29.69L57.36 29.69C57.4825 29.6844 57.602 29.7297 57.69 29.815 57.776 29.9051 57.823 30.0255 57.82 30.15ZM63.6 28.225 54.385 19C53.407 18.0328 52.0855 17.4933 50.71 17.5L38.09 17.5C36.7146 17.4933 35.3928 18.0328 34.415 19L25.2 28.225C24.4117 29.0103 23.969 30.0774 23.97 31.19L23.97 44.19C23.9718 45.5769 24.5217 46.9069 25.5 47.89L34.415 56.79C35.3904 57.7545 36.7081 58.294 38.08 58.29L44.645 58.29 44.645 65.665C44.6452 65.839 44.7865 65.98 44.9604 65.9795 45.0425 65.9795 45.1213 65.9475 45.18 65.89L63.575 47.565C64.365 46.7784 64.8095 45.7098 64.81 44.595L64.81 31.19C64.809 30.0778 64.3665 29.0115 63.58 28.225" transform="matrix(1.08185 0 0 1 959 233)"/><path d="M19 47.885 28.195 57.09C28.9784 57.878 30.0438 58.3205 31.155 58.32L32.775 58.32C32.5741 58.185 32.3866 58.031 32.215 57.86L22.67 48.285C21.6589 47.2707 21.0908 45.8971 21.09 44.465L21.09 31.355C21.0908 29.9228 21.6589 28.5493 22.67 27.535L32.235 17.96C32.4066 17.7892 32.5941 17.6352 32.795 17.5L31.175 17.5C30.0639 17.4993 28.9984 17.942 28.215 18.73L19 27.935C18.034 28.9116 17.4946 30.2313 17.5 31.605L17.5 44.215C17.4946 45.5886 18.034 46.9084 19 47.885Z" transform="matrix(1.08185 0 0 1 959 233)"/></g></svg>