<svg xmlns="http://www.w3.org/2000/svg" baseProfile="tiny" version="1.2" viewBox="0 0 16 16"><path d="m13.308 8.558.013-.133c.01-.106.024-.278.04-.474.021-.261.045-.565.068-.805l.1-.997c.117-1.165.228-2.266.242-2.688.021-.653-.26-1.755-1.103-1.933-.465-.1-.889-.029-1.227.203-.262.179-.458.438-.594.786.005-.212.01-.389.015-.521.05-1.253-.624-1.749-1.198-1.943-.142-.048-.604-.105-.91.041-1.056.503-1.073 1.531-1.079 1.869-.002.149 0 .617.003 1.235a6 6 0 0 0-.056-.31c-.172-.721-.812-1.166-1.587-1.131-.72.044-1.256.498-1.434 1.215-.066.264-.04.568-.018.82.021.141.379 2.486.622 4.051l-.049-.078c-.489-.727-1.306-.969-2.032-.605-.786.393-1.108 1.305-.748 2.121.143.324 1.775 3.447 2.263 4.369l.084.16.019-.01C5.657 15.177 7.148 16 8.77 16c2.708 0 4.911-2.412 4.911-5.376 0-.699-.121-1.379-.359-2.022zm-.72.283c.013.082.137.261.186.408.17.514.19.822.19 1.376 0 2.569-1.882 4.659-4.195 4.659-1.421 0-2.73-.741-3.505-1.983-.568-1.074-2.111-4.032-2.233-4.309A.903.903 0 0 1 3.445 7.8c.403-.201.83-.062 1.115.362.047.072.617 1.028.989 1.652a.358.358 0 0 0 .661-.245l-.085-.488c-.072-.414-.826-5.347-.831-5.38-.015-.172-.035-.408.002-.557.103-.415.374-.647.781-.672.44-.032.756.193.848.581.08.339.457 3.177.617 4.389.046.348.078.59.092.682q.017.07.08.213a.357.357 0 0 0 .666-.022c.017-.048.03-.09.037-.115a.4.4 0 0 0 .009-.07c.002-.094-.004-.96-.014-2.365-.011-1.547-.025-3.472-.02-3.791.007-.456.093-.958.67-1.234.069-.032.298-.028.372-.009.323.11.748.357.713 1.236-.034.821-.058 3.367-.075 5.052-.007.714-.012 1.256-.016 1.405a.359.359 0 0 0 .705.098c.031-.121.128-.943.387-3.196.11-.959.224-1.951.245-2.079.076-.467.224-.77.452-.925.177-.122.398-.152.674-.094.38.081.548.819.535 1.209-.013.398-.127 1.538-.238 2.64l-.099.999a45 45 0 0 0-.07.818c-.015.191-.028.359-.038.462a7 7 0 0 0-.027.322.4.4 0 0 0 .006.163" style="fill:#fff"/></svg>