<svg version="1.2" baseProfile="tiny" viewBox="0 0 42.182 42.182" xmlns:xlink="http://www.w3.org/1999/xlink" xmlns="http://www.w3.org/2000/svg">
<path style="fill:#ffffff;" d="M42.1748,21.223C42.1748,21.1792,42.182,21.1361,42.182,21.091C42.182,13.3919,38.022,6.6618,31.844,2.9802C31.8191,2.962,31.8031,2.9359,31.7761,2.9198C31.755,2.908,31.731,2.908,31.7099,2.8979C28.5859,1.068,24.965,0.0,21.091,0.0C17.3638,0.0,13.8669,0.9799,10.826,2.6832C10.8231,2.684,10.8201,2.684,10.818,2.6849C10.815,2.687,10.8129,2.6899,10.81,2.6921C4.3688,6.3062,0.0,13.1941,0.0,21.091C0.0,28.9862,4.3658,35.8699,10.8041,39.4861C10.81,39.4891,10.8129,39.4958,10.8188,39.4988C10.826,39.503,10.8332,39.5039,10.8391,39.5068C13.8779,41.2051,17.371,42.1828,21.0918,42.1828C24.9549,42.1828,28.5682,41.1211,31.685,39.301C31.715,39.287,31.7479,39.2799,31.777,39.263C31.804,39.247,31.82,39.2208,31.8449,39.2031C37.9621,35.5569,42.0922,28.92,42.1719,21.3129C42.1731,21.2931,42.1828,21.277,42.1828,21.2572C42.182,21.245,42.1761,21.2348,42.1748,21.223M40.14,20.2558L22.9951,20.2558L31.6289,5.1871C36.56,8.4651,39.8649,13.9719,40.14,20.2558M29.9041,4.1731L21.3639,19.0789L12.7048,3.9668C15.2399,2.7199,18.08,1.9998,21.091,1.9998C24.2711,1.9998,27.2652,2.792,29.9041,4.1731M10.9572,4.9399L19.7332,20.2558L2.042,20.2558C2.323,13.8041,5.8101,8.1829,10.9572,4.9399M2.0589,22.2561L19.5442,22.2561L10.958,37.2408C5.8979,34.0548,2.4432,28.5699,2.0589,22.2561M12.7061,38.2152L21.3639,23.1039L29.9041,38.0089C27.2639,39.39,24.2698,40.1822,21.091,40.1822C18.08,40.1822,15.2412,39.4621,12.7061,38.2152M31.6302,36.994L23.1849,22.2561L40.1231,22.2561C39.7489,28.4028,36.4731,33.7739,31.6302,36.994Z"/>
</svg>