<svg version="1.2" baseProfile="tiny" viewBox="0 0 35.696 35.697" xmlns:xlink="http://www.w3.org/1999/xlink" xmlns="http://www.w3.org/2000/svg">
<path style="fill:#ffffff;" d="M12.6749,23.2048L12.6749,12.4911L15.9129,12.4911L17.8551,19.8001L19.7759,12.4911L23.0211,12.4911L23.0211,23.2048L21.0132,23.2048L21.0132,14.7711L18.885,23.2048L16.8032,23.2048L14.6821,14.7711L14.6821,23.2048L12.6749,23.2048L12.6749,23.2048M35.696,17.8481C35.696,8.0068,27.689,0.0,17.848,0.0C8.007,0.0,0.0,8.0068,0.0,17.8481C0.0,27.6902,8.007,35.697,17.848,35.697C27.689,35.697,35.696,27.6902,35.696,17.8481M33.696,17.8481C33.696,26.5871,26.5871,33.6969,17.8469,33.6969C9.1089,33.6969,2.0,26.5871,2.0,17.8481C2.0,9.1092,9.1089,2.0001,17.848,2.0001C26.5871,2.0001,33.696,9.1092,33.696,17.8481Z"/>
</svg>