<svg width="42" height="28" xmlns="http://www.w3.org/2000/svg" xmlns:xlink="http://www.w3.org/1999/xlink" xml:space="preserve" overflow="hidden"><defs><clipPath id="clip0"><rect x="1125" y="230" width="42" height="28"/></clipPath></defs><g clip-path="url(#clip0)" transform="translate(-1125 -230)"><path d="M22.1401 26.5767 4.97537 26.5767C4.72774 26.5764 4.48768 26.4913 4.29506 26.3357L2.94494 25.2377 35.0939 25.2377C35.4434 25.2377 35.7267 24.9544 35.7267 24.605 35.7267 24.2555 35.4434 23.9722 35.0939 23.9722L2.72171 23.9722 4.8487 22.3311 35.2218 22.3311 36.6251 23.3185C36.9107 23.5195 37.3052 23.4509 37.5062 23.1653 37.7072 22.8796 37.6386 22.4851 37.353 22.2842L35.9664 21.308 35.967 0 3.81989 0 3.81926 21.5272 0 24.474 3.49734 27.3176C3.91541 27.6565 4.43715 27.8417 4.97537 27.8422L22.1401 27.8422C22.4896 27.8422 22.7729 27.5589 22.7729 27.2094 22.7729 26.86 22.4896 26.5767 22.1401 26.5767ZM5.08536 1.26547 34.7016 1.26547 34.7009 21.0131 5.08474 21.0131Z" transform="matrix(1.06452 0 0 1 1125 230.079)"/><path d="M39.2988 23.9747C39.069 23.7113 38.6693 23.684 38.4058 23.9136L36.0621 25.9576C35.6669 26.3528 35.1313 26.5754 34.5724 26.5767L24.854 26.5767C24.5045 26.5767 24.2213 26.86 24.2213 27.2094 24.2213 27.5589 24.5045 27.8422 24.854 27.8422L34.5724 27.8422C35.4529 27.8432 36.2985 27.4978 36.9266 26.8807L39.2376 24.8676C39.5011 24.6379 39.5285 24.2382 39.2988 23.9748 39.2988 23.9747 39.2988 23.9747 39.2988 23.9747Z" transform="matrix(1.06452 0 0 1 1125 230.079)"/></g></svg>