<svg width="33" height="22" xmlns="http://www.w3.org/2000/svg" xmlns:xlink="http://www.w3.org/1999/xlink" xml:space="preserve" overflow="hidden"><defs><clipPath id="clip0"><rect x="846" y="142" width="33" height="22"/></clipPath></defs><g clip-path="url(#clip0)" transform="translate(-846 -142)"><path d="M17.397 20.8824 3.90861 20.8824C3.71472 20.8815 3.5269 20.8148 3.37584 20.6932L2.31529 19.8318 27.5744 19.8318C27.8494 19.8318 28.0723 19.6089 28.0723 19.3339 28.0723 19.0589 27.8494 18.836 27.5744 18.836L2.13604 18.836 3.80903 17.5464 27.674 17.5464 28.7793 18.3232C28.987 18.5034 29.3015 18.4811 29.4817 18.2735 29.662 18.0658 29.6397 17.7513 29.432 17.5711 29.4058 17.5483 29.3773 17.5284 29.3469 17.5116L28.2615 16.7398 28.2615 0 2.98747 0 2.98747 16.929 0 19.2294 2.74847 21.465C3.07693 21.7307 3.48615 21.8765 3.90861 21.8783L17.397 21.8783C17.672 21.8783 17.895 21.6553 17.895 21.3803 17.895 21.1053 17.672 20.8824 17.397 20.8824ZM3.9833 0.995824 27.2657 0.995824 27.2657 16.5108 3.9833 16.5108Z" stroke="#000000" stroke-width="0.812378" fill="none" transform="matrix(1.06452 0 0 1 846 142.061)"/><path d="M30.8705 18.836C30.6894 18.6333 30.3791 18.6133 30.1735 18.7912L28.3362 20.4144C28.0269 20.7279 27.6064 20.9068 27.1661 20.9123L19.5281 20.9123C19.2531 20.9123 19.0302 21.1352 19.0302 21.4102 19.0302 21.6852 19.2531 21.9081 19.5281 21.9081L27.1661 21.9081C27.8574 21.9085 28.521 21.6366 29.0133 21.1513L30.8307 19.5679C31.0429 19.3931 31.0732 19.0793 30.8984 18.867 30.8895 18.8563 30.8803 18.846 30.8705 18.836Z" stroke="#000000" stroke-width="0.812378" fill="none" transform="matrix(1.06452 0 0 1 846 142.061)"/></g></svg>