<svg version="1.2" baseProfile="tiny" viewBox="0 0 32 32" xmlns:xlink="http://www.w3.org/1999/xlink" xmlns="http://www.w3.org/2000/svg">
<path style="fill:#ffffff;" d="M29.314,25.247L29.114,25.243L25.412,25.171C25.405,25.171,25.399,25.167,25.392,25.167C25.374,23.287,25.32,19.425,25.269,15.156C25.263,14.674,25.257,14.191,25.252,13.71C25.206,9.495,25.15,6.623,25.149,6.552V6.551C25.14,5.561,25.135,4.907,25.139,4.757C25.196,2.18,24.249,0.68,22.54,0.642L5.39097,0.26C3.99097,0.229,2.30697,0.862,2.23597,4.054L2.18297,6.439C2.18297,6.439,2.16097,6.745,2.43597,6.751C2.69597,6.757,6.20998,6.835,6.60898,6.844C6.61398,6.924,6.62398,7.001,6.65198,7.073C6.67198,8.819,6.71397,10.693,6.74598,13.36C6.79598,17.934,6.85098,23.284,6.86497,25.825C6.86597,26.104,6.86497,26.292,6.86398,26.366H6.86798C6.86998,26.809,6.86898,27.114,6.86598,27.243C6.80898,29.82,7.75598,31.32,9.46498,31.358L26.612,31.74C26.613,31.74,26.614,31.74,26.614,31.74C28.015,31.771,29.691,31.477,29.762,28.285L29.818,25.773C29.824,25.489,29.598,25.253,29.314,25.247ZM3.73597,4.087C3.78797,1.724,4.76997,1.746,5.35698,1.759L5.97198,1.773C6.00498,1.816,6.02997,1.864,6.07498,1.901C6.08197,1.909,6.65598,2.614,6.64498,5.345L3.70897,5.279L3.73597,4.087ZM8.36598,27.276C8.36898,27.142,8.36998,26.823,8.36798,26.36C8.36798,26.331,8.36698,26.302,8.36498,26.274C8.36598,26.169,8.36598,26.014,8.36498,25.816C8.35098,23.2,8.29198,17.589,8.24598,13.342C8.22898,11.902,8.20897,10.692,8.18998,9.609C8.17298,8.601,8.15798,7.702,8.14898,6.83C8.14798,6.721,8.13398,6.615,8.10997,6.513C8.23798,4.069,7.98998,2.636,7.69298,1.812L22.507,2.142C23.542,2.165,23.661,3.77,23.64,4.724C23.637,4.878,23.64,5.55,23.65,6.568L23.653,6.716C23.664,7.336,23.713,10.008,23.754,13.728L23.761,14.352L23.771,15.175L23.837,20.519C23.862,22.474,23.882,24.096,23.893,25.136L11.973,24.88C11.759,24.875,11.553,24.962,11.407,25.119C11.261,25.276,11.189,25.487,11.21,25.701C11.511,28.851,10.371,29.802,10.319,29.844C10.306,29.853,10.299,29.867,10.287,29.877L9.49898,29.859C8.46298,29.835,8.34398,28.231,8.36598,27.276ZM28.262,28.251C28.217,30.274,27.592,30.261,26.647,30.24H26.646H26.645L12.1,29.916C12.474,29.189,12.805,28.073,12.756,26.395L25.319,26.665C25.333,26.666,25.346,26.67,25.359,26.67C25.361,26.67,25.362,26.67,25.364,26.67L28.296,26.727L28.262,28.251Z M12.292,7.54L19.554,7.702C19.968,7.711,20.311,7.383,20.321,6.969C20.33,6.555,20.002,6.212,19.588,6.202L12.326,6.04C11.912,6.031,11.569,6.359,11.559,6.773C11.549,7.188,11.878,7.531,12.292,7.54Z M12.539,12.525C12.125,12.516,11.782,12.844,11.772,13.258C11.763,13.672,12.091,14.015,12.505,14.025L19.767,14.187C20.181,14.196,20.524,13.868,20.534,13.454C20.543,13.04,20.215,12.697,19.801,12.687L12.539,12.525Z M12.744,18.901C12.33,18.892,11.987,19.22,11.977,19.634C11.967,20.048,12.296,20.391,12.71,20.401L19.972,20.563C20.386,20.572,20.729,20.244,20.739,19.83C20.748,19.416,20.42,19.073,20.006,19.063L12.744,18.901Z"/>
</svg>