<svg xmlns="http://www.w3.org/2000/svg" baseProfile="tiny" version="1.2" viewBox="0 0 14 18"><path d="M12.473 16.094H1.527a.88.88 0 0 1-.877-.877c0-3.656 2.849-6.63 6.35-6.63 3.502 0 6.35 2.974 6.35 6.63a.877.877 0 0 1-.877.877M7 9.868c-2.523 0-4.576 2.155-4.576 4.803 0 .079.064.143.143.143h8.866a.143.143 0 0 0 .143-.143c0-2.649-2.053-4.803-4.576-4.803m-.001-2.244a3.814 3.814 0 0 1-3.81-3.811A3.815 3.815 0 0 1 6.999 0a3.816 3.816 0 0 1 3.812 3.813 3.815 3.815 0 0 1-3.812 3.811m0-6.301a2.49 2.49 0 0 0-2.488 2.49 2.49 2.49 0 0 0 2.488 2.489 2.49 2.49 0 0 0 2.489-2.489 2.49 2.49 0 0 0-2.489-2.49" style="fill:#fff"/></svg>