<svg version="1.2" baseProfile="tiny" viewBox="0 0 32 32" xmlns:xlink="http://www.w3.org/1999/xlink" xmlns="http://www.w3.org/2000/svg">
<path style="fill:#ffffff;" d="M26.627,14.533C26.627,13.014,25.391,11.778,23.873,11.778C23.753,11.778,23.636,11.793,23.52,11.808C23.338,11.832,23.159,11.868,22.989,11.926C22.892,11.959,22.799,11.997,22.707,12.04C22.611,11.705,22.449,11.399,22.242,11.129C21.969,10.774,21.615,10.485,21.204,10.297C20.855,10.137,20.469,10.046,20.062,10.046C19.731,10.046,19.415,10.108,19.121,10.215C19.079,10.23,19.039,10.251,18.997,10.268C18.844,10.332,18.695,10.406,18.558,10.496C18.496,10.393,18.425,10.222,18.351,10.129C18.079,9.786,17.731,9.469,17.327,9.286C16.982,9.13,16.6,9.041,16.197,9.041C15.653,9.041,15.147,9.239,14.719,9.512L14.694,2.786C14.689,1.249,13.437,0,11.9,0C11.898,0,11.896,0,11.894,0C11.15,0.001,10.45,0.294,9.92297,0.824C9.39497,1.354,9.10597,2.055,9.10797,2.799L9.12697,11.55C9.11997,11.594,9.11297,11.638,9.11297,11.683V12.026C9.10897,12.057,9.10397,12.088,9.10397,12.12V13.083C8.75597,12.931,8.37997,12.847,7.98997,12.847C6.45097,12.847,5.19397,14.106,5.19797,15.646L5.20897,20.806C5.19897,20.991,5.19397,21.177,5.19397,21.365C5.19397,27.229,9.92297,32,15.736,32C20.115,32,23.877,29.292,25.468,25.45C25.511,25.395,25.966,24.114,26.116,23.354C26.563,21.093,26.767,18.127,26.793,17.722C26.864,17.069,26.627,14.533,26.627,14.533ZM25.121,17.615C25.114,17.723,24.973,19.884,24.667,21.9C24.608,22.287,24.544,22.669,24.473,23.029C24.374,23.529,24.062,24.461,23.959,24.724C23.945,24.752,23.933,24.781,23.921,24.81C22.534,28.16,19.321,30.325,15.737,30.325C10.848,30.325,6.86997,26.306,6.86997,21.365C6.86997,21.212,6.87397,21.053,6.88197,20.892C6.88397,20.862,6.88397,20.832,6.88397,20.802L6.88097,19.633C6.87397,19.583,6.86597,19.533,6.86597,19.481V15.479C6.86597,14.854,7.37697,14.343,8.00197,14.343C8.17997,14.343,8.34697,14.388,8.49797,14.462C8.63497,14.529,8.75497,14.623,8.85397,14.736C8.97197,14.871,9.05897,15.032,9.10297,15.211V15.349H9.12497C9.12997,15.392,9.13797,15.434,9.13797,15.479V18.989C9.23797,19.34,9.55697,19.599,9.93997,19.599C10.403,19.599,10.778,19.224,10.778,18.761V13.238C10.782,13.188,10.787,13.138,10.787,13.088V11.764C10.796,11.692,10.801,11.62,10.801,11.548L10.782,2.797C10.781,2.497,10.894,2.224,11.109,2.008C11.323,1.792,11.596,1.678,11.893,1.678H11.9C12.515,1.678,13.016,2.178,13.017,2.795L13.045,10.346C13.047,10.76,13.209,11.151,13.482,11.455C13.531,11.509,13.576,11.566,13.632,11.614C13.893,11.837,14.213,11.965,14.547,12C14.605,12.006,14.662,12.015,14.72,12.015C14.767,12.015,14.884,11.982,14.979,11.953C15.036,11.923,15.16,11.511,15.209,11.395C15.376,11.005,15.755,10.718,16.196,10.718C16.766,10.718,17.229,11.276,17.267,11.836C17.277,11.836,17.291,12.313,17.291,12.313C17.29,12.389,17.302,12.461,17.32,12.531C17.413,12.896,17.74,13.171,18.134,13.176L18.232,13.177C18.53,13.18,18.795,13.028,18.95,12.796C18.965,12.773,18.977,12.748,18.991,12.723C19.054,12.606,19.237,12.103,19.335,12.012C19.526,11.834,19.78,11.723,20.062,11.723C20.541,11.723,20.943,12.039,21.083,12.471C21.115,12.483,21.164,13.678,21.164,13.678C21.163,13.755,21.176,13.829,21.195,13.9C21.289,14.263,21.615,14.536,22.007,14.541L22.105,14.542C22.398,14.545,22.659,14.399,22.816,14.174C22.816,14.174,23.024,13.825,23.235,13.669C23.414,13.536,23.634,13.455,23.873,13.455C24.468,13.455,24.952,13.939,24.952,14.534C24.951,14.533,25.123,17.591,25.121,17.615Z"/>
</svg>