<svg version="1.2" baseProfile="tiny" viewBox="0 0 18.000 18.000" xmlns:xlink="http://www.w3.org/1999/xlink" xmlns="http://www.w3.org/2000/svg">
<path style="fill:#ffffff;" d="M16.821,0H1.179C0.528,0,0,0.527,0,1.176v15.645   C0,17.472,0.528,18,1.179,18h15.642C17.473,18,18,17.472,18,16.821V1.176C18,0.527,17.473,0,16.821,0z M14.364,14.171h-1.963V7.774   c0-0.255,0.004-0.517,0.012-0.787c0.007-0.269,0.016-0.516,0.026-0.741c0.015-0.265,0.027-0.522,0.037-0.772   c-0.105,0.395-0.206,0.77-0.3,1.124c-0.04,0.149-0.082,0.305-0.127,0.464c-0.045,0.16-0.089,0.314-0.132,0.465   c-0.041,0.149-0.084,0.289-0.124,0.419c-0.039,0.129-0.074,0.242-0.104,0.336l-1.902,5.888H8.214L6.312,8.283   c-0.03-0.094-0.064-0.208-0.101-0.336c-0.038-0.131-0.078-0.27-0.12-0.419C6.048,7.376,6.004,7.222,5.959,7.063   C5.915,6.903,5.87,6.748,5.825,6.598C5.725,6.244,5.62,5.869,5.51,5.474c0.015,0.29,0.03,0.575,0.045,0.854   c0.01,0.24,0.02,0.492,0.03,0.757C5.595,7.35,5.6,7.58,5.6,7.774v6.396H3.637V3.617h2.959L8.484,9.52   c0.05,0.154,0.104,0.344,0.161,0.568c0.058,0.225,0.114,0.442,0.169,0.652c0.06,0.245,0.125,0.5,0.195,0.764   c0.069-0.259,0.137-0.509,0.202-0.749c0.03-0.105,0.06-0.212,0.09-0.322c0.03-0.109,0.06-0.217,0.089-0.321   c0.03-0.105,0.061-0.205,0.091-0.3c0.029-0.094,0.057-0.18,0.082-0.255l1.857-5.939h2.944V14.171z"/>
</svg>