<svg width="822" height="560" xmlns="http://www.w3.org/2000/svg" xmlns:xlink="http://www.w3.org/1999/xlink" xml:space="preserve" overflow="hidden"><g transform="translate(-2514 -1243)"><rect x="2524.5" y="1253.5" width="801" height="539" stroke="#000000" stroke-width="20.625" stroke-miterlimit="8" fill="none"/><path d="M2668.5 1342.5 2668.5 1708.25" stroke="#000000" stroke-width="20.625" stroke-miterlimit="8" fill="#FFFFFF" fill-rule="evenodd"/><rect x="2567.5" y="1385.5" width="50.9998" height="63.9999" stroke="#000000" stroke-width="20.625" stroke-miterlimit="8" fill="none"/><rect x="2555.5" y="1750.5" width="44" height="17.0002" stroke="#000000" stroke-width="20.625" stroke-miterlimit="8" fill="none"/><rect x="3245.5" y="1253.5" width="80" height="55" stroke="#000000" stroke-width="20.625" stroke-miterlimit="8" fill="none"/><rect x="3245.5" y="1735.5" width="80" height="52.9999" stroke="#000000" stroke-width="20.625" stroke-miterlimit="8" fill="none"/><path d="M3245.5 1280.5 3245.5 1762.14" stroke="#000000" stroke-width="20.625" stroke-miterlimit="8" fill="#FFFFFF" fill-rule="evenodd"/><path d="M2852.5 1342.5 2852.5 1708.25" stroke="#000000" stroke-width="20.625" stroke-miterlimit="8" fill="#FFFFFF" fill-rule="evenodd"/><path d="M3064.5 1339.5 3064.5 1712.77" stroke="#000000" stroke-width="20.625" stroke-miterlimit="8" fill="#FFFFFF" fill-rule="evenodd"/><rect x="2639.5" y="1253.5" width="606" height="83.9999" stroke="#000000" stroke-width="20.625" stroke-miterlimit="8" fill="none"/><rect x="2639.5" y="1713.5" width="606" height="77" stroke="#000000" stroke-width="20.625" stroke-miterlimit="8" fill="none"/><path d="M2668.5 1295.5 3208.93 1295.5" stroke="#000000" stroke-width="20.625" stroke-miterlimit="8" fill="none" fill-rule="evenodd"/><path d="M2672.5 1750.5 3212.93 1750.5" stroke="#000000" stroke-width="20.625" stroke-miterlimit="8" fill="none" fill-rule="evenodd"/><path d="M2700.5 1655.5 2821.09 1655.5" stroke="#000000" stroke-width="20.625" stroke-miterlimit="8" fill="none" fill-rule="evenodd"/><path d="M2900.5 1655.5 3021.09 1655.5" stroke="#000000" stroke-width="20.625" stroke-miterlimit="8" fill="none" fill-rule="evenodd"/><path d="M3092.5 1655.5 3213.09 1655.5" stroke="#000000" stroke-width="20.625" stroke-miterlimit="8" fill="none" fill-rule="evenodd"/><rect x="2567.5" y="1496.5" width="50.9998" height="64.0002" stroke="#000000" stroke-width="20.625" stroke-miterlimit="8" fill="none"/><rect x="2567.5" y="1605.5" width="50.9998" height="63.9999" stroke="#000000" stroke-width="20.625" stroke-miterlimit="8" fill="none"/></g></svg>