<svg width="811" height="550" xmlns="http://www.w3.org/2000/svg" xmlns:xlink="http://www.w3.org/1999/xlink" xml:space="preserve" overflow="hidden"><g transform="translate(-1523 -1274)"><rect x="1528" y="1279" width="801" height="540" stroke="#000000" stroke-width="10.3125" stroke-miterlimit="8" fill="none"/><path d="M1672 1369 1672 1734.75" stroke="#000000" stroke-width="10.3125" stroke-miterlimit="8" fill="#FFFFFF" fill-rule="evenodd"/><rect x="1552" y="1450" width="50.9999" height="62.9999" stroke="#000000" stroke-width="10.3125" stroke-miterlimit="8" fill="none"/><path d="M1552 1566C1552 1551.64 1563.42 1540 1577.5 1540 1591.58 1540 1603 1551.64 1603 1566 1603 1580.36 1591.58 1592 1577.5 1592 1563.42 1592 1552 1580.36 1552 1566Z" stroke="#000000" stroke-width="10.3125" stroke-miterlimit="8" fill="none" fill-rule="evenodd"/><rect x="1552" y="1618" width="50.9999" height="63.9999" stroke="#000000" stroke-width="10.3125" stroke-miterlimit="8" fill="none"/><rect x="1559" y="1777" width="44" height="16.0001" stroke="#000000" stroke-width="10.3125" stroke-miterlimit="8" fill="none"/><rect x="1697" y="1279" width="503" height="55" stroke="#000000" stroke-width="10.3125" stroke-miterlimit="8" fill="none"/><rect x="2249" y="1279" width="79.9998" height="55" stroke="#000000" stroke-width="10.3125" stroke-miterlimit="8" fill="none"/><rect x="2249" y="1762" width="79.9998" height="52.9999" stroke="#000000" stroke-width="10.3125" stroke-miterlimit="8" fill="none"/><path d="M2249 1307 2249 1788.64" stroke="#000000" stroke-width="10.3125" stroke-miterlimit="8" fill="#FFFFFF" fill-rule="evenodd"/><rect x="1697" y="1762" width="503" height="55" stroke="#000000" stroke-width="10.3125" stroke-miterlimit="8" fill="none"/><path d="M1856 1369 1856 1734.75" stroke="#000000" stroke-width="10.3125" stroke-miterlimit="8" fill="#FFFFFF" fill-rule="evenodd"/><path d="M2068 1366 2068 1739.27" stroke="#000000" stroke-width="10.3125" stroke-miterlimit="8" fill="#FFFFFF" fill-rule="evenodd"/><rect x="1697" y="1666" width="140" height="55" stroke="#000000" stroke-width="10.3125" stroke-miterlimit="8" fill="none"/><rect x="1689" y="1612" width="140" height="56" stroke="#000000" stroke-width="10.3125" stroke-miterlimit="8" fill="none"/><path d="M1736 1307C1736 1311.42 1732.42 1315 1728 1315 1723.58 1315 1720 1311.42 1720 1307 1720 1302.58 1723.58 1299 1728 1299 1732.42 1299 1736 1302.58 1736 1307Z" stroke="#000000" stroke-width="10.3125" stroke-miterlimit="8" fill="none" fill-rule="evenodd"/><path d="M1776 1307C1776 1311.42 1772.19 1315 1767.5 1315 1762.81 1315 1759 1311.42 1759 1307 1759 1302.58 1762.81 1299 1767.5 1299 1772.19 1299 1776 1302.58 1776 1307Z" stroke="#000000" stroke-width="10.3125" stroke-miterlimit="8" fill="none" fill-rule="evenodd"/><path d="M1815 1307.5C1815 1312.19 1811.42 1316 1807 1316 1802.58 1316 1799 1312.19 1799 1307.5 1799 1302.81 1802.58 1299 1807 1299 1811.42 1299 1815 1302.81 1815 1307.5Z" stroke="#000000" stroke-width="10.3125" stroke-miterlimit="8" fill="none" fill-rule="evenodd"/><path d="M1855 1307C1855 1311.42 1851.19 1315 1846.5 1315 1841.81 1315 1838 1311.42 1838 1307 1838 1302.58 1841.81 1299 1846.5 1299 1851.19 1299 1855 1302.58 1855 1307Z" stroke="#000000" stroke-width="10.3125" stroke-miterlimit="8" fill="none" fill-rule="evenodd"/><path d="M1894 1307C1894 1311.42 1890.42 1315 1886 1315 1881.58 1315 1878 1311.42 1878 1307 1878 1302.58 1881.58 1299 1886 1299 1890.42 1299 1894 1302.58 1894 1307Z" stroke="#000000" stroke-width="10.3125" stroke-miterlimit="8" fill="none" fill-rule="evenodd"/><path d="M1934 1307C1934 1311.42 1930.19 1315 1925.5 1315 1920.81 1315 1917 1311.42 1917 1307 1917 1302.58 1920.81 1299 1925.5 1299 1930.19 1299 1934 1302.58 1934 1307Z" stroke="#000000" stroke-width="10.3125" stroke-miterlimit="8" fill="none" fill-rule="evenodd"/><path d="M1973 1307C1973 1311.42 1969.42 1315 1965 1315 1960.58 1315 1957 1311.42 1957 1307 1957 1302.58 1960.58 1299 1965 1299 1969.42 1299 1973 1302.58 1973 1307Z" stroke="#000000" stroke-width="10.3125" stroke-miterlimit="8" fill="none" fill-rule="evenodd"/><path d="M2013 1307C2013 1311.42 2009.19 1315 2004.5 1315 1999.81 1315 1996 1311.42 1996 1307 1996 1302.58 1999.81 1299 2004.5 1299 2009.19 1299 2013 1302.58 2013 1307Z" stroke="#000000" stroke-width="10.3125" stroke-miterlimit="8" fill="none" fill-rule="evenodd"/><path d="M2052 1307C2052 1311.42 2048.42 1315 2044 1315 2039.58 1315 2036 1311.42 2036 1307 2036 1302.58 2039.58 1299 2044 1299 2048.42 1299 2052 1302.58 2052 1307Z" stroke="#000000" stroke-width="10.3125" stroke-miterlimit="8" fill="none" fill-rule="evenodd"/><path d="M2091 1307C2091 1311.42 2087.42 1315 2083 1315 2078.58 1315 2075 1311.42 2075 1307 2075 1302.58 2078.58 1299 2083 1299 2087.42 1299 2091 1302.58 2091 1307Z" stroke="#000000" stroke-width="10.3125" stroke-miterlimit="8" fill="none" fill-rule="evenodd"/><path d="M2131 1307C2131 1311.42 2127.19 1315 2122.5 1315 2117.81 1315 2114 1311.42 2114 1307 2114 1302.58 2117.81 1299 2122.5 1299 2127.19 1299 2131 1302.58 2131 1307Z" stroke="#000000" stroke-width="10.3125" stroke-miterlimit="8" fill="none" fill-rule="evenodd"/><path d="M2170 1306.5C2170 1311.19 2166.42 1315 2162 1315 2157.58 1315 2154 1311.19 2154 1306.5 2154 1301.81 2157.58 1298 2162 1298 2166.42 1298 2170 1301.81 2170 1306.5Z" stroke="#000000" stroke-width="10.3125" stroke-miterlimit="8" fill="none" fill-rule="evenodd"/><rect x="1900" y="1666" width="140" height="55" stroke="#000000" stroke-width="10.3125" stroke-miterlimit="8" fill="none"/><rect x="1892" y="1612" width="140" height="56" stroke="#000000" stroke-width="10.3125" stroke-miterlimit="8" fill="none"/><rect x="2093" y="1666" width="140" height="55" stroke="#000000" stroke-width="10.3125" stroke-miterlimit="8" fill="none"/><rect x="2084" y="1612" width="141" height="56" stroke="#000000" stroke-width="10.3125" stroke-miterlimit="8" fill="none"/><rect x="1643" y="1279" width="606" height="84.9999" stroke="#000000" stroke-width="10.3125" stroke-miterlimit="8" fill="none"/><rect x="1643" y="1740" width="606" height="77" stroke="#000000" stroke-width="10.3125" stroke-miterlimit="8" fill="none"/><path d="M1726 1639C1726 1643.42 1722.19 1647 1717.5 1647 1712.81 1647 1709 1643.42 1709 1639 1709 1634.58 1712.81 1631 1717.5 1631 1722.19 1631 1726 1634.58 1726 1639Z" stroke="#000000" stroke-width="10.3125" stroke-miterlimit="8" fill="none" fill-rule="evenodd"/><path d="M1765 1639C1765 1643.42 1761.42 1647 1757 1647 1752.58 1647 1749 1643.42 1749 1639 1749 1634.58 1752.58 1631 1757 1631 1761.42 1631 1765 1634.58 1765 1639Z" stroke="#000000" stroke-width="10.3125" stroke-miterlimit="8" fill="none" fill-rule="evenodd"/><path d="M1805 1639C1805 1643.42 1801.19 1647 1796.5 1647 1791.81 1647 1788 1643.42 1788 1639 1788 1634.58 1791.81 1631 1796.5 1631 1801.19 1631 1805 1634.58 1805 1639Z" stroke="#000000" stroke-width="10.3125" stroke-miterlimit="8" fill="none" fill-rule="evenodd"/><path d="M1738 1695.5C1738 1700.19 1734.19 1704 1729.5 1704 1724.81 1704 1721 1700.19 1721 1695.5 1721 1690.81 1724.81 1687 1729.5 1687 1734.19 1687 1738 1690.81 1738 1695.5Z" stroke="#000000" stroke-width="10.3125" stroke-miterlimit="8" fill="none" fill-rule="evenodd"/><path d="M1777 1695.5C1777 1700.19 1773.42 1704 1769 1704 1764.58 1704 1761 1700.19 1761 1695.5 1761 1690.81 1764.58 1687 1769 1687 1773.42 1687 1777 1690.81 1777 1695.5Z" stroke="#000000" stroke-width="10.3125" stroke-miterlimit="8" fill="none" fill-rule="evenodd"/><path d="M1817 1695.5C1817 1700.19 1813.19 1704 1808.5 1704 1803.81 1704 1800 1700.19 1800 1695.5 1800 1690.81 1803.81 1687 1808.5 1687 1813.19 1687 1817 1690.81 1817 1695.5Z" stroke="#000000" stroke-width="10.3125" stroke-miterlimit="8" fill="none" fill-rule="evenodd"/><path d="M1938 1695.5C1938 1700.19 1934.19 1704 1929.5 1704 1924.81 1704 1921 1700.19 1921 1695.5 1921 1690.81 1924.81 1687 1929.5 1687 1934.19 1687 1938 1690.81 1938 1695.5Z" stroke="#000000" stroke-width="10.3125" stroke-miterlimit="8" fill="none" fill-rule="evenodd"/><path d="M1977 1695.5C1977 1700.19 1973.42 1704 1969 1704 1964.58 1704 1961 1700.19 1961 1695.5 1961 1690.81 1964.58 1687 1969 1687 1973.42 1687 1977 1690.81 1977 1695.5Z" stroke="#000000" stroke-width="10.3125" stroke-miterlimit="8" fill="none" fill-rule="evenodd"/><path d="M2017 1695.5C2017 1700.19 2013.19 1704 2008.5 1704 2003.81 1704 2000 1700.19 2000 1695.5 2000 1690.81 2003.81 1687 2008.5 1687 2013.19 1687 2017 1690.81 2017 1695.5Z" stroke="#000000" stroke-width="10.3125" stroke-miterlimit="8" fill="none" fill-rule="evenodd"/><path d="M1929 1639C1929 1643.42 1925.19 1647 1920.5 1647 1915.81 1647 1912 1643.42 1912 1639 1912 1634.58 1915.81 1631 1920.5 1631 1925.19 1631 1929 1634.58 1929 1639Z" stroke="#000000" stroke-width="10.3125" stroke-miterlimit="8" fill="none" fill-rule="evenodd"/><path d="M1968 1639C1968 1643.42 1964.42 1647 1960 1647 1955.58 1647 1952 1643.42 1952 1639 1952 1634.58 1955.58 1631 1960 1631 1964.42 1631 1968 1634.58 1968 1639Z" stroke="#000000" stroke-width="10.3125" stroke-miterlimit="8" fill="none" fill-rule="evenodd"/><path d="M2008 1639C2008 1643.42 2004.19 1647 1999.5 1647 1994.81 1647 1991 1643.42 1991 1639 1991 1634.58 1994.81 1631 1999.5 1631 2004.19 1631 2008 1634.58 2008 1639Z" stroke="#000000" stroke-width="10.3125" stroke-miterlimit="8" fill="none" fill-rule="evenodd"/><path d="M2123 1639C2123 1643.42 2119.19 1647 2114.5 1647 2109.81 1647 2106 1643.42 2106 1639 2106 1634.58 2109.81 1631 2114.5 1631 2119.19 1631 2123 1634.58 2123 1639Z" stroke="#000000" stroke-width="10.3125" stroke-miterlimit="8" fill="none" fill-rule="evenodd"/><path d="M2162 1639C2162 1643.42 2158.42 1647 2154 1647 2149.58 1647 2146 1643.42 2146 1639 2146 1634.58 2149.58 1631 2154 1631 2158.42 1631 2162 1634.58 2162 1639Z" stroke="#000000" stroke-width="10.3125" stroke-miterlimit="8" fill="none" fill-rule="evenodd"/><path d="M2202 1639C2202 1643.42 2198.19 1647 2193.5 1647 2188.81 1647 2185 1643.42 2185 1639 2185 1634.58 2188.81 1631 2193.5 1631 2198.19 1631 2202 1634.58 2202 1639Z" stroke="#000000" stroke-width="10.3125" stroke-miterlimit="8" fill="none" fill-rule="evenodd"/><path d="M2131 1695.5C2131 1700.19 2127.19 1704 2122.5 1704 2117.81 1704 2114 1700.19 2114 1695.5 2114 1690.81 2117.81 1687 2122.5 1687 2127.19 1687 2131 1690.81 2131 1695.5Z" stroke="#000000" stroke-width="10.3125" stroke-miterlimit="8" fill="none" fill-rule="evenodd"/><path d="M2170 1695.5C2170 1700.19 2166.42 1704 2162 1704 2157.58 1704 2154 1700.19 2154 1695.5 2154 1690.81 2157.58 1687 2162 1687 2166.42 1687 2170 1690.81 2170 1695.5Z" stroke="#000000" stroke-width="10.3125" stroke-miterlimit="8" fill="none" fill-rule="evenodd"/><path d="M2210 1695.5C2210 1700.19 2206.19 1704 2201.5 1704 2196.81 1704 2193 1700.19 2193 1695.5 2193 1690.81 2196.81 1687 2201.5 1687 2206.19 1687 2210 1690.81 2210 1695.5Z" stroke="#000000" stroke-width="10.3125" stroke-miterlimit="8" fill="none" fill-rule="evenodd"/><path d="M1737 1789.5C1737 1794.19 1733.19 1798 1728.5 1798 1723.81 1798 1720 1794.19 1720 1789.5 1720 1784.81 1723.81 1781 1728.5 1781 1733.19 1781 1737 1784.81 1737 1789.5Z" stroke="#000000" stroke-width="10.3125" stroke-miterlimit="8" fill="none" fill-rule="evenodd"/><path d="M1776 1789.5C1776 1794.19 1772.42 1798 1768 1798 1763.58 1798 1760 1794.19 1760 1789.5 1760 1784.81 1763.58 1781 1768 1781 1772.42 1781 1776 1784.81 1776 1789.5Z" stroke="#000000" stroke-width="10.3125" stroke-miterlimit="8" fill="none" fill-rule="evenodd"/><path d="M1816 1790.5C1816 1795.19 1812.19 1799 1807.5 1799 1802.81 1799 1799 1795.19 1799 1790.5 1799 1785.81 1802.81 1782 1807.5 1782 1812.19 1782 1816 1785.81 1816 1790.5Z" stroke="#000000" stroke-width="10.3125" stroke-miterlimit="8" fill="none" fill-rule="evenodd"/><path d="M1855 1789.5C1855 1794.19 1851.42 1798 1847 1798 1842.58 1798 1839 1794.19 1839 1789.5 1839 1784.81 1842.58 1781 1847 1781 1851.42 1781 1855 1784.81 1855 1789.5Z" stroke="#000000" stroke-width="10.3125" stroke-miterlimit="8" fill="none" fill-rule="evenodd"/><path d="M1895 1789.5C1895 1794.19 1891.19 1798 1886.5 1798 1881.81 1798 1878 1794.19 1878 1789.5 1878 1784.81 1881.81 1781 1886.5 1781 1891.19 1781 1895 1784.81 1895 1789.5Z" stroke="#000000" stroke-width="10.3125" stroke-miterlimit="8" fill="none" fill-rule="evenodd"/><path d="M1934 1789.5C1934 1794.19 1930.42 1798 1926 1798 1921.58 1798 1918 1794.19 1918 1789.5 1918 1784.81 1921.58 1781 1926 1781 1930.42 1781 1934 1784.81 1934 1789.5Z" stroke="#000000" stroke-width="10.3125" stroke-miterlimit="8" fill="none" fill-rule="evenodd"/><path d="M1974 1789.5C1974 1794.19 1970.19 1798 1965.5 1798 1960.81 1798 1957 1794.19 1957 1789.5 1957 1784.81 1960.81 1781 1965.5 1781 1970.19 1781 1974 1784.81 1974 1789.5Z" stroke="#000000" stroke-width="10.3125" stroke-miterlimit="8" fill="none" fill-rule="evenodd"/><path d="M2013 1789.5C2013 1794.19 2009.42 1798 2005 1798 2000.58 1798 1997 1794.19 1997 1789.5 1997 1784.81 2000.58 1781 2005 1781 2009.42 1781 2013 1784.81 2013 1789.5Z" stroke="#000000" stroke-width="10.3125" stroke-miterlimit="8" fill="none" fill-rule="evenodd"/><path d="M2053 1789.5C2053 1794.19 2049.19 1798 2044.5 1798 2039.81 1798 2036 1794.19 2036 1789.5 2036 1784.81 2039.81 1781 2044.5 1781 2049.19 1781 2053 1784.81 2053 1789.5Z" stroke="#000000" stroke-width="10.3125" stroke-miterlimit="8" fill="none" fill-rule="evenodd"/><path d="M2092 1789.5C2092 1794.19 2088.42 1798 2084 1798 2079.58 1798 2076 1794.19 2076 1789.5 2076 1784.81 2079.58 1781 2084 1781 2088.42 1781 2092 1784.81 2092 1789.5Z" stroke="#000000" stroke-width="10.3125" stroke-miterlimit="8" fill="none" fill-rule="evenodd"/><path d="M2132 1789.5C2132 1794.19 2128.19 1798 2123.5 1798 2118.81 1798 2115 1794.19 2115 1789.5 2115 1784.81 2118.81 1781 2123.5 1781 2128.19 1781 2132 1784.81 2132 1789.5Z" stroke="#000000" stroke-width="10.3125" stroke-miterlimit="8" fill="none" fill-rule="evenodd"/><path d="M2171 1789.5C2171 1794.19 2167.42 1798 2163 1798 2158.58 1798 2155 1794.19 2155 1789.5 2155 1784.81 2158.58 1781 2163 1781 2167.42 1781 2171 1784.81 2171 1789.5Z" stroke="#000000" stroke-width="10.3125" stroke-miterlimit="8" fill="none" fill-rule="evenodd"/></g></svg>