<svg width="229" height="177" xmlns="http://www.w3.org/2000/svg" xmlns:xlink="http://www.w3.org/1999/xlink" xml:space="preserve" overflow="hidden"><g transform="translate(-3802 -801)"><path d="M3807 863C3807 850.85 3816.85 841 3829 841 3841.15 841 3851 850.85 3851 863 3851 875.15 3841.15 885 3829 885 3816.85 885 3807 875.15 3807 863Z" stroke="#000000" stroke-width="10.3125" stroke-miterlimit="8" fill="none" fill-rule="evenodd"/><path d="M3893 828C3893 815.85 3903.07 806 3915.5 806 3927.93 806 3938 815.85 3938 828 3938 840.15 3927.93 850 3915.5 850 3903.07 850 3893 840.15 3893 828Z" stroke="#000000" stroke-width="10.3125" stroke-miterlimit="8" fill="none" fill-rule="evenodd"/><path d="M3982 863C3982 850.85 3991.85 841 4004 841 4016.15 841 4026 850.85 4026 863 4026 875.15 4016.15 885 4004 885 3991.85 885 3982 875.15 3982 863Z" stroke="#000000" stroke-width="10.3125" stroke-miterlimit="8" fill="none" fill-rule="evenodd"/><path d="M3845 879 3900.27 935.421" stroke="#000000" stroke-width="10.3125" stroke-miterlimit="8" stroke-dasharray="10.3125 10.3125" fill="none" fill-rule="evenodd"/><path d="M0 0 56.9925 56.4212" stroke="#000000" stroke-width="10.3125" stroke-miterlimit="8" stroke-dasharray="10.3125 10.3125" fill="none" fill-rule="evenodd" transform="matrix(1 0 0 -1 3931 935.421)"/><path d="M3916 850 3916 929.043" stroke="#000000" stroke-width="10.3125" stroke-miterlimit="8" stroke-dasharray="10.3125 10.3125" fill="none" fill-rule="evenodd"/><path d="M3893 951C3893 938.85 3903.07 929 3915.5 929 3927.93 929 3938 938.85 3938 951 3938 963.15 3927.93 973 3915.5 973 3903.07 973 3893 963.15 3893 951Z" stroke="#000000" stroke-width="10.3125" stroke-miterlimit="8" fill="none" fill-rule="evenodd"/></g></svg>