<svg width="278" height="94" xmlns="http://www.w3.org/2000/svg" xmlns:xlink="http://www.w3.org/1999/xlink" xml:space="preserve" overflow="hidden"><g transform="translate(-775 -934)"><rect x="779.5" y="938.5" width="77" height="77" stroke="#000000" stroke-width="6.875" stroke-miterlimit="8" fill="none"/><path d="M868.5 952.5 868.501 971.988" stroke="#000000" stroke-width="6.875" stroke-linecap="round" stroke-miterlimit="8" fill="none" fill-rule="evenodd"/><path d="M1046.64 960.444C1046.93 953.714 1047.21 945.229 1047.5 938.5L779.5 940.255C779.787 966.004 780.073 991.752 780.359 1017.5L1047.5 1016.62 1047.5 991.167" stroke="#000000" stroke-width="6.875" stroke-linecap="round" stroke-miterlimit="8" fill="none" fill-rule="evenodd"/><path d="M966.5 983.5 1036.67 983.5 1049.5 971.5" stroke="#000000" stroke-width="6.875" stroke-linecap="round" stroke-miterlimit="8" fill="none" fill-rule="evenodd"/><rect x="856.5" y="938.5" width="96.9999" height="45.0001" stroke="#000000" stroke-width="6.875" stroke-miterlimit="8" fill="none"/><rect x="792.5" y="952.5" width="52.0002" height="25.0001" stroke="#000000" stroke-width="6.875" stroke-miterlimit="8" fill="none"/><rect x="793.5" y="990.5" width="28.0002" height="26.0001" stroke="#000000" stroke-width="6.875" stroke-miterlimit="8" fill="none"/><rect x="833.5" y="990.5" width="23.0001" height="13.0001" stroke="#000000" stroke-width="6.875" stroke-miterlimit="8" fill="none"/><path d="M880.5 952.5 880.5 971.988" stroke="#000000" stroke-width="6.875" stroke-linecap="round" stroke-miterlimit="8" fill="none" fill-rule="evenodd"/><path d="M892.5 952.5 892.5 971.988" stroke="#000000" stroke-width="6.875" stroke-linecap="round" stroke-miterlimit="8" fill="none" fill-rule="evenodd"/><path d="M904.5 952.5 904.5 971.988" stroke="#000000" stroke-width="6.875" stroke-linecap="round" stroke-miterlimit="8" fill="none" fill-rule="evenodd"/><path d="M916.5 952.5 916.5 971.988" stroke="#000000" stroke-width="6.875" stroke-linecap="round" stroke-miterlimit="8" fill="none" fill-rule="evenodd"/><path d="M928.5 952.5 928.5 971.988" stroke="#000000" stroke-width="6.875" stroke-linecap="round" stroke-miterlimit="8" fill="none" fill-rule="evenodd"/><path d="M939.5 952.5 939.5 971.988" stroke="#000000" stroke-width="6.875" stroke-linecap="round" stroke-miterlimit="8" fill="none" fill-rule="evenodd"/><path d="M965.5 952.5 965.5 971.988" stroke="#000000" stroke-width="6.875" stroke-linecap="round" stroke-miterlimit="8" fill="none" fill-rule="evenodd"/><path d="M977.5 952.5 977.5 971.988" stroke="#000000" stroke-width="6.875" stroke-linecap="round" stroke-miterlimit="8" fill="none" fill-rule="evenodd"/><path d="M988.5 952.5 988.5 971.988" stroke="#000000" stroke-width="6.875" stroke-linecap="round" stroke-miterlimit="8" fill="none" fill-rule="evenodd"/><path d="M1000.5 952.5 1000.5 971.988" stroke="#000000" stroke-width="6.875" stroke-linecap="round" stroke-miterlimit="8" fill="none" fill-rule="evenodd"/><path d="M1012.5 952.5 1012.5 971.988" stroke="#000000" stroke-width="6.875" stroke-linecap="round" stroke-miterlimit="8" fill="none" fill-rule="evenodd"/><path d="M1023.5 952.5 1023.5 971.988" stroke="#000000" stroke-width="6.875" stroke-linecap="round" stroke-miterlimit="8" fill="none" fill-rule="evenodd"/><path d="M1035.5 952.5 1035.5 971.988" stroke="#000000" stroke-width="6.875" stroke-linecap="round" stroke-miterlimit="8" fill="none" fill-rule="evenodd"/><rect x="883.5" y="998.5" width="2.00006" height="1.00006" stroke="#000000" stroke-width="6.875" stroke-linecap="round" stroke-miterlimit="8" fill="none"/><rect x="872.5" y="998.5" width="2.00006" height="1.00006" stroke="#000000" stroke-width="6.875" stroke-linecap="round" stroke-miterlimit="8" fill="none"/><rect x="895.5" y="998.5" width="1.00006" height="1.00006" stroke="#000000" stroke-width="6.875" stroke-linecap="round" stroke-miterlimit="8" fill="none"/><rect x="907.5" y="998.5" width="1.00006" height="1.00006" stroke="#000000" stroke-width="6.875" stroke-linecap="round" stroke-miterlimit="8" fill="none"/><rect x="917.5" y="998.5" width="1.00006" height="1.00006" stroke="#000000" stroke-width="6.875" stroke-linecap="round" stroke-miterlimit="8" fill="none"/><rect x="928.5" y="998.5" width="1.00006" height="1.00006" stroke="#000000" stroke-width="6.875" stroke-linecap="round" stroke-miterlimit="8" fill="none"/><rect x="940.5" y="998.5" width="1.00006" height="1.00006" stroke="#000000" stroke-width="6.875" stroke-linecap="round" stroke-miterlimit="8" fill="none"/><rect x="974.5" y="998.5" width="1.00006" height="1.00006" stroke="#000000" stroke-width="6.875" stroke-linecap="round" stroke-miterlimit="8" fill="none"/><rect x="962.5" y="998.5" width="2.00006" height="1.00006" stroke="#000000" stroke-width="6.875" stroke-linecap="round" stroke-miterlimit="8" fill="none"/><rect x="985.5" y="998.5" width="1.00006" height="1.00006" stroke="#000000" stroke-width="6.875" stroke-linecap="round" stroke-miterlimit="8" fill="none"/><rect x="997.5" y="998.5" width="1.00006" height="1.00006" stroke="#000000" stroke-width="6.875" stroke-linecap="round" stroke-miterlimit="8" fill="none"/><rect x="1007.5" y="998.5" width="1.00006" height="1.00006" stroke="#000000" stroke-width="6.875" stroke-linecap="round" stroke-miterlimit="8" fill="none"/><rect x="1018.5" y="998.5" width="2.00006" height="1.00006" stroke="#000000" stroke-width="6.875" stroke-linecap="round" stroke-miterlimit="8" fill="none"/><rect x="1030.5" y="998.5" width="2.00012" height="1.00006" stroke="#000000" stroke-width="6.875" stroke-linecap="round" stroke-miterlimit="8" fill="none"/><rect x="901.5" y="1023.5" width="9.99994" height="1.00006" stroke="#000000" stroke-width="6.875" stroke-linecap="round" stroke-miterlimit="8" fill="none"/><rect x="996.5" y="1023.5" width="8.99994" height="1.00006" stroke="#000000" stroke-width="6.875" stroke-linecap="round" stroke-miterlimit="8" fill="none"/></g></svg>