<svg xmlns="http://www.w3.org/2000/svg" viewBox="0 0 32 32"><path d="M28.25 32H3.75a.825.825 0 0 1-.825-.825C2.925 23.62 8.79 17.474 16 17.474s13.075 6.146 13.075 13.701a.825.825 0 0 1-.825.825M4.601 30.35h22.797C26.995 24.088 22.037 19.124 16 19.124S5.005 24.088 4.601 30.35m11.13-28.7a5.75 5.75 0 0 1 5.742 5.746 5.75 5.75 0 0 1-5.743 5.742 5.747 5.747 0 0 1-5.739-5.742c0-3.168 2.575-5.746 5.74-5.746m0-1.65c-4.08 0-7.39 3.316-7.39 7.396a7.393 7.393 0 0 0 14.783 0A7.4 7.4 0 0 0 15.73 0" style="fill:#fff"/></svg>