<svg width="493" height="200" xmlns="http://www.w3.org/2000/svg" xmlns:xlink="http://www.w3.org/1999/xlink" xml:space="preserve" overflow="hidden"><g transform="translate(-588 -367)"><path d="M783.115 431.61C783.172 432.591 782.422 433.433 781.44 433.49 781.375 433.493 781.31 433.493 781.245 433.49L763.805 433.49C763.449 433.443 763.122 433.693 763.075 434.049 763.067 434.105 763.067 434.163 763.075 434.22L763.075 489.69C763.095 490.195 762.907 490.687 762.555 491.05 762.191 491.4 761.7 491.588 761.195 491.57L747.625 491.57C747.12 491.588 746.629 491.4 746.265 491.05 745.913 490.687 745.725 490.195 745.745 489.69L745.745 434.22C745.799 433.871 745.559 433.544 745.21 433.49 745.145 433.48 745.08 433.48 745.015 433.49L701.375 433.39C701.026 433.336 700.699 433.576 700.645 433.925 700.635 433.99 700.635 434.055 700.645 434.12L700.645 446.52C700.591 446.869 700.831 447.196 701.18 447.25 701.245 447.26 701.31 447.26 701.375 447.25L721.525 447.25C722.518 447.205 723.36 447.973 723.405 448.966 723.407 449.021 723.407 449.076 723.405 449.13L723.405 460.13C723.456 461.112 722.702 461.949 721.72 462 721.655 462.004 721.59 462.004 721.525 462L701.375 462C701.026 461.946 700.699 462.186 700.645 462.535 700.635 462.6 700.635 462.665 700.645 462.73L700.645 489.73C700.702 490.711 699.952 491.553 698.971 491.61 698.902 491.614 698.834 491.614 698.765 491.61L685.185 491.61C684.68 491.628 684.19 491.44 683.825 491.09 683.473 490.727 683.285 490.235 683.305 489.73L683.305 420.46C683.283 419.954 683.471 419.462 683.825 419.1 684.19 418.75 684.68 418.562 685.185 418.58L781.235 418.58C782.217 418.529 783.054 419.283 783.106 420.265 783.109 420.33 783.109 420.395 783.105 420.46ZM806.585 412.61 769.185 375.27C765.219 371.315 759.846 369.096 754.245 369.1L703.015 369.1C697.421 369.1 692.055 371.319 688.095 375.27L650.675 412.64C647.484 415.82 645.686 420.135 645.675 424.64L645.675 477.4C645.687 483.029 647.931 488.423 651.915 492.4L688.095 528.55C692.045 532.489 697.396 534.701 702.975 534.7L729.615 534.7 729.695 564.7C729.693 565.401 730.26 565.972 730.961 565.974 731.3 565.975 731.626 565.84 731.865 565.6L806.555 491.2C809.746 488.02 811.544 483.704 811.555 479.2L811.555 424.67C811.544 420.165 809.746 415.85 806.555 412.67" fill="#1E417C"/><path d="M641.855 495.36C637.55 491.051 635.13 485.211 635.125 479.12L635.125 422.19C635.125 417.315 637.06 412.639 640.505 409.19L680.655 369.1 676.775 369.1C671.128 369.098 665.711 371.339 661.715 375.33L623.955 413.05C620.747 416.275 618.949 420.641 618.955 425.19L618.955 478.43C618.937 484.116 621.178 489.576 625.185 493.61L661.705 530.09C665.683 534.069 671.078 536.306 676.705 536.31L683.185 536.31C682.394 535.712 681.642 535.064 680.935 534.37Z" fill="#2AACE2"/><text fill="#003E7E" font-family="Barlow,Barlow_MSFontService,sans-serif" font-weight="700" font-size="104" transform="translate(827.845 492)">Optix</text></g></svg>