<svg width="46" height="36" xmlns="http://www.w3.org/2000/svg" xmlns:xlink="http://www.w3.org/1999/xlink" xml:space="preserve" overflow="hidden"><g transform="translate(-973 -244)"><path d="M26.9242 1.55541 39.1964 1.55541C39.5774 1.55541 39.9352 1.70318 40.2074 1.97537L43.1627 4.93066C43.3182 5.0862 43.5126 5.15619 43.7148 5.15619 43.917 5.15619 44.1115 5.07842 44.267 4.93066 44.5703 4.62735 44.5703 4.13739 44.267 3.83409L41.3117 0.878808C40.744 0.318859 39.9974 0.00777706 39.1964 0.00777706L26.9242 0.00777706C26.4964 0.00777706 26.1465 0.357745 26.1465 0.785483 26.1465 1.21322 26.4964 1.56319 26.9242 1.56319Z" transform="matrix(-1.01341 1.24107e-16 -1.22465e-16 -1 1018.94 280)"/><path d="M44.4925 7.33377C44.0648 7.33377 43.7148 7.68373 43.7148 8.11147L43.7148 34.4524 1.55541 34.4524 1.55541 1.55541 23.4401 1.55541C23.8678 1.55541 24.2178 1.20544 24.2178 0.777706 24.2178 0.349968 23.8678 0 23.4401 0L0.777706 0C0.349968 0 0 0.349968 0 0.777706L0 35.2223C0 35.65 0.349968 36 0.777706 36L44.4925 36C44.9203 36 45.2703 35.65 45.2703 35.2223L45.2703 8.11147C45.2703 7.68373 44.9203 7.33377 44.4925 7.33377Z" transform="matrix(-1.01341 1.24107e-16 -1.22465e-16 -1 1018.94 280)"/><path d="M3.35191 32.6792 41.9106 32.6792 41.9106 7.4582 3.35191 7.4582 3.35191 32.6792ZM4.90732 9.01361 40.3552 9.01361 40.3552 31.1238 4.90732 31.1238 4.90732 9.01361Z" transform="matrix(-1.01341 1.24107e-16 -1.22465e-16 -1 1018.94 280)"/><path d="M38.512 5.15619C38.9397 5.15619 39.2897 4.80622 39.2897 4.37848 39.2897 3.95075 38.9397 3.60078 38.512 3.60078L4.12962 3.60078C3.70188 3.60078 3.35191 3.95075 3.35191 4.37848 3.35191 4.80622 3.70188 5.15619 4.12962 5.15619L38.512 5.15619Z" transform="matrix(-1.01341 1.24107e-16 -1.22465e-16 -1 1018.94 280)"/></g></svg>