<svg width="30" height="25" xmlns="http://www.w3.org/2000/svg" xmlns:xlink="http://www.w3.org/1999/xlink" xml:space="preserve" overflow="hidden"><defs><clipPath id="clip0"><rect x="842" y="66" width="30" height="25"/></clipPath></defs><g clip-path="url(#clip0)" transform="translate(-842 -66)"><path d="M0 0 0 19.7385 12.0017 19.7385 12.0017 23.9729 6.30839 23.9729C6.02764 23.9729 5.80006 24.2005 5.80006 24.4812 5.80006 24.762 6.02764 24.9896 6.30839 24.9896L22.7732 24.9896C23.054 24.9896 23.2816 24.762 23.2816 24.4812 23.2816 24.2005 23.054 23.9729 22.7732 23.9729L17.0799 23.9729 17.0799 19.7385 24.1712 19.7385C24.4519 19.7385 24.6795 19.5109 24.6795 19.2302 24.6795 18.9494 24.4519 18.7218 24.1712 18.7218L1.01666 18.7218 1.01666 17.7052 25.7368 17.7052C26.0176 17.7052 26.2451 17.4776 26.2451 17.1968 26.2451 16.9161 26.0176 16.6885 25.7368 16.6885L1.01666 16.6885 1.01666 1.01666 28.065 1.01666 28.065 5.97798C28.065 6.25873 28.2926 6.48631 28.5733 6.48631 28.8541 6.48631 29.0816 6.25873 29.0816 5.97798L29.0816 0ZM13.0184 23.9729 13.0184 19.9063 16.0684 19.9063 16.0684 23.9729Z" stroke="#000000" stroke-width="0.852177" transform="matrix(1.03158 0 0 1 842 66.0052)"/><path d="M28.5733 7.57414C28.2926 7.57414 28.065 7.80172 28.065 8.08247L28.065 16.109C28.0658 16.3572 27.9669 16.5953 27.7905 16.7698L25.8588 18.7015C25.6595 18.8992 25.6582 19.2211 25.8559 19.4204 25.8568 19.4214 25.8578 19.4224 25.8588 19.4233 26.0697 19.587 26.3647 19.587 26.5756 19.4233L28.5072 17.4866C28.876 17.1232 29.0831 16.6268 29.0816 16.109L29.0816 8.08247C29.0816 7.80172 28.8541 7.57414 28.5733 7.57414Z" stroke="#000000" stroke-width="0.852177" transform="matrix(1.03158 0 0 1 842 66.0052)"/></g></svg>