<svg width="38" height="30" xmlns="http://www.w3.org/2000/svg" xmlns:xlink="http://www.w3.org/1999/xlink" xml:space="preserve" overflow="hidden"><defs><clipPath id="clip0"><rect x="1128" y="270" width="38" height="30"/></clipPath></defs><g clip-path="url(#clip0)" transform="translate(-1128 -270)"><path d="M0 0.000610008 0.000610008 23.6855 14.4019 23.6855 14.4019 28.7675 7.56971 28.7675C7.23281 28.7675 6.95971 29.0406 6.95971 29.3775 6.95971 29.7144 7.23281 29.9875 7.56971 29.9875L27.3282 29.9875C27.6652 29.9875 27.9383 29.7144 27.9383 29.3775 27.9383 29.0406 27.6652 28.7675 27.3282 28.7675L20.496 28.7675 20.496 23.6855 29.0052 23.6855C29.3421 23.6855 29.6152 23.4124 29.6152 23.0754 29.6152 22.7385 29.3421 22.4654 29.0052 22.4654L1.22063 22.4654 1.22059 21.2621 30.884 21.2621C31.2209 21.2621 31.4941 20.989 31.4941 20.6521 31.4941 20.3152 31.2209 20.0421 30.884 20.0421L1.22053 20.0421 1.22002 1.22063 33.6779 1.22002 33.6779 7.17534C33.6779 7.51225 33.951 7.78535 34.2879 7.78535 34.6249 7.78535 34.898 7.51225 34.898 7.17534L34.898 0ZM15.6219 28.7675 15.6219 23.8642 19.276 23.8642 19.276 28.7675Z" transform="matrix(1.08889 0 0 1 1128 270.006)"/><path d="M34.2879 9.09114C33.9512 9.09095 33.6781 9.36375 33.6779 9.70047 33.6779 9.70072 33.6779 9.7009 33.6779 9.70114L33.6779 19.3285C33.6789 19.6266 33.5605 19.9127 33.3491 20.1231L31.0294 22.4428C30.7912 22.681 30.7912 23.0672 31.0294 23.3054 31.2676 23.5436 31.6538 23.5436 31.892 23.3054L34.2117 20.9857C34.6526 20.5471 34.8997 19.9504 34.898 19.3285L34.898 9.70114C34.8981 9.36448 34.6253 9.09132 34.2887 9.09114 34.2884 9.09114 34.2882 9.09114 34.2879 9.09114Z" transform="matrix(1.08889 0 0 1 1128 270.006)"/></g></svg>