<svg width="40" height="19" xmlns="http://www.w3.org/2000/svg" xmlns:xlink="http://www.w3.org/1999/xlink" xml:space="preserve" overflow="hidden"><defs><clipPath id="clip0"><rect x="301" y="572" width="40" height="19"/></clipPath></defs><g clip-path="url(#clip0)" transform="translate(-301 -572)"><path d="M4.88773 0 5.74309 0.855354C5.97956 1.08798 6.2973 1.21945 6.62899 1.22193L15.7141 1.22193 15.7141 3.05483C15.7141 3.39226 15.9876 3.6658 16.325 3.6658L16.325 3.6658C16.6625 3.6658 16.936 3.39226 16.936 3.05483L16.936 1.22193 19.2393 1.22193 19.2393 3.05483C19.2393 3.39226 19.5129 3.6658 19.8503 3.6658L19.8503 3.6658C20.1878 3.6658 20.4613 3.39226 20.4613 3.05483L20.4613 1.22193 22.7646 1.22193 22.7646 3.05483C22.7646 3.39226 23.0382 3.6658 23.3756 3.6658L23.3756 3.6658C23.713 3.6658 23.9866 3.39226 23.9866 3.05483L23.9866 1.22193 26.2716 1.22193 26.2716 10.0748 23.9866 10.0748 23.9866 8.24194C23.9866 7.90451 23.713 7.63098 23.3756 7.63098L23.3756 7.63098C23.0382 7.63098 22.7646 7.90451 22.7646 8.24194L22.7646 10.0748 20.4613 10.0748 20.4613 8.24194C20.4613 7.90451 20.1878 7.63098 19.8503 7.63098L19.8503 7.63098C19.5129 7.63098 19.2393 7.90451 19.2393 8.24194L19.2393 10.0748 16.936 10.0748 16.936 8.24194C16.936 7.90451 16.6625 7.63098 16.325 7.63098L16.325 7.63098C15.9876 7.63098 15.7141 7.90451 15.7141 8.24194L15.7141 10.0748 1.22193 10.0748 1.22193 6.20131 5.4987 6.20131 4.4845 5.20544C4.34036 5.061 4.14479 4.97969 3.94074 4.97938L1.22193 4.97938 1.22193 2.29724C1.2229 2.06839 1.13278 1.84857 0.971437 1.68627L0 0.720941 0 16.4961 19.2271 16.4961 19.2271 18.329 24.1149 18.329 24.1149 16.4961 26.3327 16.4961 26.3327 18.329 31.2204 18.329 31.2204 16.4961 33.4504 16.4961 33.4504 18.329 38.3382 18.329 38.3382 16.4961 40.0244 16.4961 40.0244 0ZM27.4935 11.2968 29.7969 11.2968 29.7969 15.2742 27.4935 15.2742ZM31.0188 6.20131 33.3221 6.20131 33.3221 10.0748 31.031 10.0748ZM31.0188 1.22193 33.3221 1.22193 33.3221 4.97938 31.031 4.97938ZM34.5441 11.2968 38.7658 11.2968 38.7658 15.2742 34.5563 15.2742ZM33.3221 11.2968 33.3221 15.2742 31.031 15.2742 31.031 11.2968ZM38.7658 10.0748 34.5563 10.0748 34.5563 6.20131 38.7781 6.20131ZM34.5563 4.97938 34.5563 1.22193 38.7781 1.22193 38.7781 4.97938ZM27.4935 1.22193 29.7969 1.22193 29.7969 4.97938 27.4935 4.97938ZM27.4935 6.20131 29.7969 6.20131 29.7969 10.0748 27.4935 10.0748ZM26.2716 11.2968 26.2716 15.2742 23.9866 15.2742 23.9866 11.2968ZM22.7524 11.2968 22.7524 15.2742 20.4613 15.2742 20.4613 11.2968ZM19.2271 11.2968 19.2271 15.2742 16.936 15.2742 16.936 11.2968ZM15.7018 11.2968 15.7018 15.2742 1.22193 15.2742 1.22193 11.2968ZM22.8685 17.0704 20.4246 17.0704 20.4246 16.4961 22.8685 16.4961ZM29.974 17.0704 27.5302 17.0704 27.5302 16.4961 29.974 16.4961ZM37.0796 17.0704 34.6357 17.0704 34.6357 16.4961 37.0796 16.4961Z" fill="#231F20" transform="matrix(1 0 0 1.02917 301 572.087)"/><path d="M2.26669 1.22193 6.49458 5.44982C6.54956 5.50481 6.61677 5.54758 6.67176 5.59646 7.12284 5.98413 7.69611 6.20046 8.29082 6.20742L9.15228 6.20742 23.9866 6.20742 23.9866 6.20742 24.6647 6.20742C25.0022 6.22264 25.288 5.96137 25.3032 5.62395 25.3183 5.28652 25.0572 5.00067 24.7197 4.98549L24.6647 4.98549 8.29082 4.98549C7.92907 4.98958 7.58179 4.84359 7.3316 4.58225L3.38476 0.610967 2.99374 0.219948C2.75544-0.0169382 2.37058-0.0169382 2.13227 0.219948 2.0301 0.325485 1.96937 0.4643 1.9612 0.610967 1.94663 0.787084 2.00901 0.960886 2.13227 1.08752Z" fill="#231F20" transform="matrix(1 0 0 1.02917 301 572.087)"/></g></svg>