<svg xmlns="http://www.w3.org/2000/svg" viewBox="0 0 15.75 18"><path d="M6.857 6.025V.518c0-.285.236-.518.525-.518h1.05c.288 0 .525.233.525.518v5.507a.523.523 0 0 1-.525.518h-1.05a.523.523 0 0 1-.525-.518M7.875 18c4.338 0 7.875-3.484 7.875-7.759 0-3.034-1.809-5.78-4.586-7.045a.37.37 0 0 0-.36.024.36.36 0 0 0-.172.312v1.542c0 .134.065.25.182.317 1.727 1.022 2.799 2.856 2.799 4.849 0 3.114-2.577 5.653-5.737 5.653s-5.738-2.539-5.738-5.653c0-1.963 1.04-3.776 2.728-4.808a.36.36 0 0 0 .176-.312V3.567a.36.36 0 0 0-.174-.313.37.37 0 0 0-.363-.021C1.77 4.518 0 7.239 0 10.241 0 14.516 3.538 18 7.875 18" style="fill:#fff"/></svg>