<svg width="15" height="21" xmlns="http://www.w3.org/2000/svg" xmlns:xlink="http://www.w3.org/1999/xlink" xml:space="preserve" overflow="hidden"><defs><clipPath id="clip0"><rect x="707" y="624" width="15" height="21"/></clipPath></defs><g clip-path="url(#clip0)" transform="translate(-707 -624)"><path d="M14.6043 14.6223C14.423 14.6223 14.2754 14.7682 14.2734 14.9495L14.2734 18.6285 12.0833 18.6285 12.0833 17.6215C12.0643 17.4398 11.9016 17.3079 11.7198 17.3269 11.5644 17.3432 11.4415 17.4661 11.4252 17.6215L11.4252 18.6285 8.3037 18.6285C9.65199 17.9541 10.631 16.7156 10.9757 15.248L12.0833 15.248 12.0833 3.91989 10.9757 3.91989C10.3474 1.1949 7.62897-0.504778 4.904 0.123546 3.01659 0.558739 1.54283 2.0325 1.10764 3.91989L0 3.91989 0 15.248 1.10764 15.248C1.45235 16.7156 2.43133 17.9541 3.77964 18.6285L0.654514 18.6285 0.654514 17.6215C0.674401 17.4439 0.546516 17.2838 0.368873 17.2639 0.355058 17.2623 0.341157 17.2617 0.327257 17.2619 0.14652 17.261-0.000714546 17.4068-0.00160088 17.5875-0.00165651 17.5989-0.00112216 17.6102 3.08388e-08 17.6215L0 20.405C7.18671e-16 20.5858 0.146518 20.7323 0.327257 20.7323 0.506 20.7343 0.652518 20.591 0.654514 20.4122 0.654539 20.4098 0.654539 20.4074 0.654514 20.405L0.654514 19.283 11.4432 19.283 11.4432 20.3834C11.4622 20.5651 11.625 20.6971 11.8067 20.678 11.9622 20.6618 12.085 20.5389 12.1013 20.3834L12.1013 19.2866 14.6187 19.2866C14.7994 19.2866 14.9459 19.1401 14.9459 18.9593L14.9459 14.9495C14.9461 14.7688 14.7997 14.6221 14.619 14.6219 14.6141 14.6219 14.6092 14.6221 14.6043 14.6223ZM6.04167 0.654514C8.03401 0.658689 9.77682 1.99638 10.296 3.91989L1.79812 3.91989C2.31731 2.00096 4.05378 0.664774 6.04167 0.654514ZM0.647321 14.5935 0.647321 5.85466 9.45809 5.85466C9.63883 5.85466 9.78534 5.70815 9.78534 5.52741 9.78534 5.34666 9.63883 5.20015 9.45809 5.20015L0.654514 5.20015 0.654514 4.578 11.4432 4.578 11.4432 14.5935ZM1.79812 15.248 10.296 15.248C9.6534 17.5946 7.23015 18.976 4.8835 18.3334 3.38217 17.9223 2.20925 16.7494 1.79812 15.248Z" fill="#231F20" transform="matrix(1 0 0 1.01379 707.034 624)"/><path d="M14.5324 7.51972 13.2126 6.1999C13.0838 6.07331 12.8774 6.07331 12.7486 6.1999 12.6205 6.32739 12.62 6.5346 12.7475 6.6627 12.7479 6.66309 12.7483 6.66345 12.7486 6.66381L14.0685 7.98363C14.1991 8.1173 14.2727 8.29657 14.2734 8.48351L14.2734 13.6441C14.2925 13.8258 14.4552 13.9577 14.6369 13.9387 14.7924 13.9224 14.9153 13.7996 14.9315 13.6441L14.9315 8.48351C14.9312 8.12209 14.7876 7.77555 14.5324 7.51972Z" fill="#231F20" transform="matrix(1 0 0 1.01379 707.034 624)"/></g></svg>