<svg width="109" height="54" xmlns="http://www.w3.org/2000/svg" xmlns:xlink="http://www.w3.org/1999/xlink" xml:space="preserve" overflow="hidden"><defs><clipPath id="clip0"><rect x="945" y="171" width="109" height="54"/></clipPath></defs><g clip-path="url(#clip0)" transform="translate(-945 -171)"><path d="M83.6195 5.15184 77.2486 5.15184C76.4471 5.15184 75.7974 5.80158 75.7974 6.60306 75.7974 7.40455 76.4471 8.05429 77.2486 8.05429L83.6195 8.05429C84.421 8.05429 85.0707 7.40455 85.0707 6.60306 85.0707 5.80158 84.421 5.15184 83.6195 5.15184Z" fill="#231F20" transform="matrix(1.02308 0 0 1 945.553 171)"/><path d="M63.8538 0 34.1037 0 34.1037 26.1946 63.8538 26.1946ZM60.9514 23.2921 37.0062 23.2921 37.0062 2.90245 60.9514 2.90245Z" fill="#231F20" transform="matrix(1.02308 0 0 1 945.553 171)"/><path d="M45.8877 7.98173 52.0699 7.98173C52.8714 7.98173 53.5211 7.33198 53.5211 6.5305 53.5211 5.72902 52.8714 5.07928 52.0699 5.07928L45.8877 5.07928C45.0862 5.07928 44.4364 5.72902 44.4364 6.5305 44.4364 7.33198 45.0862 7.98173 45.8877 7.98173Z" fill="#231F20" transform="matrix(1.02308 0 0 1 945.553 171)"/><path d="M14.9766 5.07928C14.1751 5.07928 13.5254 5.72902 13.5254 6.5305 13.5254 7.33198 14.1751 7.98173 14.9766 7.98173L21.1733 7.98173C21.9748 7.98173 22.6246 7.33198 22.6246 6.5305 22.6246 5.72902 21.9748 5.07928 21.1733 5.07928Z" fill="#231F20" transform="matrix(1.02308 0 0 1 945.553 171)"/><path d="M21.7683 26.1946 32.4058 26.1946 32.4058 6.82075C32.4058 6.01927 31.7561 5.36952 30.9546 5.36952 30.1531 5.36952 29.5034 6.01927 29.5034 6.82075L29.5034 23.2921 5.54367 23.2921 5.54367 12.1758C5.54367 11.3743 4.89393 10.7245 4.09245 10.7245 3.29097 10.7245 2.64123 11.3743 2.64123 12.1758L2.64123 23.2921 1.45122 23.2921C0.649734 23.2921 0 23.9418 3.22237e-16 24.7433 3.22237e-16 25.5449 0.649734 26.1946 1.45122 26.1946L21.7683 26.1946Z" fill="#231F20" transform="matrix(1.02308 0 0 1 945.553 171)"/><path d="M5.19538 8.27197C5.55505 8.27103 5.90154 8.13657 6.1677 7.89465L10.5214 3.90379C11.2458 3.24232 12.1963 2.88393 13.1771 2.90245L30.9546 2.90245C31.7561 2.90245 32.4058 2.2527 32.4058 1.45122 32.4058 0.649734 31.7561 0 30.9546 0L13.1771 0C11.4862-0.0134353 9.85286 0.61396 8.60575 1.75598L4.20855 5.80489C3.64705 6.37682 3.65551 7.29564 4.22746 7.85714 4.48677 8.11173 4.83218 8.25976 5.19538 8.27197Z" fill="#231F20" transform="matrix(1.02308 0 0 1 945.553 171)"/><path d="M20.6074 32.7541C17.209 32.7541 14.4542 35.509 14.4542 38.9073 14.4542 42.3056 17.209 45.0605 20.6074 45.0605 24.0057 45.0605 26.7605 42.3056 26.7605 38.9073 26.7526 35.5123 24.0024 32.7621 20.6074 32.7541ZM20.6074 42.158C18.8121 42.158 17.3566 40.7026 17.3566 38.9073 17.3566 37.112 18.8121 35.6565 20.6074 35.6565 22.4027 35.6565 23.8581 37.112 23.8581 38.9073 23.8581 40.7026 22.4027 42.158 20.6074 42.158Z" fill="#231F20" transform="matrix(1.02308 0 0 1 945.553 171)"/><path d="M61.0384 38.9073C61.0384 35.509 58.2836 32.7541 54.8852 32.7541 51.4869 32.7541 48.7321 35.509 48.7321 38.9073 48.7321 42.3056 51.4869 45.0605 54.8852 45.0605 58.2802 45.0525 61.0304 42.3023 61.0384 38.9073ZM54.8852 42.158C53.0899 42.158 51.6345 40.7026 51.6345 38.9073 51.6345 37.112 53.0899 35.6565 54.8852 35.6565 56.6805 35.6565 58.136 37.112 58.136 38.9073 58.136 40.7026 56.6805 42.158 54.8852 42.158Z" fill="#231F20" transform="matrix(1.02308 0 0 1 945.553 171)"/><path d="M89.1631 32.7541C85.7648 32.7541 83.0099 35.509 83.0099 38.9073 83.0099 42.3056 85.7648 45.0605 89.1631 45.0605 92.5615 45.0605 95.3163 42.3056 95.3163 38.9073 95.3083 35.5123 92.5581 32.7621 89.1631 32.7541ZM89.1631 42.158C87.3678 42.158 85.9124 40.7026 85.9124 38.9073 85.9124 37.112 87.3678 35.6565 89.1631 35.6565 90.9584 35.6565 92.4139 37.112 92.4139 38.9073 92.4139 40.7026 90.9584 42.158 89.1631 42.158Z" fill="#231F20" transform="matrix(1.02308 0 0 1 945.553 171)"/><path d="M72.8514 51.0976 67.0465 51.0976C66.245 51.0976 65.5953 51.7473 65.5953 52.5488 65.5953 53.3503 66.245 54 67.0465 54L72.8514 54C73.6529 54 74.3026 53.3503 74.3026 52.5488 74.3026 51.7473 73.6529 51.0976 72.8514 51.0976Z" fill="#231F20" transform="matrix(1.02308 0 0 1 945.553 171)"/><path d="M105.373 36.9626C105.285 36.1611 104.564 35.5828 103.762 35.6711 102.961 35.7593 102.383 36.4804 102.471 37.2819 102.507 37.7359 102.507 38.1921 102.471 38.6461 102.475 39.9263 102.279 41.1995 101.89 42.4192 101.653 43.1804 102.074 43.9903 102.834 44.2333 102.98 44.2774 103.131 44.3018 103.284 44.3058 103.942 44.336 104.538 43.9188 104.735 43.29 105.211 41.7882 105.451 40.2215 105.446 38.6461 105.458 38.084 105.434 37.5217 105.373 36.9626Z" fill="#231F20" transform="matrix(1.02308 0 0 1 945.553 171)"/><path d="M101.469 33.5378C101.703 34.0579 102.22 34.3928 102.79 34.394 102.995 34.393 103.198 34.3486 103.385 34.2634 104.118 33.9395 104.45 33.0825 104.126 32.3493 104.126 32.3489 104.126 32.3483 104.125 32.3478 103.246 30.3911 101.965 28.6409 100.367 27.2104 99.7695 26.6735 98.85 26.7221 98.3131 27.3193 97.7761 27.9164 97.8249 28.8358 98.4219 29.3727 99.7237 30.5273 100.763 31.9477 101.469 33.5378Z" fill="#231F20" transform="matrix(1.02308 0 0 1 945.553 171)"/><path d="M32.2171 51.0976 26.4123 51.0976C25.6107 51.0976 24.961 51.7473 24.961 52.5488 24.961 53.3503 25.6107 54 26.4123 54L32.2171 54C33.0187 54 33.6684 53.3503 33.6684 52.5488 33.6684 51.7473 33.0187 51.0976 32.2171 51.0976Z" fill="#231F20" transform="matrix(1.02308 0 0 1 945.553 171)"/><path d="M83.0099 51.0976 77.2051 51.0976C76.4035 51.0976 75.7538 51.7473 75.7538 52.5488 75.7538 53.3503 76.4035 54 77.2051 54L83.0099 54C83.8115 54 84.4612 53.3503 84.4612 52.5488 84.4612 51.7473 83.8115 51.0976 83.0099 51.0976Z" fill="#231F20" transform="matrix(1.02308 0 0 1 945.553 171)"/><path d="M100.25 45.8877C99.2276 47.2878 97.9287 48.4633 96.4337 49.3416 95.7446 49.7504 95.5172 50.6404 95.9258 51.3297 96.1872 51.7705 96.6615 52.0407 97.1739 52.0408 97.435 52.0453 97.6918 51.9748 97.914 51.8377 99.7639 50.7303 101.361 49.2471 102.601 47.484 103.01 46.7944 102.782 45.9042 102.092 45.4958 101.486 45.1367 100.709 45.2652 100.25 45.8006Z" fill="#231F20" transform="matrix(1.02308 0 0 1 945.553 171)"/><path d="M92.8783 50.7928C91.9831 50.9968 91.068 51.099 90.15 51.0976L87.3636 51.0976C86.5621 51.0976 85.9124 51.7473 85.9124 52.5488 85.9124 53.3503 86.5621 54 87.3636 54L90.1064 54C91.2314 54.0155 92.3549 53.9134 93.4587 53.6952 94.2603 53.5349 94.7801 52.7553 94.6197 51.9538 94.4594 51.1523 93.6798 50.6324 92.8783 50.7928Z" fill="#231F20" transform="matrix(1.02308 0 0 1 945.553 171)"/><path d="M94.9535 27.1669 95.1712 27.254C95.3536 27.3371 95.5513 27.3815 95.7517 27.3846 96.5532 27.3911 97.2081 26.7468 97.2147 25.9453 97.2194 25.3592 96.8713 24.8278 96.3322 24.5982L96.0855 24.4966C95.8388 24.3805 95.5775 24.308 95.3163 24.2064L95.3163 0 65.5517 0 65.5517 26.1946 90.1064 26.1946C91.7714 26.1859 93.4207 26.5167 94.9535 27.1669ZM68.4542 2.90245 92.4139 2.90245 92.4139 23.2921 68.4542 23.2921Z" fill="#231F20" transform="matrix(1.02308 0 0 1 945.553 171)"/><path d="M42.3757 51.0976 36.5708 51.0976C35.7693 51.0976 35.1196 51.7473 35.1196 52.5488 35.1196 53.3503 35.7693 54 36.5708 54L42.3757 54C43.1772 54 43.8269 53.3503 43.8269 52.5488 43.8269 51.7473 43.1772 51.0976 42.3757 51.0976Z" fill="#231F20" transform="matrix(1.02308 0 0 1 945.553 171)"/><path d="M52.5343 51.0976 46.7294 51.0976C45.9279 51.0976 45.2782 51.7473 45.2782 52.5488 45.2782 53.3503 45.9279 54 46.7294 54L52.5343 54C53.3358 54 53.9855 53.3503 53.9855 52.5488 53.9855 51.7473 53.3358 51.0976 52.5343 51.0976Z" fill="#231F20" transform="matrix(1.02308 0 0 1 945.553 171)"/><path d="M62.6928 51.0976 56.8879 51.0976C56.0864 51.0976 55.4367 51.7473 55.4367 52.5488 55.4367 53.3503 56.0864 54 56.8879 54L62.6928 54C63.4943 54 64.1441 53.3503 64.1441 52.5488 64.1441 51.7473 63.4943 51.0976 62.6928 51.0976Z" fill="#231F20" transform="matrix(1.02308 0 0 1 945.553 171)"/></g></svg>