<svg width="25" height="16" xmlns="http://www.w3.org/2000/svg" xmlns:xlink="http://www.w3.org/1999/xlink" xml:space="preserve" overflow="hidden"><g transform="translate(-655 -627)"><path d="M6.22842 12.4974C6.22842 11.7064 5.58723 11.0652 4.79628 11.0652 4.00534 11.0652 3.36415 11.7064 3.36415 12.4974 3.36415 13.2883 4.00534 13.9295 4.79628 13.9295 5.58723 13.9295 6.22842 13.2883 6.22842 12.4974ZM4.79628 13.2472C4.37843 13.2472 4.03969 12.9084 4.03972 12.4906 4.03972 12.0727 4.3785 11.734 4.79635 11.734 5.2142 11.734 5.55292 12.0728 5.55292 12.4906 5.55292 12.4929 5.55292 12.4951 5.55288 12.4974 5.54917 12.9126 5.2115 13.2472 4.79628 13.2472Z" fill="#231F20" transform="matrix(1.00599 0 0 1 655.159 627)"/><path d="M12.7743 11.0585C11.9834 11.0585 11.3422 11.6997 11.3422 12.4906 11.3422 13.2816 11.9834 13.9227 12.7744 13.9227 13.5627 13.9227 14.2027 13.2856 14.2065 12.4974 14.2102 11.7064 13.572 11.0622 12.7811 11.0585 12.7789 11.0585 12.7766 11.0585 12.7743 11.0585ZM12.7743 13.2472C12.3565 13.2472 12.0177 12.9084 12.0178 12.4906 12.0178 12.0727 12.3565 11.734 12.7744 11.734 13.1922 11.734 13.531 12.0728 13.531 12.4906 13.531 12.4929 13.531 12.4951 13.5309 12.4974 13.5272 12.9126 13.1896 13.2472 12.7743 13.2472Z" fill="#231F20" transform="matrix(1.00599 0 0 1 655.159 627)"/><path d="M20.7524 13.9227C21.5433 13.9227 22.1845 13.2815 22.1845 12.4906 22.1845 11.6997 21.5433 11.0585 20.7523 11.0585 19.9614 11.0585 19.3202 11.6997 19.3202 12.4906 19.3202 12.4929 19.3202 12.4951 19.3202 12.4974 19.324 13.2857 19.9641 13.9227 20.7524 13.9227ZM20.7524 11.734C21.1702 11.734 21.509 12.0728 21.5089 12.4906 21.5089 12.9085 21.1702 13.2472 20.7523 13.2472 20.3371 13.2472 19.9995 12.9125 19.9958 12.4974 19.992 12.0795 20.3277 11.7378 20.7456 11.734 20.7479 11.734 20.7501 11.734 20.7524 11.734Z" fill="#231F20" transform="matrix(1.00599 0 0 1 655.159 627)"/><path d="M8.78193 9.52839C8.96848 9.52839 9.1197 9.37718 9.1197 9.19063 9.1197 9.00408 8.96848 8.85286 8.78193 8.85286L7.72134 8.85286C7.73222 8.8052 7.73786 8.7565 7.73823 8.70762L7.76863 4.11737 6.70804 3.06354C6.68663 3.03926 6.67464 3.0081 6.67427 2.97572L6.67427 0 4.91113 0 4.91113 2.97572C4.91123 3.00883 4.89778 3.04055 4.87397 3.06354L3.81676 4.11737 3.7965 8.70087C3.79285 8.75146 3.79285 8.80226 3.7965 8.85286L2.70213 8.85286C2.51559 8.85286 2.36437 9.00408 2.36437 9.19063 2.36437 9.37718 2.51559 9.52839 2.70213 9.52839L4.0532 9.52839C4.13413 9.52745 4.21205 9.49749 4.27275 9.44395 4.37786 9.4959 4.49327 9.5236 4.61051 9.52502L6.90733 9.52502C7.02355 9.52796 7.13893 9.50485 7.24509 9.45746 7.30028 9.50296 7.36949 9.52799 7.441 9.52839ZM7.0627 8.70424C7.06087 8.785 6.99487 8.84952 6.91408 8.84948L4.61727 8.84948C4.53705 8.84948 4.47203 8.78446 4.47203 8.70424L4.49229 4.39096 5.35022 3.53304C5.5012 3.38415 5.58635 3.18102 5.58666 2.96897L5.58666 0.675533 5.99873 0.675533 5.99873 2.97572C5.99775 3.18737 6.08172 3.39057 6.23179 3.53979L7.0931 4.39096Z" fill="#231F20" transform="matrix(1.00599 0 0 1 655.159 627)"/><path d="M9.22103 15.3245 7.86996 15.3245C7.68341 15.3245 7.53219 15.4757 7.53219 15.6622 7.53219 15.8488 7.68341 16 7.86996 16L9.22103 16C9.40757 16 9.55879 15.8488 9.55879 15.6622 9.55879 15.4757 9.40757 15.3245 9.22103 15.3245Z" fill="#231F20" transform="matrix(1.00599 0 0 1 655.159 627)"/><path d="M6.85666 15.3245 6.0798 15.3245C5.89325 15.3245 5.74203 15.4757 5.74203 15.6622 5.74203 15.8488 5.89325 16 6.0798 16L6.85666 16C7.04321 16 7.19443 15.8488 7.19443 15.6622 7.19443 15.4757 7.04321 15.3245 6.85666 15.3245Z" fill="#231F20" transform="matrix(1.00599 0 0 1 655.159 627)"/><path d="M21.5461 9.58581C21.9427 9.66505 22.318 9.82735 22.6472 10.0621 22.7047 10.1022 22.7731 10.1234 22.8431 10.1229 23.0297 10.1217 23.1799 9.96948 23.1788 9.78294 23.178 9.67539 23.1262 9.57457 23.0391 9.51151 22.6356 9.22184 22.175 9.02151 21.688 8.92379 21.5064 8.8811 21.3246 8.99368 21.2819 9.17529 21.2809 9.17924 21.2801 9.18323 21.2793 9.18725 21.2423 9.37008 21.3606 9.54829 21.5434 9.58527 21.5443 9.58544 21.5452 9.58564 21.5461 9.58581Z" fill="#231F20" transform="matrix(1.00599 0 0 1 655.159 627)"/><path d="M11.1733 9.52502 13.5107 9.52502C13.6182 9.52343 13.7185 9.47077 13.7809 9.38315 14.0072 9.23217 14.1448 8.97962 14.149 8.70762L14.1862 4.11737 13.1189 3.06354C13.0974 3.03926 13.0854 3.0081 13.0851 2.97572L13.0851 0 11.3186 0 11.3186 2.05024C11.3186 2.23678 11.4698 2.38801 11.6563 2.38801 11.8429 2.38801 11.9941 2.23678 11.9941 2.05024L11.9941 0.675533 12.4095 0.675533 12.4095 2.97572C12.4086 3.18737 12.4925 3.39057 12.6426 3.53979L13.5107 4.39096 13.4836 8.69411C13.4818 8.77544 13.4164 8.84094 13.335 8.84273L9.79523 8.84273C9.60868 8.84273 9.45746 8.99395 9.45746 9.18049 9.45746 9.36704 9.60868 9.51826 9.79523 9.51826L11.1733 9.51826Z" fill="#231F20" transform="matrix(1.00599 0 0 1 655.159 627)"/><path d="M1.68883 8.85286 0.337767 8.85286C0.151223 8.85286 0 9.00408 7.49994e-17 9.19063 7.49994e-17 9.37718 0.151223 9.52839 0.337767 9.52839L1.68883 9.52839C1.87537 9.52839 2.0266 9.37718 2.0266 9.19063 2.0266 9.00408 1.87537 8.85286 1.68883 8.85286Z" fill="#231F20" transform="matrix(1.00599 0 0 1 655.159 627)"/><path d="M16.2128 9.19063C16.2128 9.00408 16.0616 8.85286 15.875 8.85286L14.524 8.85286C14.3374 8.85286 14.1862 9.00408 14.1862 9.19063 14.1862 9.37718 14.3374 9.52839 14.524 9.52839L15.875 9.52839C16.0616 9.52839 16.2128 9.37718 16.2128 9.19063Z" fill="#231F20" transform="matrix(1.00599 0 0 1 655.159 627)"/><path d="M21.0361 15.3245 19.685 15.3245C19.4985 15.3245 19.3473 15.4757 19.3473 15.6622 19.3473 15.8488 19.4985 16 19.685 16L21.0361 16C21.2226 16 21.3739 15.8488 21.3739 15.6622 21.3739 15.4757 21.2226 15.3245 21.0361 15.3245Z" fill="#231F20" transform="matrix(1.00599 0 0 1 655.159 627)"/><path d="M22.9681 14.5442C22.6785 14.8212 22.333 15.0331 21.9548 15.1657 21.7683 15.1965 21.642 15.3727 21.6728 15.5592 21.7036 15.7458 21.8797 15.872 22.0663 15.8413 22.1043 15.8408 22.142 15.834 22.1778 15.821 22.649 15.6569 23.0805 15.3957 23.4444 15.0543 23.5852 14.9227 23.5928 14.702 23.4613 14.5611 23.3297 14.4203 23.109 14.4127 22.9681 14.5442Z" fill="#231F20" transform="matrix(1.00599 0 0 1 655.159 627)"/><path d="M20.6038 9.52839C20.7903 9.52839 20.9415 9.37718 20.9415 9.19063 20.9415 9.00408 20.7903 8.85286 20.6038 8.85286L20.543 8.85286C20.5464 8.80453 20.5464 8.75596 20.543 8.70762L20.6038 4.11737 19.5297 3.06354C19.5088 3.03896 19.4968 3.00799 19.4959 2.97572L19.4959 0 17.7294 0 17.7294 2.97572C17.7307 3.00841 17.7185 3.0402 17.6956 3.06354L16.6384 4.11737 16.6181 8.70087C16.6192 8.78463 16.6329 8.86772 16.6586 8.94744 16.5243 9.07687 16.5204 9.29071 16.6498 9.42504 16.7123 9.48992 16.7982 9.52714 16.8883 9.52839L20.6038 9.52839ZM17.3139 4.39096 18.1718 3.53304C18.3219 3.38381 18.4059 3.18061 18.4049 2.96897L18.4049 0.675533 18.8204 0.675533 18.8204 2.97572C18.8194 3.18737 18.9033 3.39057 19.0534 3.53979L19.9282 4.39096 19.9012 8.69749C19.8977 8.7775 19.8326 8.84104 19.7526 8.84273L17.4558 8.84273C17.3756 8.84273 17.3105 8.77771 17.3105 8.69749Z" fill="#231F20" transform="matrix(1.00599 0 0 1 655.159 627)"/><path d="M24.228 12.3791C24.0424 12.3615 23.8776 12.4976 23.8598 12.6831 23.831 13.0858 23.7158 13.4774 23.5221 13.8315 23.4298 13.9921 23.4841 14.197 23.6437 14.2909 23.6928 14.3198 23.7488 14.335 23.8058 14.3348 23.9296 14.3351 24.0436 14.2678 24.103 14.1592 24.3451 13.7231 24.4925 13.2409 24.5354 12.7439 24.551 12.5584 24.4135 12.3953 24.228 12.3791Z" fill="#231F20" transform="matrix(1.00599 0 0 1 655.159 627)"/><path d="M23.799 11.7813C23.8344 11.9384 23.9758 12.0487 24.1368 12.0448 24.1626 12.0481 24.1887 12.0481 24.2145 12.0448 24.3963 12.0029 24.5097 11.8216 24.4679 11.6398 24.4679 11.6397 24.4678 11.6396 24.4678 11.6394 24.3585 11.1502 24.1466 10.6897 23.8463 10.2884 23.7344 10.1391 23.5227 10.1089 23.3734 10.2208 23.2242 10.3328 23.194 10.5445 23.3059 10.6937 23.5437 11.0182 23.7117 11.3885 23.799 11.7813Z" fill="#231F20" transform="matrix(1.00599 0 0 1 655.159 627)"/><path d="M11.5854 15.3245 10.2343 15.3245C10.0478 15.3245 9.89656 15.4757 9.89656 15.6622 9.89656 15.8488 10.0478 16 10.2343 16L11.5854 16C11.7719 16 11.9232 15.8488 11.9232 15.6622 11.9232 15.4757 11.7719 15.3245 11.5854 15.3245Z" fill="#231F20" transform="matrix(1.00599 0 0 1 655.159 627)"/><path d="M13.9498 15.3245 12.5987 15.3245C12.4121 15.3245 12.2609 15.4757 12.2609 15.6622 12.2609 15.8488 12.4121 16 12.5987 16L13.9498 16C14.1363 16 14.2875 15.8488 14.2875 15.6622 14.2875 15.4757 14.1363 15.3245 13.9498 15.3245Z" fill="#231F20" transform="matrix(1.00599 0 0 1 655.159 627)"/><path d="M16.3141 15.3245 14.9631 15.3245C14.7765 15.3245 14.6253 15.4757 14.6253 15.6622 14.6253 15.8488 14.7765 16 14.9631 16L16.3141 16C16.5007 16 16.6519 15.8488 16.6519 15.6622 16.6519 15.4757 16.5007 15.3245 16.3141 15.3245Z" fill="#231F20" transform="matrix(1.00599 0 0 1 655.159 627)"/><path d="M18.6785 15.3245 17.3274 15.3245C17.1409 15.3245 16.9897 15.4757 16.9897 15.6622 16.9897 15.8488 17.1409 16 17.3274 16L18.6785 16C18.865 16 19.0163 15.8488 19.0163 15.6622 19.0163 15.4757 18.865 15.3245 18.6785 15.3245Z" fill="#231F20" transform="matrix(1.00599 0 0 1 655.159 627)"/><path d="M10.5451 8.28204 10.5451 8.28204C10.7316 8.28204 10.8828 8.13082 10.8828 7.94427L10.8997 4.50918C10.8995 4.43832 10.9274 4.37026 10.9774 4.32003L11.7577 3.53979C11.8886 3.40806 11.8886 3.19528 11.7577 3.06354 11.6259 2.93258 11.4131 2.93258 11.2814 3.06354L10.5012 3.84041C10.3212 4.01878 10.2212 4.26255 10.2242 4.51594L10.2073 7.95102C10.211 8.13494 10.3611 8.28207 10.5451 8.28204Z" fill="#231F20" transform="matrix(1.00599 0 0 1 655.159 627)"/></g></svg>