<svg xmlns="http://www.w3.org/2000/svg" viewBox="0 0 16 16"><path d="M15.621.465H.379A.38.38 0 0 0 0 .844v10.839c0 .209.17.379.379.379h7.242v2.715H5.129a.38.38 0 0 0 0 .758h5.743a.38.38 0 0 0 0-.758H8.379v-2.715h7.242a.38.38 0 0 0 .379-.379V.844a.38.38 0 0 0-.379-.379m-.379 10.839H.758V1.223h14.484z" style="fill:#fff"/><path d="M15.621.465H.379A.38.38 0 0 0 0 .844v10.839c0 .209.17.379.379.379h7.242v2.715H5.129a.38.38 0 0 0 0 .758h5.743a.38.38 0 0 0 0-.758H8.379v-2.715h7.242a.38.38 0 0 0 .379-.379V.844a.38.38 0 0 0-.379-.379m-.379 10.839H.758V1.223h14.484z" style="fill:#fff"/></svg>