<svg version="1.2" baseProfile="tiny" viewBox="0 0 32 32" xmlns:xlink="http://www.w3.org/1999/xlink" xmlns="http://www.w3.org/2000/svg">
<path style="fill:#ffffff;" d="M3.861,14.906V1.77999C3.861,1.28899,3.463,0.890991,2.972,0.890991C2.481,0.890991,2.083,1.28899,2.083,1.77999V14.907C0.876,15.285,0,16.411,0,17.743C0,19.075,0.876,20.202,2.083,20.58V30.22C2.083,30.711,2.481,31.109,2.972,31.109C3.463,31.109,3.861,30.711,3.861,30.22V20.581C5.069,20.203,5.945,19.076,5.945,17.743C5.945,16.411,5.069,15.284,3.861,14.906ZM2.973,18.938C2.314,18.938,1.778,18.402,1.778,17.743C1.778,17.084,2.314,16.549,2.973,16.549C3.632,16.549,4.168,17.085,4.168,17.743C4.168,18.402,3.632,18.938,2.973,18.938Z M16.889,21.177V1.77999C16.889,1.28899,16.491,0.890991,16,0.890991C15.509,0.890991,15.111,1.28899,15.111,1.77999V21.122C13.859,21.472,12.939,22.619,12.939,23.982C12.939,25.346,13.858,26.492,15.111,26.842V30.22C15.111,30.711,15.509,31.109,16,31.109C16.491,31.109,16.889,30.711,16.889,30.22V26.787C18.05,26.383,18.885,25.281,18.885,23.982C18.885,22.683,18.05,21.581,16.889,21.177ZM15.912,25.176C15.253,25.176,14.717,24.64,14.717,23.982C14.717,23.323,15.253,22.787,15.912,22.787C16.571,22.787,17.107,23.323,17.107,23.982C17.107,24.641,16.571,25.176,15.912,25.176Z M32,8.38499C32,7.05299,31.124,5.92599,29.917,5.54799V1.77999C29.917,1.28899,29.519,0.890991,29.028,0.890991C28.537,0.890991,28.139,1.28899,28.139,1.77999V5.54799C26.931,5.92599,26.055,7.05399,26.055,8.38599C26.055,9.71799,26.931,10.845,28.139,11.223V30.22C28.139,30.711,28.537,31.109,29.028,31.109C29.519,31.109,29.917,30.711,29.917,30.22V11.222C31.124,10.844,32,9.71699,32,8.38499ZM29.027,9.57999C28.368,9.57999,27.832,9.04399,27.832,8.38599C27.832,7.72699,28.368,7.19099,29.027,7.19099C29.686,7.19099,30.222,7.72699,30.222,8.38599C30.222,9.04399,29.686,9.57999,29.027,9.57999Z"/>
</svg>