<svg width="63" height="85" xmlns="http://www.w3.org/2000/svg" xmlns:xlink="http://www.w3.org/1999/xlink" xml:space="preserve" overflow="hidden"><g transform="translate(-560 -18)"><path d="M43.4497 30.6755C42.8816 30.1108 41.964 30.1108 41.3959 30.6755L29.015 43.0564 23.4655 37.5069C23.3912 37.4486 23.3134 37.395 23.2324 37.3467 22.8358 36.6468 21.9468 36.4009 21.247 36.7977 21.0177 36.9276 20.8279 37.1174 20.698 37.3467 20.5672 37.5772 20.5016 37.8391 20.5086 38.1041 20.5219 38.6108 20.7977 39.0743 21.2369 39.3276 21.2864 39.416 21.345 39.499 21.4117 39.5752L29.015 47.1786 36.7786 39.415 38.0458 38.1623 43.4497 32.7439C44.0208 32.1774 44.0246 31.2551 43.4582 30.684 43.4554 30.6812 43.4525 30.6783 43.4497 30.6755Z" fill="#231F20" transform="matrix(1 0 0 1.00027 560.249 18)"/><path d="M61.0452 14.5658C60.2407 14.5658 59.5886 15.2179 59.5886 16.0224L59.5886 82.0636 2.91316 82.0636 2.91316 2.91316 15.7456 2.91316C16.5501 2.91316 17.2022 2.26102 17.2022 1.45658 17.2022 0.652132 16.5501 0 15.7456 0L0 0 0 84.9767 62.5018 84.9767 62.5018 16.0224C62.5018 15.2179 61.8496 14.5658 61.0452 14.5658Z" fill="#231F20" transform="matrix(1 0 0 1.00027 560.249 18)"/><path d="M21.6302 2.91316 49.1886 2.91316C50.0187 2.91496 50.8146 3.2448 51.4026 3.8308L59.0788 11.4924C59.3477 11.7668 59.7142 11.9239 60.0984 11.9294 60.9023 11.9587 61.5778 11.3308 61.6071 10.5269 61.622 10.1199 61.4657 9.72518 61.1763 9.43862L53.471 1.77702C52.3356 0.640396 50.7952 0.00120836 49.1886 4.1673e-08L21.6302 0C20.8257 0 20.1736 0.652132 20.1736 1.45658 20.1736 2.26102 20.8257 2.91316 21.6302 2.91316Z" fill="#231F20" transform="matrix(1 0 0 1.00027 560.249 18)"/><path d="M47.1494 5.82631C46.345 5.82631 45.6928 6.47845 45.6928 7.28289L45.6928 16.2845 54.6945 16.2845C55.499 16.2845 56.1511 15.6324 56.1511 14.828 56.1511 14.0235 55.499 13.3714 54.6945 13.3714L48.606 13.3714 48.606 7.28289C48.606 6.47845 47.9539 5.82631 47.1494 5.82631Z" fill="#231F20" transform="matrix(1 0 0 1.00027 560.249 18)"/><path d="M23.815 23.6694C23.688 23.9014 23.6229 24.1623 23.6257 24.4268 23.634 24.9388 23.9105 25.409 24.354 25.6649 25.0501 26.0681 25.9412 25.8308 26.3445 25.1347 26.3461 25.1318 26.3479 25.1289 26.3495 25.126 26.4765 24.8939 26.5416 24.6331 26.5388 24.3685 26.5285 23.5642 25.8679 22.9206 25.0636 22.9309 24.5457 22.9376 24.0704 23.2187 23.815 23.6694Z" fill="#231F20" transform="matrix(1 0 0 1.00027 560.249 18)"/><path d="M29.2918 24.0772C28.4873 24.0772 27.8352 24.7293 27.8352 25.5338 27.8352 26.3383 28.4873 26.9904 29.2918 26.9904L29.4083 26.9904C30.2128 26.9904 30.8649 26.3383 30.8649 25.5338 30.8649 24.7293 30.2128 24.0772 29.4083 24.0772Z" fill="#231F20" transform="matrix(1 0 0 1.00027 560.249 18)"/><path d="M29.2481 7.13723C28.4436 7.13723 27.7915 7.78937 27.7915 8.59381 27.7915 9.39825 28.4436 10.0504 29.2481 10.0504 30.0525 10.0504 30.7047 9.39825 30.7047 8.59381 30.7047 7.78937 30.0525 7.13723 29.2481 7.13723Z" fill="#231F20" transform="matrix(1 0 0 1.00027 560.249 18)"/><path d="M23.4218 12.8907C23.4106 12.3757 23.128 11.9049 22.6789 11.6526 21.9827 11.2573 21.0979 11.498 20.698 12.1916 20.573 12.398 20.5076 12.6349 20.5086 12.8761 20.4959 13.409 20.7753 13.9062 21.2369 14.1725 21.4574 14.3034 21.7087 14.3738 21.9652 14.3764 22.5293 14.3915 23.0515 14.0794 23.3052 13.5753L23.3052 13.5753C23.3899 13.3573 23.4295 13.1244 23.4218 12.8907Z" fill="#231F20" transform="matrix(1 0 0 1.00027 560.249 18)"/><path d="M21.2515 20.0425C20.8079 20.2984 20.5315 20.7686 20.5232 21.2806 20.5206 21.547 20.5912 21.8089 20.7271 22.038 20.9858 22.4859 21.4625 22.7633 21.9798 22.7663 22.2412 22.7662 22.4977 22.6958 22.7226 22.5624 23.1561 22.3054 23.4261 21.8427 23.4363 21.3389 23.4433 21.0739 23.3778 20.812 23.247 20.5814 22.8486 19.8826 21.9591 19.639 21.2602 20.0376 21.2573 20.0392 21.2544 20.0408 21.2515 20.0425Z" fill="#231F20" transform="matrix(1 0 0 1.00027 560.249 18)"/><path d="M24.3103 8.49185C23.6149 8.89631 23.3791 9.7879 23.7836 10.4833 23.7843 10.4846 23.7852 10.486 23.7859 10.4874 24.0482 10.9297 24.5243 11.201 25.0386 11.2011 25.2987 11.2054 25.5552 11.14 25.7814 11.0117 26.2194 10.7521 26.4899 10.2827 26.4951 9.77364 26.4979 9.50911 26.4328 9.24829 26.3058 9.01622 25.9013 8.32085 25.0097 8.085 24.3144 8.48946 24.3131 8.49026 24.3116 8.49105 24.3103 8.49185Z" fill="#231F20" transform="matrix(1 0 0 1.00027 560.249 18)"/><path d="M22.3002 17.0857C22.3002 17.8901 21.6481 18.5422 20.8436 18.5422 20.0392 18.5422 19.3871 17.8901 19.3871 17.0857 19.3871 16.2812 20.0392 15.6291 20.8436 15.6291 21.6481 15.6291 22.3002 16.2812 22.3002 17.0857Z" fill="#231F20" transform="matrix(1 0 0 1.00027 560.249 18)"/><path d="M37.4049 19.9551C36.7069 19.5553 35.8168 19.7971 35.417 20.4951 35.4145 20.4996 35.4119 20.5041 35.4094 20.5086 35.2977 20.7205 35.233 20.954 35.2201 21.1932 35.2103 21.7291 35.4956 22.2271 35.9629 22.4896 36.1807 22.6129 36.4264 22.6782 36.6766 22.6789 37.2022 22.678 37.6863 22.3942 37.9439 21.9361L37.9439 21.9361C38.0575 21.7257 38.1175 21.4905 38.1186 21.2515 38.1344 20.7217 37.861 20.2252 37.4049 19.9551Z" fill="#231F20" transform="matrix(1 0 0 1.00027 560.249 18)"/><path d="M35.8609 11.5215C35.1691 11.932 34.9411 12.8256 35.3516 13.5175 35.6139 13.9595 36.0898 14.2306 36.6038 14.2308 36.8647 14.2266 37.1203 14.1565 37.3467 14.0268 37.7846 13.7672 38.0551 13.2978 38.0604 12.7888 38.0765 12.5228 38.0104 12.2584 37.871 12.0313 37.4642 11.3374 36.5718 11.1046 35.8778 11.5115 35.8722 11.5148 35.8665 11.5182 35.8609 11.5215Z" fill="#231F20" transform="matrix(1 0 0 1.00027 560.249 18)"/><path d="M39.2256 16.9691C39.2256 16.1647 38.5735 15.5126 37.7691 15.5126 36.9646 15.5126 36.3125 16.1647 36.3125 16.9691 36.3125 17.7736 36.9646 18.4257 37.7691 18.4257 38.5735 18.4257 39.2256 17.7736 39.2256 16.9691Z" fill="#231F20" transform="matrix(1 0 0 1.00027 560.249 18)"/><path d="M32.875 23.0868C32.437 23.3463 32.1665 23.8158 32.1612 24.3249 32.156 24.5962 32.2266 24.8635 32.3652 25.0968 32.6275 25.5392 33.1035 25.8104 33.6178 25.8106 33.8806 25.806 34.1372 25.7306 34.3607 25.5921 34.7987 25.3325 35.0691 24.8631 35.0744 24.354 35.077 24.0876 35.0064 23.8257 34.8705 23.5966 34.4602 22.9048 33.5668 22.6766 32.875 23.0868Z" fill="#231F20" transform="matrix(1 0 0 1.00027 560.249 18)"/><path d="M34.215 8.43359C33.517 8.03377 32.6269 8.27553 32.2271 8.97358 32.2246 8.97807 32.222 8.98257 32.2195 8.98709 32.1078 9.19896 32.0431 9.43249 32.0301 9.67168 32.0204 10.2076 32.3057 10.7055 32.773 10.968 32.9908 11.0914 33.2365 11.1566 33.4867 11.1574 34.0092 11.1595 34.4928 10.8816 34.7539 10.4291 34.8837 10.2187 34.9542 9.97712 34.9579 9.72994 34.9676 9.19406 34.6823 8.69612 34.215 8.43359Z" fill="#231F20" transform="matrix(1 0 0 1.00027 560.249 18)"/><path d="M35.9629 47.6884C36.1807 47.8117 36.4264 47.877 36.6766 47.8777 37.2022 47.8768 37.6863 47.5929 37.9439 47.1349 38.0688 46.9285 38.1342 46.6915 38.1332 46.4503 38.1459 45.9174 37.8665 45.4203 37.4049 45.1539 36.7088 44.7507 35.8177 44.988 35.4144 45.6841 35.4128 45.687 35.411 45.6899 35.4094 45.6928L35.4094 45.6928C35.2907 45.9019 35.2257 46.1371 35.2201 46.3774 35.2049 46.9186 35.491 47.4234 35.9629 47.6884Z" fill="#231F20" transform="matrix(1 0 0 1.00027 560.249 18)"/><path d="M37.7545 40.7842C36.95 40.7842 36.2979 41.4363 36.2979 42.2408 36.2979 43.0452 36.95 43.6973 37.7545 43.6973L37.7545 43.6973C38.559 43.6973 39.2111 43.0452 39.2111 42.2408 39.2111 41.4363 38.559 40.7842 37.7545 40.7842Z" fill="#231F20" transform="matrix(1 0 0 1.00027 560.249 18)"/><path d="M34.8705 48.7954C34.4552 48.1089 33.563 47.8875 32.875 48.3001 32.4415 48.5571 32.1714 49.0198 32.1612 49.5236 32.1586 49.7901 32.2293 50.0519 32.3652 50.2811 32.6275 50.7234 33.1035 50.9946 33.6178 50.9948 33.8799 50.9993 34.1377 50.9285 34.3607 50.7909 34.7987 50.5313 35.0691 50.0618 35.0744 49.5528 35.077 49.2864 35.0064 49.0245 34.8705 48.7954Z" fill="#231F20" transform="matrix(1 0 0 1.00027 560.249 18)"/><path d="M29.3937 49.2615 29.2918 49.2615C28.4873 49.2615 27.8352 49.9136 27.8352 50.718 27.8352 51.5225 28.4873 52.1746 29.2918 52.1746L29.4083 52.1746C30.2128 52.1746 30.8649 51.5225 30.8649 50.718 30.8649 49.9136 30.2128 49.2615 29.4085 49.2615 29.4035 49.2615 29.3985 49.2615 29.3937 49.2615Z" fill="#231F20" transform="matrix(1 0 0 1.00027 560.249 18)"/><path d="M22.3002 42.2845C22.3002 43.0889 21.6481 43.741 20.8436 43.741 20.0392 43.741 19.3871 43.0889 19.3871 42.2845 19.3871 41.48 20.0392 40.8279 20.8436 40.8279 21.6481 40.8279 22.3002 41.48 22.3002 42.2845Z" fill="#231F20" transform="matrix(1 0 0 1.00027 560.249 18)"/><path d="M25.8106 48.3293C25.1145 47.9261 24.2233 48.1633 23.82 48.8594 23.8184 48.8624 23.8167 48.8653 23.815 48.8682 23.688 49.1002 23.6229 49.3611 23.6257 49.6256 23.6389 50.1323 23.9148 50.5958 24.354 50.8491 25.048 51.2558 25.9403 51.0229 26.3472 50.3288 26.3479 50.3275 26.3488 50.3261 26.3495 50.3248 26.4736 50.0916 26.5386 49.8314 26.5388 49.5673 26.5305 49.0554 26.2541 48.5852 25.8106 48.3293Z" fill="#231F20" transform="matrix(1 0 0 1.00027 560.249 18)"/><path d="M32.773 36.1668C32.9892 36.3131 33.2407 36.3987 33.5013 36.4144 34.0238 36.4165 34.5073 36.1386 34.7685 35.6862 34.8984 35.4658 34.964 35.2135 34.9579 34.9579 34.9705 34.425 34.6912 33.9278 34.2296 33.6615 33.5316 33.2617 32.6415 33.5035 32.2416 34.2015 32.2392 34.206 32.2365 34.2105 32.2341 34.215 32.1223 34.4269 32.0577 34.6604 32.0447 34.8996 32.0427 35.4221 32.3206 35.9057 32.773 36.1668Z" fill="#231F20" transform="matrix(1 0 0 1.00027 560.249 18)"/><path d="M29.2626 35.2492C30.0671 35.2492 30.7192 34.5971 30.7192 33.7926 30.7192 32.9881 30.0671 32.336 29.2626 32.336 28.4582 32.336 27.8061 32.9881 27.8061 33.7926 27.8061 34.5971 28.4582 35.2492 29.2626 35.2492Z" fill="#231F20" transform="matrix(1 0 0 1.00027 560.249 18)"/><path d="M23.3052 45.7802C22.9069 45.0814 22.0173 44.8378 21.3185 45.2364 21.3156 45.238 21.3126 45.2396 21.3097 45.2413 20.8717 45.5009 20.6013 45.9703 20.596 46.4794 20.5788 46.7454 20.645 47.0102 20.7854 47.2368 21.0465 47.6892 21.5301 47.9671 22.0526 47.9651 22.8571 47.9651 23.5092 47.313 23.5092 46.5085 23.5065 46.252 23.4362 46.0008 23.3052 45.7802Z" fill="#231F20" transform="matrix(1 0 0 1.00027 560.249 18)"/><path d="M23.7859 35.6862C24.0482 36.1285 24.5243 36.3997 25.0386 36.3999 25.2987 36.4042 25.5552 36.3388 25.7814 36.2105 26.2194 35.951 26.4899 35.4815 26.4951 34.9724 26.4979 34.7079 26.4328 34.447 26.3058 34.215 25.9092 33.5151 25.0202 33.2693 24.3205 33.6659 23.8654 33.9238 23.5836 34.4058 23.582 34.9287 23.5794 35.1951 23.65 35.457 23.7859 35.6862Z" fill="#231F20" transform="matrix(1 0 0 1.00027 560.249 18)"/><path d="M39.2256 67.3667C39.2256 66.5623 38.5735 65.9101 37.7691 65.9101 36.9646 65.9101 36.3125 66.5623 36.3125 67.3667 36.3125 68.1712 36.9646 68.8233 37.7691 68.8233L37.7691 68.8233C38.5735 68.8233 39.2256 68.1712 39.2256 67.3667Z" fill="#231F20" transform="matrix(1 0 0 1.00027 560.249 18)"/><path d="M35.3511 63.9001C35.6135 64.3424 36.0895 64.6136 36.6038 64.6138 37.4083 64.6138 38.0604 63.9617 38.0604 63.1572 38.063 62.8908 37.9924 62.6289 37.8565 62.3998 37.452 61.7044 36.5604 61.4686 35.865 61.8731 35.8637 61.8738 35.8623 61.8747 35.8609 61.8754 35.423 62.135 35.1525 62.6044 35.1472 63.1135 35.1392 63.3897 35.21 63.6625 35.3511 63.9001Z" fill="#231F20" transform="matrix(1 0 0 1.00027 560.249 18)"/><path d="M35.9629 72.8289C36.1826 72.9472 36.4271 73.0121 36.6766 73.0182 37.2022 73.0174 37.6863 72.7335 37.9439 72.2754 38.0685 72.0636 38.1339 71.8221 38.1332 71.5762 38.1376 71.0456 37.853 70.5544 37.3904 70.2944 36.6941 69.8991 35.8094 70.1399 35.4094 70.8334 35.2884 71.0468 35.2233 71.2872 35.2201 71.5325 35.2103 72.0684 35.4956 72.5664 35.9629 72.8289Z" fill="#231F20" transform="matrix(1 0 0 1.00027 560.249 18)"/><path d="M21.2515 70.4401C20.5561 70.8446 20.3203 71.7362 20.7248 72.4315 20.7255 72.4328 20.7264 72.4343 20.7271 72.4356 20.9894 72.878 21.4654 73.1492 21.9798 73.1493 22.2399 73.1537 22.4964 73.0883 22.7226 72.96 23.4317 72.58 23.6982 71.697 23.3182 70.9881 23.314 70.9802 23.3096 70.9723 23.3052 70.9645 22.9153 70.2608 22.0288 70.0065 21.3252 70.3964 21.3003 70.4102 21.2756 70.4248 21.2515 70.4401Z" fill="#231F20" transform="matrix(1 0 0 1.00027 560.249 18)"/><path d="M20.8582 68.9398C21.6627 68.9398 22.3148 68.2877 22.3148 67.4833 22.3148 66.6788 21.6627 66.0267 20.8582 66.0267 20.0537 66.0267 19.4016 66.6788 19.4016 67.4833 19.4016 68.2877 20.0537 68.9398 20.8582 68.9398Z" fill="#231F20" transform="matrix(1 0 0 1.00027 560.249 18)"/><path d="M25.0386 61.5987C25.2961 61.6038 25.5494 61.5328 25.7669 61.3948 26.206 61.1415 26.4819 60.678 26.4951 60.1712 26.4966 59.9022 26.4316 59.637 26.3058 59.3992 25.8955 58.7075 25.0022 58.4793 24.3103 58.8894 23.8711 59.1427 23.5952 59.6062 23.582 60.113 23.5767 60.3843 23.6474 60.6516 23.7859 60.8849 24.0482 61.3273 24.5243 61.5985 25.0386 61.5987Z" fill="#231F20" transform="matrix(1 0 0 1.00027 560.249 18)"/><path d="M23.4218 63.2883C23.4344 62.7555 23.1551 62.2582 22.6935 61.992 21.9994 61.5853 21.1071 61.8182 20.7003 62.5122 20.6996 62.5135 20.6987 62.515 20.698 62.5163L20.698 62.5163C20.5672 62.7469 20.5016 63.0088 20.5086 63.2737 20.5219 63.7805 20.7977 64.244 21.2369 64.4973 21.9126 64.9338 22.8142 64.7399 23.2508 64.0644 23.27 64.0345 23.2882 64.0041 23.3052 63.9729 23.3919 63.7554 23.4317 63.5222 23.4218 63.2883Z" fill="#231F20" transform="matrix(1 0 0 1.00027 560.249 18)"/><path d="M33.6178 76.1936C33.8793 76.1934 34.1358 76.1231 34.3607 75.9897 34.7987 75.7301 35.0691 75.2606 35.0744 74.7516 35.077 74.4852 35.0064 74.2233 34.8705 73.9941 34.46 73.3023 33.5664 73.0742 32.8745 73.4846 32.4368 73.7442 32.1665 74.2135 32.1612 74.7224 32.1586 74.9888 32.2293 75.2507 32.3652 75.4799 32.6275 75.9222 33.1035 76.1934 33.6178 76.1936Z" fill="#231F20" transform="matrix(1 0 0 1.00027 560.249 18)"/><path d="M24.354 76.0479C25.0501 76.4511 25.9412 76.2138 26.3445 75.5177 26.3461 75.5148 26.3479 75.5119 26.3495 75.509 26.4765 75.277 26.5416 75.0161 26.5388 74.7516 26.5256 74.2448 26.2497 73.7813 25.8106 73.528 25.1145 73.1249 24.2233 73.3621 23.82 74.0582 23.8184 74.0612 23.8167 74.0641 23.815 74.067 23.688 74.299 23.6229 74.5599 23.6257 74.8244 23.6389 75.3311 23.9148 75.7946 24.354 76.0479Z" fill="#231F20" transform="matrix(1 0 0 1.00027 560.249 18)"/><path d="M33.5013 61.555C34.0268 61.5541 34.511 61.2702 34.7685 60.8121 34.8935 60.6057 34.9589 60.3687 34.9579 60.1275 34.9705 59.5947 34.6912 59.0974 34.2296 58.8312 33.5335 58.428 32.6423 58.6653 32.239 59.3614 32.2374 59.3643 32.2357 59.3672 32.2341 59.3701 32.113 59.5835 32.0479 59.824 32.0447 60.0693 32.0403 60.5999 32.325 61.0911 32.7876 61.3511 33.0039 61.4795 33.2497 61.5497 33.5013 61.555Z" fill="#231F20" transform="matrix(1 0 0 1.00027 560.249 18)"/><path d="M30.7192 58.9768C30.7192 58.1724 30.0671 57.5203 29.2626 57.5203 28.4582 57.5203 27.8061 58.1724 27.8061 58.9768 27.8061 59.7813 28.4582 60.4334 29.2626 60.4334 30.0671 60.4334 30.7192 59.7813 30.7192 58.9768Z" fill="#231F20" transform="matrix(1 0 0 1.00027 560.249 18)"/><path d="M29.3063 77.3734 29.4229 77.3734C30.2273 77.3734 30.8794 76.7213 30.8794 75.9168 30.8794 75.1124 30.2273 74.4603 29.4229 74.4603L29.3355 74.4603C28.531 74.4603 27.8789 75.1124 27.8789 75.9168 27.8789 76.7213 28.531 77.3734 29.3355 77.3734Z" fill="#231F20" transform="matrix(1 0 0 1.00027 560.249 18)"/></g></svg>