<svg width="389" height="382" xmlns="http://www.w3.org/2000/svg" xmlns:xlink="http://www.w3.org/1999/xlink" xml:space="preserve" overflow="hidden"><g transform="translate(-1635 -632)"><path d="M1635.02 1006.36 1635.02 1006.36 1635.02 1006.36ZM1826.11 658.311 1826.11 727.599 1895.41 727.599ZM1818.14 632 1819.22 632.219 1819.25 632.213C1821.29 632.213 1823.33 632.991 1824.88 634.547L1919.05 728.698 1920.75 729.845C1922.14 731.232 1923 733.148 1923 735.265L1922.9 735.762 1922.92 735.865 1922.86 736.185 1923 736.892 1923 839.176C1923 843.578 1919.43 847.146 1915.03 847.146L1915.03 847.146C1910.63 847.146 1907.06 843.578 1907.06 839.176L1907.06 742.931 1819.12 742.931 1818.14 743.13 1818.14 743.13C1815.93 743.13 1813.94 742.238 1812.5 740.796L1812.44 740.705 1812.41 740.686C1811.02 739.299 1810.16 737.382 1810.16 735.265L1810.17 735.213 1810.16 735.16 1810.16 647.642 1651.35 647.642 1651.35 998.729 1795.77 998.729C1799.99 998.729 1803.41 1002.15 1803.41 1006.36L1803.41 1006.36C1803.41 1010.58 1799.99 1014 1795.77 1014L1642.65 1014C1639.49 1014 1636.78 1012.08 1635.62 1009.34L1635.02 1006.36 1635.07 1006.1 1635.02 1005.83 1635.02 640.168 1635.02 640.127 1635 640.007 1635.6 637.034 1635.75 636.851 1637.41 634.394 1638.23 633.838 1638.37 633.675 1638.56 633.615 1640 632.644C1640.98 632.231 1642.06 632.002 1643.18 632.002L1645.01 632.371 1816.3 632.371ZM1818.14 632 1818.14 632 1818.14 632Z" fill="#4472C4" fill-rule="evenodd"/><path d="M1862.87 965.838 1854.56 995.635 1884.23 986.886ZM1978.14 842.476 1870.02 950.598 1898.29 978.873 2006.41 870.751ZM1977.49 824.641C1980.76 824.619 1984.04 825.846 1986.55 828.325L2019.58 860.931C2024.61 865.889 2024.66 873.982 2019.7 879.005L1907.95 992.22 1907.3 992.658 1905.09 994.501C1889.81 1004.89 1838.08 1014.24 1837.68 1012.21 1837.25 1010.04 1845.73 952.09 1856.6 941.807L1856.65 941.78 1856.73 941.657 1968.47 828.443C1970.95 825.931 1974.22 824.662 1977.49 824.641Z" fill="#4472C4" fill-rule="evenodd"/><path d="M1708.36 918.703 1708.36 950.411 1772.45 950.411 1772.45 918.703ZM1708.34 838.21 1708.34 869.919 1772.43 869.919 1772.43 838.21ZM1699.55 822.319 1780.57 822.319C1784.74 822.319 1788.12 825.7 1788.12 829.87L1788.12 878.62C1788.12 882.791 1784.74 886.171 1780.57 886.171L1699.55 886.171C1695.38 886.171 1692 882.791 1692 878.62L1692 829.87C1692 825.7 1695.38 822.319 1699.55 822.319ZM1708.34 758.978 1708.34 790.687 1772.43 790.687 1772.43 758.978ZM1699.55 743 1780.57 743C1784.74 743 1788.12 746.381 1788.12 750.551L1788.12 758.908 1827.67 758.908C1832 758.908 1835.51 762.42 1835.51 766.752L1835.47 766.949 1835.51 767.148 1835.51 838.873 1868.49 838.873C1872.64 838.873 1876 842.235 1876 846.383 1876 850.53 1872.64 853.892 1868.49 853.892L1835.51 853.892 1835.51 926.829 1835.48 927.009 1835.51 927.19C1835.51 931.522 1832 935.034 1827.67 935.034L1788.12 935.034 1788.12 959.449C1788.12 963.619 1784.74 967 1780.57 967L1699.55 967C1695.38 967 1692 963.619 1692 959.449L1692 910.699C1692 906.528 1695.38 903.147 1699.55 903.147L1780.57 903.147C1784.74 903.147 1788.12 906.528 1788.12 910.699L1788.12 919.346 1819.17 919.346 1819.17 846.383 1819.17 774.595 1788.12 774.595 1788.12 799.301C1788.12 803.472 1784.74 806.852 1780.57 806.852L1699.55 806.852C1695.38 806.852 1692 803.472 1692 799.301L1692 750.551C1692 746.381 1695.38 743 1699.55 743Z" fill="#4472C4" fill-rule="evenodd"/></g></svg>