<svg width="53" height="53" xmlns="http://www.w3.org/2000/svg" xmlns:xlink="http://www.w3.org/1999/xlink" xml:space="preserve" overflow="hidden"><g transform="translate(-107 -324)"><path d="M147.872 361.78C148.358 361.78 148.755 361.383 148.755 360.897L148.755 338.866C148.755 338.381 148.358 337.983 147.872 337.983L143.173 337.983C142.687 337.983 142.289 338.381 142.289 338.866L142.289 360.897C142.289 361.383 142.687 361.78 143.173 361.78L147.872 361.78ZM144.056 339.75 146.988 339.75 146.988 360.013 144.056 360.013 144.056 339.75Z" fill="#231F20"/><path d="M122.352 361.789C122.838 361.789 123.236 361.392 123.236 360.906L123.236 342.135C123.236 341.649 122.838 341.251 122.352 341.251L116.796 341.251C116.31 341.251 115.913 341.649 115.913 342.135L115.913 360.906C115.913 361.392 116.31 361.789 116.796 361.789L122.352 361.789ZM117.679 343.018 121.469 343.018 121.469 360.022 117.679 360.022 117.679 343.018Z" fill="#231F20"/><path d="M145.522 342.197C145.107 342.197 144.762 342.532 144.762 342.956 144.762 343.38 145.098 343.716 145.522 343.716 145.946 343.716 146.282 343.38 146.282 342.956 146.282 342.532 145.946 342.197 145.522 342.197Z" fill="#231F20"/><path d="M145.522 346.711C145.107 346.711 144.762 347.046 144.762 347.47 144.762 347.894 145.098 348.23 145.522 348.23 145.946 348.23 146.282 347.894 146.282 347.47 146.282 347.046 145.946 346.711 145.522 346.711Z" fill="#231F20"/><path d="M145.522 351.216C145.107 351.216 144.762 351.551 144.762 351.975 144.762 352.399 145.098 352.735 145.522 352.735 145.946 352.735 146.282 352.399 146.282 351.975 146.282 351.551 145.946 351.216 145.522 351.216Z" fill="#231F20"/><path d="M145.522 355.729C145.107 355.729 144.762 356.065 144.762 356.489 144.762 356.913 145.098 357.249 145.522 357.249 145.946 357.249 146.282 356.913 146.282 356.489 146.282 356.065 145.946 355.729 145.522 355.729Z" fill="#231F20"/><path d="M158.922 333.284 115.065 333.284C114.579 333.284 114.182 333.681 114.182 334.167 114.182 334.653 114.579 335.051 115.065 335.051L158.039 335.051 158.039 363.299 108.926 363.299 108.926 361.798 112.689 361.798C113.174 361.798 113.572 361.4 113.572 360.914L113.572 347.408C113.572 346.922 113.174 346.525 112.689 346.525L108.873 346.525 108.873 339.785C108.873 339.449 109.005 339.132 109.244 338.893L112.397 335.74C112.742 335.395 112.742 334.839 112.397 334.494 112.053 334.15 111.496 334.15 111.152 334.494L107.998 337.647C107.424 338.222 107.115 338.981 107.115 339.794L107.115 355.014C107.115 355.5 107.512 355.897 107.998 355.897 108.484 355.897 108.882 355.5 108.882 355.014L108.882 348.301 111.805 348.301 111.805 360.04 108.926 360.04 108.926 358.512C108.926 358.026 108.528 357.629 108.042 357.629 107.557 357.629 107.159 358.026 107.159 358.512L107.159 360.906C107.159 360.906 107.159 360.906 107.159 360.914 107.159 360.923 107.159 360.914 107.159 360.923L107.159 364.183C107.159 364.669 107.557 365.066 108.042 365.066L158.922 365.066C159.408 365.066 159.806 364.669 159.806 364.183L159.806 334.167C159.806 333.681 159.408 333.284 158.922 333.284Z" fill="#231F20"/><path d="M125.744 360.914C125.744 361.4 126.142 361.798 126.628 361.798L130.603 361.798C131.089 361.798 131.486 361.4 131.486 360.914L131.486 348.265C131.486 347.779 131.089 347.382 130.603 347.382L126.628 347.382C126.142 347.382 125.744 347.779 125.744 348.265L125.744 360.914ZM127.511 349.148 129.719 349.148 129.719 360.031 127.511 360.031 127.511 349.148Z" fill="#231F20"/><path d="M153.984 360.906 156.237 360.906 156.237 362.027 153.984 362.027Z" fill="#231F20"/><path d="M153.984 353.804 156.237 353.804 156.237 354.926 153.984 354.926Z" fill="#231F20"/><path d="M153.984 346.702 156.237 346.702 156.237 347.823 153.984 347.823Z" fill="#231F20"/><path d="M153.984 339.6 156.237 339.6 156.237 340.721 153.984 340.721Z" fill="#231F20"/><path d="M110.454 343.274 113.378 343.274 113.378 344.767 110.454 344.767Z" fill="#231F20"/><path d="M111.885 338.548 113.378 338.548 113.378 341.472 111.885 341.472Z" fill="#231F20"/><path d="M128.279 339.326C128.279 339.965 127.761 340.483 127.122 340.483 126.483 340.483 125.965 339.965 125.965 339.326 125.965 338.687 126.483 338.169 127.122 338.169 127.761 338.169 128.279 338.687 128.279 339.326Z" fill="#231F20"/></g></svg>