<svg width="36" height="31" xmlns="http://www.w3.org/2000/svg" xmlns:xlink="http://www.w3.org/1999/xlink" xml:space="preserve" overflow="hidden"><defs><clipPath id="clip0"><rect x="1128" y="112" width="36" height="31"/></clipPath></defs><g clip-path="url(#clip0)" transform="translate(-1128 -112)"><path d="M5.08896 29.5539C5.08896 29.5539 5.08896 29.5263 5.08896 29.5223 5.27047 29.4664 5.42867 29.3526 5.53938 29.1983 5.64922 29.0351 5.7058 28.8419 5.70138 28.6452 5.70505 28.462 5.66151 28.2811 5.57494 28.1197 5.49438 27.9694 5.37048 27.8469 5.21935 27.768 5.05826 27.69 4.8807 27.652 4.70176 27.6574L3.34655 27.6574C3.33003 27.658 3.31443 27.6651 3.30308 27.6772 3.29935 27.6901 3.29935 27.7038 3.30308 27.7167L3.30308 30.921C3.29935 30.9339 3.29935 30.9476 3.30308 30.9605 3.31443 30.9725 3.33003 30.9796 3.34655 30.9802L3.89969 30.9802C3.91504 30.9795 3.92935 30.9723 3.9392 30.9605 3.94447 30.9478 3.94447 30.9336 3.9392 30.921L3.9392 29.6329C3.9392 29.6329 3.9392 29.6053 3.96291 29.6053L4.40543 29.6053C4.41772 29.6059 4.4285 29.6136 4.43309 29.625L5.02575 30.9407C5.03709 30.9676 5.06372 30.9849 5.09291 30.9842L5.67767 30.9842C5.70928 30.9842 5.72903 30.9842 5.72903 30.9447 5.73156 30.9356 5.73156 30.9261 5.72903 30.917ZM4.92697 28.9573C4.83874 29.0379 4.72234 29.0805 4.60298 29.0758L3.97872 29.0758C3.96809 29.0783 3.95746 29.0717 3.95501 29.0611 3.95434 29.0581 3.95434 29.0551 3.95501 29.0521L3.95501 28.2619C3.95256 28.2513 3.95916 28.2407 3.96979 28.2382 3.97271 28.2375 3.97579 28.2375 3.97872 28.2382L4.60298 28.2382C4.72234 28.2336 4.83874 28.2762 4.92697 28.3567 5.01053 28.4388 5.05629 28.5518 5.0534 28.6689 5.05305 28.7784 5.00725 28.8828 4.92697 28.9573Z" transform="matrix(1.00645 0 0 1 1128.1 112)"/><path d="M7.93372 28.7598C7.72681 28.5692 7.45213 28.4696 7.17117 28.4832 6.93964 28.4783 6.71261 28.5475 6.5232 28.6807 6.33584 28.8114 6.19692 29.0003 6.12809 29.2181 6.07839 29.3656 6.05432 29.5207 6.05697 29.6764 6.04879 29.8889 6.08234 30.101 6.15575 30.3007 6.22857 30.51 6.36717 30.6902 6.55085 30.8143 6.75742 30.9444 6.99839 31.0091 7.24229 31 7.42815 31.0021 7.61242 30.9657 7.78358 30.8933 7.9372 30.826 8.07264 30.723 8.17869 30.593 8.18098 30.58 8.18098 30.5666 8.17869 30.5535 8.17869 30.5535 8.17869 30.5298 8.15498 30.514L7.81124 30.1742C7.80101 30.1706 7.78987 30.1706 7.77963 30.1742 7.76122 30.175 7.74467 30.1855 7.73617 30.2019 7.63325 30.3346 7.47726 30.4155 7.30946 30.4231 7.10294 30.4506 6.90163 30.3444 6.80767 30.1584 6.78203 30.0975 6.76346 30.0339 6.75236 29.9688 6.75236 29.9688 6.75236 29.9451 6.77211 29.9451L8.23796 29.9451C8.26818 29.9494 8.29623 29.9285 8.30062 29.8982 8.30101 29.8954 8.30121 29.8926 8.30117 29.8898 8.30674 29.7577 8.30015 29.6255 8.28142 29.4946 8.25321 29.2171 8.13045 28.9576 7.93372 28.7598ZM7.59393 29.5184 6.77211 29.5184C6.76148 29.5208 6.75086 29.5142 6.74841 29.5036 6.74774 29.5007 6.74774 29.4976 6.74841 29.4946 6.75619 29.4424 6.76804 29.3909 6.78397 29.3406 6.83616 29.1678 6.99875 29.0523 7.17907 29.06 7.2735 29.0571 7.36635 29.0849 7.44379 29.1391 7.51625 29.1948 7.56888 29.2724 7.59393 29.3603 7.59393 29.3603 7.59393 29.3998 7.61764 29.4946 7.61764 29.5105 7.61369 29.5184 7.59393 29.5184Z" transform="matrix(1.00645 0 0 1 1128.1 112)"/><path d="M11.4146 28.4871C11.2771 28.4853 11.1412 28.5179 11.0195 28.582 10.8989 28.6486 10.8001 28.7488 10.735 28.8704 10.735 28.8901 10.7113 28.8901 10.7034 28.8704 10.6428 28.7506 10.5479 28.6515 10.4308 28.5859 10.3029 28.5191 10.1603 28.4851 10.0159 28.4871 9.77792 28.4712 9.5488 28.5805 9.41142 28.7756 9.41142 28.7756 9.41142 28.7756 9.41142 28.7756L9.41142 28.5899C9.41142 28.5593 9.38665 28.5345 9.3561 28.5345L8.7674 28.5345C8.73686 28.5345 8.71208 28.5593 8.71208 28.5899L8.71208 30.9131C8.70683 30.9257 8.70683 30.9399 8.71208 30.9526 8.72192 30.9644 8.73626 30.9715 8.75159 30.9723L9.3245 30.9723C9.33983 30.9715 9.35417 30.9644 9.36401 30.9526 9.36926 30.9399 9.36926 30.9257 9.36401 30.9131L9.36401 29.4117C9.37246 29.3152 9.41604 29.2252 9.48649 29.1588 9.55626 29.0977 9.64663 29.0652 9.73936 29.0679 9.84236 29.0641 9.94141 29.1078 10.008 29.1865 10.082 29.27 10.1203 29.3792 10.1147 29.4907L10.1147 30.9131C10.1095 30.9257 10.1095 30.9399 10.1147 30.9526 10.1245 30.9644 10.1389 30.9715 10.1542 30.9723L10.7034 30.9723C10.7199 30.9717 10.7355 30.9646 10.7469 30.9526 10.7506 30.9397 10.7506 30.926 10.7469 30.9131L10.7469 29.4788C10.7418 29.3681 10.7785 29.2596 10.8496 29.1746 10.9199 29.0991 11.0191 29.0573 11.1222 29.06 11.2231 29.057 11.3201 29.099 11.3869 29.1746 11.4572 29.2614 11.4925 29.3713 11.4857 29.4828L11.4857 30.9052C11.4805 30.9178 11.4805 30.932 11.4857 30.9447 11.4956 30.9565 11.5099 30.9636 11.5252 30.9644L12.0823 30.9644C12.0977 30.9636 12.112 30.9565 12.1218 30.9447 12.1271 30.932 12.1271 30.9178 12.1218 30.9052L12.1218 29.3248C12.1379 29.0971 12.0625 28.8724 11.9124 28.7005 11.7791 28.5696 11.6014 28.4934 11.4146 28.4871Z" transform="matrix(1.00645 0 0 1 1128.1 112)"/><path d="M14.4016 28.6847C14.2071 28.5498 13.9745 28.4805 13.7378 28.4871 13.4944 28.4805 13.2552 28.551 13.0543 28.6886 12.8627 28.8202 12.723 29.0144 12.6592 29.2378 12.6109 29.4006 12.5883 29.5699 12.592 29.7396 12.5894 29.9028 12.6121 30.0654 12.6592 30.2216 12.7207 30.4514 12.8605 30.6526 13.0543 30.7906 13.2527 30.9341 13.4931 31.0078 13.7378 31 13.9811 31.0057 14.2196 30.9322 14.4174 30.7906 14.6107 30.6469 14.7499 30.4423 14.8125 30.2098 14.8575 30.0544 14.8801 29.8935 14.8797 29.7317 14.8798 29.5626 14.8531 29.3946 14.8007 29.2339 14.7329 29.0113 14.5924 28.8179 14.4016 28.6847ZM14.1566 30.0715C14.13 30.1718 14.0752 30.2623 13.9986 30.3323 13.925 30.3953 13.8308 30.429 13.7339 30.4271 13.6343 30.431 13.5369 30.3971 13.4613 30.3323 13.3834 30.2634 13.3283 30.1724 13.3032 30.0715 13.2761 29.963 13.2641 29.8513 13.2677 29.7396 13.2622 29.6263 13.2756 29.5128 13.3072 29.4038 13.3324 29.3061 13.386 29.2181 13.4613 29.1509 13.5365 29.0884 13.6322 29.056 13.7299 29.06 13.8263 29.057 13.9204 29.0893 13.9946 29.1509 14.0711 29.2185 14.1272 29.3061 14.1566 29.4038 14.1826 29.5138 14.1945 29.6266 14.1922 29.7396 14.193 29.8512 14.181 29.9626 14.1566 30.0715Z" transform="matrix(1.00645 0 0 1 1128.1 112)"/><path d="M16.5944 28.5266 16.1164 28.5266C16.1057 28.5291 16.0951 28.5225 16.0927 28.5119 16.092 28.5089 16.092 28.5059 16.0927 28.5029L16.0927 27.9379C16.0927 27.9074 16.0679 27.8826 16.0373 27.8826L15.5079 27.8826C15.494 27.8771 15.4784 27.8771 15.4644 27.8826 15.4607 27.8955 15.4607 27.9092 15.4644 27.9221L15.4644 28.4871C15.4669 28.4978 15.4603 28.5084 15.4497 28.5108 15.4467 28.5115 15.4437 28.5115 15.4407 28.5108L15.1721 28.5108C15.1595 28.5051 15.1451 28.5051 15.1326 28.5108 15.1277 28.5236 15.1277 28.5376 15.1326 28.5503L15.1326 28.9731C15.1277 28.9858 15.1277 28.9999 15.1326 29.0126 15.1451 29.0183 15.1595 29.0183 15.1721 29.0126L15.4091 29.0126C15.4198 29.0102 15.4304 29.0168 15.4328 29.0274 15.4335 29.0303 15.4335 29.0334 15.4328 29.0363L15.4328 30.3086C15.4131 30.4954 15.4889 30.6796 15.6343 30.7985 15.8125 30.8978 16.0157 30.9431 16.2191 30.9289L16.5036 30.9289C16.5431 30.9289 16.5628 30.9012 16.5628 30.8657L16.5628 30.4548C16.5665 30.4418 16.5665 30.4282 16.5628 30.4152 16.5489 30.4098 16.5333 30.4098 16.5194 30.4152L16.3653 30.4152C16.2891 30.4215 16.214 30.3941 16.1598 30.3402 16.1108 30.2727 16.087 30.1902 16.0927 30.1071L16.0927 29.0837C16.0902 29.0731 16.0968 29.0625 16.1074 29.06 16.1104 29.0594 16.1134 29.0594 16.1164 29.06L16.5944 29.06C16.625 29.06 16.6498 29.0353 16.6498 29.0047L16.6498 28.582C16.6498 28.5514 16.625 28.5266 16.5944 28.5266Z" transform="matrix(1.00645 0 0 1 1128.1 112)"/><path d="M18.807 28.7598C18.602 28.5687 18.3283 28.4689 18.0484 28.4832 17.8168 28.4777 17.5896 28.547 17.4005 28.6807 17.2147 28.813 17.0762 29.0013 17.0054 29.2181 16.9556 29.3656 16.9316 29.5207 16.9342 29.6764 16.9271 29.8892 16.962 30.1013 17.037 30.3007 17.1085 30.5107 17.2474 30.6913 17.4321 30.8143 17.6386 30.9444 17.8796 31.0091 18.1235 31 18.3093 31.0017 18.4935 30.9654 18.6648 30.8933 18.8184 30.826 18.9539 30.723 19.0599 30.593 19.0629 30.58 19.0629 30.5665 19.0599 30.5535 19.0599 30.5535 19.0599 30.5298 19.0362 30.514L18.6964 30.1742C18.6862 30.1706 18.675 30.1706 18.6648 30.1742 18.6464 30.175 18.6298 30.1855 18.6213 30.2019 18.5141 30.3399 18.3497 30.4214 18.1749 30.4231 17.9674 30.4499 17.7653 30.3442 17.6691 30.1584 17.6465 30.0968 17.6293 30.0334 17.6178 29.9688 17.6178 29.9688 17.6178 29.9451 17.6375 29.9451L19.1034 29.9451C19.1314 29.9495 19.1577 29.9305 19.1622 29.9025 19.1629 29.8982 19.163 29.894 19.1626 29.8898 19.1746 29.7583 19.1746 29.6261 19.1626 29.4946 19.1349 29.2153 19.0089 28.9549 18.807 28.7598ZM18.4712 29.5184 17.6494 29.5184C17.6387 29.5208 17.6281 29.5142 17.6257 29.5036 17.625 29.5007 17.625 29.4976 17.6257 29.4946 17.6323 29.4426 17.6429 29.3911 17.6573 29.3406 17.7095 29.1678 17.8721 29.0523 18.0524 29.06 18.1468 29.0577 18.2394 29.0854 18.3171 29.1391 18.3899 29.1938 18.4415 29.2719 18.4633 29.3603 18.4633 29.3603 18.4633 29.3998 18.487 29.4946 18.4949 29.5105 18.487 29.5184 18.4712 29.5184Z" transform="matrix(1.00645 0 0 1 1128.1 112)"/><path d="M22.3156 27.689C22.3082 27.6604 22.2819 27.6407 22.2524 27.6416L21.5096 27.6416C21.48 27.6407 21.4537 27.6604 21.4463 27.689L20.423 30.8973C20.4146 30.9119 20.4146 30.93 20.423 30.9447 20.4338 30.9575 20.4498 30.9648 20.4665 30.9644L21.067 30.9644C21.0971 30.967 21.1243 30.9466 21.1303 30.917L21.2685 30.4508C21.2759 30.4466 21.2849 30.4466 21.2922 30.4508L22.4776 30.4508C22.4776 30.4508 22.4776 30.4508 22.5013 30.4508L22.6435 30.917C22.6494 30.9466 22.6767 30.967 22.7067 30.9644L23.3112 30.9644C23.3468 30.9644 23.3626 30.9644 23.3626 30.921 23.3626 30.8775 23.3626 30.9012 23.3626 30.8973ZM22.3156 29.9135 21.4621 29.9135C21.4621 29.9135 21.4384 29.9135 21.4621 29.8858L21.881 28.4792C21.881 28.4792 21.881 28.4792 21.881 28.4792 21.881 28.4792 21.881 28.4792 21.881 28.4792L22.3077 29.8858C22.3077 29.8858 22.3156 29.9135 22.2958 29.9135Z" transform="matrix(1.00645 0 0 1 1128.1 112)"/><path d="M25.3737 28.6768C24.968 28.4265 24.4558 28.4265 24.0501 28.6768 23.8668 28.7978 23.728 28.9754 23.655 29.1825 23.5997 29.3616 23.573 29.5483 23.576 29.7357 23.573 29.9244 23.5997 30.1123 23.655 30.2928 23.7269 30.5048 23.8655 30.6877 24.0501 30.8143 24.2438 30.9439 24.473 31.0101 24.706 31.004 24.9407 31.0092 25.1718 30.9445 25.3697 30.8183 25.5585 30.7088 25.6995 30.5326 25.7648 30.3244 25.7799 30.277 25.7892 30.2278 25.7925 30.1782 25.7925 30.1505 25.7925 30.1347 25.7451 30.1268L25.1919 30.028C25.1524 30.028 25.1287 30.028 25.1248 30.0755 25.1208 30.1229 25.1248 30.0755 25.1248 30.0755 25.1273 30.0858 25.1273 30.0967 25.1248 30.1071 25.0993 30.1937 25.0449 30.269 24.9707 30.3204 24.8951 30.3723 24.8055 30.3998 24.7139 30.3994 24.6207 30.4017 24.5293 30.374 24.4531 30.3204 24.3813 30.2623 24.329 30.1838 24.303 30.0952 24.235 29.8362 24.235 29.564 24.303 29.305 24.329 29.2218 24.3818 29.1496 24.4531 29.0995 24.5268 29.044 24.6177 29.0161 24.7099 29.0205 24.8061 29.0182 24.9004 29.0473 24.9786 29.1035 25.0503 29.1506 25.1023 29.2223 25.1248 29.305L25.1248 29.3801C25.1287 29.4075 25.1524 29.4278 25.1801 29.4275L25.1801 29.4275 25.7253 29.3485C25.7515 29.3485 25.7728 29.3274 25.7729 29.3012 25.7729 29.2998 25.7729 29.2985 25.7728 29.2971L25.7728 29.2971C25.7669 29.2377 25.7536 29.1793 25.7332 29.1232 25.6645 28.9397 25.5384 28.7831 25.3737 28.6768Z" transform="matrix(1.00645 0 0 1 1128.1 112)"/><path d="M27.8945 28.6768C27.6958 28.5483 27.4632 28.4823 27.2267 28.4871 26.9933 28.4827 26.7638 28.5473 26.5669 28.6728 26.3822 28.7923 26.243 28.9704 26.1718 29.1786 26.1131 29.357 26.0851 29.544 26.0888 29.7317 26.0851 29.9207 26.1131 30.1091 26.1718 30.2888 26.2434 30.5009 26.3821 30.684 26.5669 30.8104 26.7606 30.9399 26.9898 31.0062 27.2228 31 27.4572 31.0064 27.6881 30.9431 27.8866 30.8183 28.0753 30.7088 28.2163 30.5326 28.2817 30.3244 28.2968 30.277 28.306 30.2278 28.3093 30.1782 28.3093 30.1505 28.3093 30.1347 28.2619 30.1268L27.7088 30.028C27.6693 30.028 27.6456 30.028 27.6416 30.0755 27.6376 30.1229 27.6416 30.0755 27.6416 30.0755 27.6441 30.0858 27.6441 30.0967 27.6416 30.1071 27.6161 30.1937 27.5617 30.269 27.4875 30.3204 27.4123 30.373 27.3225 30.4006 27.2307 30.3994 27.1375 30.4017 27.0461 30.374 26.9699 30.3204 26.8982 30.2631 26.847 30.1841 26.8237 30.0952 26.7873 29.9668 26.7713 29.8335 26.7763 29.7001 26.7705 29.5664 26.7879 29.4327 26.8277 29.305 26.8527 29.2224 26.904 29.1502 26.9739 29.0995 27.0476 29.044 27.1385 29.0161 27.2307 29.0205 27.3269 29.0182 27.4212 29.0473 27.4994 29.1035 27.571 29.1506 27.623 29.2223 27.6456 29.305L27.6456 29.3801C27.6495 29.4075 27.6732 29.4278 27.7009 29.4275L27.7009 29.4275 28.2461 29.3485C28.2723 29.3485 28.2936 29.3274 28.2937 29.3012 28.2937 29.2998 28.2936 29.2985 28.2935 29.2971L28.2935 29.2971C28.2897 29.2374 28.2763 29.1787 28.254 29.1232 28.1848 28.94 28.0588 28.7835 27.8945 28.6768Z" transform="matrix(1.00645 0 0 1 1128.1 112)"/><path d="M30.4824 28.7598C30.2755 28.5692 30.0008 28.4696 29.7199 28.4832 29.4883 28.4783 29.2613 28.5475 29.0719 28.6807 28.8845 28.8114 28.7456 29.0003 28.6768 29.2181 28.6271 29.3656 28.603 29.5207 28.6057 29.6764 28.5975 29.8889 28.631 30.101 28.7044 30.3007 28.7773 30.51 28.9159 30.6902 29.0995 30.8143 29.3061 30.9444 29.5471 31.0091 29.791 31 29.9768 31.0021 30.1611 30.9657 30.3323 30.8933 30.4864 30.8269 30.6221 30.7238 30.7274 30.593 30.7365 30.5813 30.7432 30.5679 30.7471 30.5535 30.7471 30.5535 30.7471 30.5298 30.7234 30.514L30.4231 30.1742C30.4129 30.1706 30.4018 30.1706 30.3915 30.1742 30.3731 30.175 30.3566 30.1855 30.3481 30.2019 30.2397 30.3584 30.0603 30.4503 29.87 30.4468 29.6635 30.4743 29.4622 30.3681 29.3682 30.1821 29.342 30.1218 29.3247 30.0579 29.3168 29.9925 29.3168 29.9925 29.3168 29.9688 29.3168 29.9688L30.7827 29.9688C30.8129 29.9731 30.841 29.9522 30.8454 29.9219 30.8458 29.9191 30.8459 29.9163 30.8459 29.9135 30.858 29.782 30.858 29.6498 30.8459 29.5184 30.8188 29.2303 30.6899 28.9614 30.4824 28.7598ZM30.1426 29.5184 29.3208 29.5184C29.3102 29.5208 29.2995 29.5142 29.2971 29.5036 29.2964 29.5007 29.2964 29.4976 29.2971 29.4946 29.2971 29.4314 29.3208 29.384 29.3327 29.3406 29.3848 29.1678 29.5474 29.0523 29.7278 29.06 29.8222 29.0571 29.915 29.0849 29.9925 29.1391 30.0667 29.1931 30.1198 29.2713 30.1426 29.3603 30.1426 29.3603 30.1426 29.3998 30.1663 29.4946 30.1663 29.5105 30.1624 29.5184 30.1426 29.5184Z" transform="matrix(1.00645 0 0 1 1128.1 112)"/><path d="M32.4975 29.5421 32.3552 29.4986 32.2367 29.467C32.1252 29.4467 32.0165 29.4136 31.9127 29.3682 31.8545 29.3452 31.8168 29.2885 31.8179 29.226 31.8179 29.1598 31.8565 29.0996 31.9166 29.0719 31.9941 29.0297 32.0814 29.0093 32.1695 29.0126 32.2693 29.0077 32.3682 29.0325 32.454 29.0837 32.5185 29.12 32.559 29.1876 32.5607 29.2615 32.5607 29.2921 32.5854 29.3168 32.616 29.3168L33.1257 29.3168C33.1562 29.3168 33.181 29.2921 33.181 29.2615 33.1833 29.1195 33.1389 28.9807 33.0546 28.8664 32.9658 28.7437 32.8438 28.6491 32.7029 28.5938 32.5334 28.526 32.3521 28.4924 32.1695 28.495 31.9126 28.4833 31.6588 28.5554 31.4465 28.7005 31.2758 28.8261 31.1759 29.026 31.1778 29.2378 31.1672 29.4035 31.2327 29.5649 31.3556 29.6764 31.4996 29.7901 31.6629 29.8771 31.8376 29.9332 31.9522 29.9771 32.0697 30.0127 32.1893 30.0399 32.2856 30.0606 32.3796 30.091 32.4698 30.1308 32.5223 30.1506 32.557 30.201 32.5567 30.2572 32.5543 30.3247 32.5169 30.3861 32.4579 30.4192 32.285 30.5112 32.0777 30.5112 31.9048 30.4192 31.8351 30.3868 31.7894 30.3182 31.7863 30.2414L31.7863 30.2414C31.7863 30.2109 31.7615 30.1861 31.7309 30.1861L31.2134 30.1861C31.2008 30.1804 31.1864 30.1804 31.1738 30.1861 31.169 30.1988 31.169 30.2129 31.1738 30.2256L31.1738 30.273C31.1729 30.4058 31.2191 30.5346 31.3042 30.6365 31.4009 30.7532 31.5281 30.8408 31.6717 30.8894 31.8504 30.9529 32.0391 30.9836 32.2288 30.9802 32.4921 30.9931 32.753 30.9241 32.9755 30.7827 33.1559 30.6611 33.2605 30.4548 33.2521 30.2374 33.2619 30.063 33.1905 29.8937 33.0585 29.7791 32.8893 29.6632 32.6985 29.5826 32.4975 29.5421Z" transform="matrix(1.00645 0 0 1 1128.1 112)"/><path d="M35.3778 29.7949C35.2182 29.6767 35.037 29.5908 34.8444 29.5421L34.7021 29.4986 34.5836 29.467C34.4723 29.4461 34.3637 29.413 34.2596 29.3682 34.2015 29.3452 34.1637 29.2885 34.1648 29.226 34.1649 29.1598 34.2034 29.0996 34.2636 29.0719 34.3422 29.0292 34.431 29.0087 34.5204 29.0126 34.6189 29.0083 34.7164 29.033 34.8009 29.0837 34.8654 29.12 34.9059 29.1876 34.9076 29.2615 34.9076 29.2921 34.9324 29.3168 34.9629 29.3168L35.4726 29.3168C35.5031 29.3168 35.5279 29.2921 35.5279 29.2615 35.5302 29.1195 35.4858 28.9807 35.4015 28.8664 35.3128 28.7437 35.1907 28.6491 35.0498 28.5938 34.8817 28.5259 34.7017 28.4923 34.5204 28.495 34.2635 28.4833 34.0097 28.5554 33.7973 28.7005 33.6257 28.8257 33.5244 29.0254 33.5247 29.2378 33.5141 29.4035 33.5796 29.5649 33.7025 29.6764 33.8475 29.7909 34.0122 29.878 34.1885 29.9332 34.3015 29.9777 34.4177 30.0134 34.5362 30.0399 34.6326 30.0606 34.7266 30.091 34.8167 30.1308 34.8693 30.1506 34.904 30.201 34.9036 30.2572 34.9012 30.3247 34.8638 30.3861 34.8049 30.4192 34.632 30.5112 34.4246 30.5112 34.2517 30.4192 34.1821 30.3868 34.1363 30.3182 34.1332 30.2414L34.1332 30.2414C34.1332 30.2109 34.1084 30.1861 34.0779 30.1861L33.5524 30.1861C33.5399 30.1804 33.5254 30.1804 33.5129 30.1861 33.508 30.1988 33.508 30.2129 33.5129 30.2256L33.5129 30.273C33.512 30.4058 33.5582 30.5346 33.6433 30.6365 33.7399 30.7532 33.8672 30.8408 34.0107 30.8894 34.1895 30.9529 34.3782 30.9836 34.5678 30.9802 34.8311 30.9931 35.092 30.9241 35.3146 30.7827 35.4949 30.6611 35.5995 30.4548 35.5911 30.2374 35.593 30.0647 35.5141 29.901 35.3778 29.7949Z" transform="matrix(1.00645 0 0 1 1128.1 112)"/><path d="M4.16837 24.0145C4.11562 23.9757 4.06544 23.9335 4.01823 23.8881L1.41053 21.2843C1.13427 21.0076 0.979341 20.6323 0.979862 20.2413L0.979862 16.6577C0.979341 16.2666 1.13427 15.8914 1.41053 15.6146L4.01823 12.999C4.06548 12.9548 4.11566 12.914 4.16837 12.8765L3.73375 12.8765C3.43733 12.8807 3.15409 12.9997 2.94354 13.2084L0.395106 15.7213C0.137128 15.9912-0.00472709 16.3515 7.0185e-16 16.7248L0 20.1504C-0.00557941 20.5239 0.136398 20.8845 0.395106 21.154L2.90403 23.6668C3.1193 23.881 3.41033 24.0017 3.71399 24.0027Z" transform="matrix(1.00645 0 0 1 1128.1 112)"/><path d="M12.9121 16.5707C12.9111 16.2651 12.7889 15.9724 12.5723 15.7568L12.5723 15.7568 10.0436 13.2281C9.77559 12.9697 9.41628 12.8277 9.04397 12.833L5.58284 12.833C5.20789 12.826 4.8455 12.9681 4.57533 13.2281L2.04665 15.7568C1.83435 15.975 1.7141 16.2664 1.71081 16.5707L1.71081 20.1267C1.70801 20.512 1.86038 20.8822 2.13357 21.154L4.57533 23.5918C4.84668 23.85 5.20828 23.9918 5.58284 23.9869L7.38058 23.9869 7.38058 26.0098C7.38054 26.0556 7.41764 26.0928 7.46347 26.0929 7.46481 26.0929 7.46616 26.0929 7.4675 26.0928 7.4897 26.0936 7.51124 26.085 7.52676 26.0691L12.5723 21.0631C12.7896 20.848 12.9119 20.5549 12.9121 20.2492ZM10.9918 17.0409C10.9952 17.0744 10.9836 17.1076 10.9602 17.1318 10.9357 17.1549 10.9031 17.1677 10.8694 17.1673L9.68404 17.1673C9.66267 17.1629 9.64177 17.1766 9.63734 17.198 9.63699 17.1996 9.63675 17.2012 9.63663 17.2029L9.63663 20.9643C9.63884 21.0319 9.58582 21.0885 9.51822 21.0907 9.51557 21.0908 9.51288 21.0908 9.5102 21.0907L8.5975 21.0907C8.56368 21.0915 8.53093 21.0787 8.50663 21.0552 8.48181 21.0317 8.46878 20.9984 8.47107 20.9643L8.47107 17.2148C8.47138 17.1914 8.45463 17.1713 8.43156 17.1673L5.47222 17.1673C5.44867 17.1626 5.42579 17.1779 5.42113 17.2015 5.42101 17.202 5.42093 17.2024 5.42085 17.2029L5.42085 18.0524C5.42018 18.0767 5.4367 18.0981 5.46036 18.1037L6.83138 18.1037C6.8667 18.1008 6.90151 18.1139 6.9262 18.1393 6.94975 18.1636 6.96255 18.1964 6.96176 18.2302L6.96176 18.9651C6.96615 19.0304 6.91676 19.0869 6.85145 19.0913 6.85003 19.0914 6.84861 19.0915 6.84718 19.0915L5.47222 19.0915C5.44863 19.0871 5.42591 19.1026 5.42148 19.1262 5.42117 19.1278 5.42097 19.1294 5.42085 19.131L5.42085 20.9604C5.42417 20.9938 5.41259 21.0271 5.38924 21.0512 5.36309 21.0743 5.32931 21.087 5.29442 21.0868L4.37777 21.0868C4.31017 21.089 4.25355 21.036 4.25134 20.9684 4.25126 20.9657 4.25126 20.963 4.25134 20.9604L4.25134 16.2863C4.25055 16.2524 4.26335 16.2197 4.2869 16.1954 4.31143 16.1722 4.34403 16.1595 4.37777 16.1598L10.8694 16.1598C10.9031 16.1595 10.9357 16.1722 10.9602 16.1954 10.9846 16.2189 10.9963 16.2527 10.9918 16.2863Z" transform="matrix(1.00645 0 0 1 1128.1 112)"/><path d="M11.1894 10.3873 23.3112 10.3873 23.3112 18.4356 13.5047 18.4356 13.5047 19.052 23.5365 19.052 24.1054 19.4471C24.1551 19.4823 24.2144 19.5016 24.2753 19.5024 24.439 19.501 24.5705 19.3673 24.5691 19.2036 24.5683 19.1089 24.5223 19.0202 24.4452 18.9651L23.8881 18.57 23.8881 16.9895C23.927 17.0054 23.9686 17.0135 24.0106 17.0133 24.1742 17.0133 24.3069 16.8806 24.3069 16.7169 24.3069 16.5533 24.1742 16.4206 24.0106 16.4206 23.9686 16.4204 23.927 16.4285 23.8881 16.4443L23.8881 9.79467 10.5967 9.79467 10.5967 12.9555 11.1894 13.5482Z" transform="matrix(1.00645 0 0 1 1128.1 112)"/><path d="M24.2713 20.9129 25.2236 20.0832C25.3468 19.9741 25.3583 19.7857 25.2492 19.6624 25.1401 19.5392 24.9517 19.5277 24.8284 19.6368L23.8644 20.4823C23.7077 20.6373 23.4961 20.7239 23.2757 20.7233L19.2851 20.7233C19.1215 20.7233 18.9888 20.856 18.9888 21.0196 18.9888 21.1833 19.1215 21.316 19.2851 21.316L23.2796 21.316C23.6504 21.3176 24.0068 21.1727 24.2713 20.9129Z" transform="matrix(1.00645 0 0 1 1128.1 112)"/><path d="M16.2349 13.1649C16.1192 13.0494 15.9318 13.0494 15.8161 13.1649 15.1054 13.8812 15.1054 15.0366 15.8161 15.7529 15.8714 15.8088 15.9468 15.8401 16.0255 15.8398 16.1044 15.8416 16.1805 15.81 16.2349 15.7529 16.3505 15.6402 16.353 15.4551 16.2403 15.3394 16.2385 15.3376 16.2367 15.3358 16.2349 15.3341 15.7554 14.8491 15.7554 14.0687 16.2349 13.5837 16.3505 13.4711 16.353 13.2859 16.2403 13.1703 16.2385 13.1685 16.2367 13.1667 16.2349 13.1649Z" transform="matrix(1.00645 0 0 1 1128.1 112)"/><path d="M15.0456 12.5723C14.0037 13.6133 14.0029 15.302 15.044 16.3439 15.0446 16.3445 15.0451 16.345 15.0456 16.3455 15.1001 16.4027 15.1761 16.4342 15.255 16.4324 15.3337 16.4328 15.4092 16.4015 15.4644 16.3455 15.58 16.2298 15.58 16.0424 15.4644 15.9267 14.6551 15.1155 14.6551 13.8023 15.4644 12.9911 15.576 12.8714 15.5694 12.6838 15.4497 12.5723 15.3359 12.4662 15.1594 12.4662 15.0456 12.5723Z" transform="matrix(1.00645 0 0 1 1128.1 112)"/><path d="M14.287 11.9954C12.927 13.3562 12.927 15.5616 14.287 16.9224 14.4027 17.0379 14.5901 17.0379 14.7058 16.9224 14.8214 16.8067 14.8214 16.6193 14.7058 16.5036 13.5791 15.3733 13.5791 13.5445 14.7058 12.4142 14.8174 12.2945 14.8108 12.107 14.6911 11.9954 14.5773 11.8894 14.4008 11.8894 14.287 11.9954Z" transform="matrix(1.00645 0 0 1 1128.1 112)"/><path d="M18.2736 15.7529C18.3281 15.81 18.4041 15.8416 18.483 15.8398 18.5617 15.8401 18.6372 15.8088 18.6925 15.7529 19.4031 15.0366 19.4031 13.8812 18.6925 13.1649 18.5768 13.0494 18.3893 13.0494 18.2736 13.1649 18.158 13.2776 18.1556 13.4627 18.2683 13.5784 18.27 13.5802 18.2718 13.582 18.2736 13.5837 18.7532 14.0687 18.7532 14.8491 18.2736 15.3341 18.158 15.4467 18.1556 15.6318 18.2683 15.7475 18.27 15.7493 18.2718 15.7511 18.2736 15.7529Z" transform="matrix(1.00645 0 0 1 1128.1 112)"/><path d="M19.0441 12.5723C18.9285 12.688 18.9285 12.8754 19.0441 12.9911 19.8534 13.8023 19.8534 15.1155 19.0441 15.9267 18.9285 16.0424 18.9285 16.2298 19.0441 16.3455 19.0994 16.4015 19.1748 16.4328 19.2535 16.4324 19.3324 16.4342 19.4085 16.4027 19.4629 16.3455 20.5049 15.3045 20.5056 13.6158 19.4645 12.5739 19.464 12.5733 19.4635 12.5728 19.4629 12.5723 19.3472 12.4567 19.1598 12.4567 19.0441 12.5723Z" transform="matrix(1.00645 0 0 1 1128.1 112)"/><path d="M19.8027 16.5036C19.6871 16.6193 19.6871 16.8067 19.8027 16.9224 19.9184 17.0379 20.1058 17.0379 20.2215 16.9224 21.5815 15.5616 21.5815 13.3562 20.2215 11.9954 20.1018 11.8838 19.9143 11.8905 19.8027 12.0102 19.6967 12.124 19.6967 12.3004 19.8027 12.4142 20.9295 13.5445 20.9295 15.3733 19.8027 16.5036Z" transform="matrix(1.00645 0 0 1 1128.1 112)"/><path d="M18.0721 14.4569C18.0721 14.0008 17.7024 13.6311 17.2464 13.6311 16.7903 13.6311 16.4206 14.0008 16.4206 14.4569 16.4206 14.913 16.7903 15.2827 17.2464 15.2827 17.7015 15.2805 18.07 14.9121 18.0721 14.4569ZM17.0133 14.4569C17.0133 14.3282 17.1176 14.2238 17.2464 14.2238 17.3742 14.2259 17.4774 14.3291 17.4795 14.4569 17.4795 14.5856 17.3751 14.69 17.2464 14.69 17.1198 14.6922 17.0155 14.5915 17.0133 14.4649 17.0132 14.4623 17.0132 14.4596 17.0133 14.4569Z" transform="matrix(1.00645 0 0 1 1128.1 112)"/><path d="M23.7893 19.9489C23.7893 19.7852 23.6566 19.6526 23.493 19.6526L13.5047 19.6526 13.5047 20.2452 23.493 20.2452C23.6545 20.2474 23.7871 20.1183 23.7893 19.9568 23.7894 19.9542 23.7894 19.9515 23.7893 19.9489Z" transform="matrix(1.00645 0 0 1 1128.1 112)"/><path d="M18.1749 21.3357C18.3385 21.3357 18.4712 21.203 18.4712 21.0394 18.4712 20.8757 18.3385 20.7431 18.1749 20.7431L13.4336 20.7431C13.3714 20.9576 13.2696 21.1587 13.1333 21.3357Z" transform="matrix(1.00645 0 0 1 1128.1 112)"/><path d="M25.5317 16.713C25.5317 16.8766 25.3991 17.0093 25.2354 17.0093 25.0717 17.0093 24.9391 16.8766 24.9391 16.713 24.9391 16.5493 25.0717 16.4166 25.2354 16.4166 25.3991 16.4166 25.5317 16.5493 25.5317 16.713Z" transform="matrix(1.00645 0 0 1 1128.1 112)"/><path d="M26.7566 16.713C26.7566 16.8766 26.6239 17.0093 26.4602 17.0093 26.2966 17.0093 26.1639 16.8766 26.1639 16.713 26.1639 16.5493 26.2966 16.4166 26.4602 16.4166 26.6239 16.4166 26.7566 16.5493 26.7566 16.713Z" transform="matrix(1.00645 0 0 1 1128.1 112)"/><path d="M29.6329 15.7805C29.577 15.8358 29.5457 15.9113 29.546 15.9899 29.5452 16.0687 29.5766 16.1443 29.6329 16.1993 29.7454 16.2999 29.9156 16.2999 30.028 16.1993 30.0844 16.1443 30.1158 16.0687 30.115 15.9899 30.1153 15.9113 30.084 15.8358 30.028 15.7805 29.9156 15.6799 29.7454 15.6799 29.6329 15.7805Z" transform="matrix(1.00645 0 0 1 1128.1 112)"/><path d="M27.9814 16.713C27.9814 16.8766 27.8487 17.0093 27.6851 17.0093 27.5214 17.0093 27.3887 16.8766 27.3887 16.713 27.3887 16.5493 27.5214 16.4166 27.6851 16.4166 27.8487 16.4166 27.9814 16.5493 27.9814 16.713Z" transform="matrix(1.00645 0 0 1 1128.1 112)"/><path d="M30.4903 14.9152C30.3747 15.0309 30.3747 15.2184 30.4903 15.3341 30.5456 15.39 30.6211 15.4213 30.6997 15.421 30.7785 15.4218 30.8541 15.3904 30.9091 15.3341 31.0247 15.2184 31.0247 15.0309 30.9091 14.9152 30.7934 14.7997 30.606 14.7997 30.4903 14.9152Z" transform="matrix(1.00645 0 0 1 1128.1 112)"/><path d="M29.2062 16.713C29.2062 16.8766 29.0735 17.0093 28.9099 17.0093 28.7462 17.0093 28.6136 16.8766 28.6136 16.713 28.6136 16.5493 28.7462 16.4166 28.9099 16.4166 29.0735 16.4166 29.2062 16.5493 29.2062 16.713Z" transform="matrix(1.00645 0 0 1 1128.1 112)"/><path d="M26.5234 7.35292 30.4231 13.8287 30.676 14.2238 30.676 14.2238 30.676 14.2238 34.8246 7.32131C35.6238 5.99 35.7369 4.35648 35.1289 2.92773L35.1289 2.92773 35.0854 2.82501C34.2919 1.10622 32.5731 0.00405228 30.68 3.76802e-08L30.68 0C28.7765 0.00143605 27.0489 1.11307 26.2587 2.84476L26.2192 2.95539 26.2192 2.95539C25.6098 4.38524 25.723 6.02058 26.5234 7.35292ZM26.804 3.10158 26.8356 3.01071C27.0429 2.5714 27.3235 2.17058 27.6653 1.82539 28.4657 1.0291 29.551 0.585345 30.68 0.592659L30.68 0.592659C32.3131 0.593263 33.8027 1.52597 34.5164 2.9949L34.5164 2.9949 34.5599 3.09368C35.1379 4.36825 35.0522 5.84555 34.3307 7.04474L30.68 13.1175 28.8427 10.0475 27.0489 7.04869C26.3237 5.85314 26.2321 4.37761 26.804 3.10158Z" transform="matrix(1.00645 0 0 1 1128.1 112)"/><path d="M30.68 8.29722C32.598 8.29722 34.1529 6.74232 34.1529 4.82424 34.1529 2.90617 32.598 1.35126 30.68 1.35126 28.7619 1.35126 27.207 2.90617 27.207 4.82424 27.2092 6.74141 28.7628 8.29505 30.68 8.29722ZM30.68 1.97553C32.2533 1.97335 33.5305 3.24699 33.5326 4.82029 33.5348 6.3936 32.2612 7.67078 30.6879 7.67295 29.1146 7.67513 27.8374 6.4015 27.8352 4.82819 27.8352 4.82555 27.8352 4.82294 27.8352 4.82029 27.8482 3.25779 29.1174 1.9974 30.68 1.99528Z" transform="matrix(1.00645 0 0 1 1128.1 112)"/><path d="M29.1074 6.66543 32.2683 6.66543 32.2683 3.98267 32.2683 3.98267C32.1616 3.11637 31.3728 2.50059 30.5065 2.6073 29.7868 2.69594 29.2198 3.26297 29.1312 3.98267L29.1312 3.98267 29.1312 4.01427 29.1312 4.01427 29.1312 4.37777 29.1312 4.37777ZM30.6879 3.03836C31.2131 3.04216 31.6427 3.45786 31.6638 3.98267L29.7041 3.98267C29.7211 3.45607 30.1531 3.03809 30.68 3.03836ZM29.708 4.57533 31.6835 4.57533 31.6835 5.29047 31.6835 5.29047 31.6835 6.08068 29.708 6.08068Z" transform="matrix(1.00645 0 0 1 1128.1 112)"/><path d="M30.68 4.8519C30.5185 4.8519 30.3876 4.9828 30.3876 5.14428 30.3881 5.26012 30.4559 5.36506 30.5614 5.41295L30.5614 5.80805 30.8183 5.80805 30.8183 5.41295C30.9237 5.36506 30.9917 5.26012 30.9921 5.14428 30.9925 4.9828 30.8619 4.85158 30.7004 4.85123 30.6936 4.85123 30.6868 4.85142 30.68 4.8519Z" transform="matrix(1.00645 0 0 1 1128.1 112)"/></g></svg>