<svg xmlns="http://www.w3.org/2000/svg" viewBox="0 0 50 50"><path d="M39 2.031a.98.98 0 0 0-.656.375l-3 3.813a3.09 3.09 0 0 0-2.438-1.22h-2.812A3.106 3.106 0 0 0 27 8.095v7.812c0 1.7 1.394 3.094 3.094 3.094h2.812c.992 0 1.875-.488 2.438-1.219l3 3.813a.97.97 0 0 0 1.219.25l9.906-5.407a.97.97 0 0 0-.594-1.812 1 1 0 0 0-.344.125l-9.156 5.031L36 15.5V8.531l3.375-4.281 9.156 5a.97.97 0 1 0 .938-1.687l-9.906-5.407A1 1 0 0 0 39 2.031M9 3c-4.96 0-9 4.04-9 9s4.04 9 9 9 9-4.04 9-9c0-4.961-4.04-9-9-9m9.688 4C19.48 8.52 20 10.172 20 12s-.52 4.48-1.312 6h6.28c-.074-.348-.062-1.633-.062-2V8c0-.367-.012-.652.063-1zM9 7.344c2.559 0 4.656 2.097 4.656 4.656S11.558 16.656 9 16.656 4.344 14.558 4.344 12 6.44 7.344 9 7.344m8.813 11.219C15.805 21.243 12.602 23 9 23c-1.227 0-2.398-.222-3.5-.594l8.781 16.562h15.062zM6.874 41c-1.622 0-2.876 1.316-2.876 3v5c0 .582.418 1 1 1h34c.583 0 1-.418 1-1v-5c0-1.684-1.253-3-2.875-3z"/></svg>