<svg xmlns="http://www.w3.org/2000/svg" viewBox="0 0 50 50"><path d="M39 2.031a.98.98 0 0 0-.656.375l-2.938 3.688c-.57-.715-1.433-1.188-2.406-1.188h-4c-1.312 0-2.434.86-2.875 2.031h-9.687A9.01 9.01 0 0 0 9 3c-4.957 0-9 4.043-9 9a9.01 9.01 0 0 0 3.938 7.437c.011.008.02.024.03.032v.03L14.75 39.939H6.875c-1.649 0-2.938 1.422-2.938 3.062v6A1.05 1.05 0 0 0 5 50.063h34A1.05 1.05 0 0 0 40.062 49v-6c0-1.64-1.289-3.062-2.937-3.062h-7.219L16.968 17.063h9.156c.442 1.172 1.563 2.031 2.875 2.031h4c.973 0 1.836-.473 2.406-1.187l2.938 3.687a.97.97 0 0 0 1.219.25l9.906-5.406a.97.97 0 0 0-.594-1.812 1 1 0 0 0-.344.124l-9.156 5.032-3.281-4.157V8.407l3.281-4.157 9.156 5a.97.97 0 1 0 .938-1.687l-9.906-5.406a1 1 0 0 0-.563-.125zM9 5a7 7 0 0 1 5.906 3.219q.016.032.031.062.03.065.063.125a.8.8 0 0 0 .094.188c.015.027.047.035.062.062q.03.048.063.094c.504.969.781 2.078.781 3.25a7 7 0 0 1-.781 3.219c-.008.012-.024.02-.032.031a1 1 0 0 0-.03.063c-.005.007.003.023 0 .03a.5.5 0 0 0-.063.063 1.1 1.1 0 0 0-.188.375A7 7 0 0 1 9 19.001c-3.875 0-7-3.126-7-7s3.125-7 7-7zm0 1.344c-.066 0-.121.027-.187.031a1 1 0 0 0-.188.063C5.707 6.645 3.344 9.03 3.344 12c0 3.102 2.555 5.656 5.656 5.656 3.102 0 5.656-2.554 5.656-5.656 0-2.957-2.348-5.34-5.25-5.562-.012 0-.02-.032-.031-.032a1 1 0 0 0-.219-.03c-.054-.001-.101-.032-.156-.032m20 .75h4c.512 0 .906.394.906.906v8a.89.89 0 0 1-.906.906h-4a.89.89 0 0 1-.906-.906V8c0-.512.394-.906.906-.906M8.938 8.344H9c2.016 0 3.657 1.64 3.657 3.656S11.017 15.656 9 15.656 5.344 14.016 5.344 12a3.66 3.66 0 0 1 3.594-3.656m8.562.719h8.407v5.875H17.5c.32-.926.5-1.907.5-2.938s-.18-2.012-.5-2.937m-2.125 9.25 12.22 21.625H16.969L6.844 20.718c.696.172 1.41.282 2.157.282 2.496 0 4.742-1.04 6.375-2.688zm-8.5 23.75h9.22c.25.105.53.105.78 0h20.25c.434 0 .813.375.813.937v4.938H6.063V43c0-.562.379-.937.813-.937"/></svg>