<svg width="26" height="23" xmlns="http://www.w3.org/2000/svg" xmlns:xlink="http://www.w3.org/1999/xlink" xml:space="preserve" overflow="hidden"><g transform="translate(-751 -620)"><path d="M22.1628 9.72019 22.8388 4.06074 21.7562 2.97361 19.7967 6.71917 16.4439 6.45881 16.1242 3.10151 19.8378 1.08713 18.7278 0 13.0912 0.776519 13.0912 2.1103C13.0937 2.32043 13.2648 2.48944 13.4749 2.48943L13.4749 2.48943C13.685 2.48692 13.854 2.31587 13.854 2.10574L13.854 1.44341 18.4674 0.803925 18.5679 0.904416 15.3203 2.66757 15.7359 7.16681 20.2397 7.51853 21.9572 4.23888 22.0577 4.33937 21.4685 8.96194 16.1562 9.00305 3.36644 21.6557 1.07799 19.3079 7.13027 13.315C7.25255 13.145 7.21386 12.9081 7.04385 12.7858 6.90965 12.6893 6.72835 12.6909 6.59584 12.7897L0 19.2988 3.38928 22.7337 16.4896 9.7613Z" fill="#231F20" transform="matrix(1.10827 0 0 1 751 620.133)"/><path d="M7.91136 12.2736C8.01189 12.2729 8.10836 12.2336 8.18085 12.1639L13.283 7.112C13.6866 6.70012 13.9101 6.14473 13.9043 5.5681L13.9043 3.48977C13.9018 3.27889 13.7315 3.10854 13.5206 3.10607L13.5206 3.10607C13.3112 3.10607 13.1414 3.27581 13.1414 3.4852L13.1414 5.57266C13.1463 5.94553 13.0034 6.30515 12.744 6.573L7.64186 11.6249C7.49299 11.7722 7.49172 12.0122 7.63898 12.1611 7.71092 12.2338 7.80913 12.2743 7.91136 12.2736Z" fill="#231F20" transform="matrix(1.10827 0 0 1 751 620.133)"/><path d="M20.797 11.6798 17.024 11.6798 14.3565 14.3473 14.3565 18.1157 17.024 20.7833 20.797 20.7833 23.46 18.1157 23.46 14.3473ZM22.7018 17.8143 20.4818 20.0342 17.3575 20.0342 15.1193 17.8143 15.1193 14.6625 17.3575 12.4426 20.5001 12.4426 22.7018 14.6625Z" fill="#231F20" transform="matrix(1.10827 0 0 1 751 620.133)"/><path d="M16.2338 16.2338C16.2338 17.7121 17.4322 18.9105 18.9105 18.9105 20.3888 18.9105 21.5872 17.7121 21.5872 16.2338 21.5872 14.7555 20.3888 13.5571 18.9105 13.5571 17.4322 13.5571 16.2338 14.7555 16.2338 16.2338ZM20.8244 16.2338C20.8244 17.2908 19.9675 18.1477 18.9105 18.1477 17.8535 18.1477 16.9966 17.2908 16.9966 16.2338 16.9966 15.1768 17.8535 14.3199 18.9105 14.3199 19.9665 14.3224 20.8219 15.1778 20.8244 16.2338Z" fill="#231F20" transform="matrix(1.10827 0 0 1 751 620.133)"/></g></svg>