<svg width="301" height="248" xmlns="http://www.w3.org/2000/svg" xmlns:xlink="http://www.w3.org/1999/xlink" xml:space="preserve" overflow="hidden"><g transform="translate(-1820 -964)"><path d="M1825 1064.5C1825 1056.49 1831.27 1050 1839 1050 1846.73 1050 1853 1056.49 1853 1064.5 1853 1072.51 1846.73 1079 1839 1079 1831.27 1079 1825 1072.51 1825 1064.5Z" stroke="#000000" stroke-width="10.3125" stroke-miterlimit="8" fill="none" fill-rule="evenodd"/><path d="M1891 983.5C1891 975.492 1897.49 969 1905.5 969 1913.51 969 1920 975.492 1920 983.5 1920 991.508 1913.51 998 1905.5 998 1897.49 998 1891 991.508 1891 983.5Z" stroke="#000000" stroke-width="10.3125" stroke-miterlimit="8" fill="none" fill-rule="evenodd"/><path d="M2002 983.5C2002 975.492 2008.49 969 2016.5 969 2024.51 969 2031 975.492 2031 983.5 2031 991.508 2024.51 998 2016.5 998 2008.49 998 2002 991.508 2002 983.5Z" stroke="#000000" stroke-width="10.3125" stroke-miterlimit="8" fill="none" fill-rule="evenodd"/><rect x="1898" y="1047" width="196" height="135" stroke="#000000" stroke-width="10.3125" stroke-miterlimit="8" fill="none"/><path d="M1897.38 1182.72 1875 1193.07 1875.86 1206 2116 1204.28 2116 1191.34 2092.76 1181 1897.38 1182.72Z" stroke="#000000" stroke-width="10.3125" stroke-miterlimit="8" fill="none" fill-rule="evenodd"/><path d="M0 0 158.172 0.143635" stroke="#000000" stroke-width="10.3125" stroke-miterlimit="8" fill="none" fill-rule="evenodd" transform="matrix(1 0 0 -1 1914 1193.14)"/><path d="M1838 1147C1838 1146.45 1838.45 1146 1839 1146 1839.55 1146 1840 1146.45 1840 1147 1840 1147.55 1839.55 1148 1839 1148 1838.45 1148 1838 1147.55 1838 1147Z" stroke="#000000" stroke-width="10.3125" stroke-miterlimit="8" fill="none" fill-rule="evenodd"/><path d="M1887 1147C1887 1146.45 1887.67 1146 1888.5 1146 1889.33 1146 1890 1146.45 1890 1147 1890 1147.55 1889.33 1148 1888.5 1148 1887.67 1148 1887 1147.55 1887 1147Z" stroke="#000000" stroke-width="10.3125" stroke-miterlimit="8" fill="none" fill-rule="evenodd"/><path d="M1871 1147C1871 1146.45 1871.45 1146 1872 1146 1872.55 1146 1873 1146.45 1873 1147 1873 1147.55 1872.55 1148 1872 1148 1871.45 1148 1871 1147.55 1871 1147Z" stroke="#000000" stroke-width="10.3125" stroke-miterlimit="8" fill="none" fill-rule="evenodd"/><path d="M1854 1147C1854 1146.45 1854.67 1146 1855.5 1146 1856.33 1146 1857 1146.45 1857 1147 1857 1147.55 1856.33 1148 1855.5 1148 1854.67 1148 1854 1147.55 1854 1147Z" stroke="#000000" stroke-width="10.3125" stroke-miterlimit="8" fill="none" fill-rule="evenodd"/><path d="M1838 1131C1838 1130.45 1838.45 1130 1839 1130 1839.55 1130 1840 1130.45 1840 1131 1840 1131.55 1839.55 1132 1839 1132 1838.45 1132 1838 1131.55 1838 1131Z" stroke="#000000" stroke-width="10.3125" stroke-miterlimit="8" fill="none" fill-rule="evenodd"/><path d="M1838 1114.5C1838 1113.67 1838.45 1113 1839 1113 1839.55 1113 1840 1113.67 1840 1114.5 1840 1115.33 1839.55 1116 1839 1116 1838.45 1116 1838 1115.33 1838 1114.5Z" stroke="#000000" stroke-width="10.3125" stroke-miterlimit="8" fill="none" fill-rule="evenodd"/><path d="M1838 1098C1838 1097.45 1838.45 1097 1839 1097 1839.55 1097 1840 1097.45 1840 1098 1840 1098.55 1839.55 1099 1839 1099 1838.45 1099 1838 1098.55 1838 1098Z" stroke="#000000" stroke-width="10.3125" stroke-miterlimit="8" fill="none" fill-rule="evenodd"/><path d="M1838 1033C1838 1032.45 1838.45 1032 1839 1032 1839.55 1032 1840 1032.45 1840 1033 1840 1033.55 1839.55 1034 1839 1034 1838.45 1034 1838 1033.55 1838 1033Z" stroke="#000000" stroke-width="10.3125" stroke-miterlimit="8" fill="none" fill-rule="evenodd"/><path d="M1838 1016.5C1838 1015.67 1838.45 1015 1839 1015 1839.55 1015 1840 1015.67 1840 1016.5 1840 1017.33 1839.55 1018 1839 1018 1838.45 1018 1838 1017.33 1838 1016.5Z" stroke="#000000" stroke-width="10.3125" stroke-miterlimit="8" fill="none" fill-rule="evenodd"/><path d="M1838 1000.5C1838 999.672 1838.45 999 1839 999 1839.55 999 1840 999.672 1840 1000.5 1840 1001.33 1839.55 1002 1839 1002 1838.45 1002 1838 1001.33 1838 1000.5Z" stroke="#000000" stroke-width="10.3125" stroke-miterlimit="8" fill="none" fill-rule="evenodd"/><path d="M1838 984C1838 983.448 1838.45 983 1839 983 1839.55 983 1840 983.448 1840 984 1840 984.552 1839.55 985 1839 985 1838.45 985 1838 984.552 1838 984Z" stroke="#000000" stroke-width="10.3125" stroke-miterlimit="8" fill="none" fill-rule="evenodd"/><path d="M1856 984C1856 983.448 1856.45 983 1857 983 1857.55 983 1858 983.448 1858 984 1858 984.552 1857.55 985 1857 985 1856.45 985 1856 984.552 1856 984Z" stroke="#000000" stroke-width="10.3125" stroke-miterlimit="8" fill="none" fill-rule="evenodd"/><path d="M1873 984C1873 983.448 1873.67 983 1874.5 983 1875.33 983 1876 983.448 1876 984 1876 984.552 1875.33 985 1874.5 985 1873.67 985 1873 984.552 1873 984Z" stroke="#000000" stroke-width="10.3125" stroke-miterlimit="8" fill="none" fill-rule="evenodd"/><path d="M1923 984C1923 983.448 1923.45 983 1924 983 1924.55 983 1925 983.448 1925 984 1925 984.552 1924.55 985 1924 985 1923.45 985 1923 984.552 1923 984Z" stroke="#000000" stroke-width="10.3125" stroke-miterlimit="8" fill="none" fill-rule="evenodd"/><path d="M1939 984C1939 983.448 1939.67 983 1940.5 983 1941.33 983 1942 983.448 1942 984 1942 984.552 1941.33 985 1940.5 985 1939.67 985 1939 984.552 1939 984Z" stroke="#000000" stroke-width="10.3125" stroke-miterlimit="8" fill="none" fill-rule="evenodd"/><path d="M1956 984C1956 983.448 1956.45 983 1957 983 1957.55 983 1958 983.448 1958 984 1958 984.552 1957.55 985 1957 985 1956.45 985 1956 984.552 1956 984Z" stroke="#000000" stroke-width="10.3125" stroke-miterlimit="8" fill="none" fill-rule="evenodd"/><path d="M1972 984C1972 983.448 1972.67 983 1973.5 983 1974.33 983 1975 983.448 1975 984 1975 984.552 1974.33 985 1973.5 985 1972.67 985 1972 984.552 1972 984Z" stroke="#000000" stroke-width="10.3125" stroke-miterlimit="8" fill="none" fill-rule="evenodd"/><path d="M1989 984C1989 983.448 1989.45 983 1990 983 1990.55 983 1991 983.448 1991 984 1991 984.552 1990.55 985 1990 985 1989.45 985 1989 984.552 1989 984Z" stroke="#000000" stroke-width="10.3125" stroke-miterlimit="8" fill="none" fill-rule="evenodd"/><path d="M2041 984C2041 983.448 2041.67 983 2042.5 983 2043.33 983 2044 983.448 2044 984 2044 984.552 2043.33 985 2042.5 985 2041.67 985 2041 984.552 2041 984Z" stroke="#000000" stroke-width="10.3125" stroke-miterlimit="8" fill="none" fill-rule="evenodd"/><path d="M2057 984C2057 983.448 2057.45 983 2058 983 2058.55 983 2059 983.448 2059 984 2059 984.552 2058.55 985 2058 985 2057.45 985 2057 984.552 2057 984Z" stroke="#000000" stroke-width="10.3125" stroke-miterlimit="8" fill="none" fill-rule="evenodd"/><path d="M2073 984C2073 983.448 2073.45 983 2074 983 2074.55 983 2075 983.448 2075 984 2075 984.552 2074.55 985 2074 985 2073.45 985 2073 984.552 2073 984Z" stroke="#000000" stroke-width="10.3125" stroke-miterlimit="8" fill="none" fill-rule="evenodd"/><path d="M2073 1033.5C2073 1032.67 2073.45 1032 2074 1032 2074.55 1032 2075 1032.67 2075 1033.5 2075 1034.33 2074.55 1035 2074 1035 2073.45 1035 2073 1034.33 2073 1033.5Z" stroke="#000000" stroke-width="10.3125" stroke-miterlimit="8" fill="none" fill-rule="evenodd"/><path d="M2073 1017.5C2073 1016.67 2073.45 1016 2074 1016 2074.55 1016 2075 1016.67 2075 1017.5 2075 1018.33 2074.55 1019 2074 1019 2073.45 1019 2073 1018.33 2073 1017.5Z" stroke="#000000" stroke-width="10.3125" stroke-miterlimit="8" fill="none" fill-rule="evenodd"/><path d="M2073 1001C2073 1000.45 2073.45 1000 2074 1000 2074.55 1000 2075 1000.45 2075 1001 2075 1001.55 2074.55 1002 2074 1002 2073.45 1002 2073 1001.55 2073 1001Z" stroke="#000000" stroke-width="10.3125" stroke-miterlimit="8" fill="none" fill-rule="evenodd"/></g></svg>