<svg version="1.2" baseProfile="tiny" viewBox="0 0 18 18" xmlns:xlink="http://www.w3.org/1999/xlink" xmlns="http://www.w3.org/2000/svg">
<path style="fill:#ffffff;" d="M9.00016,14.98386a.491.491,0,0,1-.49092-.49092V3.85607a.49092.49092,0,1,1,.98184,0V14.49294A.491.491,0,0,1,9.00016,14.98386Z   M9.00016,17.99712a.48931.48931,0,0,1-.34709-.14382L.14382,9.34438a.49075.49075,0,0,1,0-.69419L8.65307.141a.50529.50529,0,0,1,.69418,0l8.50893,8.50924a.49075.49075,0,0,1,0,.69419L9.34725,17.8533A.48931.48931,0,0,1,9.00016,17.99712Zm-7.815-8.99984L9.00016,16.812l7.81473-7.81474-7.81473-7.815Z"/>
</svg>