<svg width="78" height="67" xmlns="http://www.w3.org/2000/svg" xmlns:xlink="http://www.w3.org/1999/xlink" xml:space="preserve" overflow="hidden"><defs><clipPath id="clip0"><rect x="462" y="61" width="78" height="67"/></clipPath></defs><g clip-path="url(#clip0)" transform="translate(-462 -61)"><path d="M64.7787 50.1745 2.72466 50.1745 2.72466 47.4499 68.9747 47.4499C69.7271 47.4499 70.337 46.84 70.337 46.0876 70.337 45.3351 69.7271 44.7252 68.9747 44.7252L2.72466 44.7252 2.72466 2.72466 75.2141 2.72466 75.2141 16.021C75.2141 16.7734 75.824 17.3833 76.5764 17.3833 77.3289 17.3833 77.9388 16.7734 77.9388 16.021L77.9388 0 0 0 0 52.8992 32.1646 52.8992 32.1646 64.2474 16.9065 64.2474C16.1541 64.2474 15.5442 64.8573 15.5442 65.6097 15.5442 66.3621 16.1541 66.972 16.9065 66.972L61.0323 66.972C61.7847 66.972 62.3946 66.3621 62.3946 65.6097 62.3946 64.8573 61.7847 64.2474 61.0323 64.2474L45.7742 64.2474 45.7742 52.8992 64.7787 52.8992C65.5311 52.8992 66.141 52.2893 66.141 51.5369 66.141 50.7844 65.5311 50.1745 64.7787 50.1745ZM34.8892 64.2474 34.8892 53.3488 43.0632 53.3488 43.0632 64.2474Z" stroke="#000000" stroke-width="1.36233" fill="#231F20" transform="matrix(1.00079 0 0 1 462 61.014)"/><path d="M76.5764 20.2987C75.824 20.2987 75.2141 20.9086 75.2141 21.661L75.2141 43.1722C75.2164 43.8373 74.9513 44.4754 74.4785 44.9432L69.3016 50.12C68.7734 50.6513 68.7734 51.5096 69.3016 52.0409 69.8329 52.5691 70.6912 52.5691 71.2225 52.0409L76.3993 46.8641C77.3877 45.8903 77.9426 44.5597 77.9388 43.1722L77.9388 21.661C77.9388 20.9086 77.3289 20.2987 76.5764 20.2987Z" stroke="#000000" stroke-width="1.36233" fill="#231F20" transform="matrix(1.00079 0 0 1 462 61.014)"/><path d="M44.4119 9.64528C45.0891 9.64528 45.638 9.09634 45.638 8.41919 45.638 7.74203 45.0891 7.19309 44.4119 7.19309L7.20671 7.19309C6.52956 7.19309 5.98062 7.74203 5.98062 8.41919 5.98062 9.09634 6.52956 9.64528 7.20671 9.64528L20.1897 9.64528 16.6885 15.1627C13.6564 15.3395 11.3417 17.9409 11.5185 20.973 11.6953 24.0052 14.2967 26.3199 17.3288 26.1431 17.756 26.1375 18.1811 26.0826 18.5958 25.9796L23.7454 30.8022C23.2081 31.6602 22.9202 32.6508 22.9144 33.6631 22.9144 36.6726 25.3541 39.1124 28.3637 39.1124 29.0409 39.1124 29.5898 38.5635 29.5898 37.8863 29.5909 37.5605 29.4636 37.2473 29.2356 37.0144 29.0012 36.7888 28.689 36.662 28.3637 36.6602 26.7011 36.6829 25.3349 35.3532 25.3123 33.6906 25.2898 32.0279 26.6193 30.6619 28.2819 30.6393 29.9446 30.6168 31.3108 31.9463 31.3333 33.6089 31.3335 33.627 31.3337 33.645 31.3335 33.6631 31.3325 33.989 31.4597 34.3022 31.6877 34.535 31.92 34.7657 32.2324 34.8974 32.5596 34.9028 33.2368 34.9028 33.7857 34.354 33.7859 33.6769 33.7859 33.6722 33.7857 33.6678 33.7857 33.6631 33.7857 30.6536 31.3459 28.2138 28.3364 28.2138 27.34 28.2148 26.3636 28.4931 25.5164 29.0176L21.7972 23.7999C22.4638 22.8708 22.8213 21.7556 22.819 20.612 22.8219 19.8811 22.6734 19.1576 22.383 18.4868L32.6959 9.64528ZM20.4349 20.612C20.4306 20.932 20.3754 21.2493 20.2714 21.552 19.7649 23.1594 18.0511 24.0519 16.4437 23.5454 16.0004 23.4056 15.5948 23.1665 15.2581 22.8462L15.1627 22.7509C13.9814 21.5383 14.0069 19.5976 15.2195 18.4164 15.7913 17.8593 16.5579 17.5473 17.3561 17.5468 17.982 17.5678 18.5902 17.7611 19.1135 18.1053 19.8441 18.5984 20.3259 19.3832 20.4349 20.2578 20.4416 20.3758 20.4416 20.494 20.4349 20.612ZM21.0071 16.525C20.535 16.1034 19.9965 15.7627 19.4132 15.5169L23.1596 9.64528 28.9631 9.64528Z" stroke="#000000" stroke-width="1.36233" fill="#231F20" transform="matrix(1.00079 0 0 1 462 61.014)"/><path d="M48.8667 8.41919 48.8667 39.0579C48.8667 39.8104 49.4766 40.4203 50.229 40.4203 50.9814 40.4203 51.5914 39.8104 51.5914 39.0579L51.5914 8.41919C51.5914 7.6668 50.9814 7.05686 50.229 7.05686 49.4766 7.05686 48.8667 7.6668 48.8667 8.41919Z" stroke="#000000" stroke-width="1.36233" fill="#231F20" transform="matrix(1.00079 0 0 1 462 61.014)"/><path d="M70.2552 11.7569 56.632 11.7569C55.9511 11.8286 55.4571 12.4387 55.5289 13.1196 55.5901 13.7016 56.05 14.1614 56.632 14.2227L70.2552 14.2227C70.9361 14.2944 71.5463 13.8005 71.618 13.1196 71.6896 12.4387 71.1957 11.8286 70.5148 11.7569 70.4285 11.7478 70.3415 11.7478 70.2552 11.7569Z" stroke="#000000" stroke-width="1.36233" fill="#231F20" transform="matrix(1.00079 0 0 1 462 61.014)"/><path d="M70.2552 17.1108 56.632 17.1108C55.9548 17.1108 55.4059 17.6597 55.4059 18.3369 55.4059 19.0141 55.9548 19.563 56.632 19.563L70.2552 19.563C70.9325 19.563 71.4813 19.0141 71.4813 18.3369 71.4813 17.6597 70.9325 17.1108 70.2552 17.1108Z" stroke="#000000" stroke-width="1.36233" fill="#231F20" transform="matrix(1.00079 0 0 1 462 61.014)"/><path d="M70.2552 22.4512 56.632 22.4512C55.9511 22.5228 55.4571 23.1329 55.5289 23.8139 55.5901 24.3959 56.05 24.8557 56.632 24.917L70.2552 24.917C70.9361 24.9886 71.5463 24.4948 71.618 23.8139 71.6896 23.1329 71.1957 22.5228 70.5148 22.4512 70.4285 22.442 70.3415 22.442 70.2552 22.4512Z" stroke="#000000" stroke-width="1.36233" fill="#231F20" transform="matrix(1.00079 0 0 1 462 61.014)"/><path d="M70.2552 27.8051 56.632 27.8051C55.9548 27.8051 55.4059 28.354 55.4059 29.0312 55.4059 29.7084 55.9548 30.2573 56.632 30.2573L70.2552 30.2573C70.9325 30.2573 71.4813 29.7084 71.4813 29.0312 71.4813 28.354 70.9325 27.8051 70.2552 27.8051Z" stroke="#000000" stroke-width="1.36233" fill="#231F20" transform="matrix(1.00079 0 0 1 462 61.014)"/><path d="M70.2552 33.1454 56.632 33.1454C55.9511 33.2171 55.4571 33.8271 55.5289 34.5082 55.5901 35.0902 56.05 35.5499 56.632 35.6112L70.2552 35.6112C70.9361 35.6829 71.5463 35.1891 71.618 34.5082 71.6896 33.8271 71.1957 33.2171 70.5148 33.1454 70.4285 33.1363 70.3415 33.1363 70.2552 33.1454Z" stroke="#000000" stroke-width="1.36233" fill="#231F20" transform="matrix(1.00079 0 0 1 462 61.014)"/></g></svg>