<svg version="1.2" baseProfile="tiny" viewBox="0 0 16 16" xmlns:xlink="http://www.w3.org/1999/xlink" xmlns="http://www.w3.org/2000/svg">
<path style="fill:#ffffff;" d="M15.897,14.625L8.43901,0.862986C8.19801,0.384986,7.80101,0.384986,7.55901,0.862986L0.103009,14.625C-0.138991,15.103,0.0590093,15.496,0.543009,15.496H15.455C15.941,15.496,16.139,15.103,15.897,14.625ZM8.06501,11.341C7.76501,11.341,7.52301,11.098,7.52301,10.799V5.07199C7.52301,4.77199,7.76601,4.52999,8.06501,4.52999C8.36501,4.52999,8.60701,4.77299,8.60701,5.07199V10.798C8.60701,11.098,8.36401,11.341,8.06501,11.341ZM7.71501,12.67C8.09501,12.495,8.54801,12.661,8.72301,13.041C8.89901,13.42,8.73401,13.872,8.35401,14.048C7.97501,14.224,7.52201,14.059,7.34601,13.679C7.17101,13.298,7.33601,12.847,7.71501,12.67Z"/>
</svg>