<?xml version="1.0" standalone="no"?>
<!DOCTYPE svg PUBLIC "-//W3C//DTD SVG 20010904//EN"
 "http://www.w3.org/TR/2001/REC-SVG-20010904/DTD/svg10.dtd">
<svg version="1.0" xmlns="http://www.w3.org/2000/svg"
 width="408.000000pt" height="369.000000pt" viewBox="0 0 408.000000 369.000000"
 preserveAspectRatio="xMidYMid meet">

<g transform="translate(0.000000,369.000000) scale(0.100000,-0.100000)"
fill="#000000" stroke="none">
<path d="M550 3360 l0 -130 59 0 c44 0 65 5 85 21 25 19 26 25 26 108 0 79 -2
90 -23 109 -19 18 -35 22 -85 22 l-62 0 0 -130z m115 100 c25 -10 26 -11 23
-102 l-3 -93 -52 -3 -53 -3 0 105 0 106 29 0 c16 0 41 -4 56 -10z"/>
<path d="M904 3479 c-8 -14 11 -33 25 -25 6 4 11 14 11 22 0 16 -26 19 -36 3z"/>
<path d="M1752 3473 c4 -21 33 -25 33 -3 0 8 -8 16 -18 18 -14 3 -18 -1 -15
-15z"/>
<path d="M2220 3360 c0 -109 2 -130 15 -130 13 0 15 21 15 130 0 109 -2 130
-15 130 -13 0 -15 -21 -15 -130z"/>
<path d="M2620 3447 l0 -45 -30 11 c-25 10 -34 8 -57 -9 -23 -18 -29 -30 -31
-73 -4 -69 16 -101 61 -101 18 0 38 5 45 12 9 9 12 9 12 0 0 -7 7 -12 15 -12
13 0 15 18 13 127 -2 90 -7 128 -15 131 -9 2 -13 -10 -13 -41z m-10 -76 c25
-47 3 -121 -35 -121 -39 0 -64 97 -33 128 18 18 56 14 68 -7z"/>
<path d="M777 3413 c-4 -3 -7 -46 -7 -95 0 -72 3 -88 15 -88 12 0 15 13 15 61
0 73 12 99 45 99 16 0 25 6 25 15 0 20 -34 19 -54 -1 -15 -14 -16 -14 -16 0 0
17 -12 21 -23 9z"/>
<path d="M910 3325 c0 -78 3 -95 15 -95 12 0 15 17 15 95 0 78 -3 95 -15 95
-12 0 -15 -17 -15 -95z"/>
<path d="M980 3412 c0 -4 13 -46 28 -92 38 -114 52 -115 87 -8 16 46 30 89 33
96 2 6 -3 12 -12 12 -11 0 -23 -23 -39 -77 l-23 -76 -23 76 c-14 49 -28 77
-37 77 -8 0 -14 -4 -14 -8z"/>
<path d="M1189 3401 c-20 -16 -24 -28 -23 -75 0 -69 21 -96 74 -96 41 0 77 21
66 39 -5 8 -13 7 -29 -4 -28 -19 -52 -19 -71 1 -32 31 -20 43 47 46 l62 3 -3
35 c-4 64 -73 92 -123 51z m79 -17 c39 -27 28 -44 -28 -44 -54 0 -61 9 -30 40
24 24 29 24 58 4z"/>
<path d="M1367 3413 c-4 -3 -7 -46 -7 -95 0 -72 3 -88 15 -88 12 0 15 13 15
61 0 73 12 99 45 99 16 0 25 6 25 15 0 20 -34 19 -54 -1 -15 -14 -16 -14 -16
0 0 17 -12 21 -23 9z"/>
<path d="M1508 3408 c-16 -13 -22 -29 -19 -56 0 -7 22 -23 49 -34 53 -24 65
-37 50 -55 -16 -19 -45 -16 -69 8 -14 14 -24 18 -31 11 -17 -17 27 -52 65 -52
36 0 61 15 71 43 7 22 -34 67 -63 67 -30 0 -55 29 -40 46 16 20 46 17 66 -6
22 -25 33 -25 33 0 0 36 -77 55 -112 28z"/>
<path d="M1750 3325 c0 -78 3 -95 15 -95 12 0 15 17 15 95 0 78 -3 95 -15 95
-12 0 -15 -17 -15 -95z"/>
<path d="M1840 3325 c0 -78 3 -95 15 -95 12 0 15 15 15 75 0 69 2 76 23 84 44
17 57 -2 57 -84 0 -60 3 -75 15 -75 24 0 21 151 -3 173 -21 19 -63 22 -79 6
-8 -8 -13 -8 -17 0 -18 29 -26 3 -26 -84z"/>
<path d="M2056 3399 c-22 -18 -26 -28 -26 -75 0 -66 22 -94 75 -94 34 0 75 27
75 50 0 17 -21 11 -40 -12 -15 -19 -22 -21 -46 -13 -26 9 -29 15 -32 64 -5 78
32 107 78 61 21 -21 40 -26 40 -10 0 18 -44 50 -71 50 -14 0 -38 -9 -53 -21z"/>
<path d="M2310 3342 c0 -64 4 -82 18 -95 21 -19 63 -22 79 -6 8 8 13 8 17 0
18 -29 26 -3 26 84 0 77 -3 95 -15 95 -11 0 -15 -17 -17 -76 -3 -68 -5 -78
-25 -85 -39 -14 -57 11 -61 90 -6 96 -22 90 -22 -7z"/>
<path d="M2722 3397 c-17 -18 -22 -36 -22 -73 0 -62 25 -94 73 -94 39 0 84 27
68 43 -6 6 -15 4 -26 -7 -29 -28 -85 -12 -85 24 0 18 7 20 60 20 l60 0 0 33
c0 68 -83 103 -128 54z m72 -7 c16 -6 26 -17 26 -30 0 -17 -6 -20 -45 -20 -38
0 -45 3 -45 20 0 10 8 24 18 29 21 13 16 13 46 1z"/>
<path d="M2914 3389 c-3 -6 -2 -15 4 -21 13 -13 32 -2 32 18 0 16 -26 19 -36
3z"/>
<path d="M2915 3271 c-8 -15 3 -31 21 -31 9 0 14 7 12 17 -4 20 -24 28 -33 14z"/>
<path d="M2425 3048 c-48 -28 -57 -70 -24 -112 15 -19 30 -26 54 -26 24 0 39
7 54 26 27 34 26 57 -1 88 -28 30 -57 39 -83 24z m67 -25 c24 -21 23 -58 -2
-83 -24 -24 -38 -25 -68 -4 -30 20 -30 68 0 88 29 20 47 20 70 -1z"/>
<path d="M2437 3013 c-10 -10 -8 -63 2 -63 5 0 12 8 14 18 4 16 5 16 6 0 2
-29 16 -21 18 9 1 33 -22 54 -40 36z"/>
<path d="M1170 2920 c0 -109 2 -130 15 -130 12 0 15 18 15 103 l0 102 31 -47
c17 -26 36 -45 41 -42 6 4 23 27 39 52 l29 46 0 -107 c0 -88 3 -107 15 -107
13 0 15 21 15 130 0 151 -9 162 -62 80 -18 -27 -36 -50 -39 -50 -4 0 -21 23
-39 50 -52 81 -60 70 -60 -80z"/>
<path d="M1740 3007 l0 -45 -30 11 c-25 10 -34 8 -57 -9 -23 -18 -29 -30 -31
-73 -4 -69 16 -101 61 -101 18 0 38 5 45 12 9 9 12 9 12 0 0 -7 7 -12 15 -12
13 0 15 18 13 127 -2 90 -7 128 -15 131 -9 2 -13 -10 -13 -41z m-10 -76 c25
-47 3 -121 -35 -121 -39 0 -64 97 -33 128 18 18 56 14 68 -7z"/>
<path d="M1830 2922 l0 -128 55 -2 c48 -1 57 2 76 26 28 36 23 117 -11 144
-26 21 -61 23 -78 6 -9 -9 -12 -2 -12 35 0 35 -4 47 -15 47 -13 0 -15 -21 -15
-128z m110 7 c15 -27 12 -72 -6 -97 -31 -45 -74 -15 -74 51 0 46 7 61 30 69
21 7 39 -1 50 -23z"/>
<path d="M1446 2959 c-22 -17 -26 -28 -26 -73 0 -42 5 -57 23 -74 29 -28 67
-28 101 -1 22 17 26 28 26 73 0 42 -5 57 -23 74 -29 28 -67 28 -101 1z m86
-23 c4 -6 8 -32 8 -58 0 -56 -21 -75 -64 -58 -24 9 -26 15 -26 64 0 42 4 57
18 65 19 11 53 4 64 -13z"/>
<path d="M2030 2902 c0 -64 4 -82 18 -95 21 -19 63 -22 79 -6 8 8 13 8 17 0
18 -29 26 -3 26 84 0 77 -3 95 -15 95 -11 0 -15 -17 -17 -76 -3 -68 -5 -78
-25 -85 -39 -14 -57 11 -61 90 -6 96 -22 90 -22 -7z"/>
<path d="M2238 2968 c-16 -13 -22 -29 -19 -56 0 -7 22 -23 49 -34 53 -24 65
-37 50 -55 -16 -19 -45 -16 -69 8 -14 14 -24 18 -31 11 -17 -17 27 -52 65 -52
36 0 61 15 71 43 7 22 -34 67 -63 67 -30 0 -55 29 -40 46 16 20 46 17 66 -6
22 -25 33 -25 33 0 0 36 -77 55 -112 28z"/>
<path d="M544 2939 c-20 -22 -13 -43 19 -63 19 -12 43 -1 61 27 12 19 -17 57
-44 57 -9 0 -25 -9 -36 -21z"/>
<path d="M2570 2613 c-51 -19 -68 -85 -30 -123 61 -61 159 32 103 98 -20 23
-50 33 -73 25z m45 -19 c38 -15 37 -94 -2 -108 -26 -10 -64 6 -74 31 -13 34
-12 40 11 63 21 21 37 24 65 14z"/>
<path d="M2571 2543 c1 -21 3 -30 6 -20 5 18 5 18 19 0 13 -16 14 -15 12 17
-2 24 -8 36 -20 38 -15 3 -18 -3 -17 -35z"/>
<path d="M1182 2594 c-28 -19 -29 -64 -2 -89 10 -9 42 -28 70 -41 41 -19 50
-28 50 -49 0 -53 -92 -59 -115 -7 -11 24 -35 30 -35 8 0 -7 9 -25 21 -40 17
-22 28 -26 70 -26 36 0 54 5 69 20 43 43 14 93 -78 134 -36 16 -42 24 -40 44
2 14 11 30 20 36 23 14 70 -3 83 -32 5 -12 15 -22 22 -22 21 0 15 35 -10 58
-28 26 -92 30 -125 6z"/>
<path d="M1374 2599 c-8 -14 11 -33 25 -25 6 4 11 14 11 22 0 16 -26 19 -36 3z"/>
<path d="M1380 2445 c0 -78 3 -95 15 -95 12 0 15 17 15 95 0 78 -3 95 -15 95
-12 0 -15 -17 -15 -95z"/>
<path d="M1482 2517 c-17 -18 -22 -36 -22 -73 0 -62 25 -94 73 -94 39 0 84 27
68 43 -6 6 -15 4 -26 -7 -29 -28 -85 -12 -85 24 0 18 7 20 60 20 l60 0 0 33
c0 68 -83 103 -128 54z m72 -7 c16 -6 26 -17 26 -30 0 -17 -6 -20 -45 -20 -38
0 -45 3 -45 20 0 10 8 24 18 29 21 13 16 13 46 1z"/>
<path d="M1660 2443 c0 -76 3 -93 15 -93 12 0 15 15 15 75 0 64 3 76 20 85 14
8 26 8 40 0 17 -9 20 -21 20 -85 0 -60 3 -75 15 -75 12 0 15 15 15 75 0 64 3
76 20 85 14 8 26 8 40 0 17 -9 20 -21 20 -85 0 -60 3 -75 15 -75 22 0 21 137
-1 168 -16 24 -53 29 -85 11 -14 -7 -24 -7 -33 0 -7 6 -36 9 -64 8 l-52 -2 0
-92z"/>
<path d="M1982 2517 c-17 -18 -22 -36 -22 -73 0 -62 25 -94 73 -94 39 0 84 27
68 43 -6 6 -15 4 -26 -7 -29 -28 -85 -12 -85 24 0 18 7 20 60 20 l60 0 0 33
c0 68 -83 103 -128 54z m72 -7 c16 -6 26 -17 26 -30 0 -17 -6 -20 -45 -20 -38
0 -45 3 -45 20 0 10 8 24 18 29 21 13 16 13 46 1z"/>
<path d="M2160 2445 c0 -78 3 -95 15 -95 12 0 15 15 15 75 0 69 2 76 23 84 44
17 57 -2 57 -84 0 -60 3 -75 15 -75 24 0 21 151 -3 173 -21 19 -63 22 -79 6
-8 -8 -13 -8 -17 0 -18 29 -26 3 -26 -84z"/>
<path d="M2368 2528 c-16 -13 -22 -29 -19 -56 0 -7 22 -23 49 -34 53 -24 65
-37 50 -55 -16 -19 -45 -16 -69 8 -14 14 -24 18 -31 11 -17 -17 27 -52 65 -52
36 0 61 15 71 43 7 22 -34 67 -63 67 -30 0 -55 29 -40 46 16 20 46 17 66 -6
22 -25 33 -25 33 0 0 36 -77 55 -112 28z"/>
<path d="M544 2499 c-20 -22 -13 -43 19 -63 19 -12 43 -1 61 27 12 19 -17 57
-44 57 -9 0 -25 -9 -36 -21z"/>
<path d="M2805 2168 c-48 -28 -57 -70 -24 -112 15 -19 30 -26 54 -26 24 0 39
7 54 26 27 34 26 57 -1 88 -28 30 -57 39 -83 24z m67 -25 c24 -21 23 -58 -2
-83 -24 -24 -38 -25 -68 -4 -42 29 -16 104 37 104 8 0 23 -7 33 -17z"/>
<path d="M2817 2133 c-10 -10 -8 -63 2 -63 5 0 12 8 14 18 4 16 5 16 6 0 2
-29 16 -21 18 9 1 33 -22 54 -40 36z"/>
<path d="M1170 2040 c0 -109 2 -130 15 -130 12 0 15 18 15 103 l0 102 31 -47
c17 -26 36 -45 41 -42 6 4 23 27 39 52 l29 46 0 -107 c0 -88 3 -107 15 -107
13 0 15 21 15 130 0 151 -9 162 -62 80 -18 -27 -36 -50 -39 -50 -4 0 -21 23
-39 50 -52 81 -60 70 -60 -80z"/>
<path d="M1424 2159 c-3 -6 -2 -15 4 -21 13 -13 32 -2 32 18 0 16 -26 19 -36
3z"/>
<path d="M2020 2042 l0 -128 55 -2 c75 -2 95 18 95 93 0 42 -5 60 -20 75 -22
22 -69 27 -88 8 -9 -9 -12 -2 -12 35 0 35 -4 47 -15 47 -13 0 -15 -21 -15
-128z m112 14 c14 -20 9 -103 -7 -116 -37 -31 -82 25 -70 87 9 47 53 64 77 29z"/>
<path d="M2224 2159 c-3 -6 -2 -15 4 -21 13 -13 32 -2 32 18 0 16 -26 19 -36
3z"/>
<path d="M2490 2040 c0 -109 2 -130 15 -130 12 0 15 14 15 69 0 60 3 72 21 85
22 15 48 11 61 -8 4 -6 8 -41 8 -78 0 -54 3 -68 15 -68 12 0 15 15 15 75 0 62
-4 79 -20 95 -22 22 -69 27 -88 8 -9 -9 -12 -2 -12 35 0 35 -4 47 -15 47 -13
0 -15 -21 -15 -130z"/>
<path d="M2684 2159 c-8 -14 11 -33 25 -25 6 4 11 14 11 22 0 16 -26 19 -36 3z"/>
<path d="M1530 2126 c0 -16 -6 -26 -15 -26 -8 0 -15 -5 -15 -10 0 -6 7 -13 15
-16 11 -5 15 -23 15 -73 0 -72 10 -91 47 -91 28 0 30 16 3 25 -17 5 -20 15
-20 71 0 57 2 64 20 64 11 0 20 7 20 15 0 8 -9 15 -19 15 -12 0 -21 8 -23 22
-5 32 -28 35 -28 4z"/>
<path d="M1430 2005 c0 -78 3 -95 15 -95 12 0 15 17 15 95 0 78 -3 95 -15 95
-12 0 -15 -17 -15 -95z"/>
<path d="M1657 2082 c-33 -37 -13 -69 56 -92 54 -17 48 -60 -9 -60 -8 0 -22 9
-31 20 -20 24 -33 26 -33 6 0 -41 93 -61 123 -28 33 37 10 74 -57 93 -53 15
-46 59 9 59 8 0 23 -9 34 -21 14 -15 21 -17 27 -8 11 18 -33 49 -71 49 -18 0
-39 -8 -48 -18z"/>
<path d="M1830 2022 c0 -64 4 -82 18 -95 21 -19 63 -22 79 -6 8 8 13 8 17 0
18 -29 26 -3 26 84 0 77 -3 95 -15 95 -11 0 -15 -17 -17 -76 -3 -68 -5 -78
-25 -85 -39 -14 -57 11 -61 90 -6 96 -22 90 -22 -7z"/>
<path d="M2230 2005 c0 -78 3 -95 15 -95 12 0 15 17 15 95 0 78 -3 95 -15 95
-12 0 -15 -17 -15 -95z"/>
<path d="M2328 2088 c-16 -13 -22 -29 -19 -56 0 -7 22 -23 49 -34 53 -24 65
-37 50 -55 -16 -19 -45 -16 -69 8 -14 14 -24 18 -31 11 -17 -17 27 -52 65 -52
36 0 61 15 71 43 7 22 -34 67 -63 67 -30 0 -55 29 -40 46 16 20 46 17 66 -6
22 -25 33 -25 33 0 0 36 -77 55 -112 28z"/>
<path d="M2690 2005 c0 -78 3 -95 15 -95 12 0 15 17 15 95 0 78 -3 95 -15 95
-12 0 -15 -17 -15 -95z"/>
<path d="M544 2059 c-20 -22 -13 -43 19 -63 19 -12 43 -1 61 27 12 19 -17 57
-44 57 -9 0 -25 -9 -36 -21z"/>
<path d="M1223 1733 c-44 -9 -63 -48 -63 -133 0 -70 2 -80 26 -104 37 -37 86
-35 125 3 27 27 29 35 29 105 0 64 -3 79 -22 100 -24 26 -58 37 -95 29z m67
-43 c16 -16 20 -33 20 -88 0 -82 -14 -105 -60 -105 -47 0 -60 23 -60 107 0 51
4 74 17 88 21 24 58 23 83 -2z"/>
<path d="M2260 1733 c-51 -19 -68 -85 -30 -123 61 -61 159 32 103 98 -20 23
-50 33 -73 25z m45 -19 c38 -15 37 -94 -2 -108 -26 -10 -64 6 -74 31 -13 34
-12 40 11 63 21 21 37 24 65 14z"/>
<path d="M2261 1663 c1 -21 3 -30 6 -20 5 18 5 18 19 0 13 -16 14 -15 12 17
-2 24 -8 36 -20 38 -15 3 -18 -3 -17 -35z"/>
<path d="M1397 1653 c-4 -3 -7 -46 -7 -95 0 -72 3 -88 15 -88 12 0 15 14 15
69 0 50 4 74 16 85 18 19 20 19 45 6 16 -9 19 -22 19 -85 0 -60 3 -75 15 -75
12 0 15 14 15 69 0 78 16 107 54 95 31 -9 30 -9 34 -90 5 -98 22 -95 22 4 0
64 -4 82 -18 95 -23 21 -66 22 -82 2 -12 -14 -15 -14 -30 0 -20 18 -61 20 -78
3 -9 -9 -12 -9 -12 0 0 13 -13 16 -23 5z"/>
<path d="M1697 1653 c-4 -3 -7 -46 -7 -95 0 -72 3 -88 15 -88 12 0 15 13 15
61 0 73 12 99 45 99 16 0 25 6 25 15 0 20 -34 19 -54 -1 -15 -14 -16 -14 -16
0 0 17 -12 21 -23 9z"/>
<path d="M1843 1634 c-22 -22 -25 -32 -20 -77 3 -37 11 -56 27 -69 32 -26 76
-23 107 8 22 22 25 32 20 77 -3 37 -11 56 -27 69 -32 26 -76 23 -107 -8z m85
-10 c29 -20 31 -85 2 -114 -24 -24 -29 -24 -58 -4 -29 20 -31 85 -2 114 24 24
29 24 58 4z"/>
<path d="M2030 1565 c0 -78 3 -95 15 -95 12 0 15 15 15 75 0 69 2 76 23 84 44
17 57 -2 57 -84 0 -60 3 -75 15 -75 24 0 21 151 -3 173 -21 19 -63 22 -79 6
-8 -8 -13 -8 -17 0 -18 29 -26 3 -26 -84z"/>
<path d="M544 1619 c-20 -22 -13 -43 19 -63 19 -12 43 -1 61 27 12 19 -17 57
-44 57 -9 0 -25 -9 -36 -21z"/>
<path d="M2460 1293 c-51 -19 -68 -85 -30 -123 61 -61 159 32 103 98 -20 23
-50 33 -73 25z m45 -19 c38 -15 37 -94 -2 -108 -26 -10 -64 6 -74 31 -13 34
-12 40 11 63 21 21 37 24 65 14z"/>
<path d="M2461 1223 c1 -21 3 -30 6 -20 5 18 5 18 19 0 13 -16 14 -15 12 17
-2 24 -8 36 -20 38 -15 3 -18 -3 -17 -35z"/>
<path d="M1170 1160 l0 -130 65 0 c52 0 69 4 85 20 24 24 26 67 4 91 -15 16
-15 20 0 41 22 32 20 55 -9 83 -20 21 -34 25 -85 25 l-60 0 0 -130z m135 67
c8 -24 6 -31 -10 -43 -10 -8 -36 -14 -57 -14 l-38 0 0 46 0 45 47 -3 c42 -3
49 -6 58 -31z m-4 -98 c15 -24 10 -58 -10 -69 -11 -5 -36 -10 -55 -10 l-36 0
0 51 0 52 46 -6 c26 -2 50 -11 55 -18z"/>
<path d="M1780 1160 c0 -80 4 -130 10 -130 6 0 10 15 10 33 0 22 8 41 23 55
l22 21 24 -55 c13 -30 30 -54 38 -54 8 0 13 6 10 13 -3 6 -16 35 -28 63 l-22
52 22 31 c34 47 2 40 -43 -9 -20 -22 -38 -40 -41 -40 -3 0 -5 34 -5 75 0 43
-4 75 -10 75 -6 0 -10 -50 -10 -130z"/>
<path d="M2180 1271 c-5 -11 -10 -27 -10 -35 0 -9 -7 -16 -15 -16 -19 0 -19
-17 0 -27 10 -6 15 -30 17 -82 2 -48 7 -76 16 -79 9 -3 12 17 12 76 0 75 2 81
22 84 32 5 35 28 4 28 -36 0 -36 37 -1 46 34 9 31 24 -5 24 -19 0 -33 -7 -40
-19z"/>
<path d="M2310 1271 c-5 -11 -10 -27 -10 -35 0 -9 -7 -16 -15 -16 -19 0 -19
-17 0 -27 10 -6 15 -30 17 -82 2 -48 7 -76 16 -79 9 -3 12 17 12 76 0 75 2 81
22 84 32 5 35 28 4 28 -36 0 -36 37 -1 46 34 9 31 24 -5 24 -19 0 -33 -7 -40
-19z"/>
<path d="M1412 1197 c-17 -18 -22 -36 -22 -73 0 -62 25 -94 73 -94 39 0 84 27
68 43 -6 6 -15 4 -26 -7 -29 -28 -85 -12 -85 24 0 18 7 20 60 20 l60 0 0 33
c0 68 -83 103 -128 54z m72 -7 c16 -6 26 -17 26 -30 0 -17 -6 -20 -45 -20 -38
0 -45 3 -45 20 0 10 8 24 18 29 21 13 16 13 46 1z"/>
<path d="M1606 1199 c-22 -18 -26 -28 -26 -75 0 -66 22 -94 75 -94 34 0 75 27
75 50 0 17 -21 11 -40 -12 -15 -19 -22 -21 -46 -13 -26 9 -29 15 -32 64 -5 78
32 107 78 61 21 -21 40 -26 40 -10 0 18 -44 50 -71 50 -14 0 -38 -9 -53 -21z"/>
<path d="M1973 1194 c-22 -22 -25 -32 -20 -77 3 -37 11 -56 27 -69 32 -26 76
-23 107 8 22 22 25 32 20 77 -3 37 -11 56 -27 69 -32 26 -76 23 -107 -8z m85
-10 c29 -20 31 -85 2 -114 -24 -24 -29 -24 -58 -4 -29 20 -31 85 -2 114 24 24
29 24 58 4z"/>
<path d="M544 1179 c-13 -15 -16 -24 -8 -36 26 -42 62 -42 88 0 12 19 -17 57
-44 57 -9 0 -25 -9 -36 -21z"/>
<path d="M1443 853 c-44 -9 -63 -48 -63 -133 0 -70 2 -80 26 -104 37 -37 86
-35 125 3 27 27 29 35 29 105 0 64 -3 79 -22 100 -24 26 -58 37 -95 29z m67
-43 c16 -16 20 -33 20 -88 0 -42 -5 -75 -14 -87 -18 -25 -74 -25 -92 0 -21 28
-19 153 3 177 21 24 58 23 83 -2z"/>
<path d="M2725 848 c-48 -28 -57 -70 -24 -112 15 -19 30 -26 54 -26 24 0 39 7
54 26 27 34 26 57 -1 88 -28 30 -57 39 -83 24z m67 -25 c24 -21 23 -58 -2 -83
-24 -24 -38 -25 -68 -4 -42 29 -16 104 37 104 8 0 23 -7 33 -17z"/>
<path d="M2737 813 c-10 -10 -8 -63 2 -63 5 0 12 8 14 18 4 16 5 16 6 0 2 -29
16 -21 18 9 1 33 -22 54 -40 36z"/>
<path d="M1185 825 c-22 -21 -25 -33 -25 -103 0 -100 19 -132 81 -132 52 0 74
13 87 50 14 38 -9 43 -26 5 -15 -32 -55 -42 -87 -21 -23 15 -25 22 -25 96 0
74 2 81 25 96 32 21 73 11 85 -21 8 -21 40 -37 40 -20 0 16 -31 63 -45 69 -37
14 -86 6 -110 -19z"/>
<path d="M1620 720 l0 -130 59 0 c44 0 65 5 85 21 25 19 26 25 26 108 0 79 -2
90 -23 109 -19 18 -35 22 -85 22 l-62 0 0 -130z m115 100 c25 -10 26 -11 23
-102 l-3 -93 -52 -3 -53 -3 0 105 0 106 29 0 c16 0 41 -4 56 -10z"/>
<path d="M1850 720 l0 -131 83 3 c99 4 110 22 15 26 l-68 3 0 44 0 45 50 0
c28 0 50 5 50 10 0 6 -22 10 -50 10 l-50 0 0 50 0 50 70 0 c40 0 70 4 70 10 0
6 -35 10 -85 10 l-85 0 0 -130z"/>
<path d="M2080 825 c-36 -38 -20 -73 48 -106 68 -33 86 -51 77 -78 -13 -43
-115 -35 -115 9 0 11 -7 20 -15 20 -22 0 -18 -37 6 -61 31 -31 115 -24 142 12
28 39 8 76 -60 109 -65 31 -77 43 -68 69 13 43 96 36 110 -8 8 -27 25 -27 25
-1 0 59 -104 84 -150 35z"/>
<path d="M2292 793 c17 -32 35 -62 40 -67 4 -6 8 -38 8 -73 0 -49 3 -63 15
-63 12 0 15 13 15 59 0 50 6 69 39 128 21 37 37 70 35 72 -10 11 -36 -14 -59
-59 -14 -27 -27 -50 -29 -50 -3 0 -19 25 -36 55 -17 30 -38 55 -46 55 -10 0
-6 -16 18 -57z"/>
<path d="M2502 834 c-28 -19 -29 -64 -2 -89 10 -9 42 -28 70 -41 41 -19 50
-28 50 -49 0 -53 -92 -59 -115 -7 -11 24 -35 30 -35 8 0 -7 9 -25 21 -40 17
-22 28 -26 70 -26 36 0 54 5 69 20 43 43 14 93 -78 134 -36 16 -42 24 -40 44
2 14 11 30 20 36 23 14 70 -3 83 -32 5 -12 15 -22 22 -22 21 0 15 35 -10 58
-28 26 -92 30 -125 6z"/>
<path d="M544 739 c-13 -15 -16 -24 -8 -36 26 -42 62 -42 88 0 12 19 -17 57
-44 57 -9 0 -25 -9 -36 -21z"/>
<path d="M1182 394 c-28 -19 -29 -64 -2 -89 10 -9 42 -28 70 -41 41 -19 50
-28 50 -49 0 -53 -92 -59 -115 -7 -11 24 -35 30 -35 8 0 -7 9 -25 21 -40 17
-22 28 -26 70 -26 36 0 54 5 69 20 43 43 14 93 -78 134 -36 16 -42 24 -40 44
2 14 11 30 20 36 23 14 70 -3 83 -32 5 -12 15 -22 22 -22 21 0 15 35 -10 58
-28 26 -92 30 -125 6z"/>
<path d="M1702 393 c2 -10 10 -18 18 -18 22 0 18 29 -3 33 -14 3 -18 -1 -15
-15z"/>
<path d="M1980 280 c0 -109 2 -130 15 -130 13 0 15 21 15 130 0 109 -2 130
-15 130 -13 0 -15 -21 -15 -130z"/>
<path d="M1392 317 c-17 -18 -22 -36 -22 -73 0 -62 25 -94 73 -94 39 0 84 27
68 43 -6 6 -15 4 -26 -7 -29 -28 -85 -12 -85 24 0 18 7 20 60 20 l60 0 0 33
c0 68 -83 103 -128 54z m72 -7 c16 -6 26 -17 26 -30 0 -17 -6 -20 -45 -20 -38
0 -45 3 -45 20 0 10 8 24 18 29 21 13 16 13 46 1z"/>
<path d="M1570 245 c0 -78 3 -95 15 -95 12 0 15 14 15 68 0 73 10 92 47 92 13
0 23 5 23 10 0 17 -31 24 -51 12 -11 -7 -20 -8 -24 -2 -17 28 -25 1 -25 -85z"/>
<path d="M1700 245 c0 -78 3 -95 15 -95 12 0 15 17 15 95 0 78 -3 95 -15 95
-12 0 -15 -17 -15 -95z"/>
<path d="M1807 322 c-21 -23 -21 -32 -2 -32 8 0 15 4 15 10 0 5 11 12 25 16
29 7 55 -10 55 -37 0 -15 -8 -19 -40 -19 -67 0 -103 -56 -62 -93 22 -20 73
-22 90 -5 9 9 12 9 12 0 0 -7 7 -12 15 -12 24 0 21 151 -3 173 -25 23 -85 22
-105 -1z m93 -107 c0 -29 -32 -49 -66 -41 -49 13 -23 66 33 66 28 0 33 -3 33
-25z"/>
<path d="M2166 319 c-22 -18 -26 -28 -26 -75 0 -66 22 -94 75 -94 34 0 75 27
75 50 0 17 -21 11 -40 -12 -15 -19 -22 -21 -46 -13 -26 9 -29 15 -32 64 -5 78
32 107 78 61 21 -21 40 -26 40 -10 0 18 -44 50 -71 50 -14 0 -38 -9 -53 -21z"/>
<path d="M2343 314 c-22 -22 -25 -32 -20 -77 3 -37 11 -56 27 -69 32 -26 76
-23 107 8 22 22 25 32 20 77 -3 37 -11 56 -27 69 -32 26 -76 23 -107 -8z m85
-10 c29 -20 31 -85 2 -114 -24 -24 -29 -24 -58 -4 -29 20 -31 85 -2 114 24 24
29 24 58 4z"/>
<path d="M2537 333 c-4 -3 -7 -46 -7 -95 0 -72 3 -88 15 -88 12 0 15 14 15 69
0 50 4 74 16 85 18 19 20 19 45 6 16 -9 19 -22 19 -85 0 -60 3 -75 15 -75 12
0 15 14 15 69 0 78 16 107 54 95 31 -9 30 -9 34 -90 5 -98 22 -95 22 4 0 64
-4 82 -18 95 -23 21 -66 22 -82 2 -12 -14 -15 -14 -30 0 -20 18 -61 20 -78 3
-9 -9 -12 -9 -12 0 0 13 -13 16 -23 5z"/>
<path d="M2837 333 c-4 -3 -7 -46 -7 -95 0 -72 3 -88 15 -88 12 0 15 14 15 69
0 50 4 74 16 85 18 19 20 19 45 6 16 -9 19 -22 19 -85 0 -60 3 -75 15 -75 12
0 15 14 15 69 0 78 16 107 54 95 31 -9 30 -9 34 -90 5 -98 22 -95 22 4 0 64
-4 82 -18 95 -23 21 -66 22 -82 2 -12 -14 -15 -14 -30 0 -20 18 -61 20 -78 3
-9 -9 -12 -9 -12 0 0 13 -13 16 -23 5z"/>
<path d="M3147 322 c-33 -37 -13 -69 56 -92 54 -17 48 -60 -9 -60 -8 0 -22 9
-31 20 -20 24 -33 26 -33 6 0 -41 93 -61 123 -28 33 37 10 74 -57 93 -53 15
-46 59 9 59 8 0 23 -9 34 -21 14 -15 21 -17 27 -8 11 18 -33 49 -71 49 -18 0
-39 -8 -48 -18z"/>
<path d="M544 299 c-13 -15 -16 -24 -8 -36 26 -42 62 -42 88 0 12 19 -17 57
-44 57 -9 0 -25 -9 -36 -21z"/>
</g>
</svg>
