<svg width="33" height="28" xmlns="http://www.w3.org/2000/svg" xmlns:xlink="http://www.w3.org/1999/xlink" xml:space="preserve" overflow="hidden"><defs><clipPath id="clip0"><rect x="1184" y="460" width="33" height="28"/></clipPath></defs><g clip-path="url(#clip0)" transform="translate(-1184 -460)"><path d="M0 0 0 22.1071 13.4419 22.1071 13.4419 26.8497 7.0654 26.8497C6.75096 26.8497 6.49607 27.1045 6.49607 27.419 6.49607 27.7334 6.75096 27.9883 7.0654 27.9883L25.506 27.9883C25.8205 27.9883 26.0754 27.7334 26.0754 27.419 26.0754 27.1045 25.8205 26.8497 25.506 26.8497L19.1295 26.8497 19.1295 22.1071 27.0717 22.1071C27.3861 22.1071 27.641 21.8522 27.641 21.5378 27.641 21.2234 27.3861 20.9685 27.0717 20.9685L1.13866 20.9685 1.13866 19.8298 28.8252 19.8298C29.1397 19.8298 29.3946 19.5749 29.3946 19.2605 29.3946 18.946 29.1397 18.6911 28.8252 18.6911L1.13866 18.6911 1.13866 1.13866 31.4328 1.13866 31.4328 6.69533C31.4328 7.00977 31.6877 7.26466 32.0021 7.26466 32.3165 7.26466 32.5714 7.00977 32.5714 6.69533L32.5714 0ZM14.5806 26.8497 14.5806 22.295 17.9966 22.295 17.9966 26.8497Z" fill="#FFFFFF" transform="matrix(1.01316 0 0 1 1184 460.006)"/><path d="M32.0021 8.48303C31.6877 8.48303 31.4328 8.73792 31.4328 9.05236L31.4328 18.0421C31.4337 18.32 31.3229 18.5867 31.1253 18.7822L28.9619 20.9457C28.7386 21.1671 28.7372 21.5276 28.9586 21.7508 28.9597 21.7519 28.9608 21.7531 28.9619 21.7541 29.1981 21.9374 29.5284 21.9374 29.7646 21.7541L31.9281 19.585C32.3411 19.178 32.573 18.622 32.5714 18.0421L32.5714 9.05236C32.5714 8.73792 32.3165 8.48303 32.0021 8.48303Z" fill="#FFFFFF" transform="matrix(1.01316 0 0 1 1184 460.006)"/></g></svg>